<?xml version="1.0" standalone="no"?>
<!DOCTYPE svg PUBLIC "-//W3C//DTD SVG 1.1//EN" "http://www.w3.org/Graphics/SVG/1.1/DTD/svg11.dtd" >
<svg>
<metadata>
Created by FontForge 20090622 at Mon Jul 30 18:21:50 2018
 By deploy user
Copyright 2009 The Cairo Project Authors (gaber@gaberism.net)
</metadata>
<defs>
<font id="Cairo-Regular" horiz-adv-x="1146" >
  <font-face 
    font-family="Cairo-Regular"
    font-weight="400"
    font-stretch="normal"
    units-per-em="2048"
    panose-1="0 0 5 0 0 0 0 0 0 0"
    ascent="1638"
    descent="-410"
    x-height="1024"
    cap-height="1417"
    bbox="-459 -954 3295 2427"
    underline-thickness="102"
    underline-position="-102"
    unicode-range="U+000D-U+FEFC"
  />
<missing-glyph horiz-adv-x="481" 
 />
    <glyph glyph-name="uniFDF2" unicode="&#x627;&#xfedf;&#xfee0;&#xfeea;" horiz-adv-x="2856" arabic-form="isolated" 
d="M592 141h264v748q-180 12 -278 12q-186 0 -262 -88t-76 -291q0 -141 33.5 -223t109.5 -120t209 -38zM2673 1470v-1470h-158v1470h158zM583.5 1044q210.5 0 430.5 -22v-881h428v1084h157v-1084h402v1329h158v-1470h-1594q-182 0 -286.5 51t-150.5 163t-46 303t44 306
t145.5 168t312 53zM1272 1477q0 63 4 100l74 16v-102q0 -71 53 -65q55 6 55 79v78l70 14v-88q0 -20 18.5 -34.5t40.5 -8.5l43 9v176l70 14q10 -59 10 -121v-131l-117 -22q-8 -2 -26 -2q-45 0 -66 34q-20 -74 -121 -73q-108 0 -108 127zM1544 1776l-106 -47v387l106 47v-387z
" />
    <glyph glyph-name="uniFEF5" unicode="&#xfedf;&#xfe82;" horiz-adv-x="1214" arabic-form="isolated" 
d="M1051 1470v-1470h-969v141h262v1053h158v-1053h393v1329h156zM530 1337q-41 0 -144 44t-130 44t-92 -59l-23 -18l-26 92q84 94 155 94q35 0 137.5 -44t126.5 -44t89 57l20 19l29 -92q-76 -93 -142 -93z" />
    <glyph glyph-name="uniFEF6" unicode="&#xfee0;&#xfe82;" horiz-adv-x="1232" arabic-form="final" 
d="M1233 141v-141h-1151v141h262v1053h158v-1053h393v1329h156v-1329h182zM530 1337q-41 0 -144 44t-130 44t-92 -59l-23 -18l-26 92q84 94 155 94q35 0 137.5 -44t126.5 -44t89 57l20 19l29 -92q-76 -93 -142 -93z" />
    <glyph glyph-name="uniFEF7" unicode="&#xfedf;&#xfe84;" horiz-adv-x="1214" arabic-form="isolated" 
d="M1051 1470v-1470h-969v141h262v1053h158v-1053h393v1329h156zM424 1614q-55 0 -89 -35t-34 -88t47 -88l234 61l22 -94l-418 -82l-18 66l98 26q-70 57 -69.5 139.5t53.5 136.5t138 54t149 -49l-21 -78q-37 31 -92 31z" />
    <glyph glyph-name="uniFEF8" unicode="&#xfee0;&#xfe84;" horiz-adv-x="1232" arabic-form="final" 
d="M1233 141v-141h-1151v141h262v1053h158v-1053h393v1329h156v-1329h182zM424 1614q-55 0 -89 -35t-34 -88t47 -88l234 61l22 -94l-418 -82l-18 66l98 26q-70 57 -69.5 139.5t53.5 136.5t138 54t149 -49l-21 -78q-37 31 -92 31z" />
    <glyph glyph-name="uniFEF9" unicode="&#xfedf;&#xfe88;" horiz-adv-x="1214" arabic-form="isolated" 
d="M1051 1470v-1470h-969v141h262v1053h158v-1053h393v1329h156zM328 -383q0 -53 47 -88l233 61l23 -94l-418 -82l-18 66l98 26q-70 57 -70 139.5t53.5 136.5t137.5 54q47 0 88 -16.5t61 -32.5l-20 -78q-37 31 -92 31t-89 -35t-34 -88z" />
    <glyph glyph-name="uniFEFA" unicode="&#xfee0;&#xfe88;" horiz-adv-x="1232" arabic-form="final" 
d="M1233 141v-141h-1151v141h262v1053h158v-1053h393v1329h156v-1329h182zM328 -383q0 -53 47 -88l233 61l23 -94l-418 -82l-18 66l98 26q-70 57 -70 139.5t53.5 136.5t137.5 54q47 0 88 -16.5t61 -32.5l-20 -78q-37 31 -92 31t-89 -35t-34 -88z" />
    <glyph glyph-name="uniFEFB" unicode="&#xfedf;&#xfe8e;" horiz-adv-x="1214" arabic-form="isolated" 
d="M1051 1470v-1470h-969v141h262v1053h158v-1053h393v1329h156z" />
    <glyph glyph-name="uniFEFC" unicode="&#xfee0;&#xfe8e;" horiz-adv-x="1232" arabic-form="final" 
d="M1233 141v-141h-1151v141h262v1053h158v-1053h393v1329h156v-1329h182z" />
    <glyph glyph-name="uni06440671" unicode="&#xfedf;&#xfb51;" horiz-adv-x="1214" 
d="M1051 1470v-1470h-969v141h262v1053h158v-1053h393v1329h156zM567 1407q0 145 -112 145q-66 0 -114 -38.5t-48 -106.5h274zM145 1407h93q0 53 29.5 103.5t82.5 83t121 32.5q172 0 172 -219v-84h-498v84z" />
    <glyph glyph-name="uni06440671.fina" unicode="&#xfee0;&#xfb51;" horiz-adv-x="1232" 
d="M1233 141v-141h-1151v141h262v1053h158v-1053h393v1329h156v-1329h182zM567 1407q0 145 -112 145q-66 0 -114 -38.5t-48 -106.5h274zM145 1407h93q0 53 29.5 103.5t82.5 83t121 32.5q172 0 172 -219v-84h-498v84z" />
    <glyph glyph-name="uni066E.init" unicode="&#x66e;" horiz-adv-x="626" 
d="M463 1024v-1024h-463v141h305v883h158z" />
    <glyph glyph-name="uni066E.medi" unicode="&#x66e;" horiz-adv-x="768" 
d="M768 141v-141h-768v141h305v883h158v-883h305z" />
    <glyph glyph-name="uni066E.fina" unicode="&#x66e;" horiz-adv-x="1701" 
d="M1702 141v-141h-1061q-197 0 -311.5 33t-166.5 105t-52 212t63 449l123 -6l-21 -164q-2 -23 -13 -114t-11 -161t36 -120t118.5 -71.5t232.5 -21.5h606v883h158v-883h299z" />
    <glyph glyph-name="uni066F.init" unicode="&#x66f;" horiz-adv-x="1183" 
d="M903 141v736q-139 10 -196 10q-129 0 -197 -39t-93.5 -123t-25.5 -233q0 -261 76 -351h436zM1061 0h-1061v141h291q-55 109 -55 333t44 339t147 162t276.5 47t300.5 -14l57 -7v-1001z" />
    <glyph glyph-name="uni066F.medi" unicode="&#x66f;" horiz-adv-x="1241" 
d="M903 141v736q-139 10 -196 10q-129 0 -197 -39t-93.5 -123t-25.5 -233q0 -261 76 -351h436zM1241 141v-141h-1241v141h291q-55 109 -55 333t44 339t147 162t276.5 47t300.5 -14l57 -7v-860h180z" />
    <glyph glyph-name="uni066F.fina" unicode="&#x66f;" horiz-adv-x="1843" 
d="M1210 141h244v733q-141 12 -192 13q-123 0 -192 -42t-97.5 -129t-28.5 -227.5t25.5 -214t83 -103.5t157.5 -30zM240 -39q0 -154 80.5 -242t244.5 -88h561q166 0 247 88t81 242v39h-297q-141 0 -220 41t-115 143.5t-36 296t41 311t139.5 175t261.5 57.5t326 -16l58 -7
v-860h231v-141h-231v-76q0 -197 -127 -315.5t-350 -118.5h-576q-223 0 -350 119t-127 317q0 150 74 580l149 -25q-65 -414 -65 -520z" />
    <glyph glyph-name="uni06A1.init" unicode="&#x6a1;" horiz-adv-x="1183" 
d="M903 141v736q-139 10 -196 10q-129 0 -197 -39t-93.5 -123t-25.5 -233q0 -261 76 -351h436zM1061 0h-1061v141h291q-55 109 -55 333t44 339t147 162t276.5 47t300.5 -14l57 -7v-1001z" />
    <glyph glyph-name="uni06A1.medi" unicode="&#x6a1;" horiz-adv-x="1241" 
d="M903 141v736q-139 10 -196 10q-129 0 -197 -39t-93.5 -123t-25.5 -233q0 -261 76 -351h436zM1241 141v-141h-1241v141h291q-55 109 -55 333t44 339t147 162t276.5 47t300.5 -14l57 -7v-860h180z" />
    <glyph glyph-name="uni06A1.fina" unicode="&#x6a1;" horiz-adv-x="2023" 
d="M1686 141v736q-139 10 -197 10q-129 0 -196.5 -39t-93 -123t-25.5 -233q-1 -261 75 -351h437zM223 373.5q0 -90.5 36 -140t119 -71t232 -21.5h463q-55 109 -55 333t44 339t147.5 162t276.5 47t300 -14l57 -7v-860h180v-141h-1411q-197 0 -311.5 33t-166.5 104.5t-52 218
t65 443.5l123 -6q-47 -329 -47 -419.5z" />
    <glyph glyph-name="uni06BA.init" unicode="&#x6ba;" horiz-adv-x="626" 
d="M463 1024v-1024h-463v141h305v883h158z" />
    <glyph glyph-name="uni06BA.medi" unicode="&#x6ba;" horiz-adv-x="768" 
d="M768 141v-141h-768v141h305v883h158v-883h305z" />
    <glyph glyph-name="uni06C2.init" unicode="&#x6c2;" horiz-adv-x="626" 
d="M463 1024v-1024h-463v141h305v883h158zM254 -123h127l-94 -471h-170zM414.5 1550q-55.5 0 -89.5 -34.5t-34 -87.5t47 -89l233 62l23 -94l-418 -82l-18 65l98 27q-70 57 -70 139t53.5 136.5t137.5 54.5q47 0 88 -16.5t61 -33.5l-20 -77q-36 30 -91.5 30z" />
    <glyph glyph-name="uni06C2.medi" unicode="&#x6c2;" horiz-adv-x="1112" 
d="M1112 0h-233v-635l-58 -6q-4 0 -104 -6q-180 0 -279.5 53t-147.5 191.5t-54 402.5h-236v141h389v-86q0 -238 28.5 -357.5t98.5 -163.5t205 -44v651h391v-141zM465 832q0 -53 47 -89l233 62l23 -94l-418 -82l-18 65l98 27q-70 57 -70 139t53.5 136.5t137.5 54.5
q47 0 88 -16.5t61 -33.5l-20 -77q-36 30 -91.5 30t-89.5 -34.5t-34 -87.5z" />
    <glyph glyph-name="uni06C2.fina" unicode="&#x6c2;" horiz-adv-x="1247" 
d="M592 141h264v748q-180 12 -278 12q-186 0 -262 -88t-76 -291q0 -141 33.5 -223t109.5 -120t209 -38zM583.5 1044q210.5 0 430.5 -22v-881h233v-141h-682q-182 0 -286.5 51t-150.5 163t-46 303t44 306t145.5 168t312 53zM635.5 1550q-55.5 0 -89.5 -34.5t-34 -87.5t47 -89
l234 62l22 -94l-418 -82l-18 65l98 27q-70 57 -69.5 139t53.5 136.5t139 54.5t148 -50l-21 -77q-36 30 -91.5 30z" />
    <glyph glyph-name="uni06C3.fina" unicode="&#x6c3;" horiz-adv-x="1247" 
d="M548.5 903q-112.5 0 -182 -38t-98 -119.5t-28.5 -223.5v-522h-158v526q0 186 45 299t145.5 166t272.5 53q264 0 411 -16l58 -6v-881h233v-141h-391v893q-195 10 -307.5 10zM655 1448h156v-172h-156v172zM399 1448h156v-172h-156v172z" />
    <glyph glyph-name="uniFB51" unicode="&#x671;" horiz-adv-x="534" arabic-form="final" 
d="M535 141v-141h-351v1294h158v-1153h193zM436 1489q0 145 -112 145q-66 0 -114 -39t-48 -106h274zM14 1489h92q0 53 30 103t83 83t121 33q172 0 172 -219v-84h-498v84z" />
    <glyph glyph-name="uniFB57" unicode="&#x67e;" horiz-adv-x="1701" arabic-form="final" 
d="M1702 141v-141h-1061q-197 0 -311.5 33t-166.5 105t-52 212t63 449l123 -6l-21 -164q-2 -23 -13 -114t-11 -161t36 -120t118.5 -71.5t232.5 -21.5h606v883h158v-883h299zM719 -420h153v-166h-153v166zM846 -164h155v-172h-155v172zM590 -164h155v-172h-155v172z" />
    <glyph glyph-name="uniFB58" unicode="&#x67e;" horiz-adv-x="626" arabic-form="initial" 
d="M463 1024v-1024h-463v141h305v883h158zM305 -420h154v-166h-154v166zM432 -164h156v-172h-156v172zM176 -164h156v-172h-156v172z" />
    <glyph glyph-name="uniFB59" unicode="&#x67e;" horiz-adv-x="768" arabic-form="medial" 
d="M768 141v-141h-768v141h305v883h158v-883h305zM305 -420h154v-166h-154v166zM432 -164h156v-172h-156v172zM176 -164h156v-172h-156v172z" />
    <glyph glyph-name="uniFB67" unicode="&#x679;" horiz-adv-x="1701" arabic-form="final" 
d="M1702 141v-141h-1061q-197 0 -311.5 33t-166.5 104.5t-52 212t63 449.5l123 -6l-21 -164q-2 -23 -13 -114t-11 -161.5t36 -120t118.5 -71t232.5 -21.5h606v883h158v-883h299zM926 1190q0 80 -80 80q-64 0 -106 -47t-42 -101v-10h228v78zM1010 1190v-166h-426v88h30v381
h84v-250q31 57 67 87t96.5 30t104.5 -41t44 -129z" />
    <glyph glyph-name="uniFB68" unicode="&#x679;" horiz-adv-x="626" arabic-form="initial" 
d="M463 1024v-1024h-463v141h305v883h158zM512 1380q0 80 -80 80q-63 0 -105 -47t-42 -100v-10h227v77zM596 1380v-166h-426v89h31v380h84v-249q31 57 66.5 86.5t96 29.5t104.5 -41t44 -129z" />
    <glyph glyph-name="uniFB69" unicode="&#x679;" horiz-adv-x="768" arabic-form="medial" 
d="M768 141v-141h-768v141h305v883h158v-883h305zM512 1380q0 80 -80 80q-63 0 -105 -47t-42 -100v-10h227v77zM596 1380v-166h-426v89h31v380h84v-249q31 57 66.5 86.5t96 29.5t104.5 -41t44 -129z" />
    <glyph glyph-name="uniFB6B" unicode="&#x6a4;" horiz-adv-x="2023" arabic-form="final" 
d="M1686 141v736q-139 10 -197 10q-129 0 -196.5 -39t-93 -123t-25.5 -233q-1 -261 75 -351h437zM223 373.5q0 -90.5 36 -140t119 -71t232 -21.5h463q-55 109 -55 333t44 339t147.5 162t276.5 47t300 -14l57 -7v-860h180v-141h-1411q-197 0 -311.5 33t-166.5 104.5t-52 218
t65 443.5l123 -6q-47 -329 -47 -419.5zM1550 1386h156v-172h-156v172zM1294 1386h156v-172h-156v172zM1423 1636h154v-166h-154v166z" />
    <glyph glyph-name="uniFB6C" unicode="&#x6a4;" horiz-adv-x="1183" arabic-form="initial" 
d="M903 141v736q-139 10 -196 10q-129 0 -197 -39t-93.5 -123t-25.5 -233q0 -261 76 -351h436zM1061 0h-1061v141h291q-55 109 -55 333t44 339t147 162t276.5 47t300.5 -14l57 -7v-1001zM737 1386h156v-172h-156v172zM481 1386h156v-172h-156v172zM610 1636h154v-166h-154
v166z" />
    <glyph glyph-name="uniFB6D" unicode="&#x6a4;" horiz-adv-x="1241" arabic-form="medial" 
d="M903 141v736q-139 10 -196 10q-129 0 -197 -39t-93.5 -123t-25.5 -233q0 -261 76 -351h436zM1241 141v-141h-1241v141h291q-55 109 -55 333t44 339t147 162t276.5 47t300.5 -14l57 -7v-860h180zM694 1386h156v-172h-156v172zM438 1386h156v-172h-156v172zM567 1636h154
v-166h-154v166z" />
    <glyph glyph-name="uniFB7B" unicode="&#x686;" horiz-adv-x="1243" arabic-form="final" 
d="M735 -430h154v-178h-154v178zM885 -164h168v-194h-168v194zM573 -164h168v-194h-168v194zM244 -195q0 -313 342 -313l22 -139h-55q-231 0 -351 118.5t-120 342.5q0 410 420 409q104 0 200.5 -25.5t149.5 -56.5v555q0 207 -213 207q-92 0 -365 -33l-57 -6l-6 117
q309 63 463 63q336 0 336 -350v-553h233v-141h-391q-57 31 -147.5 56.5t-180.5 25.5q-137 0 -208.5 -65.5t-71.5 -211.5z" />
    <glyph glyph-name="uniFB7C" unicode="&#x686;" horiz-adv-x="1101" arabic-form="initial" 
d="M821 696q0 207 -213 207q-92 0 -364 -33l-58 -6l-6 117q309 63 463 63q336 0 336 -350v-694h-979v141h821v555zM494 -420h153v-166h-153v166zM621 -164h155v-172h-155v172zM365 -164h155v-172h-155v172z" />
    <glyph glyph-name="uniFB7D" unicode="&#x686;" horiz-adv-x="1212" arabic-form="medial" 
d="M821 696q0 207 -213 207q-92 0 -364 -33l-58 -6l-6 117q309 63 463 63q336 0 336 -350v-553h233v-141h-1212v141h821v555zM528 -420h154v-166h-154v166zM655 -164h156v-172h-156v172zM399 -164h156v-172h-156v172z" />
    <glyph glyph-name="uniFB89" unicode="&#x688;" horiz-adv-x="1097" arabic-form="final" 
d="M1098 141v-141h-1016v141h666v238q0 303 -118 425t-276 122h-166l-10 116q20 8 83 16.5t120 8.5q223 0 373.5 -161t150.5 -523v-242h193zM399 1436q0 80 -80 80q-63 0 -105 -47.5t-42 -100.5v-10h227v78zM483 1436v-166h-426v88h31v381h84v-250q31 57 66.5 87t96 30
t104.5 -41t44 -129z" />
    <glyph glyph-name="uniFB8B" unicode="&#x698;" horiz-adv-x="827" arabic-form="final" 
d="M827 0h-256v-23q0 -487 -338 -487q-48 0 -108 6l-43 4v140q102 -8 129 -9q102 0 152.5 81t50.5 227v1083h157v-881h256v-141zM539 1386h155v-172h-155v172zM283 1386h155v-172h-155v172zM412 1636h153v-166h-153v166z" />
    <glyph glyph-name="uniFB8D" unicode="&#x691;" horiz-adv-x="827" arabic-form="final" 
d="M827 0h-256v-23q0 -487 -338 -487q-48 0 -108 6l-43 4v140q102 -8 129 -9q102 0 152.5 81t50.5 227v1083h157v-881h256v-141zM618 1380q0 80 -79 80q-64 0 -106 -47t-42 -100v-10h227v77zM702 1380v-166h-426v89h31v380h84v-249q31 57 67 86.5t96 29.5t104 -41t44 -129z
" />
    <glyph glyph-name="uniFB8F" unicode="&#x6a9;" horiz-adv-x="1742" arabic-form="final" 
d="M223 369q0 -86 36 -135.5t119 -71t232 -21.5h744v297q0 123 -46 213t-153 92h-555l-104 142l106 209q75 149 262 376l113 -63q-166 -249 -227 -371l-78 -151h495q178 0 261 -125t83 -324v-295h232v-141h-1131q-197 0 -311.5 33t-166.5 104.5t-52 203.5t53 398l127 -6
q-39 -278 -39 -364z" />
    <glyph glyph-name="uniFB90" unicode="&#x6a9;" horiz-adv-x="1200" arabic-form="initial" 
d="M1077 436v-436h-1077v141h920v297q0 123 -46.5 213t-152.5 92h-555l-105 142l107 209q75 149 262 376l113 -63q-163 -245 -228 -371l-77 -151h495q178 0 261 -125t83 -324z" />
    <glyph glyph-name="uniFB91" unicode="&#x6a9;" horiz-adv-x="1370" arabic-form="medial" 
d="M1370 141v-141h-1370v141h920v297q0 123 -46.5 213t-152.5 92h-555l-105 142l107 209q75 149 262 376l113 -63q-163 -245 -228 -371l-77 -151h495q178 0 261 -125t83 -324v-295h293z" />
    <glyph glyph-name="uniFB93" unicode="&#x6af;" horiz-adv-x="1742" arabic-form="final" 
d="M223 369q0 -86 36 -135.5t119 -71t232 -21.5h744v297q0 123 -46 213t-153 92h-555l-104 142l106 209q75 149 262 376l113 -63q-166 -249 -227 -371l-78 -151h495q178 0 261 -125t83 -324v-295h232v-141h-1131q-197 0 -311.5 33t-166.5 104.5t-52 203.5t53 398l127 -6
q-39 -278 -39 -364zM381 1049l63 125q35 66 112 176t151 200l92 -51q-76 -90 -165 -217t-120 -190l-65 -134z" />
    <glyph glyph-name="uniFB94" unicode="&#x6af;" horiz-adv-x="1200" arabic-form="initial" 
d="M1077 436v-436h-1077v141h920v297q0 123 -46.5 213t-152.5 92h-555l-105 142l107 209q75 149 262 376l113 -63q-163 -245 -228 -371l-77 -151h495q178 0 261 -125t83 -324zM-57 1049l63 125q35 66 112 176t150 200l92 -51q-76 -90 -165 -217t-119 -190l-66 -134z" />
    <glyph glyph-name="uniFB95" unicode="&#x6af;" horiz-adv-x="1370" arabic-form="medial" 
d="M1370 141v-141h-1370v141h920v297q0 123 -46.5 213t-152.5 92h-555l-105 142l107 209q75 149 262 376l113 -63q-163 -245 -228 -371l-77 -151h495q178 0 261 -125t83 -324v-295h293zM-57 1049l63 125q35 66 112 176t150 200l92 -51q-76 -90 -165 -217t-119 -190l-66 -134
z" />
    <glyph glyph-name="uniFB9F" unicode="&#x6ba;" horiz-adv-x="1370" arabic-form="final" 
d="M240 -43q0 -108 50 -178t136 -108t190 -38q152 0 257.5 79t105.5 225v1087h158v-883h233v-141h-233v-82q0 -137 -71 -233.5t-188.5 -144.5t-262 -48t-267.5 55.5t-194.5 153.5t-71.5 247t82 611l151 -8q-75 -486 -75 -594z" />
    <glyph glyph-name="uniFBA7" unicode="&#x6c1;" horiz-adv-x="1247" arabic-form="final" 
d="M548.5 903q-112.5 0 -182 -38t-98 -119.5t-28.5 -223.5v-522h-158v526q0 186 45 299t145.5 166t272.5 53q264 0 411 -16l58 -6v-881h233v-141h-391v893q-195 10 -307.5 10z" />
    <glyph glyph-name="uniFBA8" unicode="&#x6c1;" horiz-adv-x="626" arabic-form="initial" 
d="M463 1024v-1024h-463v141h305v883h158zM254 -123h127l-94 -471h-170z" />
    <glyph glyph-name="uniFBA9" unicode="&#x6c1;" horiz-adv-x="1112" arabic-form="medial" 
d="M1112 0h-233v-635l-58 -6q-4 0 -104 -6q-180 0 -279.5 53t-147.5 191.5t-54 402.5h-236v141h389v-86q0 -238 28.5 -357.5t98.5 -163.5t205 -44v651h391v-141z" />
    <glyph glyph-name="uniFBAB" unicode="&#x6be;" horiz-adv-x="1595" arabic-form="final" 
d="M352 324v-183h424v183q0 88 -60.5 149.5t-150.5 61.5t-151.5 -61.5t-61.5 -149.5zM696 971q-134 0 -434 -51l-10 120q266 72 473 72q289 0 478.5 -159.5t189.5 -524.5v-287h202v-141h-1513v141h113v164q0 100 50 185t135 135.5t184 50.5t184.5 -48t135.5 -133t50 -190
v-164h301v283q0 303 -152.5 425t-386.5 122z" />
    <glyph glyph-name="uniFBAC" unicode="&#x6be;" horiz-adv-x="1556" arabic-form="initial" 
d="M393 324v-183h424v183q0 88 -60.5 149.5t-150.5 61.5t-151.5 -61.5t-61.5 -149.5zM737 971q-134 0 -434 -51l-10 120q266 72 473 72q289 0 478.5 -159.5t189.5 -524.5v-428h-1434v141h236v164q0 100 50 185t135 135.5t184 50.5t184 -48t135.5 -133t50.5 -190v-164h301
v283q0 303 -152.5 425t-386.5 122z" />
    <glyph glyph-name="uniFBAD" unicode="&#x6be;" horiz-adv-x="1636" arabic-form="medial" 
d="M393 324v-183h424v183q0 88 -60.5 149.5t-150.5 61.5t-151.5 -61.5t-61.5 -149.5zM737 971q-134 0 -434 -51l-10 120q266 72 473 72q289 0 478.5 -159.5t189.5 -524.5v-287h202v-141h-1636v141h236v164q0 100 50 185t135 135.5t184 50.5t184 -48t135.5 -133t50.5 -190
v-164h301v283q0 303 -152.5 425t-386.5 122z" />
    <glyph glyph-name="uniFBAF" unicode="&#x6d2;" horiz-adv-x="1454" arabic-form="final" 
d="M82 -104q0 141 45 245h1327v-141h-1202q-12 -45 -12 -102q0 -135 95 -196.5t304 -61.5h635v-142h-658q-285 0 -409.5 93.5t-124.5 304.5z" />
    <glyph glyph-name="uniFBB1" unicode="&#x6d3;" horiz-adv-x="1454" arabic-form="final" 
d="M82 -104q0 141 45 245h1327v-141h-1202q-12 -45 -12 -102q0 -135 95 -196.5t304 -61.5h635v-142h-658q-285 0 -409.5 93.5t-124.5 304.5zM412 705q-55 0 -89 -35t-34 -88t47 -88l233 61l23 -94l-418 -82l-18 65l98 27q-70 57 -70 139t53.5 136.5t137.5 54.5
q47 0 88 -16.5t61 -32.5l-20 -78q-37 31 -92 31z" />
    <glyph glyph-name="uniFBE8" unicode="&#x649;" horiz-adv-x="626" arabic-form="initial" 
d="M463 1024v-1024h-463v141h305v883h158z" />
    <glyph glyph-name="uniFBE9" unicode="&#x649;" horiz-adv-x="768" arabic-form="medial" 
d="M768 141v-141h-768v141h305v883h158v-883h305z" />
    <glyph glyph-name="uniFBFD" unicode="&#x6cc;" horiz-adv-x="1871" arabic-form="final" 
d="M1872 0h-260v-27q0 -219 -117 -350t-336 -131h-538q-150 0 -273 55.5t-194.5 154.5t-71.5 225t53 454l150 -25q-45 -301 -45 -395t50 -170t135 -117t185 -41l541 -2q145 0 224 93.5t79 236.5q0 27 -2 39h-49q-160 0 -252 59l66 117q37 -25 78.5 -30t121.5 -5h455v-141z
" />
    <glyph glyph-name="uniFBFE" unicode="&#x6cc;" horiz-adv-x="626" arabic-form="initial" 
d="M463 1024v-1024h-463v141h305v883h158zM432 -164h156v-172h-156v172zM176 -164h156v-172h-156v172z" />
    <glyph glyph-name="uniFBFF" unicode="&#x6cc;" horiz-adv-x="768" arabic-form="medial" 
d="M768 141v-141h-768v141h305v883h158v-883h305zM432 -164h156v-172h-156v172zM176 -164h156v-172h-156v172z" />
    <glyph glyph-name="uniFC64" unicode="&#xfc64;" horiz-adv-x="1495" arabic-form="final" 
d="M1495 141v-141h-416v883q-289 -8 -508 -43v-863q0 -487 -338 -487q-48 0 -108 6l-43 4v140q102 -8 129 -9q102 0 152.5 81t50.5 227v1005q100 29 306 54.5t517 25.5v-883h258zM1065 1428q0 -53 47 -89l234 62l22 -94l-418 -82l-18 65l98 27q-70 57 -69.5 139t53.5 136.5
t137 54.5q47 0 88 -16.5t61 -33.5l-20 -77q-36 30 -91.5 30t-89.5 -34.5t-34 -87.5z" />
    <glyph glyph-name="uniFC65" unicode="&#xfc65;" horiz-adv-x="1495" arabic-form="final" 
d="M1495 141v-141h-416v883q-289 -8 -508 -43v-863q0 -487 -338 -487q-48 0 -108 6l-43 4v140q102 -8 129 -9q102 0 152.5 81t50.5 227v1005q100 29 306 54.5t517 25.5v-883h258zM1065 1428q0 -53 47 -89l234 62l22 -94l-418 -82l-18 65l98 27q-70 57 -69.5 139t53.5 136.5
t137 54.5q47 0 88 -16.5t61 -33.5l-20 -77q-36 30 -91.5 30t-89.5 -34.5t-34 -87.5zM412 1386h155v-172h-155v172z" />
    <glyph glyph-name="uniFC67" unicode="&#xfc67;" horiz-adv-x="2017" arabic-form="final" 
d="M240 -43q0 -108 50 -178t136 -108t190 -38q152 0 257.5 79t105.5 225v1019q322 68 780 68v-883h258v-141h-415v883q-268 -8 -465 -37v-928q0 -137 -71 -233.5t-188.5 -144.5t-262 -48t-267.5 55.5t-194.5 153.5t-71.5 247t82 611l151 -8q-75 -486 -75 -594zM702 1024
h-155v172h155v-172zM1587 1428q0 -53 47 -89l234 62l22 -94l-417 -82l-19 65l98 27q-70 57 -69.5 139t53.5 136.5t139 54.5t148 -50l-21 -77q-36 30 -91.5 30t-89.5 -34.5t-34 -87.5z" />
    <glyph glyph-name="uniFC68" unicode="&#xfc68;" horiz-adv-x="2263" arabic-form="final" 
d="M2263 141v-141h-416v885h-682q-307 0 -307 -232q0 -88 30 -134t101.5 -74.5t222 -62.5t236.5 -84t125 -128t39 -197q0 -219 -117 -350t-336 -131h-538q-150 0 -273 55.5t-194.5 154.5t-71.5 225t53 454l150 -25q-45 -301 -45 -395t50 -170t135 -117t185 -41l541 -2
q145 0 224 93.5t79 236.5q0 80 -28 131q-54 97 -287 148q-168 35 -261.5 80t-136.5 120.5t-43 202.5q0 381 457 381h850v-883h258zM1833 1428q0 -53 47 -89l234 62l22 -94l-418 -82l-18 65l98 27q-70 57 -69.5 139t53.5 136.5t137 54.5q47 0 88 -16.5t61 -33.5l-20 -77
q-36 30 -91.5 30t-89.5 -34.5t-34 -87.5z" />
    <glyph glyph-name="uniFC69" unicode="&#xfc69;" horiz-adv-x="2263" arabic-form="final" 
d="M2263 141v-141h-416v885h-682q-307 0 -307 -232q0 -88 30 -134t101.5 -74.5t222 -62.5t236.5 -84t125 -128t39 -197q0 -219 -117 -350t-336 -131h-538q-150 0 -273 55.5t-194.5 154.5t-71.5 225t53 454l150 -25q-45 -301 -45 -395t50 -170t135 -117t185 -41l541 -2
q145 0 224 93.5t79 236.5q0 80 -28 131q-54 97 -287 148q-168 35 -261.5 80t-136.5 120.5t-43 202.5q0 381 457 381h850v-883h258zM1833 1428q0 -53 47 -89l234 62l22 -94l-418 -82l-18 65l98 27q-70 57 -69.5 139t53.5 136.5t137 54.5q47 0 88 -16.5t61 -33.5l-20 -77
q-36 30 -91.5 30t-89.5 -34.5t-34 -87.5zM895 -655h156v-172h-156v172zM639 -655h156v-172h-156v172z" />
    <glyph glyph-name="uniFC6A" unicode="&#xfc6a;" horiz-adv-x="1495" arabic-form="final" 
d="M1495 141v-141h-416v883q-289 -8 -508 -43v-863q0 -487 -338 -487q-48 0 -108 6l-43 4v140q102 -8 129 -9q102 0 152.5 81t50.5 227v1005q100 29 306 54.5t517 25.5v-883h258zM1079 -164h156v-172h-156v172z" />
    <glyph glyph-name="uniFC6B" unicode="&#xfc6b;" horiz-adv-x="1495" arabic-form="final" 
d="M1495 141v-141h-416v883q-289 -8 -508 -43v-863q0 -487 -338 -487q-48 0 -108 6l-43 4v140q102 -8 129 -9q102 0 152.5 81t50.5 227v1005q100 29 306 54.5t517 25.5v-883h258zM1079 -164h156v-172h-156v172zM412 1386h155v-172h-155v172z" />
    <glyph glyph-name="uniFC6D" unicode="&#xfc6d;" horiz-adv-x="2017" arabic-form="final" 
d="M240 -43q0 -108 50 -178t136 -108t190 -38q152 0 257.5 79t105.5 225v1019q322 68 780 68v-883h258v-141h-415v883q-268 -8 -465 -37v-928q0 -137 -71 -233.5t-188.5 -144.5t-262 -48t-267.5 55.5t-194.5 153.5t-71.5 247t82 611l151 -8q-75 -486 -75 -594zM702 1024
h-155v172h155v-172zM1602 -164h155v-172h-155v172z" />
    <glyph glyph-name="uniFC6E" unicode="&#xfc6e;" horiz-adv-x="2263" arabic-form="final" 
d="M2263 141v-141h-416v885h-682q-307 0 -307 -232q0 -88 30 -134t101.5 -74.5t222 -62.5t236.5 -84t125 -128t39 -197q0 -219 -117 -350t-336 -131h-538q-150 0 -273 55.5t-194.5 154.5t-71.5 225t53 454l150 -25q-45 -301 -45 -395t50 -170t135 -117t185 -41l541 -2
q145 0 224 93.5t79 236.5q0 80 -28 131q-54 97 -287 148q-168 35 -261.5 80t-136.5 120.5t-43 202.5q0 381 457 381h850v-883h258zM1847 -164h156v-172h-156v172z" />
    <glyph glyph-name="uniFC6F" unicode="&#xfc6f;" horiz-adv-x="2263" arabic-form="final" 
d="M2263 141v-141h-416v885h-682q-307 0 -307 -232q0 -88 30 -134t101.5 -74.5t222 -62.5t236.5 -84t125 -128t39 -197q0 -219 -117 -350t-336 -131h-538q-150 0 -273 55.5t-194.5 154.5t-71.5 225t53 454l150 -25q-45 -301 -45 -395t50 -170t135 -117t185 -41l541 -2
q145 0 224 93.5t79 236.5q0 80 -28 131q-54 97 -287 148q-168 35 -261.5 80t-136.5 120.5t-43 202.5q0 381 457 381h850v-883h258zM1847 -164h156v-172h-156v172zM895 -655h156v-172h-156v172zM639 -655h156v-172h-156v172z" />
    <glyph glyph-name="uniFC70" unicode="&#xfc70;" horiz-adv-x="1495" arabic-form="final" 
d="M1495 141v-141h-416v883q-289 -8 -508 -43v-863q0 -487 -338 -487q-48 0 -108 6l-43 4v140q102 -8 129 -9q102 0 152.5 81t50.5 227v1005q100 29 306 54.5t517 25.5v-883h258zM1208 1386h156v-172h-156v172zM952 1386h156v-172h-156v172z" />
    <glyph glyph-name="uniFC71" unicode="&#xfc71;" horiz-adv-x="1495" arabic-form="final" 
d="M1495 141v-141h-416v883q-289 -8 -508 -43v-863q0 -487 -338 -487q-48 0 -108 6l-43 4v140q102 -8 129 -9q102 0 152.5 81t50.5 227v1005q100 29 306 54.5t517 25.5v-883h258zM1208 1386h156v-172h-156v172zM952 1386h156v-172h-156v172zM412 1386h155v-172h-155v172z
" />
    <glyph glyph-name="uniFC73" unicode="&#xfc73;" horiz-adv-x="2017" arabic-form="final" 
d="M240 -43q0 -108 50 -178t136 -108t190 -38q152 0 257.5 79t105.5 225v1019q322 68 780 68v-883h258v-141h-415v883q-268 -8 -465 -37v-928q0 -137 -71 -233.5t-188.5 -144.5t-262 -48t-267.5 55.5t-194.5 153.5t-71.5 247t82 611l151 -8q-75 -486 -75 -594zM702 1024
h-155v172h155v-172zM1731 1386h155v-172h-155v172zM1475 1386h155v-172h-155v172z" />
    <glyph glyph-name="uniFC74" unicode="&#xfc74;" horiz-adv-x="2263" arabic-form="final" 
d="M2263 141v-141h-416v885h-682q-307 0 -307 -232q0 -88 30 -134t101.5 -74.5t222 -62.5t236.5 -84t125 -128t39 -197q0 -219 -117 -350t-336 -131h-538q-150 0 -273 55.5t-194.5 154.5t-71.5 225t53 454l150 -25q-45 -301 -45 -395t50 -170t135 -117t185 -41l541 -2
q145 0 224 93.5t79 236.5q0 80 -28 131q-54 97 -287 148q-168 35 -261.5 80t-136.5 120.5t-43 202.5q0 381 457 381h850v-883h258zM1976 1386h156v-172h-156v172zM1720 1386h156v-172h-156v172z" />
    <glyph glyph-name="uniFC75" unicode="&#xfc75;" horiz-adv-x="2263" arabic-form="final" 
d="M2263 141v-141h-416v885h-682q-307 0 -307 -232q0 -88 30 -134t101.5 -74.5t222 -62.5t236.5 -84t125 -128t39 -197q0 -219 -117 -350t-336 -131h-538q-150 0 -273 55.5t-194.5 154.5t-71.5 225t53 454l150 -25q-45 -301 -45 -395t50 -170t135 -117t185 -41l541 -2
q145 0 224 93.5t79 236.5q0 80 -28 131q-54 97 -287 148q-168 35 -261.5 80t-136.5 120.5t-43 202.5q0 381 457 381h850v-883h258zM1976 1386h156v-172h-156v172zM1720 1386h156v-172h-156v172zM895 -655h156v-172h-156v172zM639 -655h156v-172h-156v172z" />
    <glyph glyph-name="uniFC76" unicode="&#xfc76;" horiz-adv-x="1495" arabic-form="final" 
d="M1495 141v-141h-416v883q-289 -8 -508 -43v-863q0 -487 -338 -487q-48 0 -108 6l-43 4v140q102 -8 129 -9q102 0 152.5 81t50.5 227v1005q100 29 306 54.5t517 25.5v-883h258zM1206 1386h156v-172h-156v172zM950 1386h156v-172h-156v172zM1079 1636h154v-166h-154v166z
" />
    <glyph glyph-name="uniFC77" unicode="&#xfc77;" horiz-adv-x="1495" arabic-form="final" 
d="M1495 141v-141h-416v883q-289 -8 -508 -43v-863q0 -487 -338 -487q-48 0 -108 6l-43 4v140q102 -8 129 -9q102 0 152.5 81t50.5 227v1005q100 29 306 54.5t517 25.5v-883h258zM1206 1386h156v-172h-156v172zM950 1386h156v-172h-156v172zM1079 1636h154v-166h-154v166z
M412 1386h155v-172h-155v172z" />
    <glyph glyph-name="uniFC79" unicode="&#xfc79;" horiz-adv-x="2017" arabic-form="final" 
d="M240 -43q0 -108 50 -178t136 -108t190 -38q152 0 257.5 79t105.5 225v1019q322 68 780 68v-883h258v-141h-415v883q-268 -8 -465 -37v-928q0 -137 -71 -233.5t-188.5 -144.5t-262 -48t-267.5 55.5t-194.5 153.5t-71.5 247t82 611l151 -8q-75 -486 -75 -594zM702 1024
h-155v172h155v-172zM1729 1386h155v-172h-155v172zM1473 1386h155v-172h-155v172zM1602 1636h153v-166h-153v166z" />
    <glyph glyph-name="uniFC7A" unicode="&#xfc7a;" horiz-adv-x="2263" arabic-form="final" 
d="M2263 141v-141h-416v885h-682q-307 0 -307 -232q0 -88 30 -134t101.5 -74.5t222 -62.5t236.5 -84t125 -128t39 -197q0 -219 -117 -350t-336 -131h-538q-150 0 -273 55.5t-194.5 154.5t-71.5 225t53 454l150 -25q-45 -301 -45 -395t50 -170t135 -117t185 -41l541 -2
q145 0 224 93.5t79 236.5q0 80 -28 131q-54 97 -287 148q-168 35 -261.5 80t-136.5 120.5t-43 202.5q0 381 457 381h850v-883h258zM1974 1386h156v-172h-156v172zM1718 1386h156v-172h-156v172zM1847 1636h154v-166h-154v166z" />
    <glyph glyph-name="uniFC7B" unicode="&#xfc7b;" horiz-adv-x="2263" arabic-form="final" 
d="M2263 141v-141h-416v885h-682q-307 0 -307 -232q0 -88 30 -134t101.5 -74.5t222 -62.5t236.5 -84t125 -128t39 -197q0 -219 -117 -350t-336 -131h-538q-150 0 -273 55.5t-194.5 154.5t-71.5 225t53 454l150 -25q-45 -301 -45 -395t50 -170t135 -117t185 -41l541 -2
q145 0 224 93.5t79 236.5q0 80 -28 131q-54 97 -287 148q-168 35 -261.5 80t-136.5 120.5t-43 202.5q0 381 457 381h850v-883h258zM1974 1386h156v-172h-156v172zM1718 1386h156v-172h-156v172zM1847 1636h154v-166h-154v166zM895 -655h156v-172h-156v172zM639 -655h156
v-172h-156v172z" />
    <glyph glyph-name="uniFC8A" unicode="&#xfc8a;" horiz-adv-x="1495" arabic-form="final" 
d="M1495 141v-141h-416v883q-289 -8 -508 -43v-863q0 -487 -338 -487q-48 0 -108 6l-43 4v140q102 -8 129 -9q102 0 152.5 81t50.5 227v1005q100 29 306 54.5t517 25.5v-883h258zM1079 1386h156v-172h-156v172z" />
    <glyph glyph-name="uniFC8B" unicode="&#xfc8b;" horiz-adv-x="1495" arabic-form="final" 
d="M1495 141v-141h-416v883q-289 -8 -508 -43v-863q0 -487 -338 -487q-48 0 -108 6l-43 4v140q102 -8 129 -9q102 0 152.5 81t50.5 227v1005q100 29 306 54.5t517 25.5v-883h258zM1079 1386h156v-172h-156v172zM412 1386h155v-172h-155v172z" />
    <glyph glyph-name="uniFC8D" unicode="&#xfc8d;" horiz-adv-x="2017" arabic-form="final" 
d="M240 -43q0 -108 50 -178t136 -108t190 -38q152 0 257.5 79t105.5 225v1019q322 68 780 68v-883h258v-141h-415v883q-268 -8 -465 -37v-928q0 -137 -71 -233.5t-188.5 -144.5t-262 -48t-267.5 55.5t-194.5 153.5t-71.5 247t82 611l151 -8q-75 -486 -75 -594zM702 1024
h-155v172h155v-172zM1602 1386h155v-172h-155v172z" />
    <glyph glyph-name="uniFC8E" unicode="&#xfc8e;" horiz-adv-x="2263" arabic-form="final" 
d="M2263 141v-141h-416v885h-682q-307 0 -307 -232q0 -88 30 -134t101.5 -74.5t222 -62.5t236.5 -84t125 -128t39 -197q0 -219 -117 -350t-336 -131h-538q-150 0 -273 55.5t-194.5 154.5t-71.5 225t53 454l150 -25q-45 -301 -45 -395t50 -170t135 -117t185 -41l541 -2
q145 0 224 93.5t79 236.5q0 80 -28 131q-54 97 -287 148q-168 35 -261.5 80t-136.5 120.5t-43 202.5q0 381 457 381h850v-883h258zM1847 1386h156v-172h-156v172z" />
    <glyph glyph-name="uniFC8F" unicode="&#xfc8f;" horiz-adv-x="2263" arabic-form="final" 
d="M2263 141v-141h-416v885h-682q-307 0 -307 -232q0 -88 30 -134t101.5 -74.5t222 -62.5t236.5 -84t125 -128t39 -197q0 -219 -117 -350t-336 -131h-538q-150 0 -273 55.5t-194.5 154.5t-71.5 225t53 454l150 -25q-45 -301 -45 -395t50 -170t135 -117t185 -41l541 -2
q145 0 224 93.5t79 236.5q0 80 -28 131q-54 97 -287 148q-168 35 -261.5 80t-136.5 120.5t-43 202.5q0 381 457 381h850v-883h258zM1847 1386h156v-172h-156v172zM895 -655h156v-172h-156v172zM639 -655h156v-172h-156v172z" />
    <glyph glyph-name="uniFC91" unicode="&#xfc91;" horiz-adv-x="1495" arabic-form="final" 
d="M1495 141v-141h-416v883q-289 -8 -508 -43v-863q0 -487 -338 -487q-48 0 -108 6l-43 4v140q102 -8 129 -9q102 0 152.5 81t50.5 227v1005q100 29 306 54.5t517 25.5v-883h258zM1206 -164h156v-172h-156v172zM950 -164h156v-172h-156v172z" />
    <glyph glyph-name="uniFC92" unicode="&#xfc92;" horiz-adv-x="1495" arabic-form="final" 
d="M1495 141v-141h-416v883q-289 -8 -508 -43v-863q0 -487 -338 -487q-48 0 -108 6l-43 4v140q102 -8 129 -9q102 0 152.5 81t50.5 227v1005q100 29 306 54.5t517 25.5v-883h258zM1206 -164h156v-172h-156v172zM950 -164h156v-172h-156v172zM412 1386h155v-172h-155v172z
" />
    <glyph glyph-name="uniFC94" unicode="&#xfc94;" horiz-adv-x="2017" arabic-form="final" 
d="M240 -43q0 -108 50 -178t136 -108t190 -38q152 0 257.5 79t105.5 225v1019q322 68 780 68v-883h258v-141h-415v883q-268 -8 -465 -37v-928q0 -137 -71 -233.5t-188.5 -144.5t-262 -48t-267.5 55.5t-194.5 153.5t-71.5 247t82 611l151 -8q-75 -486 -75 -594zM702 1024
h-155v172h155v-172zM1729 -164h155v-172h-155v172zM1473 -164h155v-172h-155v172z" />
    <glyph glyph-name="uniFCFB" unicode="&#xfcfb;" horiz-adv-x="3203" arabic-form="isolated" 
d="M3060 569v-569h-381q-125 0 -228 86q-74 -86 -194 -86h-410v885h-682q-307 0 -307 -232q0 -88 30 -134t101.5 -74.5t222 -62.5t236.5 -84t125 -128t39 -197q0 -219 -117 -350t-336 -131h-538q-150 0 -273 55.5t-194.5 154.5t-71.5 225t53 454l150 -25q-45 -301 -45 -395
t50 -170t135 -117t185 -41l541 -2q145 0 224 93.5t79 236.5q0 80 -28 131q-54 97 -287 148q-168 35 -261.5 80t-136.5 120.5t-43 202.5q0 381 457 381h850v-883h203q94 0 136 81t42 204v496h158v-494q0 -125 -29 -217q80 -70 172 -70h215v445q0 118 -37 432l129 6
q66 -286 66 -455z" />
    <glyph glyph-name="uniFCFC" unicode="&#xfcfc;" horiz-adv-x="3203" arabic-form="isolated" 
d="M3060 569v-569h-381q-125 0 -228 86q-74 -86 -194 -86h-410v885h-682q-307 0 -307 -232q0 -88 30 -134t101.5 -74.5t222 -62.5t236.5 -84t125 -128t39 -197q0 -219 -117 -350t-336 -131h-538q-150 0 -273 55.5t-194.5 154.5t-71.5 225t53 454l150 -25q-45 -301 -45 -395
t50 -170t135 -117t185 -41l541 -2q145 0 224 93.5t79 236.5q0 80 -28 131q-54 97 -287 148q-168 35 -261.5 80t-136.5 120.5t-43 202.5q0 381 457 381h850v-883h203q94 0 136 81t42 204v496h158v-494q0 -125 -29 -217q80 -70 172 -70h215v445q0 118 -37 432l129 6
q66 -286 66 -455zM895 -655h156v-172h-156v172zM639 -655h156v-172h-156v172z" />
    <glyph glyph-name="uniFCFD" unicode="&#xfcfd;" horiz-adv-x="3203" arabic-form="isolated" 
d="M3060 569v-569h-381q-125 0 -228 86q-74 -86 -194 -86h-410v885h-682q-307 0 -307 -232q0 -88 30 -134t101.5 -74.5t222 -62.5t236.5 -84t125 -128t39 -197q0 -219 -117 -350t-336 -131h-538q-150 0 -273 55.5t-194.5 154.5t-71.5 225t53 454l150 -25q-45 -301 -45 -395
t50 -170t135 -117t185 -41l541 -2q145 0 224 93.5t79 236.5q0 80 -28 131q-54 97 -287 148q-168 35 -261.5 80t-136.5 120.5t-43 202.5q0 381 457 381h850v-883h203q94 0 136 81t42 204v496h158v-494q0 -125 -29 -217q80 -70 172 -70h215v445q0 118 -37 432l129 6
q66 -286 66 -455zM2513 1386h156v-172h-156v172zM2257 1386h156v-172h-156v172zM2386 1636h154v-166h-154v166z" />
    <glyph glyph-name="uniFCFE" unicode="&#xfcfe;" horiz-adv-x="3203" arabic-form="isolated" 
d="M3060 569v-569h-381q-125 0 -228 86q-74 -86 -194 -86h-410v885h-682q-307 0 -307 -232q0 -88 30 -134t101.5 -74.5t222 -62.5t236.5 -84t125 -128t39 -197q0 -219 -117 -350t-336 -131h-538q-150 0 -273 55.5t-194.5 154.5t-71.5 225t53 454l150 -25q-45 -301 -45 -395
t50 -170t135 -117t185 -41l541 -2q145 0 224 93.5t79 236.5q0 80 -28 131q-54 97 -287 148q-168 35 -261.5 80t-136.5 120.5t-43 202.5q0 381 457 381h850v-883h203q94 0 136 81t42 204v496h158v-494q0 -125 -29 -217q80 -70 172 -70h215v445q0 118 -37 432l129 6
q66 -286 66 -455zM2513 1386h156v-172h-156v172zM2257 1386h156v-172h-156v172zM2386 1636h154v-166h-154v166zM895 -655h156v-172h-156v172zM639 -655h156v-172h-156v172z" />
    <glyph glyph-name="uniFD05" unicode="&#xfd05;" horiz-adv-x="3203" arabic-form="isolated" 
d="M2005 141h889v351q0 176 -85 293.5t-247 117.5q-127 0 -235.5 -69.5t-176 -148.5t-145.5 -187v-357zM3052 514v-514h-1205v885h-682q-307 0 -307 -232q0 -88 30 -134t101.5 -74.5t222 -62.5t236.5 -84t125 -128t39 -197q0 -219 -117 -350t-336 -131h-538
q-150 0 -273 55.5t-194.5 154.5t-71.5 225t53 454l150 -25q-45 -301 -45 -395t50 -170t135 -117t185 -41l541 -2q145 0 224 93.5t79 236.5q0 80 -28 131q-54 97 -287 148q-168 35 -261.5 80t-136.5 120.5t-43 202.5q0 381 457 381h850v-328q92 114 167 186
q169 161 416.5 161.5t355.5 -158t108 -371.5z" />
    <glyph glyph-name="uniFD06" unicode="&#xfd06;" horiz-adv-x="3203" arabic-form="isolated" 
d="M2005 141h889v351q0 176 -85 293.5t-247 117.5q-127 0 -235.5 -69.5t-176 -148.5t-145.5 -187v-357zM3052 514v-514h-1205v885h-682q-307 0 -307 -232q0 -88 30 -134t101.5 -74.5t222 -62.5t236.5 -84t125 -128t39 -197q0 -219 -117 -350t-336 -131h-538
q-150 0 -273 55.5t-194.5 154.5t-71.5 225t53 454l150 -25q-45 -301 -45 -395t50 -170t135 -117t185 -41l541 -2q145 0 224 93.5t79 236.5q0 80 -28 131q-54 97 -287 148q-168 35 -261.5 80t-136.5 120.5t-43 202.5q0 381 457 381h850v-328q92 114 167 186
q169 161 416.5 161.5t355.5 -158t108 -371.5zM895 -655h156v-172h-156v172zM639 -655h156v-172h-156v172z" />
    <glyph glyph-name="uniFD07" unicode="&#xfd07;" horiz-adv-x="3203" arabic-form="isolated" 
d="M2005 141h889v351q0 176 -85 293.5t-247 117.5q-127 0 -235.5 -69.5t-176 -148.5t-145.5 -187v-357zM3052 514v-514h-1205v885h-682q-307 0 -307 -232q0 -88 30 -134t101.5 -74.5t222 -62.5t236.5 -84t125 -128t39 -197q0 -219 -117 -350t-336 -131h-538
q-150 0 -273 55.5t-194.5 154.5t-71.5 225t53 454l150 -25q-45 -301 -45 -395t50 -170t135 -117t185 -41l541 -2q145 0 224 93.5t79 236.5q0 80 -28 131q-54 97 -287 148q-168 35 -261.5 80t-136.5 120.5t-43 202.5q0 381 457 381h850v-328q92 114 167 186
q169 161 416.5 161.5t355.5 -158t108 -371.5zM2429 1386h156v-172h-156v172z" />
    <glyph glyph-name="uniFD08" unicode="&#xfd08;" horiz-adv-x="3203" arabic-form="isolated" 
d="M2005 141h889v351q0 176 -85 293.5t-247 117.5q-127 0 -235.5 -69.5t-176 -148.5t-145.5 -187v-357zM3052 514v-514h-1205v885h-682q-307 0 -307 -232q0 -88 30 -134t101.5 -74.5t222 -62.5t236.5 -84t125 -128t39 -197q0 -219 -117 -350t-336 -131h-538
q-150 0 -273 55.5t-194.5 154.5t-71.5 225t53 454l150 -25q-45 -301 -45 -395t50 -170t135 -117t185 -41l541 -2q145 0 224 93.5t79 236.5q0 80 -28 131q-54 97 -287 148q-168 35 -261.5 80t-136.5 120.5t-43 202.5q0 381 457 381h850v-328q92 114 167 186
q169 161 416.5 161.5t355.5 -158t108 -371.5zM2429 1386h156v-172h-156v172zM895 -655h156v-172h-156v172zM639 -655h156v-172h-156v172z" />
    <glyph glyph-name="uniFD0D" unicode="&#xfd0d;" horiz-adv-x="2453" arabic-form="isolated" 
d="M2310 569v-569h-381q-125 0 -227 86q-74 -86 -195 -86h-409v883q-307 -8 -527 -43v-863q0 -487 -338 -487q-48 0 -108 6l-43 4v140q102 -8 129 -9q102 0 152.5 81t50.5 227v1005q96 29 313 54.5t528 25.5v-883h203q94 0 136 81t42 204v496h158v-494q0 -125 -29 -217
q80 -70 172 -70h215v445q0 126 -36 432l129 6q65 -293 65 -455zM1763 1386h156v-172h-156v172zM1507 1386h156v-172h-156v172zM1636 1636h154v-166h-154v166z" />
    <glyph glyph-name="uniFD0E" unicode="&#xfd0e;" horiz-adv-x="2453" arabic-form="isolated" 
d="M2310 569v-569h-381q-125 0 -227 86q-74 -86 -195 -86h-409v883q-307 -8 -527 -43v-863q0 -487 -338 -487q-48 0 -108 6l-43 4v140q102 -8 129 -9q102 0 152.5 81t50.5 227v1005q96 29 313 54.5t528 25.5v-883h203q94 0 136 81t42 204v496h158v-494q0 -125 -29 -217
q80 -70 172 -70h215v445q0 126 -36 432l129 6q65 -293 65 -455z" />
    <glyph glyph-name="uniFD0F" unicode="&#xfd0f;" horiz-adv-x="2453" arabic-form="isolated" 
d="M1255 141h889v351q0 176 -85 293.5t-247 117.5q-126 0 -235 -69.5t-176.5 -148.5t-145.5 -187v-357zM2302 514v-514h-1204v883q-311 -8 -527 -43v-863q0 -487 -338 -487q-48 0 -108 6l-43 4v140q102 -8 129 -9q102 0 152.5 81t50.5 227v1005q96 29 313 54.5t528 25.5
v-328q92 114 167 186q169 162 417 162t355.5 -158.5t107.5 -371.5z" />
    <glyph glyph-name="uniFD10" unicode="&#xfd10;" horiz-adv-x="2453" arabic-form="isolated" 
d="M1255 141h889v351q0 176 -85 293.5t-247 117.5q-126 0 -235 -69.5t-176.5 -148.5t-145.5 -187v-357zM2302 514v-514h-1204v883q-311 -8 -527 -43v-863q0 -487 -338 -487q-48 0 -108 6l-43 4v140q102 -8 129 -9q102 0 152.5 81t50.5 227v1005q96 29 313 54.5t528 25.5
v-328q92 114 167 186q169 162 417 162t355.5 -158.5t107.5 -371.5zM1638 1386h156v-172h-156v172z" />
    <glyph glyph-name="uniFD17" unicode="&#xfd17;" horiz-adv-x="3293" arabic-form="final" 
d="M3060 569v-428h233v-141h-614q-125 0 -228 86q-74 -86 -194 -86h-410v885h-682q-307 0 -307 -232q0 -88 30 -134t101.5 -74.5t222 -62.5t236.5 -84t125 -128t39 -197q0 -219 -117 -350t-336 -131h-538q-150 0 -273 55.5t-194.5 154.5t-71.5 225t53 454l150 -25
q-45 -301 -45 -395t50 -170t135 -117t185 -41l541 -2q145 0 224 93.5t79 236.5q0 80 -28 131q-54 97 -287 148q-168 35 -261.5 80t-136.5 120.5t-43 202.5q0 381 457 381h850v-883h203q94 0 136 81t42 204v496h158v-494q0 -125 -29 -217q80 -70 172 -70h215v445
q0 118 -37 432l129 6q66 -286 66 -455z" />
    <glyph glyph-name="uniFD18" unicode="&#xfd18;" horiz-adv-x="3293" arabic-form="final" 
d="M3060 569v-428h233v-141h-614q-125 0 -228 86q-74 -86 -194 -86h-410v885h-682q-307 0 -307 -232q0 -88 30 -134t101.5 -74.5t222 -62.5t236.5 -84t125 -128t39 -197q0 -219 -117 -350t-336 -131h-538q-150 0 -273 55.5t-194.5 154.5t-71.5 225t53 454l150 -25
q-45 -301 -45 -395t50 -170t135 -117t185 -41l541 -2q145 0 224 93.5t79 236.5q0 80 -28 131q-54 97 -287 148q-168 35 -261.5 80t-136.5 120.5t-43 202.5q0 381 457 381h850v-883h203q94 0 136 81t42 204v496h158v-494q0 -125 -29 -217q80 -70 172 -70h215v445
q0 118 -37 432l129 6q66 -286 66 -455zM895 -655h156v-172h-156v172zM639 -655h156v-172h-156v172z" />
    <glyph glyph-name="uniFD19" unicode="&#xfd19;" horiz-adv-x="3293" arabic-form="final" 
d="M3060 569v-428h233v-141h-614q-125 0 -228 86q-74 -86 -194 -86h-410v885h-682q-307 0 -307 -232q0 -88 30 -134t101.5 -74.5t222 -62.5t236.5 -84t125 -128t39 -197q0 -219 -117 -350t-336 -131h-538q-150 0 -273 55.5t-194.5 154.5t-71.5 225t53 454l150 -25
q-45 -301 -45 -395t50 -170t135 -117t185 -41l541 -2q145 0 224 93.5t79 236.5q0 80 -28 131q-54 97 -287 148q-168 35 -261.5 80t-136.5 120.5t-43 202.5q0 381 457 381h850v-883h203q94 0 136 81t42 204v496h158v-494q0 -125 -29 -217q80 -70 172 -70h215v445
q0 118 -37 432l129 6q66 -286 66 -455zM2513 1427h156v-172h-156v172zM2257 1427h156v-172h-156v172zM2386 1677h154v-166h-154v166z" />
    <glyph glyph-name="uniFD1A" unicode="&#xfd1a;" horiz-adv-x="3293" arabic-form="final" 
d="M3060 569v-428h233v-141h-614q-125 0 -228 86q-74 -86 -194 -86h-410v885h-682q-307 0 -307 -232q0 -88 30 -134t101.5 -74.5t222 -62.5t236.5 -84t125 -128t39 -197q0 -219 -117 -350t-336 -131h-538q-150 0 -273 55.5t-194.5 154.5t-71.5 225t53 454l150 -25
q-45 -301 -45 -395t50 -170t135 -117t185 -41l541 -2q145 0 224 93.5t79 236.5q0 80 -28 131q-54 97 -287 148q-168 35 -261.5 80t-136.5 120.5t-43 202.5q0 381 457 381h850v-883h203q94 0 136 81t42 204v496h158v-494q0 -125 -29 -217q80 -70 172 -70h215v445
q0 118 -37 432l129 6q66 -286 66 -455zM2513 1427h156v-172h-156v172zM2257 1427h156v-172h-156v172zM2386 1677h154v-166h-154v166zM895 -655h156v-172h-156v172zM639 -655h156v-172h-156v172z" />
    <glyph glyph-name="uniFD21" unicode="&#xfd21;" horiz-adv-x="3295" arabic-form="final" 
d="M2005 141h889v351q0 176 -85 293.5t-247 117.5q-127 0 -235.5 -69.5t-176 -148.5t-145.5 -187v-357zM3295 141v-141h-1448v885h-682q-307 0 -307 -232q0 -88 30 -134t101.5 -74.5t222 -62.5t236.5 -84t125 -128t39 -197q0 -219 -117 -350t-336 -131h-538
q-150 0 -273 55.5t-194.5 154.5t-71.5 225t53 454l150 -25q-45 -301 -45 -395t50 -170t135 -117t185 -41l541 -2q145 0 224 93.5t79 236.5q0 80 -28 131q-54 97 -287 148q-168 35 -261.5 80t-136.5 120.5t-43 202.5q0 381 457 381h850v-328q92 114 167 186
q169 161 416.5 161.5t355.5 -158t108 -371.5v-373h243z" />
    <glyph glyph-name="uniFD22" unicode="&#xfd22;" horiz-adv-x="3295" arabic-form="final" 
d="M2005 141h889v351q0 176 -85 293.5t-247 117.5q-127 0 -235.5 -69.5t-176 -148.5t-145.5 -187v-357zM3295 141v-141h-1448v885h-682q-307 0 -307 -232q0 -88 30 -134t101.5 -74.5t222 -62.5t236.5 -84t125 -128t39 -197q0 -219 -117 -350t-336 -131h-538
q-150 0 -273 55.5t-194.5 154.5t-71.5 225t53 454l150 -25q-45 -301 -45 -395t50 -170t135 -117t185 -41l541 -2q145 0 224 93.5t79 236.5q0 80 -28 131q-54 97 -287 148q-168 35 -261.5 80t-136.5 120.5t-43 202.5q0 381 457 381h850v-328q92 114 167 186
q169 161 416.5 161.5t355.5 -158t108 -371.5v-373h243zM895 -655h156v-172h-156v172zM639 -655h156v-172h-156v172z" />
    <glyph glyph-name="uniFD23" unicode="&#xfd23;" horiz-adv-x="3295" arabic-form="final" 
d="M2005 141h889v351q0 176 -85 293.5t-247 117.5q-127 0 -235.5 -69.5t-176 -148.5t-145.5 -187v-357zM3295 141v-141h-1448v885h-682q-307 0 -307 -232q0 -88 30 -134t101.5 -74.5t222 -62.5t236.5 -84t125 -128t39 -197q0 -219 -117 -350t-336 -131h-538
q-150 0 -273 55.5t-194.5 154.5t-71.5 225t53 454l150 -25q-45 -301 -45 -395t50 -170t135 -117t185 -41l541 -2q145 0 224 93.5t79 236.5q0 80 -28 131q-54 97 -287 148q-168 35 -261.5 80t-136.5 120.5t-43 202.5q0 381 457 381h850v-328q92 114 167 186
q169 161 416.5 161.5t355.5 -158t108 -371.5v-373h243zM2429 1386h156v-172h-156v172z" />
    <glyph glyph-name="uniFD24" unicode="&#xfd24;" horiz-adv-x="3295" arabic-form="final" 
d="M2005 141h889v351q0 176 -85 293.5t-247 117.5q-127 0 -235.5 -69.5t-176 -148.5t-145.5 -187v-357zM3295 141v-141h-1448v885h-682q-307 0 -307 -232q0 -88 30 -134t101.5 -74.5t222 -62.5t236.5 -84t125 -128t39 -197q0 -219 -117 -350t-336 -131h-538
q-150 0 -273 55.5t-194.5 154.5t-71.5 225t53 454l150 -25q-45 -301 -45 -395t50 -170t135 -117t185 -41l541 -2q145 0 224 93.5t79 236.5q0 80 -28 131q-54 97 -287 148q-168 35 -261.5 80t-136.5 120.5t-43 202.5q0 381 457 381h850v-328q92 114 167 186
q169 161 416.5 161.5t355.5 -158t108 -371.5v-373h243zM2429 1386h156v-172h-156v172zM895 -655h156v-172h-156v172zM639 -655h156v-172h-156v172z" />
    <glyph glyph-name="uniFD29" unicode="&#xfd29;" horiz-adv-x="2519" arabic-form="final" 
d="M2310 569v-428h209v-141h-590q-125 0 -227 86q-74 -86 -195 -86h-409v883q-307 -8 -527 -43v-863q0 -487 -338 -487q-48 0 -108 6l-43 4v140q102 -8 129 -9q102 0 152.5 81t50.5 227v1005q96 29 313 54.5t528 25.5v-883h203q94 0 136 81t42 204v496h158v-494
q0 -125 -29 -217q80 -70 172 -70h215v445q0 126 -36 432l129 6q65 -282 65 -455zM1739 1386h155v-172h-155v172zM1483 1386h155v-172h-155v172zM1612 1636h153v-166h-153v166z" />
    <glyph glyph-name="uniFD2A" unicode="&#xfd2a;" horiz-adv-x="2519" arabic-form="final" 
d="M2310 569v-428h209v-141h-590q-125 0 -227 86q-74 -86 -195 -86h-409v883q-307 -8 -527 -43v-863q0 -487 -338 -487q-48 0 -108 6l-43 4v140q102 -8 129 -9q102 0 152.5 81t50.5 227v1005q96 29 313 54.5t528 25.5v-883h203q94 0 136 81t42 204v496h158v-494
q0 -125 -29 -217q80 -70 172 -70h215v445q0 126 -36 432l129 6q65 -282 65 -455z" />
    <glyph glyph-name="uniFD2B" unicode="&#xfd2b;" horiz-adv-x="2482" arabic-form="final" 
d="M1255 141h889v351q0 176 -85 293.5t-247 117.5q-126 0 -235 -69.5t-176.5 -148.5t-145.5 -187v-357zM2482 141v-141h-1384v883q-311 -8 -527 -43v-863q0 -487 -338 -487q-48 0 -108 6l-43 4v140q102 -8 129 -9q102 0 152.5 81t50.5 227v1005q96 29 313 54.5t528 25.5
v-328q92 114 167 186q169 162 417 162t355.5 -158.5t107.5 -371.5v-373h180z" />
    <glyph glyph-name="uniFD2C" unicode="&#xfd2c;" horiz-adv-x="2482" arabic-form="final" 
d="M1255 141h889v351q0 176 -85 293.5t-247 117.5q-126 0 -235 -69.5t-176.5 -148.5t-145.5 -187v-357zM2482 141v-141h-1384v883q-311 -8 -527 -43v-863q0 -487 -338 -487q-48 0 -108 6l-43 4v140q102 -8 129 -9q102 0 152.5 81t50.5 227v1005q96 29 313 54.5t528 25.5
v-328q92 114 167 186q169 162 417 162t355.5 -158.5t107.5 -371.5v-373h180zM1638 1386h156v-172h-156v172z" />
    <glyph glyph-name="uniFE82" unicode="&#x622;" horiz-adv-x="534" arabic-form="final" 
d="M535 141v-141h-351v1294h158v-1153h193zM399 1419q-41 0 -144 44t-130 44t-92 -59l-23 -18l-26 92q84 94 155 94q35 0 137.5 -44t126.5 -44t89 57l20 19l29 -93q-76 -92 -142 -92z" />
    <glyph glyph-name="uniFE84" unicode="&#x623;" horiz-adv-x="534" arabic-form="final" 
d="M535 141v-141h-351v1294h158v-1153h193zM170 1573q0 -53 47 -88l234 61l22 -94l-418 -82l-18 66l98 26q-70 57 -69.5 139.5t53.5 136.5t138 54t149 -49l-21 -78q-37 31 -92 31t-89 -35t-34 -88z" />
    <glyph glyph-name="uniFE86" unicode="&#x624;" horiz-adv-x="1161" arabic-form="final" 
d="M510 141h242v766q-111 14 -214.5 14.5t-173 -46t-97 -135.5t-27.5 -240.5t53 -255t217 -103.5zM524 1063q176 0 385 -39v-883h252v-141h-256q-12 -258 -95 -383t-261 -125q-94 0 -309 31v139q190 -29 280 -29t134 26q98 58 98 341h-301q-223 0 -296 141.5t-73 349
t37 327.5t133 182.5t272 62.5zM459 1428q0 -53 47 -89l233 62l23 -94l-418 -82l-18 65l98 27q-70 57 -70 139t53.5 136.5t137.5 54.5q47 0 88 -16.5t61 -33.5l-20 -77q-36 30 -91.5 30t-89.5 -34.5t-34 -87.5z" />
    <glyph glyph-name="uniFE88" unicode="&#x625;" horiz-adv-x="534" arabic-form="final" 
d="M535 141v-141h-351v1470h158v-1329h193zM321.5 -213q-55.5 0 -89 -35t-33.5 -88t47 -88l233 62l23 -95l-418 -82l-18 66l98 27q-70 57 -70 139t53.5 136t137.5 54q47 0 88 -16.5t61 -32.5l-20 -78q-37 31 -92.5 31z" />
    <glyph glyph-name="uniFE8A" unicode="&#x626;" horiz-adv-x="1871" arabic-form="final" 
d="M1872 0h-260v-27q0 -219 -117 -350t-336 -131h-538q-150 0 -273 55.5t-194.5 154.5t-71.5 225t53 454l150 -25q-45 -301 -45 -395t50 -170t135 -117t185 -41l541 -2q145 0 224 93.5t79 236.5q0 27 -2 39h-49q-160 0 -252 59l66 117q37 -25 78.5 -30t121.5 -5h455v-141z
M354.5 870q-55.5 0 -89.5 -34.5t-34 -87.5t48 -89l233 62l23 -94l-418 -82l-19 65l99 27q-70 57 -70 139t53 136.5t138 54.5t149 -49l-21 -78q-36 30 -91.5 30z" />
    <glyph glyph-name="uniFE8B" unicode="&#x626;" horiz-adv-x="626" arabic-form="initial" 
d="M463 1024v-1024h-463v141h305v883h158zM414.5 1550q-55.5 0 -89.5 -34.5t-34 -87.5t47 -89l233 62l23 -94l-418 -82l-18 65l98 27q-70 57 -70 139t53.5 136.5t137.5 54.5q47 0 88 -16.5t61 -33.5l-20 -77q-36 30 -91.5 30z" />
    <glyph glyph-name="uniFE8C" unicode="&#x626;" horiz-adv-x="768" arabic-form="medial" 
d="M768 141v-141h-768v141h305v883h158v-883h305zM414.5 1550q-55.5 0 -89.5 -34.5t-34 -87.5t47 -89l233 62l23 -94l-418 -82l-18 65l98 27q-70 57 -70 139t53.5 136.5t137.5 54.5q47 0 88 -16.5t61 -33.5l-20 -77q-36 30 -91.5 30z" />
    <glyph glyph-name="uniFE8E" unicode="&#x627;" horiz-adv-x="534" arabic-form="final" 
d="M535 141v-141h-351v1470h158v-1329h193z" />
    <glyph glyph-name="uniFE90" unicode="&#x628;" horiz-adv-x="1701" arabic-form="final" 
d="M1702 141v-141h-1061q-197 0 -311.5 33t-166.5 105t-52 212t63 449l123 -6l-21 -164q-2 -23 -13 -114t-11 -161t36 -120t118.5 -71.5t232.5 -21.5h606v883h158v-883h299zM719 -164h155v-172h-155v172z" />
    <glyph glyph-name="uniFE91" unicode="&#x628;" horiz-adv-x="626" arabic-form="initial" 
d="M463 1024v-1024h-463v141h305v883h158zM305 -164h156v-172h-156v172z" />
    <glyph glyph-name="uniFE92" unicode="&#x628;" horiz-adv-x="768" arabic-form="medial" 
d="M768 141v-141h-768v141h305v883h158v-883h305zM305 -164h156v-172h-156v172z" />
    <glyph glyph-name="uniFE94" unicode="&#x629;" horiz-adv-x="1247" arabic-form="final" 
d="M592 141h264v748q-180 12 -278 12q-186 0 -262 -88t-76 -291q0 -141 33.5 -223t109.5 -120t209 -38zM583.5 1044q210.5 0 430.5 -22v-881h233v-141h-682q-182 0 -286.5 51t-150.5 163t-46 303t44 306t145.5 168t312 53zM655 1386h156v-172h-156v172zM399 1386h156v-172
h-156v172z" />
    <glyph glyph-name="uniFE96" unicode="&#x62a;" horiz-adv-x="1701" arabic-form="final" 
d="M1702 141v-141h-1061q-197 0 -311.5 33t-166.5 105t-52 212t63 449l123 -6l-21 -164q-2 -23 -13 -114t-11 -161t36 -120t118.5 -71.5t232.5 -21.5h606v883h158v-883h299zM848 1196h156v-172h-156v172zM592 1196h156v-172h-156v172z" />
    <glyph glyph-name="uniFE97" unicode="&#x62a;" horiz-adv-x="626" arabic-form="initial" 
d="M463 1024v-1024h-463v141h305v883h158zM434 1386h156v-172h-156v172zM178 1386h156v-172h-156v172z" />
    <glyph glyph-name="uniFE98" unicode="&#x62a;" horiz-adv-x="768" arabic-form="medial" 
d="M768 141v-141h-768v141h305v883h158v-883h305zM434 1386h156v-172h-156v172zM178 1386h156v-172h-156v172z" />
    <glyph glyph-name="uniFE9A" unicode="&#x62b;" horiz-adv-x="1701" arabic-form="final" 
d="M1702 141v-141h-1061q-197 0 -311.5 33t-166.5 105t-52 212t63 449l123 -6l-21 -164q-2 -23 -13 -114t-11 -161t36 -120t118.5 -71.5t232.5 -21.5h606v883h158v-883h299zM846 1196h155v-172h-155v172zM590 1196h155v-172h-155v172zM719 1446h153v-166h-153v166z" />
    <glyph glyph-name="uniFE9B" unicode="&#x62b;" horiz-adv-x="626" arabic-form="initial" 
d="M463 1024v-1024h-463v141h305v883h158zM432 1386h156v-172h-156v172zM176 1386h156v-172h-156v172zM305 1636h154v-166h-154v166z" />
    <glyph glyph-name="uniFE9C" unicode="&#x62b;" horiz-adv-x="768" arabic-form="medial" 
d="M768 141v-141h-768v141h305v883h158v-883h305zM432 1386h156v-172h-156v172zM176 1386h156v-172h-156v172zM305 1636h154v-166h-154v166z" />
    <glyph glyph-name="uniFE9E" unicode="&#x62c;" horiz-adv-x="1243" arabic-form="final" 
d="M852 0q-142 82 -350 82q-114 0 -186 -65.5t-72 -211.5q0 -313 342 -313q147 0 379 45l18 -125q-262 -59 -430 -59q-231 0 -351 118.5t-120 342.5q0 410 420 409q111 0 205 -25.5t145 -56.5v555q0 207 -213 207q-92 0 -365 -33l-57 -6l-6 117q309 63 463 63
q336 0 336 -350v-553h233v-141h-391zM580 -174h155v-172h-155v172z" />
    <glyph glyph-name="uniFE9F" unicode="&#x62c;" horiz-adv-x="1101" arabic-form="initial" 
d="M821 696q0 207 -213 207q-92 0 -364 -33l-58 -6l-6 117q309 63 463 63q336 0 336 -350v-694h-979v141h821v555zM494 -164h155v-172h-155v172z" />
    <glyph glyph-name="uniFEA0" unicode="&#x62c;" horiz-adv-x="1212" arabic-form="medial" 
d="M821 696q0 207 -213 207q-92 0 -364 -33l-58 -6l-6 117q309 63 463 63q336 0 336 -350v-553h233v-141h-1212v141h821v555zM528 -164h156v-172h-156v172z" />
    <glyph glyph-name="uniFEA2" unicode="&#x62d;" horiz-adv-x="1243" arabic-form="final" 
d="M852 0q-142 82 -350 82q-114 0 -186 -65.5t-72 -211.5q0 -313 342 -313q147 0 379 45l18 -125q-262 -59 -430 -59q-231 0 -351 118.5t-120 342.5q0 410 420 409q111 0 205 -25.5t145 -56.5v555q0 207 -213 207q-92 0 -365 -33l-57 -6l-6 117q309 63 463 63
q336 0 336 -350v-553h233v-141h-391z" />
    <glyph glyph-name="uniFEA3" unicode="&#x62d;" horiz-adv-x="1101" arabic-form="initial" 
d="M821 696q0 207 -213 207q-92 0 -364 -33l-58 -6l-6 117q309 63 463 63q336 0 336 -350v-694h-979v141h821v555z" />
    <glyph glyph-name="uniFEA4" unicode="&#x62d;" horiz-adv-x="1212" arabic-form="medial" 
d="M821 696q0 207 -213 207q-92 0 -364 -33l-58 -6l-6 117q309 63 463 63q336 0 336 -350v-553h233v-141h-1212v141h821v555z" />
    <glyph glyph-name="uniFEA6" unicode="&#x62e;" horiz-adv-x="1243" arabic-form="final" 
d="M852 0q-142 82 -350 82q-114 0 -186 -65.5t-72 -211.5q0 -313 342 -313q147 0 379 45l18 -125q-262 -59 -430 -59q-231 0 -351 118.5t-120 342.5q0 410 420 409q111 0 205 -25.5t145 -56.5v555q0 207 -213 207q-92 0 -365 -33l-57 -6l-6 117q309 63 463 63
q336 0 336 -350v-553h233v-141h-391zM489 1386h156v-172h-156v172z" />
    <glyph glyph-name="uniFEA7" unicode="&#x62e;" horiz-adv-x="1101" arabic-form="initial" 
d="M821 696q0 207 -213 207q-92 0 -364 -33l-58 -6l-6 117q309 63 463 63q336 0 336 -350v-694h-979v141h821v555zM494 1386h155v-172h-155v172z" />
    <glyph glyph-name="uniFEA8" unicode="&#x62e;" horiz-adv-x="1212" arabic-form="medial" 
d="M821 696q0 207 -213 207q-92 0 -364 -33l-58 -6l-6 117q309 63 463 63q336 0 336 -350v-553h233v-141h-1212v141h821v555zM528 1386h156v-172h-156v172z" />
    <glyph glyph-name="uniFEAA" unicode="&#x62f;" horiz-adv-x="1097" arabic-form="final" 
d="M1098 141v-141h-1016v141h666v238q0 303 -118 425t-276 122h-166l-10 116q20 8 83 16.5t120 8.5q223 0 373.5 -161t150.5 -523v-242h193z" />
    <glyph glyph-name="uniFEAC" unicode="&#x630;" horiz-adv-x="1097" arabic-form="final" 
d="M1098 141v-141h-1016v141h666v238q0 303 -118 425t-276 122h-166l-10 116q20 8 83 16.5t120 8.5q223 0 373.5 -161t150.5 -523v-242h193zM193 1442h155v-172h-155v172z" />
    <glyph glyph-name="uniFEAE" unicode="&#x631;" horiz-adv-x="827" arabic-form="final" 
d="M827 0h-256v-23q0 -487 -338 -487q-48 0 -108 6l-43 4v140q102 -8 129 -9q102 0 152.5 81t50.5 227v1083h157v-881h256v-141z" />
    <glyph glyph-name="uniFEB0" unicode="&#x632;" horiz-adv-x="827" arabic-form="final" 
d="M827 0h-256v-23q0 -487 -338 -487q-48 0 -108 6l-43 4v140q102 -8 129 -9q102 0 152.5 81t50.5 227v1083h157v-881h256v-141zM412 1386h155v-172h-155v172z" />
    <glyph glyph-name="uniFEB2" unicode="&#x633;" horiz-adv-x="2424" arabic-form="final" 
d="M2191 569v-428h234v-141h-615q-125 0 -227 86q-74 -86 -194 -86h-252v-82q0 -137 -71 -233.5t-188.5 -144.5t-262 -48t-267.5 55.5t-194.5 154.5t-71.5 244.5t82 612.5l151 -8q-75 -435 -75 -590q0 -96 50 -171t135 -116t184 -41t184.5 39t135.5 110t50 159v981h158v-781
h202q94 0 136.5 81t42.5 204v496h157v-494q0 -125 -28 -217q80 -70 172 -70h215v445q0 118 -37 432l129 6q65 -282 65 -455z" />
    <glyph glyph-name="uniFEB3" unicode="&#x633;" horiz-adv-x="1687" arabic-form="initial" 
d="M1544 569v-569h-381q-125 0 -227 86q-74 -86 -195 -86h-741v141h332v781h157v-781h203q94 0 136 81t42 204v496h158v-494q0 -125 -29 -217q80 -70 172 -70h215v445q0 126 -36 432l129 6q65 -293 65 -455z" />
    <glyph glyph-name="uniFEB4" unicode="&#x633;" horiz-adv-x="1736" arabic-form="medial" 
d="M1544 569v-428h193v-141h-574q-125 0 -227 86q-74 -86 -195 -86h-741v141h332v781h157v-781h203q94 0 136 81t42 204v496h158v-494q0 -125 -29 -217q80 -70 172 -70h215v445q0 126 -36 432l129 6q65 -282 65 -455z" />
    <glyph glyph-name="uniFEB6" unicode="&#x634;" horiz-adv-x="2424" arabic-form="final" 
d="M2191 569v-428h234v-141h-615q-125 0 -227 86q-74 -86 -194 -86h-252v-82q0 -137 -71 -233.5t-188.5 -144.5t-262 -48t-267.5 55.5t-194.5 154.5t-71.5 244.5t82 612.5l151 -8q-75 -435 -75 -590q0 -96 50 -171t135 -116t184 -41t184.5 39t135.5 110t50 159v981h158v-781
h202q94 0 136.5 81t42.5 204v496h157v-494q0 -125 -28 -217q80 -70 172 -70h215v445q0 118 -37 432l129 6q65 -282 65 -455zM1645 1386h155v-172h-155v172zM1389 1386h155v-172h-155v172zM1518 1636h153v-166h-153v166z" />
    <glyph glyph-name="uniFEB7" unicode="&#x634;" horiz-adv-x="1687" arabic-form="initial" 
d="M1544 569v-569h-381q-125 0 -227 86q-74 -86 -195 -86h-741v141h332v781h157v-781h203q94 0 136 81t42 204v496h158v-494q0 -125 -29 -217q80 -70 172 -70h215v445q0 126 -36 432l129 6q65 -293 65 -455zM997 1386h156v-172h-156v172zM741 1386h156v-172h-156v172z
M870 1636h154v-166h-154v166z" />
    <glyph glyph-name="uniFEB8" unicode="&#x634;" horiz-adv-x="1736" arabic-form="medial" 
d="M1544 569v-428h193v-141h-574q-125 0 -227 86q-74 -86 -195 -86h-741v141h332v781h157v-781h203q94 0 136 81t42 204v496h158v-494q0 -125 -29 -217q80 -70 172 -70h215v445q0 126 -36 432l129 6q65 -282 65 -455zM956 1386h156v-172h-156v172zM700 1386h156v-172h-156
v172zM829 1636h154v-166h-154v166z" />
    <glyph glyph-name="uniFEBA" unicode="&#x635;" horiz-adv-x="2424" arabic-form="final" 
d="M1137 141h888v351q0 176 -85 293.5t-246 117.5q-127 0 -235.5 -69.5t-176.5 -148.5t-145 -187v-357zM82 -53.5q0 145.5 82 612.5l151 -8q-76 -481 -75.5 -582.5t50.5 -177.5t135 -117t184 -41t183.5 39t135.5 110t51 159v1083h158v-328q93 114 167 186q168 162 416 162
t355.5 -158.5t107.5 -371.5v-373h242v-141h-1288v-82q0 -137 -71 -233.5t-188.5 -144.5t-262 -48t-267.5 55.5t-194.5 154.5t-71.5 244.5z" />
    <glyph glyph-name="uniFEBB" unicode="&#x635;" horiz-adv-x="1646" arabic-form="initial" 
d="M457 141h889v351q0 176 -85 293.5t-247 117.5q-127 0 -235.5 -69.5t-176 -148.5t-145.5 -187v-357zM1503 514v-514h-1503v141h299v883h158v-328q93 114 167 186q168 162 416 162t355.5 -158.5t107.5 -371.5z" />
    <glyph glyph-name="uniFEBC" unicode="&#x635;" horiz-adv-x="1695" arabic-form="medial" 
d="M457 141h889v351q0 176 -85 293.5t-247 117.5q-127 0 -235.5 -69.5t-176 -148.5t-145.5 -187v-357zM1696 141v-141h-1696v141h299v883h158v-328q93 114 167 186q168 162 416 162t355.5 -158.5t107.5 -371.5v-373h193z" />
    <glyph glyph-name="uniFEBE" unicode="&#x636;" horiz-adv-x="2424" arabic-form="final" 
d="M1137 141h888v351q0 176 -85 293.5t-246 117.5q-127 0 -235.5 -69.5t-176.5 -148.5t-145 -187v-357zM82 -53.5q0 145.5 82 612.5l151 -8q-76 -481 -75.5 -582.5t50.5 -177.5t135 -117t184 -41t183.5 39t135.5 110t51 159v1083h158v-328q93 114 167 186q168 162 416 162
t355.5 -158.5t107.5 -371.5v-373h242v-141h-1288v-82q0 -137 -71 -233.5t-188.5 -144.5t-262 -48t-267.5 55.5t-194.5 154.5t-71.5 244.5zM1518 1386h155v-172h-155v172z" />
    <glyph glyph-name="uniFEBF" unicode="&#x636;" horiz-adv-x="1646" arabic-form="initial" 
d="M457 141h889v351q0 176 -85 293.5t-247 117.5q-127 0 -235.5 -69.5t-176 -148.5t-145.5 -187v-357zM1503 514v-514h-1503v141h299v883h158v-328q93 114 167 186q168 162 416 162t355.5 -158.5t107.5 -371.5zM870 1386h156v-172h-156v172z" />
    <glyph glyph-name="uniFEC0" unicode="&#x636;" horiz-adv-x="1695" arabic-form="medial" 
d="M457 141h889v351q0 176 -85 293.5t-247 117.5q-127 0 -235.5 -69.5t-176 -148.5t-145.5 -187v-357zM1696 141v-141h-1696v141h299v883h158v-328q93 114 167 186q168 162 416 162t355.5 -158.5t107.5 -371.5v-373h193zM829 1386h156v-172h-156v172z" />
    <glyph glyph-name="uniFEC2" unicode="&#x637;" horiz-adv-x="1597" arabic-form="final" 
d="M317 141h889v351q0 176 -85 293.5t-247 117.5q-126 0 -235 -69.5t-176.5 -148.5t-145.5 -187v-357zM1597 141v-141h-1548v141h111v1329h157v-774q92 114 167 186q169 162 417 162t355.5 -158.5t107.5 -371.5v-373h233z" />
    <glyph glyph-name="uniFEC3" unicode="&#x637;" horiz-adv-x="1527" arabic-form="initial" 
d="M350 217v-76h897v375q0 135 -50 222t-126 126t-153 39q-146 0 -276 -124t-211 -290.5t-81 -271.5zM1405 514v-514h-1405v141h193v1329h157v-897q127 213 268.5 342t329.5 129q117 0 220.5 -53t170 -173t66.5 -304z" />
    <glyph glyph-name="uniFEC4" unicode="&#x637;" horiz-adv-x="1597" arabic-form="medial" 
d="M350 217v-76h897v375q0 135 -50 222t-126 126t-153 39q-146 0 -276 -124t-211 -290.5t-81 -271.5zM1597 141v-141h-1597v141h193v1329h157v-897q127 213 268.5 342t329.5 129q117 0 220.5 -53t170 -173t66.5 -304v-373h192z" />
    <glyph glyph-name="uniFEC6" unicode="&#x638;" horiz-adv-x="1597" arabic-form="final" 
d="M317 141h889v351q0 176 -85 293.5t-247 117.5q-126 0 -235 -69.5t-176.5 -148.5t-145.5 -187v-357zM1597 141v-141h-1548v141h111v1329h157v-774q92 114 167 186q169 162 417 162t355.5 -158.5t107.5 -371.5v-373h233zM700 1386h156v-172h-156v172z" />
    <glyph glyph-name="uniFEC7" unicode="&#x638;" horiz-adv-x="1527" arabic-form="initial" 
d="M350 217v-76h897v375q0 135 -50 222t-126 126t-153 39q-146 0 -276 -124t-211 -290.5t-81 -271.5zM1405 514v-514h-1405v141h193v1329h157v-897q127 213 268.5 342t329.5 129q117 0 220.5 -53t170 -173t66.5 -304zM707 1386h155v-172h-155v172z" />
    <glyph glyph-name="uniFEC8" unicode="&#x638;" horiz-adv-x="1597" arabic-form="medial" 
d="M350 217v-76h897v375q0 135 -50 222t-126 126t-153 39q-146 0 -276 -124t-211 -290.5t-81 -271.5zM1597 141v-141h-1597v141h193v1329h157v-897q127 213 268.5 342t329.5 129q117 0 220.5 -53t170 -173t66.5 -304v-373h192zM700 1386h156v-172h-156v172z" />
    <glyph glyph-name="uniFECA" unicode="&#x639;" horiz-adv-x="1208" arabic-form="final" 
d="M592 903q-143 0 -348 -76q0 -165 95 -311.5t251 -249.5q158 102 253 249t95 312q-203 76 -346 76zM991 0q-217 0 -401 94l-27 -12q-131 -4 -197.5 -69.5t-66.5 -205.5q0 -315 340 -315q150 0 381 45l18 -125l-67 -14q-211 -45 -363 -45q-231 0 -351 119.5t-120 345.5
q0 170 69.5 264t209.5 127q-147 121 -235.5 277.5t-92.5 275.5l-6 145q262 137 505 137t511 -137l-6 -145q-9 -182 -165 -388q-79 -104 -188 -184q127 -49 252 -49h217v-141h-217z" />
    <glyph glyph-name="uniFECB" unicode="&#x639;" horiz-adv-x="1140" arabic-form="initial" 
d="M663.5 1044q192.5 0 354.5 -81l-6 -140q-31 23 -131.5 51.5t-182.5 28.5q-141 0 -216.5 -94t-75.5 -241.5t48 -255t119 -171.5h506v-141h-1079v141h383q-57 66 -96 176.5t-39 245.5q0 215 111.5 348t304 133z" />
    <glyph glyph-name="uniFECC" unicode="&#x639;" horiz-adv-x="1255" arabic-form="medial" 
d="M639 903q-143 0 -348 -76q0 -168 94 -314t252 -247q156 100 252 248t96 313q-203 76 -346 76zM0 0v141h236q125 0 249 47q-158 121 -252 285t-98 289l-6 145q262 137 505 137t511 -137l-6 -145q-9 -182 -165 -388q-79 -104 -186 -184q123 -49 250 -49h217v-141h-215
q-219 0 -403 94q-192 -94 -395 -94h-242z" />
    <glyph glyph-name="uniFECE" unicode="&#x63a;" horiz-adv-x="1208" arabic-form="final" 
d="M592 903q-143 0 -348 -76q0 -165 95 -311.5t251 -249.5q158 102 253 249t95 312q-203 76 -346 76zM991 0q-217 0 -401 94l-27 -12q-131 -4 -197.5 -69.5t-66.5 -205.5q0 -315 340 -315q150 0 381 45l18 -125l-67 -14q-211 -45 -363 -45q-231 0 -351 119.5t-120 345.5
q0 170 69.5 264t209.5 127q-147 121 -235.5 277.5t-92.5 275.5l-6 145q262 137 505 137t511 -137l-6 -145q-9 -182 -165 -388q-79 -104 -188 -184q127 -49 252 -49h217v-141h-217zM506 1386h156v-172h-156v172z" />
    <glyph glyph-name="uniFECF" unicode="&#x63a;" horiz-adv-x="1140" arabic-form="initial" 
d="M663.5 1044q192.5 0 354.5 -81l-6 -140q-31 23 -131.5 51.5t-182.5 28.5q-141 0 -216.5 -94t-75.5 -241.5t48 -255t119 -171.5h506v-141h-1079v141h383q-57 66 -96 176.5t-39 245.5q0 215 111.5 348t304 133zM578 1386h155v-172h-155v172z" />
    <glyph glyph-name="uniFED0" unicode="&#x63a;" horiz-adv-x="1255" arabic-form="medial" 
d="M639 903q-143 0 -348 -76q0 -168 94 -314t252 -247q156 100 252 248t96 313q-203 76 -346 76zM0 0v141h236q125 0 249 47q-158 121 -252 285t-98 289l-6 145q262 137 505 137t511 -137l-6 -145q-9 -182 -165 -388q-79 -104 -186 -184q123 -49 250 -49h217v-141h-215
q-219 0 -403 94q-192 -94 -395 -94h-242zM551 1386h156v-172h-156v172z" />
    <glyph glyph-name="uniFED2" unicode="&#x641;" horiz-adv-x="2023" arabic-form="final" 
d="M1686 141v736q-139 10 -197 10q-129 0 -196.5 -39t-93 -123t-25.5 -233q-1 -261 75 -351h437zM223 373.5q0 -90.5 36 -140t119 -71t232 -21.5h463q-55 109 -55 333t44 339t147.5 162t276.5 47t300 -14l57 -7v-860h180v-141h-1411q-197 0 -311.5 33t-166.5 104.5t-52 218
t65 443.5l123 -6q-47 -329 -47 -419.5zM1423 1386h156v-172h-156v172z" />
    <glyph glyph-name="uniFED3" unicode="&#x641;" horiz-adv-x="1183" arabic-form="initial" 
d="M903 141v736q-139 10 -196 10q-129 0 -197 -39t-93.5 -123t-25.5 -233q0 -261 76 -351h436zM1061 0h-1061v141h291q-55 109 -55 333t44 339t147 162t276.5 47t300.5 -14l57 -7v-1001zM610 1386h156v-172h-156v172z" />
    <glyph glyph-name="uniFED4" unicode="&#x641;" horiz-adv-x="1241" arabic-form="medial" 
d="M903 141v736q-139 10 -196 10q-129 0 -197 -39t-93.5 -123t-25.5 -233q0 -261 76 -351h436zM1241 141v-141h-1241v141h291q-55 109 -55 333t44 339t147 162t276.5 47t300.5 -14l57 -7v-860h180zM567 1386h156v-172h-156v172z" />
    <glyph glyph-name="uniFED6" unicode="&#x642;" horiz-adv-x="1843" arabic-form="final" 
d="M1210 141h244v733q-141 12 -192 13q-123 0 -192 -42t-97.5 -129t-28.5 -227.5t25.5 -214t83 -103.5t157.5 -30zM240 -39q0 -154 80.5 -242t244.5 -88h561q166 0 247 88t81 242v39h-297q-141 0 -220 41t-115 143.5t-36 296t41 311t139.5 175t261.5 57.5t326 -16l58 -7
v-860h231v-141h-231v-76q0 -197 -127 -315.5t-350 -118.5h-576q-223 0 -350 119t-127 317q0 150 74 580l149 -25q-65 -414 -65 -520zM1319 1386h156v-172h-156v172zM1063 1386h156v-172h-156v172z" />
    <glyph glyph-name="uniFED7" unicode="&#x642;" horiz-adv-x="1183" arabic-form="initial" 
d="M903 141v736q-139 10 -196 10q-129 0 -197 -39t-93.5 -123t-25.5 -233q0 -261 76 -351h436zM1061 0h-1061v141h291q-55 109 -55 333t44 339t147 162t276.5 47t300.5 -14l57 -7v-1001zM739 1386h156v-172h-156v172zM483 1386h156v-172h-156v172z" />
    <glyph glyph-name="uniFED8" unicode="&#x642;" horiz-adv-x="1241" arabic-form="medial" 
d="M903 141v736q-139 10 -196 10q-129 0 -197 -39t-93.5 -123t-25.5 -233q0 -261 76 -351h436zM1241 141v-141h-1241v141h291q-55 109 -55 333t44 339t147 162t276.5 47t300.5 -14l57 -7v-860h180zM696 1386h156v-172h-156v172zM440 1386h156v-172h-156v172z" />
    <glyph glyph-name="uniFEDA" unicode="&#x643;" horiz-adv-x="1679" arabic-form="final" 
d="M631 141h586v1329h157v-1329h305v-141h-1046q-197 0 -311.5 33t-167 104.5t-52.5 203.5t54 398l127 -6q-40 -285 -39.5 -367.5t36 -132t118.5 -71t233 -21.5zM629 930q0 -53 47 -88l233 61l23 -94l-418 -82l-18 66l98 26q-70 57 -70 139.5t53.5 136.5t137.5 54
q47 0 88 -16.5t61 -32.5l-20 -78q-37 31 -92 31t-89 -35t-34 -88z" />
    <glyph glyph-name="uniFEDB" unicode="&#x643;" horiz-adv-x="1200" arabic-form="initial" 
d="M1077 436v-436h-1077v141h920v297q0 123 -46.5 213t-152.5 92h-555l-105 142l107 209q75 149 262 376l113 -63q-163 -245 -228 -371l-77 -151h495q178 0 261 -125t83 -324z" />
    <glyph glyph-name="uniFEDC" unicode="&#x643;" horiz-adv-x="1370" arabic-form="medial" 
d="M1370 141v-141h-1370v141h920v297q0 123 -46.5 213t-152.5 92h-555l-105 142l107 209q75 149 262 376l113 -63q-163 -245 -228 -371l-77 -151h495q178 0 261 -125t83 -324v-295h293z" />
    <glyph glyph-name="uniFEDE" unicode="&#x644;" horiz-adv-x="1372" arabic-form="final" 
d="M240 -43q0 -108 50 -178t136 -108t190 -38q152 0 257.5 79t105.5 225v1533h158v-1329h235v-141h-235v-82q0 -137 -71 -233.5t-188.5 -144.5t-262 -48t-267.5 55.5t-194.5 153.5t-71.5 247t82 611l151 -8q-75 -486 -75 -594z" />
    <glyph glyph-name="uniFEDF" unicode="&#x644;" horiz-adv-x="593" arabic-form="initial" 
d="M410 1470v-1470h-410v141h252v1329h158z" />
    <glyph glyph-name="uniFEE0" unicode="&#x644;" horiz-adv-x="669" arabic-form="medial" 
d="M670 141v-141h-670v141h252v1329h158v-1329h260z" />
    <glyph glyph-name="uniFEE2" unicode="&#x645;" horiz-adv-x="1343" arabic-form="final" 
d="M387 510q0 -195 29 -369h538v373q0 209 -88 299t-268 90q-100 0 -178 -20q-33 -178 -33 -373zM84 -223q0 271 178 342q-33 172 -33 345q0 309 54 525q49 20 143 37.5t199 17.5q250 0 368.5 -122.5t118.5 -409.5v-291q68 -80 166 -80h65v-141h-65q-80 0 -166 82v-82h-659
q-227 0 -228 -281q0 -129 56 -385l-134 -4q-63 295 -63 447z" />
    <glyph glyph-name="uniFEE3" unicode="&#x645;" horiz-adv-x="1314" arabic-form="initial" 
d="M467 502q0 -203 29 -361h538v373q0 209 -88 299t-268 90q-100 0 -178 -20q-33 -178 -33 -381zM1192 512v-512h-1192v141h338q-29 176 -29 400.5t53 447.5q49 20 143.5 37.5t199.5 17.5q249 0 368 -122.5t119 -409.5z" />
    <glyph glyph-name="uniFEE4" unicode="&#x645;" horiz-adv-x="1421" arabic-form="medial" 
d="M467 502q0 -203 29 -361h538v373q0 209 -88 299t-268 90q-100 0 -178 -20q-33 -178 -33 -381zM1356 0q-84 0 -164 80v-80h-1192v141h338q-29 176 -29 400.5t53 447.5q49 20 143.5 37.5t199.5 17.5q250 0 368.5 -122.5t118.5 -409.5v-293q66 -78 164 -78h65v-141h-65z" />
    <glyph glyph-name="uniFEE6" unicode="&#x646;" horiz-adv-x="1370" arabic-form="final" 
d="M240 -43q0 -108 50 -178t136 -108t190 -38q152 0 257.5 79t105.5 225v1087h158v-883h233v-141h-233v-82q0 -137 -71 -233.5t-188.5 -144.5t-262 -48t-267.5 55.5t-194.5 153.5t-71.5 247t82 611l151 -8q-75 -486 -75 -594zM547 1196h155v-172h-155v172z" />
    <glyph glyph-name="uniFEE7" unicode="&#x646;" horiz-adv-x="626" arabic-form="initial" 
d="M463 1024v-1024h-463v141h305v883h158zM305 1386h156v-172h-156v172z" />
    <glyph glyph-name="uniFEE8" unicode="&#x646;" horiz-adv-x="768" arabic-form="medial" 
d="M768 141v-141h-768v141h305v883h158v-883h305zM305 1386h156v-172h-156v172z" />
    <glyph glyph-name="uniFEEA" unicode="&#x647;" horiz-adv-x="1247" arabic-form="final" 
d="M592 141h264v748q-180 12 -278 12q-186 0 -262 -88t-76 -291q0 -141 33.5 -223t109.5 -120t209 -38zM583.5 1044q210.5 0 430.5 -22v-881h233v-141h-682q-182 0 -286.5 51t-150.5 163t-46 303t44 306t145.5 168t312 53z" />
    <glyph glyph-name="uniFEEB" unicode="&#x647;" horiz-adv-x="1556" arabic-form="initial" 
d="M393 324v-183h424v183q0 88 -60.5 149.5t-150.5 61.5t-151.5 -61.5t-61.5 -149.5zM737 971q-134 0 -434 -51l-10 120q266 72 473 72q289 0 478.5 -159.5t189.5 -524.5v-428h-1434v141h236v164q0 100 50 185t135 135.5t184 50.5t184 -48t135.5 -133t50.5 -190v-164h301
v283q0 303 -152.5 425t-386.5 122z" />
    <glyph glyph-name="uniFEEC" unicode="&#x647;" horiz-adv-x="1636" arabic-form="medial" 
d="M393 324v-183h424v183q0 88 -60.5 149.5t-150.5 61.5t-151.5 -61.5t-61.5 -149.5zM737 971q-134 0 -434 -51l-10 120q266 72 473 72q289 0 478.5 -159.5t189.5 -524.5v-287h202v-141h-1636v141h236v164q0 100 50 185t135 135.5t184 50.5t184 -48t135.5 -133t50.5 -190
v-164h301v283q0 303 -152.5 425t-386.5 122z" />
    <glyph glyph-name="uniFEEE" unicode="&#x648;" horiz-adv-x="1161" arabic-form="final" 
d="M510 141h242v766q-111 14 -214.5 14.5t-173 -46t-97 -135.5t-27.5 -240.5t53 -255t217 -103.5zM524 1063q176 0 385 -39v-883h252v-141h-256q-12 -258 -95 -383t-261 -125q-94 0 -309 31v139q190 -29 280 -29t134 26q98 58 98 341h-301q-223 0 -296 141.5t-73 349
t37 327.5t133 182.5t272 62.5z" />
    <glyph glyph-name="uniFEF0" unicode="&#x649;" horiz-adv-x="1871" arabic-form="final" 
d="M1872 0h-260v-27q0 -219 -117 -350t-336 -131h-538q-150 0 -273 55.5t-194.5 154.5t-71.5 225t53 454l150 -25q-45 -301 -45 -395t50 -170t135 -117t185 -41l541 -2q145 0 224 93.5t79 236.5q0 27 -2 39h-49q-160 0 -252 59l66 117q37 -25 78.5 -30t121.5 -5h455v-141z
" />
    <glyph glyph-name="uniFEF2" unicode="&#x64a;" horiz-adv-x="1871" arabic-form="final" 
d="M1872 0h-260v-27q0 -219 -117 -350t-336 -131h-538q-150 0 -273 55.5t-194.5 154.5t-71.5 225t53 454l150 -25q-45 -301 -45 -395t50 -170t135 -117t185 -41l541 -2q145 0 224 93.5t79 236.5q0 27 -2 39h-49q-160 0 -252 59l66 117q37 -25 78.5 -30t121.5 -5h455v-141z
M895 -655h156v-172h-156v172zM639 -655h156v-172h-156v172z" />
    <glyph glyph-name="uniFEF3" unicode="&#x64a;" horiz-adv-x="626" arabic-form="initial" 
d="M463 1024v-1024h-463v141h305v883h158zM432 -164h156v-172h-156v172zM176 -164h156v-172h-156v172z" />
    <glyph glyph-name="uniFEF4" unicode="&#x64a;" horiz-adv-x="768" arabic-form="medial" 
d="M768 141v-141h-768v141h305v883h158v-883h305zM432 -164h156v-172h-156v172zM176 -164h156v-172h-156v172z" />
    <glyph glyph-name=".notdef" horiz-adv-x="481" 
 />
    <glyph glyph-name="uni0000" horiz-adv-x="0" 
 />
    <glyph glyph-name="uni0000" horiz-adv-x="0" 
 />
    <glyph glyph-name="nonmarkingreturn" horiz-adv-x="481" 
 />
    <glyph glyph-name="uni000D" unicode="&#xd;" horiz-adv-x="681" 
 />
    <glyph glyph-name="space" unicode=" " horiz-adv-x="450" 
 />
    <glyph glyph-name="exclam" unicode="!" horiz-adv-x="505" 
d="M170 229h168v-229h-168v229zM172 1417h162l-10 -950h-142z" />
    <glyph glyph-name="quotedbl" unicode="&#x22;" horiz-adv-x="763" 
d="M475 1417h154l-11 -454h-137zM137 1417h154l-10 -454h-138z" />
    <glyph glyph-name="numbersign" unicode="#" 
d="M731 487v381h-315v-381h315zM276 356h-227v131h227v381h-227v131h227v365h140v-365h315v365h139v-365h228v-131h-228v-381h228v-131h-228v-356h-139v356h-315v-356h-140v356z" />
    <glyph glyph-name="dollar" unicode="$" 
d="M860 387q0 72 -21.5 113t-69.5 64.5t-138 45.5l-64 -495q150 0 221.5 67.5t71.5 204.5zM293 1018q0 -74 23.5 -117t76.5 -70.5t154 -52.5l59 461q-172 0 -242.5 -47t-70.5 -174zM141 1010q0 199 105.5 280.5t328.5 81.5l48 -2l34 264h105l-35 -270q133 -12 213 -25l43 -6
l-12 -127l-58 6q-150 16 -202 21l-62 -477q139 -33 216 -73t112 -106.5t35 -179.5q0 -416 -432 -415h-31l-29 -236q-104 6 -104 14l28 228q-92 8 -260 32l-32 5l16 125q156 -20 293 -31l67 512q-147 35 -229 78t-120 113.5t-38 187.5z" />
    <glyph glyph-name="percent" unicode="%" 
d="M967 268q0 94 -22.5 136t-78 42t-79 -40t-23.5 -136t24.5 -141t78 -45t77 45t23.5 139zM641 270q0 281 224 281t225 -279q0 -145 -58 -218.5t-166 -73.5t-166.5 73.5t-58.5 216.5zM385 1094q0 90 -23.5 132t-77 42t-78 -42t-24.5 -132q0 -188 103 -189q100 0 100 189z
M57 1092q0 281 225.5 280.5t225.5 -280.5q0 -145 -58.5 -218t-167 -73t-167 72.5t-58.5 218.5zM317 -8l420 1403l99 -33l-420 -1399z" />
    <glyph glyph-name="ampersand" unicode="&#x26;" horiz-adv-x="1409" 
d="M242 426q0 -307 329 -307q259 0 353 184l-432 430q-133 -41 -191.5 -109.5t-58.5 -197.5zM844 1108q0 195 -202 195t-202 -191q0 -127 92 -225l60 -58q139 60 195.5 120.5t56.5 158.5zM86 396q0 194 76 287t241 146q-61 68 -88.5 133.5t-27.5 149.5q0 160 93 242t266 82
t262 -80t89 -224t-71.5 -230.5t-243.5 -164.5l311 -307q45 129 58 332l149 -2q-29 -262 -94 -426l264 -250l-92 -102l-248 231q-82 -131 -189.5 -182t-267.5 -51q-256 0 -371.5 111t-115.5 305z" />
    <glyph glyph-name="quotesingle" unicode="'" horiz-adv-x="425" 
d="M137 1417h154l-10 -454h-138z" />
    <glyph glyph-name="parenleft" unicode="(" horiz-adv-x="540" 
d="M270 604q0 -336 195 -860h-148q-213 482 -213 878t213 914h148q-76 -203 -135.5 -475.5t-59.5 -456.5z" />
    <glyph glyph-name="parenright" unicode=")" horiz-adv-x="540" 
d="M268 602q0 209 -57 466t-135 468h147q213 -520 213 -915.5t-213 -876.5h-147q192 525 192 858z" />
    <glyph glyph-name="asterisk" unicode="*" horiz-adv-x="860" 
d="M764 1149v-102h-270l84 -256l-101 -31l-84 258l-219 -162l-63 82l221 162l-217 157l63 86l217 -159l84 258l101 -33l-82 -260h266z" />
    <glyph glyph-name="plus" unicode="+" 
d="M500 444h-387v140h387v399h143v-399h391v-140h-391v-403h-143v403z" />
    <glyph glyph-name="comma" unicode="," horiz-adv-x="456" 
d="M164 219h170l-137 -471h-127z" />
    <glyph glyph-name="hyphen" unicode="-" horiz-adv-x="897" 
d="M139 635h621v-143h-621v143z" />
    <glyph glyph-name="period" unicode="." horiz-adv-x="442" 
d="M137 233h168v-233h-168v233z" />
    <glyph glyph-name="slash" unicode="/" horiz-adv-x="843" 
d="M66 20l577 1430l137 -51l-577 -1428z" />
    <glyph glyph-name="zero" unicode="0" 
d="M903 676q0 209 -34.5 330.5t-106.5 174t-188.5 52.5t-188.5 -52.5t-106.5 -174t-34.5 -330.5t34.5 -331t106.5 -174t188.5 -52t188.5 52t106.5 174t34.5 331zM80 676q0 254 54 407.5t163 222t276 68.5q250 0 371 -161.5t121 -536.5q0 -493 -163.5 -594.5t-329.5 -101.5
t-275 67.5t-163 221t-54 407.5z" />
    <glyph glyph-name="one" unicode="1" 
d="M797 1352v-1352h-158v1176l-348 -230l-72 119l430 287h148z" />
    <glyph glyph-name="two" unicode="2" 
d="M528 1231q-142 0 -311 -35l-53 -10l-12 131q192 55 402 55t313.5 -88t103.5 -274q0 -139 -61.5 -246t-221.5 -260l-360 -367h678v-137h-865v133l396 416q94 98 183 201.5t89 237.5t-69.5 188.5t-211.5 54.5z" />
    <glyph glyph-name="three" unicode="3" 
d="M521 115q147 0 237 59t90 207q0 246 -279 254h-272v135h272q59 0 115.5 32t93.5 89t37 129q0 113 -64.5 163t-220.5 50t-315 -31l-53 -10l-15 125q189 57 411 57t320.5 -84t98.5 -268q0 -100 -53.5 -184t-147.5 -123q84 -31 159 -87.5t75 -253.5q0 -196 -106.5 -295
t-332.5 -99q-176 -1 -381 40l-63 15l14 129q233 -49 380 -49z" />
    <glyph glyph-name="four" unicode="4" 
d="M737 264h-655v123l385 965h172l-391 -949h489v422h158v-422h172v-139h-172v-264h-158v264z" />
    <glyph glyph-name="five" unicode="5" 
d="M540 121q162 0 245 82t83 230t-72.5 213t-213.5 65q-68 0 -149 -19.5t-130 -42.5l-43 -20l-108 20l36 703h789v-144h-658l-36 -440q158 84 317 84q430 0 430 -399q0 -227 -117.5 -349t-334.5 -122q-176 0 -381 45l-68 14l18 125q231 -45 393 -45z" />
    <glyph glyph-name="six" unicode="6" 
d="M895 420q0 144 -78 214.5t-215 70.5t-291 -58l-47 -20q2 -240 81 -374t233 -134t235.5 78.5t81.5 222.5zM102 682q0 348 136.5 519t392.5 171q166 0 315 -24l55 -11l-14 -129q-184 25 -358 25t-268.5 -121t-94.5 -346l51 20q59 23 143.5 41.5t143.5 18.5q455 0 455 -420
q0 -215 -124 -330.5t-349 -115.5q-484 0 -484 702z" />
    <glyph glyph-name="seven" unicode="7" 
d="M838 1208h-680v144h839v-207l-520 -1165l-149 47l510 1128v53z" />
    <glyph glyph-name="eight" unicode="8" 
d="M911 383q0 104 -56 157.5t-183 90.5h-215q-115 -31 -169.5 -92.5t-54.5 -167.5q0 -248 339 -248t339 260zM891 1004q0 227 -317.5 227t-317.5 -225q0 -90 48 -145.5t153 -92.5h215q113 37 166 92t53 144zM66 344q0 139 53 216t180 147q-113 57 -162 127.5t-49 189.5
q0 174 127 262t355 88t358.5 -91t130.5 -261q0 -125 -49 -191.5t-176 -123.5q129 -57 187 -133t58 -207q-1 -387 -507 -387t-506 364z" />
    <glyph glyph-name="nine" unicode="9" 
d="M553 1233q-143 0 -224 -83t-81 -226q0 -272 291 -273q126 1 288 56l54 18q-6 508 -328 508zM526 512q-442 0 -442 412q0 207 127 327.5t342 120.5q489 0 489 -721q0 -350 -133 -510.5t-403 -160.5q-150 -1 -318 28l-53 8l15 127q184 -25 356 -24q369 0 373 471
q-209 -78 -353 -78z" />
    <glyph glyph-name="colon" unicode=":" horiz-adv-x="444" 
d="M137 233h168v-233h-168v233zM137 893h168v-234h-168v234z" />
    <glyph glyph-name="semicolon" unicode=";" horiz-adv-x="507" 
d="M193 219h169l-137 -471h-127zM178 893h168v-234h-168v234z" />
    <glyph glyph-name="less" unicode="&#x3c;" 
d="M125 446v136l852 415v-159l-694 -322l694 -328v-161z" />
    <glyph glyph-name="equal" unicode="=" 
d="M131 395h885v-141h-885v141zM131 774h885v-141h-885v141z" />
    <glyph glyph-name="greater" unicode="&#x3e;" 
d="M168 188l694 328l-694 322v159l852 -415v-136l-852 -419v161z" />
    <glyph glyph-name="question" unicode="?" horiz-adv-x="915" 
d="M315 231h168v-229h-168v229zM684 1101q0 197 -246 197q-114 0 -344 -47l-10 125q205 61 342 62q213 0 313.5 -78t100.5 -250q0 -92 -14.5 -147.5t-53 -103t-132.5 -125.5t-133.5 -131.5t-39.5 -119.5v-71h-129q-27 53 -27 122t43.5 128t137.5 140t143 137.5t49 161.5z
" />
    <glyph glyph-name="at" unicode="@" horiz-adv-x="2000" 
d="M1020 899q-98 0 -158.5 -41t-86 -127t-25.5 -231q0 -375 215 -375q90 0 299 94q-18 111 -19 354v285q-127 41 -225 41zM104 535q0 485 232.5 715.5t691.5 230.5t671 -209t212 -647v-27q0 -452 -114 -531t-236 -79q-197 0 -250 123q-201 -121 -365 -121t-258 105.5
t-94 381.5q0 201 41 323t131 178t244 56q90 0 198 -39l37 -14v33h154v-391q0 -354 22 -426q27 -70 64 -75t86 -5q150 0 167 166t17 315v29q0 256 -73.5 412.5t-231.5 231.5t-420 75q-395 0 -582.5 -196t-187.5 -626q0 -293 79 -468t247 -256t446 -81l293 21l6 -137
q-193 -18 -299 -19q-244 0 -406.5 46t-281.5 153q-240 209 -240 752z" />
    <glyph glyph-name="A" unicode="A" horiz-adv-x="1220" 
d="M342 506h537l-215 776h-107zM913 365h-606l-102 -365h-156l389 1417h344l389 -1417h-155z" />
    <glyph glyph-name="B" unicode="B" horiz-adv-x="1261" 
d="M709 139q139 0 211.5 59.5t72.5 197.5t-79.5 196.5t-215.5 58.5h-366v-512h377zM696 788q252 0 252 250q0 127 -63.5 183.5t-202.5 56.5h-350v-490h364zM174 1417h514q215 0 318.5 -89t103.5 -277q0 -125 -45 -200t-137 -120q115 -41 170 -123t55 -221
q0 -201 -111.5 -294t-326.5 -93h-541v1417z" />
    <glyph glyph-name="C" unicode="C" horiz-adv-x="1114" 
d="M121 708q0 255 43 411.5t156.5 237.5t303.5 81t406 -45l-6 -133q-452 81 -566 1.5t-143.5 -206.5t-29.5 -353t27.5 -343t113.5 -177.5t244 -60.5t354 37l6 -135q-210 -43 -400 -43t-306.5 80.5t-159.5 236.5t-43 411z" />
    <glyph glyph-name="D" unicode="D" horiz-adv-x="1320" 
d="M1042 729q0 287 -88 418t-274 131h-348v-1139h348q362 0 362 590zM1204 743q0 -389 -128 -566t-396 -177h-506v1417h506q215 0 330.5 -94t154.5 -239.5t39 -340.5z" />
    <glyph glyph-name="E" unicode="E" horiz-adv-x="1132" 
d="M332 1278v-490h581v-137h-581v-512h704v-139h-862v1417h862v-139h-704z" />
    <glyph glyph-name="F" unicode="F" horiz-adv-x="1077" 
d="M332 1278v-553h583v-139h-583v-586h-158v1417h848v-139h-690z" />
    <glyph glyph-name="G" unicode="G" horiz-adv-x="1261" 
d="M117 708q0 255 52 414.5t170.5 237.5t312.5 78t405 -41l69 -13l-6 -131q-254 43 -425 43t-258 -58t-121.5 -184t-34.5 -345.5t34.5 -345t120.5 -185t232 -59.5t303 28v437h-236v141h391v-696q-258 -49 -462 -49t-323.5 77.5t-171.5 236.5t-52 414z" />
    <glyph glyph-name="H" unicode="H" horiz-adv-x="1382" 
d="M1208 1417v-1417h-155v641h-721v-641h-158v1417h158v-635h721v635h155z" />
    <glyph glyph-name="I" unicode="I" horiz-adv-x="503" 
d="M174 1417h158v-1417h-158v1417z" />
    <glyph glyph-name="J" unicode="J" horiz-adv-x="591" 
d="M37 -6q106 0 151 14.5t62.5 59.5t17.5 149v1200h156l2 -1222q0 -156 -44 -230t-122 -93t-223 -19v141z" />
    <glyph glyph-name="K" unicode="K" horiz-adv-x="1165" 
d="M332 0h-158v1417h158v-659l233 8l363 651h180l-406 -712l428 -705h-186l-377 627l-235 -9v-618z" />
    <glyph glyph-name="L" unicode="L" horiz-adv-x="980" 
d="M954 141v-141h-780v1417h158v-1276h622z" />
    <glyph glyph-name="M" unicode="M" horiz-adv-x="1720" 
d="M1546 1417v-1417h-157v1249h-29l-412 -1198h-176l-412 1198h-28v-1249h-158v1417h285l401 -1200l402 1200h284z" />
    <glyph glyph-name="N" unicode="N" horiz-adv-x="1384" 
d="M1210 1417v-1417h-288l-551 1278h-39v-1278h-158v1417h295l545 -1278h41v1278h155z" />
    <glyph glyph-name="O" unicode="O" horiz-adv-x="1351" 
d="M1073 698q0 217 -36 346.5t-122 191.5t-239.5 62t-239.5 -61t-121.5 -190t-35.5 -344.5t34.5 -341t121.5 -184t243 -58.5t241 57t119.5 181t34.5 341zM117 701q0 257 53 418t176 240t330 79t329.5 -79t177 -240t54.5 -421t-52 -415.5t-174 -229t-333 -73.5t-334 75.5
t-175 232t-52 413.5z" />
    <glyph glyph-name="P" unicode="P" horiz-adv-x="1214" 
d="M690 616q293 0 293 345q0 166 -69.5 241.5t-223.5 75.5h-358v-662h358zM174 1417h518q231 0 342 -111.5t111 -344.5q0 -483 -453 -484h-360v-477h-158v1417z" />
    <glyph glyph-name="Q" unicode="Q" horiz-adv-x="1351" 
d="M1073 698q0 217 -36 346.5t-122 191.5t-239.5 62t-239.5 -61t-121.5 -190t-35.5 -344.5t34.5 -341t121.5 -184t243 -58.5t241 57t119.5 181t34.5 341zM676 -20q-211 0 -333 75.5t-174 232t-52 413.5t53 418t176 240t330 79t329.5 -79t177 -240t54.5 -421t-54.5 -415.5
t-181.5 -229.5l175 -280l-148 -70l-180 295q-68 -18 -172 -18z" />
    <glyph glyph-name="R" unicode="R" horiz-adv-x="1261" 
d="M700 682q289 0 289 298t-291 298h-366v-596h368zM174 1417h524q227 0 340 -105.5t113 -324.5q0 -330 -260 -412l272 -575h-174l-256 543h-401v-543h-158v1417z" />
    <glyph glyph-name="S" unicode="S" horiz-adv-x="1110" 
d="M551 121q303 0 303 285q0 78 -27.5 122.5t-94 73t-214.5 58.5t-241 75t-136 121t-43 203q0 381 457 381q158 0 428 -41l-14 -133q-295 35 -404 34q-307 0 -307 -231q0 -88 29.5 -134t101 -75.5t225.5 -63.5t237 -77t122 -113.5t39 -187.5q0 -436 -453 -436
q-144 -1 -375 34l-73 11l16 131q281 -37 424 -37z" />
    <glyph glyph-name="T" unicode="T" horiz-adv-x="1077" 
d="M463 1276h-436v141h1024v-141h-433v-1276h-155v1276z" />
    <glyph glyph-name="U" unicode="U" horiz-adv-x="1318" 
d="M164 430v987h158v-991q0 -307 331 -307q174 0 260 73.5t86 233.5v991h156v-987q0 -233 -124 -341.5t-373.5 -108.5t-371.5 107.5t-122 342.5z" />
    <glyph glyph-name="V" unicode="V" horiz-adv-x="1191" 
d="M49 1417h164l326 -1278h114l326 1278h164l-371 -1417h-352z" />
    <glyph glyph-name="W" unicode="W" horiz-adv-x="1814" 
d="M61 1417h164l242 -1278h59l289 1266h184l289 -1266h60l241 1278h162l-287 -1417h-288l-269 1210l-268 -1210h-289z" />
    <glyph glyph-name="X" unicode="X" horiz-adv-x="1142" 
d="M477 694l-438 723h178l358 -606l361 606h170l-436 -719l436 -698h-178l-357 588l-362 -588h-170z" />
    <glyph glyph-name="Y" unicode="Y" horiz-adv-x="1101" 
d="M631 0h-158v596l-453 821h179l352 -663l352 663h178l-450 -821v-596z" />
    <glyph glyph-name="Z" unicode="Z" horiz-adv-x="1097" 
d="M827 1278h-739v139h922v-184l-742 -1053v-41h742v-141h-922v182l739 1053v45z" />
    <glyph glyph-name="bracketleft" unicode="[" horiz-adv-x="673" 
d="M162 1534h430v-137h-275v-1512h275v-137h-430v1786z" />
    <glyph glyph-name="backslash" unicode="\" horiz-adv-x="892" 
d="M61 1389l138 59l630 -1419l-137 -58z" />
    <glyph glyph-name="bracketright" unicode="]" horiz-adv-x="673" 
d="M82 -252v137h274v1512h-274v137h430v-1786h-430z" />
    <glyph glyph-name="asciicircum" unicode="^" 
d="M498 1352h137l391 -699h-164l-293 547l-286 -547h-164z" />
    <glyph glyph-name="underscore" unicode="_" horiz-adv-x="1294" 
d="M209 -188h876v-136h-876v136z" />
    <glyph glyph-name="grave" unicode="`" horiz-adv-x="483" 
d="M-2 1384l53 132l443 -201l-43 -105z" />
    <glyph glyph-name="a" unicode="a" horiz-adv-x="1026" 
d="M240 297q0 -188 155 -188q138 0 275 47l47 16v338l-303 -29q-92 -8 -133 -53t-41 -131zM82 288q0 148 74.5 220t238.5 88l322 31v88q0 195 -168 194q-166 0 -404 -26l-6 116q219 45 397 45t256 -78.5t78 -250.5v-525q6 -76 119 -90l-6 -120q-162 0 -244 81
q-182 -81 -346 -81t-237.5 80t-73.5 228z" />
    <glyph glyph-name="b" unicode="b" horiz-adv-x="1077" 
d="M817 518q0 149 -22.5 232.5t-74.5 120t-155 36.5t-266 -59v-721q147 -10 197 -10q129 0 198.5 40t96 126t26.5 235zM147 1470h152v-497q160 71 303 71t221 -52t114 -166.5t36 -316.5t-45 -316.5t-150.5 -162.5t-269.5 -48t-303 14l-58 6v1468z" />
    <glyph glyph-name="c" unicode="c" horiz-adv-x="892" 
d="M504 1047q119 0 305 -33l-6 -125q-161 18 -263 18t-164.5 -35.5t-88 -120.5t-25.5 -239t24.5 -236.5t89 -120.5t187.5 -38l242 18l6 -127q-197 -28 -323 -28t-216 54t-129 170t-39 334t82 363.5t318 145.5z" />
    <glyph glyph-name="d" unicode="d" horiz-adv-x="1083" 
d="M260 515q0 -208 52.5 -303t177.5 -95t251 57l41 19v694q-133 25 -231 24q-162 0 -226.5 -94t-64.5 -302zM102 509q0 278 101.5 406.5t335.5 128.5q117 0 243 -26v452h152v-1470h-152v70q-158 -90 -317 -90q-195 0 -279 125.5t-84 403.5z" />
    <glyph glyph-name="e" unicode="e" horiz-adv-x="1034" 
d="M788 571q0 186 -59 265t-197 79t-206 -82.5t-70 -261.5h532zM102 496q0 548 424 548q214 0 315 -117.5t101 -361.5l-8 -116h-676q0 -127 39.5 -230.5t229.5 -103.5q189 0 317 12l59 6l4 -121q-227 -33 -377 -32q-233 0 -330.5 121t-97.5 395z" />
    <glyph glyph-name="f" unicode="f" horiz-adv-x="677" 
d="M475 1356q-76 0 -103.5 -61.5t-27.5 -180.5v-90h297v-133h-297v-891h-154v891h-129v133h129v92q0 145 27 226t86 115t164 34l207 -14l-2 -127q-193 6 -197 6z" />
    <glyph glyph-name="g" unicode="g" horiz-adv-x="1052" 
d="M842 -147q0 66 -22.5 99.5t-76 45.5t-153.5 12l-221 10q-68 -49 -91.5 -85.5t-23.5 -98.5q0 -106 62.5 -147t226.5 -41t231.5 46t67.5 159zM733 695q0 122 -53 173.5t-178 51.5t-179.5 -52.5t-54.5 -173.5t54.5 -172t179.5 -51t178 51t53 173zM354 220q0 -42 42 -58.5
t130 -16.5h80q135 0 263 -31.5t128 -252.5q0 -178 -110.5 -260t-352.5 -82t-337 68.5t-95 228.5q0 118 48.5 166.5t113.5 99.5q-57 35 -57 133q0 27 12 58.5t57 111.5q-162 72 -161 307q0 352 387 352q94 0 209 -26l303 8v-131l-195 4q68 -67 68 -231t-94.5 -242t-296.5 -78
q-63 0 -105 8q-37 -94 -37 -136z" />
    <glyph glyph-name="h" unicode="h" horiz-adv-x="1099" 
d="M614 1044q144 0 216.5 -48t102.5 -156.5t30 -298.5v-541h-154v537q0 152 -17.5 228.5t-65.5 109t-154 32.5t-232 -47l-39 -14v-846h-154v1470h154v-503q169 77 313 77z" />
    <glyph glyph-name="i" unicode="i" horiz-adv-x="446" 
d="M147 1024h152v-1024h-152v1024zM147 1434h152v-179h-152v179z" />
    <glyph glyph-name="j" unicode="j" horiz-adv-x="448" 
d="M150 1024h151v-999q0 -129 -29 -208t-99 -141q-71 -61 -212 -133l-61 119q112 64 162 110t69 101q18 55 19 154v997zM150 1434h151v-179h-151v179z" />
    <glyph glyph-name="k" unicode="k" horiz-adv-x="980" 
d="M147 1470h154v-868l160 8l293 414h174l-334 -471l348 -553h-174l-305 475l-162 -6v-469h-154v1470z" />
    <glyph glyph-name="l" unicode="l" horiz-adv-x="473" 
d="M160 1470h153v-1470h-153v1470z" />
    <glyph glyph-name="m" unicode="m" horiz-adv-x="1712" 
d="M1251 1044q125 0 195 -50t99.5 -158.5t29.5 -294.5v-541h-154v537q0 145 -16 223t-60.5 112.5t-122.5 34.5q-149 0 -266 -57l-38 -19q27 -66 26 -299v-532h-153v528q0 152 -16.5 231t-59.5 113.5t-120 34.5q-148 0 -259 -57l-35 -19v-831h-154v1024h152v-72
q154 92 321 92t244 -104q176 104 387 104z" />
    <glyph glyph-name="n" unicode="n" horiz-adv-x="1099" 
d="M612 1044q148 0 219.5 -49t101.5 -156.5t30 -297.5v-541h-152v537q0 145 -17.5 223t-62.5 112.5t-123 34.5q-151 0 -268 -57l-39 -19v-831h-154v1024h152v-72q165 92 313 92z" />
    <glyph glyph-name="o" unicode="o" horiz-adv-x="1081" 
d="M821 510q0 156 -24.5 242t-84 122.5t-170 36.5t-171 -36.5t-86 -122.5t-25.5 -241t23.5 -239t84 -121.5t174.5 -37.5t173 37.5t82.5 120.5t23.5 239zM102 509q0 192 43 309.5t139.5 171.5t257.5 54t256 -55t138 -172t43 -308t-41 -306t-136 -169t-260 -54t-261.5 54
t-137.5 168.5t-41 306.5z" />
    <glyph glyph-name="p" unicode="p" horiz-adv-x="1079" 
d="M821 511q0 210 -58 303t-173 93t-250 -61l-39 -21v-690q152 -23 225 -22q160 0 227.5 94t67.5 304zM612 1044q190 0 277.5 -125.5t87.5 -400.5q0 -195 -45 -312.5t-143.5 -171.5t-238.5 -54t-249 22v-457h-154v1479h152v-74q160 94 313 94z" />
    <glyph glyph-name="q" unicode="q" horiz-adv-x="1077" 
d="M554 911q-97 0 -168 -43t-99.5 -131t-28.5 -266t57 -266t183 -88t241 45l37 14v723q-125 12 -222 12zM102 504q0 199 46.5 316.5t150.5 170.5t287 53l342 -20v-1479h-152v502q-143 -68 -295 -67q-201 0 -290 121.5t-89 402.5z" />
    <glyph glyph-name="r" unicode="r" horiz-adv-x="708" 
d="M147 1024h152v-139q176 121 375 162v-156q-80 -16 -173 -50t-149 -63l-51 -26v-752h-154v1024z" />
    <glyph glyph-name="s" unicode="s" horiz-adv-x="952" 
d="M484 907q-238 1 -238 -139q0 -66 28.5 -96.5t74.5 -44t130 -27.5l51 -10q127 -23 197 -52.5t103.5 -85t33.5 -153.5q0 -166 -97 -242.5t-298 -76.5q-123 -1 -301 28l-62 10l9 134q239 -35 357 -35q238 -1 239 155q0 76 -30 109t-76 47t-130 27l-51 8q-123 20 -192.5 49
t-104.5 81t-35 144q0 166 101 235.5t265 69.5t316 -26l57 -10l-4 -132q-221 33 -343 33z" />
    <glyph glyph-name="t" unicode="t" horiz-adv-x="718" 
d="M201 352v539h-146v133h146v313h151v-313h326v-133h-326v-490q0 -115 8.5 -171t40 -85.5t99.5 -29.5l182 12l10 -127q-145 -23 -234 -23t-147.5 34t-84 115t-25.5 226z" />
    <glyph glyph-name="u" unicode="u" horiz-adv-x="1087" 
d="M137 489v535h154v-532q0 -154 16.5 -232t59.5 -110.5t133 -32.5q139 0 286 76v831h154v-1024h-154v72q-84 -49 -155 -70.5t-183 -21.5t-182.5 48t-99.5 156.5t-29 304.5z" />
    <glyph glyph-name="v" unicode="v" horiz-adv-x="985" 
d="M51 1024h164l240 -891h75l248 891h158l-289 -1024h-307z" />
    <glyph glyph-name="w" unicode="w" horiz-adv-x="1560" 
d="M63 1024h154l207 -891h33l243 871h160l244 -871h35l204 891h154l-244 -1024h-256l-217 801l-217 -801h-256z" />
    <glyph glyph-name="x" unicode="x" horiz-adv-x="925" 
d="M367 512l-322 512h168l250 -401l250 401h168l-326 -508l324 -516h-168l-248 399l-250 -399h-168z" />
    <glyph glyph-name="y" unicode="y" horiz-adv-x="989" 
d="M494 0h-152l-291 1024h154l256 -891h67l258 891h154l-426 -1479h-154z" />
    <glyph glyph-name="z" unicode="z" horiz-adv-x="931" 
d="M86 887v137h760v-137l-574 -750h574v-137h-760v137l573 750h-573z" />
    <glyph glyph-name="braceleft" unicode="{" horiz-adv-x="720" 
d="M341 -171q-87 83 -87 267l14 250q0 88 -51 142.5t-168 86.5v125q115 27 167 81.5t52 142.5l-14 262q0 188 87 270t296 90l2 -133q-131 -8 -183.5 -62.5t-52.5 -172.5l15 -252q0 -90 -18.5 -142.5t-64.5 -86t-132 -58.5q123 -37 169 -99.5t46 -191.5l-15 -237
q0 -119 52.5 -175.5t183.5 -64.5l-4 -133q-207 8 -294 91z" />
    <glyph glyph-name="bar" unicode="|" horiz-adv-x="471" 
d="M160 1470h151v-1925h-151v1925z" />
    <glyph glyph-name="braceright" unicode="}" horiz-adv-x="720" 
d="M82 -129q131 8 183 64.5t52 175.5l-14 237q0 129 46 191.5t169 99.5q-86 25 -132 58.5t-64.5 86t-18.5 142.5l14 252q0 119 -52 173t-183 62l2 133q209 -8 296 -90t87 -270l-14 -262q0 -88 52 -142.5t167 -81.5v-125q-117 -33 -168 -87t-51 -142l14 -250q0 -184 -87 -267
t-294 -91z" />
    <glyph glyph-name="asciitilde" unicode="~" 
d="M376 526q-36 0 -89.5 -22.5t-91.5 -48.5l-35 -25l-23 127q127 109 238 109q59 0 209 -62t210 -63q58 0 164 69l35 25l21 -125q-129 -111 -238 -111q-57 1 -210 64q-154 63 -190 63z" />
    <glyph glyph-name="uni00A0" unicode="&#xa0;" horiz-adv-x="450" 
 />
    <glyph glyph-name="exclamdown" unicode="&#xa1;" horiz-adv-x="466" 
d="M301 557l10 -950h-161l10 950h141zM315 1024v-229h-168v229h168z" />
    <glyph glyph-name="cent" unicode="&#xa2;" 
d="M207 505q0 224 88 330.5t274 116.5v242h133v-248l207 -24l-6 -123q-152 14 -284 14t-192 -68.5t-60 -210.5t25.5 -205t87 -90.5t171.5 -27.5l254 14l6 -125q-131 -20 -209 -22v-244h-133v240q-193 10 -277.5 108.5t-84.5 322.5z" />
    <glyph glyph-name="sterling" unicode="&#xa3;" 
d="M164 135h174v586h-137v133h137v113q0 160 29.5 246.5t94 122.5t176.5 36t230 -24l45 -11l-2 -125q-170 23 -247 23t-127 -35.5t-50 -243.5v-102h351v-133h-351v-586h316l158 33l26 -131l-168 -37h-655v135z" />
    <glyph glyph-name="currency" unicode="&#xa4;" 
d="M809 516q0 96 -69.5 166t-166 70t-166 -70t-69.5 -166t69.5 -165.5t166 -69.5t166 69.5t69.5 165.5zM203 515q0 108 59 204l-143 143l108 109l144 -146q90 61 200.5 61.5t204.5 -61.5l144 146l108 -109l-145 -143q61 -94 61 -205t-61 -201l145 -143l-108 -109l-144 146
q-94 -61 -204.5 -61.5t-200.5 61.5l-144 -146l-108 109l143 143q-59 94 -59 202z" />
    <glyph glyph-name="yen" unicode="&#xa5;" 
d="M498 334h-379v133h379v178h-381v133h286l-356 574h176l352 -553l349 553h176l-350 -574h278v-133h-373v-178h375v-133h-375v-334h-157v334z" />
    <glyph glyph-name="brokenbar" unicode="&#xa6;" horiz-adv-x="479" 
d="M164 319h151v-774h-151v774zM164 1470h151v-765h-151v765z" />
    <glyph glyph-name="section" unicode="&#xa7;" horiz-adv-x="1021" 
d="M752 512q0 70 -51.5 107t-180.5 59t-192 47q-68 -113 -68 -191t51 -117.5t193 -66.5t196 -51q15 18 33.5 80.5t18.5 132.5zM518 1200q-233 0 -233 -188q0 -66 26.5 -103t88 -60t183.5 -45t223 -68.5t101 -221.5q0 -139 -90 -272q76 -63 76 -205q0 -344 -391 -344
q-131 -1 -297 24l-62 11l15 129q225 -31 336 -31q252 0 251 203q0 90 -59 125q-61 32 -213 60t-259.5 79t-107.5 229q0 72 40 150t79 108q-90 66 -90 228q0 326 393 325q111 0 283 -26l53 -9l-8 -129q-225 31 -338 31z" />
    <glyph glyph-name="dieresis" unicode="&#xa8;" horiz-adv-x="483" 
d="M385 1456h150v-184h-150v184zM-25 1456h148v-184h-148v184z" />
    <glyph glyph-name="copyright" unicode="&#xa9;" horiz-adv-x="1320" 
d="M428 889q0 172 55.5 246.5t186.5 74.5q80 0 137 -14l20 -6l-8 -109q-77 13 -147 13t-94.5 -44t-24.5 -158t26.5 -162t96.5 -48l143 14l8 -106q-76 -25 -159 -25q-131 0 -185.5 76t-54.5 248zM1110 889q0 129 -59.5 237.5t-162 171t-226.5 62.5q-193 0 -322 -137.5
t-129 -333.5q0 -129 58.5 -236.5t162 -170t228 -62.5t228 62.5t163 170t59.5 236.5zM121 891q0 156 70.5 282.5t193.5 200.5t276.5 74t276.5 -75t192.5 -203t69.5 -283.5t-69.5 -282.5t-191.5 -200.5t-275.5 -73.5t-277.5 73.5t-194.5 202.5t-70.5 285z" />
    <glyph glyph-name="ordfeminine" unicode="&#xaa;" horiz-adv-x="790" 
d="M246 922q0 -80 73 -80q64 0 168 35v137l-157 -10q-45 -4 -64.5 -22.5t-19.5 -59.5zM487 1153q0 82 -100 82l-235 -14l-5 98q141 31 253 31t165 -46.5t53 -156.5v-281q20 -23 62 -35l-4 -100q-76 0 -110 11.5t-60 41.5q-117 -53 -208 -53t-139 50t-48 139q0 164 196 176
l180 12v45z" />
    <glyph glyph-name="guillemotleft" unicode="&#xab;" horiz-adv-x="1103" 
d="M580 446v123l387 293v-157l-254 -193l254 -215v-160zM92 446v123l387 293v-157l-254 -193l254 -215v-160z" />
    <glyph glyph-name="logicalnot" unicode="&#xac;" 
d="M866 561h-733v139h877v-460h-144v321z" />
    <glyph glyph-name="registered" unicode="&#xae;" horiz-adv-x="1320" 
d="M674 893q55 0 79.5 24.5t24.5 79.5q0 104 -127 105h-98v-209h121zM436 1198h226q233 0 233 -180q0 -90 -23.5 -134t-80.5 -71l112 -235h-125l-102 219h-121v-219h-119v620zM1110 889q0 129 -59.5 237.5t-162 171t-227 62.5t-228 -62.5t-163 -170t-59.5 -236.5
t59.5 -237.5t163 -171t228 -62.5t227 62.5t162 170t59.5 236.5zM121 891q0 156 70.5 282.5t193.5 200.5t276.5 74t276.5 -74t192.5 -202t69.5 -283.5t-69.5 -283.5t-191.5 -201.5t-275.5 -73.5t-277.5 73.5t-194.5 202.5t-70.5 285z" />
    <glyph glyph-name="macron" unicode="&#xaf;" horiz-adv-x="483" 
d="M-29 1399h564v-121h-564v121z" />
    <glyph glyph-name="degree" unicode="&#xb0;" 
d="M764 1148q0 85 -53.5 138t-137.5 53t-135 -53t-51 -138t51 -137.5t135 -52.5t137.5 52.5t53.5 137.5zM283 1149q0 129 80.5 209t209.5 80t210 -80t81 -209t-81 -209t-210 -80t-209.5 80t-80.5 209z" />
    <glyph glyph-name="plusminus" unicode="&#xb1;" 
d="M113 217h921v-139h-921v139zM500 600h-387v139h387v258h143v-258h391v-139h-391v-260h-143v260z" />
    <glyph glyph-name="uni00B2" unicode="&#xb2;" horiz-adv-x="573" 
d="M346 1440q0 76 -100 76l-174 -19l-4 117q119 25 219 24q195 0 194 -186q0 -66 -27.5 -116t-97.5 -113l-129 -125h262v-119h-428v113l181 178q104 102 104 170z" />
    <glyph glyph-name="uni00B3" unicode="&#xb3;" horiz-adv-x="573" 
d="M377 1164q0 87 -96 87h-134v109h134q31 0 54 26.5t23 63.5q0 70 -92 70l-188 -15l-8 113q115 20 209 20q215 0 215 -172q0 -102 -80 -149q51 -18 73.5 -53t22.5 -107q0 -199 -217 -199l-232 21l9 115q125 -16 216 -16t91 86z" />
    <glyph glyph-name="acute" unicode="&#xb4;" horiz-adv-x="548" 
d="M53 1315l443 201l53 -132l-453 -174z" />
    <glyph glyph-name="uni00B5" unicode="&#xb5;" 
d="M172 1024h154v-532q0 -156 16 -234t62 -109.5t122 -31.5q136 0 258 57l37 19v831h154v-1024h-154v72q-154 -92 -287 -92t-208 34v-469h-154v1479z" />
    <glyph glyph-name="paragraph" unicode="&#xb6;" horiz-adv-x="1214" 
d="M467 664h-14q-109 0 -196 47t-136 133t-49 194.5t49 195.5t137 135t197 48h673v-133h-147v-1284h-139v1284h-238v-1284h-137v664z" />
    <glyph glyph-name="periodcentered" unicode="&#xb7;" horiz-adv-x="444" 
d="M137 702h168v-233h-168v233z" />
    <glyph glyph-name="cedilla" unicode="&#xb8;" horiz-adv-x="538" 
d="M227 -338q90 0 90 78q0 70 -90 70h-86v192h84v-102q125 0 176.5 -34t51.5 -126q0 -184 -191 -184q-85 0 -151 10l-25 4l6 98q80 -6 135 -6z" />
    <glyph glyph-name="uni00B9" unicode="&#xb9;" horiz-adv-x="573" 
d="M395 1618v-639h-131v496l-139 -97l-59 97l206 143h123z" />
    <glyph glyph-name="ordmasculine" unicode="&#xba;" horiz-adv-x="778" 
d="M526 1043q0 101 -29.5 141.5t-106.5 40.5t-108.5 -40.5t-31.5 -140.5t32.5 -144t108.5 -44t105.5 43t29.5 144zM109 1044q0 158 69.5 232t211.5 74t210 -74t68 -232q0 -313 -277 -313q-282 0 -282 313z" />
    <glyph glyph-name="guillemotright" unicode="&#xbb;" horiz-adv-x="1103" 
d="M625 297l254 215l-254 193v157l387 -293v-123l-387 -309v160zM137 297l254 215l-254 193v157l387 -293v-123l-387 -309v160z" />
    <glyph glyph-name="onequarter" unicode="&#xbc;" 
d="M1096 12v-118h-56v-99h-129v99h-288v110l141 430h143l-149 -422h153l11 183h118v-183h56zM395 979h-131v59l-643 -1032l-80 51l723 1166v252l-139 -97l-59 97l206 143h123v-299l31 -21l-31 -49v-270z" />
    <glyph glyph-name="onehalf" unicode="&#xbd;" 
d="M1063 -86v-119h-428v113l180 178q105 102 105 174t-101 72l-174 -19l-4 117q121 25 219 25q195 0 195 -187q0 -66 -28 -116t-97 -113l-129 -125h262zM395 979h-131v59l-643 -1032l-80 51l723 1166v252l-139 -97l-59 97l206 143h123v-299l31 -21l-31 -49v-270z" />
    <glyph glyph-name="threequarters" unicode="&#xbe;" 
d="M-459 57l803 1295l82 -54l-805 -1292zM338 -106h-289v110l141 430h144l-150 -422h154l10 183h119v-183h55v-118h-55v-99h-129v99zM950 1164q0 87 -96 87h-133v109h133q30 0 54 26t24 64q0 70 -92 70l-189 -15l-8 113q115 20 209 20q215 0 215 -172q0 -102 -80 -149
q51 -18 74 -53t22 -107q0 -199 -217 -199l-231 21l8 115q125 -16 216 -16t91 86z" />
    <glyph glyph-name="questiondown" unicode="&#xbf;" horiz-adv-x="903" 
d="M606 492q0 -69 -44 -128t-137 -140t-128 -121t-49.5 -81.5t-14.5 -105.5q0 -96 66.5 -142t180.5 -46t343 47l11 -125q-205 -61 -342 -62q-213 0 -313.5 78t-100.5 250q0 92 14 147.5t52 103t132 125.5t134.5 131.5t40.5 119.5v71h129q26 -53 26 -122zM602 795h-168v229
h168v-229z" />
    <glyph glyph-name="Agrave" unicode="&#xc0;" horiz-adv-x="1220" 
d="M334 1772l53 135l442 -205l-47 -109zM342 506h537l-215 776h-107zM913 365h-606l-102 -365h-156l389 1417h344l389 -1417h-155z" />
    <glyph glyph-name="Aacute" unicode="&#xc1;" horiz-adv-x="1220" 
d="M342 506h537l-215 776h-107zM913 365h-606l-102 -365h-156l389 1417h344l389 -1417h-155zM381 1702l442 205l54 -135l-449 -179z" />
    <glyph glyph-name="Acircumflex" unicode="&#xc2;" horiz-adv-x="1220" 
d="M342 506h537l-215 776h-107zM913 365h-606l-102 -365h-156l389 1417h344l389 -1417h-155zM541 1896h133l274 -276h-172l-168 164l-170 -164h-172z" />
    <glyph glyph-name="Atilde" unicode="&#xc3;" horiz-adv-x="1220" 
d="M342 506h537l-215 776h-107zM913 365h-606l-102 -365h-156l389 1417h344l389 -1417h-155zM433 1755q-36 0 -116 -74l-26 -24l-35 115q104 118 193 118q45 0 171 -55t146 -55q41 0 119 71l24 23l37 -115q-96 -115 -180 -114q-45 0 -171 55t-162 55z" />
    <glyph glyph-name="Adieresis" unicode="&#xc4;" horiz-adv-x="1220" 
d="M342 506h537l-215 776h-107zM913 365h-606l-102 -365h-156l389 1417h344l389 -1417h-155zM743 1839h148v-184h-148v184zM326 1839h149v-184h-149v184z" />
    <glyph glyph-name="Aring" unicode="&#xc5;" horiz-adv-x="1220" 
d="M342 506h537l-215 776h-107zM649 1417q86 17 86 112q0 46 -33.5 74.5t-93.5 28.5q-127 1 -127 -108q0 -41 22.5 -70t63.5 -37h82zM365 1526q0 98 67.5 155.5t176 57.5t175 -57.5t66.5 -152.5t-55 -155l376 -1374h-155l-103 365h-606l-102 -365h-156l377 1370
q-61 58 -61 156z" />
    <glyph glyph-name="AE" unicode="&#xc6;" horiz-adv-x="1794" 
d="M836 510l2 766h-224l-249 -766h471zM1698 1425v-149h-707v-471h584v-150h-584v-505h707v-150h-862v358h-514l-119 -358h-162l459 1425h1198z" />
    <glyph glyph-name="Ccedilla" unicode="&#xc7;" horiz-adv-x="1114" 
d="M659 -20v-80q125 0 176.5 -34t51.5 -126q0 -184 -191 -184q-86 0 -151 10l-25 4l6 98q80 -6 136 -6q90 0 90 78q0 70 -90 70h-87v174q-182 14 -281 100t-136 236.5t-37 396.5t43 402.5t156.5 237.5t303.5 81t406 -45l-6 -133q-452 81 -566 1.5t-143.5 -206.5t-29.5 -353
t27.5 -343t113.5 -177.5t244 -60.5t354 37l6 -135q-211 -43 -371 -43z" />
    <glyph glyph-name="Egrave" unicode="&#xc8;" horiz-adv-x="1132" 
d="M332 1278v-490h581v-137h-581v-512h704v-139h-862v1417h862v-139h-704zM346 1772l53 135l443 -205l-47 -109z" />
    <glyph glyph-name="Eacute" unicode="&#xc9;" horiz-adv-x="1132" 
d="M332 1278v-490h581v-137h-581v-512h704v-139h-862v1417h862v-139h-704zM360 1702l443 205l53 -135l-448 -179z" />
    <glyph glyph-name="Ecircumflex" unicode="&#xca;" horiz-adv-x="1132" 
d="M332 1278v-490h581v-137h-581v-512h704v-139h-862v1417h862v-139h-704zM535 1896h133l274 -276h-172l-168 164l-170 -164h-172z" />
    <glyph glyph-name="Edieresis" unicode="&#xcb;" horiz-adv-x="1132" 
d="M332 1278v-490h581v-137h-581v-512h704v-139h-862v1417h862v-139h-704zM739 1839h148v-184h-148v184zM322 1839h149v-184h-149v184z" />
    <glyph glyph-name="Igrave" unicode="&#xcc;" horiz-adv-x="503" 
d="M174 1417h158v-1417h-158v1417zM-41 1772l53 135l443 -205l-47 -109z" />
    <glyph glyph-name="Iacute" unicode="&#xcd;" horiz-adv-x="503" 
d="M174 1417h158v-1417h-158v1417zM25 1702l442 205l53 -135l-448 -179z" />
    <glyph glyph-name="Icircumflex" unicode="&#xce;" horiz-adv-x="503" 
d="M174 1417h158v-1417h-158v1417zM178 1896h133l275 -276h-172l-168 164l-170 -164h-172z" />
    <glyph glyph-name="Idieresis" unicode="&#xcf;" horiz-adv-x="503" 
d="M174 1417h158v-1417h-158v1417zM387 1839h148v-184h-148v184zM-31 1839h150v-184h-150v184z" />
    <glyph glyph-name="Eth" unicode="&#xd0;" horiz-adv-x="1325" 
d="M686 150q360 0 361 585q0 281 -89.5 411t-271.5 130h-350v-490h323v-149h-323v-487h350zM180 637h-139v149h139v639h506q279 0 401.5 -173.5t122.5 -533.5q0 -718 -524 -718h-506v637z" />
    <glyph glyph-name="Ntilde" unicode="&#xd1;" horiz-adv-x="1384" 
d="M1210 1417v-1417h-288l-551 1278h-39v-1278h-158v1417h295l545 -1278h41v1278h155zM519 1755q-36 0 -116 -74l-26 -24l-35 115q104 118 193 118q45 0 171 -55t146 -55q41 0 119 71l24 23l37 -115q-96 -115 -180 -114q-45 0 -171 55t-162 55z" />
    <glyph glyph-name="Ograve" unicode="&#xd2;" horiz-adv-x="1351" 
d="M1073 698q0 217 -36 346q-36 130 -122 192q-85 62 -239 62t-240 -61t-122 -190t-36 -345t36 -341q34 -126 121 -184t243 -58t241 57t119 181q35 124 35 341zM117 702q0 256 53 417t176 240t330 79t330 -79t177 -240t54 -421t-52 -416t-174 -229q-122 -74 -333 -74
t-334 76t-175 233q-52 158 -52 414zM412 1772l53 135l442 -205l-47 -109z" />
    <glyph glyph-name="Oacute" unicode="&#xd3;" horiz-adv-x="1351" 
d="M1073 698q0 217 -36 346q-36 130 -122 192q-85 62 -239 62t-240 -61t-122 -190t-36 -345t36 -341q34 -126 121 -184t243 -58t241 57t119 181q35 124 35 341zM117 702q0 256 53 417t176 240t330 79t330 -79t177 -240t54 -421t-52 -416t-174 -229q-122 -74 -333 -74
t-334 76t-175 233q-52 158 -52 414zM406 1702l442 205l53 -135l-448 -179z" />
    <glyph glyph-name="Ocircumflex" unicode="&#xd4;" horiz-adv-x="1351" 
d="M1073 698q0 217 -36 346q-36 130 -122 192q-85 62 -239 62t-240 -61t-122 -190t-36 -345t36 -341q34 -126 121 -184t243 -58t241 57t119 181q35 124 35 341zM117 702q0 256 53 417t176 240t330 79t330 -79t177 -240t54 -421t-52 -416t-174 -229q-122 -74 -333 -74
t-334 76t-175 233q-52 158 -52 414zM610 1896h133l275 -276h-172l-168 164l-170 -164h-172z" />
    <glyph glyph-name="Otilde" unicode="&#xd5;" horiz-adv-x="1351" 
d="M1073 698q0 217 -36 346q-36 130 -122 192q-85 62 -239 62t-240 -61t-122 -190t-36 -345t36 -341q34 -126 121 -184t243 -58t241 57t119 181q35 124 35 341zM117 702q0 256 53 417t176 240t330 79t330 -79t177 -240t54 -421t-52 -416t-174 -229q-122 -74 -333 -74
t-334 76t-175 233q-52 158 -52 414zM503 1755q-36 0 -116 -74l-27 -24l-34 115q43 50 95 84t97 34t171 -55t147 -55q41 0 118 71l25 23l37 -115q-96 -115 -180 -114q-45 0 -171 55t-162 55z" />
    <glyph glyph-name="Odieresis" unicode="&#xd6;" horiz-adv-x="1351" 
d="M1073 698q0 217 -36 346q-36 130 -122 192q-85 62 -239 62t-240 -61t-122 -190t-36 -345t36 -341q34 -126 121 -184t243 -58t241 57t119 181q35 124 35 341zM117 702q0 256 53 417t176 240t330 79t330 -79t177 -240t54 -421t-52 -416t-174 -229q-122 -74 -333 -74
t-334 76t-175 233q-52 158 -52 414zM811 1839h147v-184h-147v184zM393 1839h150v-184h-150v184z" />
    <glyph glyph-name="multiply" unicode="&#xd7;" 
d="M598 520l322 -321l-99 -99l-321 322l-322 -322l-98 99l321 321l-321 322l98 98l322 -322l321 322l99 -98z" />
    <glyph glyph-name="Oslash" unicode="&#xd8;" horiz-adv-x="1351" 
d="M1073 715q0 330 -98 461l-481 -1029q74 -29 207 -29t218 57.5t119.5 184.5t34.5 355zM279 678q0 -338 106 -457l487 1039q-76 38 -214 38t-223 -61t-120.5 -194.5t-35.5 -364.5zM117 708q0 250 53 411t176.5 240t303.5 79t284 -43l115 241l118 -49l-120 -260
q190 -160 190 -625q0 -262 -52 -418.5t-174 -230t-335 -73.5q-137 0 -246 34l-117 -252l-116 54l120 258q-106 80 -153 232t-47 402z" />
    <glyph glyph-name="Ugrave" unicode="&#xd9;" horiz-adv-x="1318" 
d="M164 430v987h158v-991q0 -307 331 -307q174 0 260 74t86 233v991h156v-987q0 -233 -124 -342q-123 -109 -373 -109t-372 108t-122 343zM401 1772l54 135l442 -205l-47 -109z" />
    <glyph glyph-name="Uacute" unicode="&#xda;" horiz-adv-x="1318" 
d="M164 430v987h158v-991q0 -307 331 -307q174 0 260 74t86 233v991h156v-987q0 -233 -124 -342q-123 -109 -373 -109t-372 108t-122 343zM408 1702l442 205l53 -135l-448 -179z" />
    <glyph glyph-name="Ucircumflex" unicode="&#xdb;" horiz-adv-x="1318" 
d="M164 430v987h158v-991q0 -307 331 -307q174 0 260 74t86 233v991h156v-987q0 -233 -124 -342q-123 -109 -373 -109t-372 108t-122 343zM592 1896h133l274 -276h-172l-168 164l-170 -164h-172z" />
    <glyph glyph-name="Udieresis" unicode="&#xdc;" horiz-adv-x="1318" 
d="M164 430v987h158v-991q0 -307 331 -307q174 0 260 74t86 233v991h156v-987q0 -233 -124 -342q-123 -109 -373 -109t-372 108t-122 343zM795 1839h147v-184h-147v184zM377 1839h149v-184h-149v184z" />
    <glyph glyph-name="Yacute" unicode="&#xdd;" horiz-adv-x="1101" 
d="M631 0h-158v596l-453 821h179l352 -663l352 663h178l-450 -821v-596zM342 1702l442 205l54 -135l-449 -179z" />
    <glyph glyph-name="Thorn" unicode="&#xde;" horiz-adv-x="1226" 
d="M690 399q295 0 295 340q0 160 -70.5 232.5t-224.5 72.5h-358v-645h358zM174 1425h158v-229h360q231 0 343 -112.5t112 -348.5t-114.5 -361.5t-340.5 -125.5h-360v-248h-158v1425z" />
    <glyph glyph-name="germandbls" unicode="&#xdf;" horiz-adv-x="1175" 
d="M944 326q0 68 -17.5 106.5t-62 69t-158.5 84.5t-161 103.5t-47 125.5t35.5 118t117.5 78t108.5 73.5t26.5 117.5t-53 116t-167 36t-166 -22.5t-75.5 -78t-23.5 -155.5v-1098h-154v1116q0 205 92.5 290t306.5 85t307 -69.5t93 -225.5q0 -106 -38 -164.5t-117 -93.5
t-106.5 -54.5t-27.5 -45.5t9.5 -43.5t79 -52.5t112.5 -62q139 -70 192.5 -135.5t53.5 -194.5q0 -262 -168 -332t-469 -16l-43 8l6 129q184 -23 250 -22q141 0 202.5 52t61.5 157z" />
    <glyph glyph-name="agrave" unicode="&#xe0;" horiz-adv-x="1026" 
d="M240 297q0 -188 155 -188q138 0 275 47l47 16v338l-303 -29q-92 -8 -133 -53t-41 -131zM394 -21q-312 1 -312 309q0 148 75 220t238 88l322 31v88q0 195 -168 194q-166 0 -404 -26l-6 116q219 45 397 45t256 -78q79 -78 78 -251v-525q6 -76 119 -90l-6 -120
q-162 0 -244 81q-181 -82 -345 -82zM248 1384l53 132l442 -201l-43 -105z" />
    <glyph glyph-name="aacute" unicode="&#xe1;" horiz-adv-x="1026" 
d="M240 297q0 -188 155 -188q138 0 275 47l47 16v338l-303 -29q-92 -8 -133 -53t-41 -131zM394 -21q-312 1 -312 309q0 148 75 220t238 88l322 31v88q0 195 -168 194q-166 0 -404 -26l-6 116q219 45 397 45t256 -78q79 -78 78 -251v-525q6 -76 119 -90l-6 -120
q-162 0 -244 81q-181 -82 -345 -82zM242 1315l442 201l53 -132l-452 -174z" />
    <glyph glyph-name="acircumflex" unicode="&#xe2;" horiz-adv-x="1026" 
d="M240 297q0 -188 155 -188q138 0 275 47l47 16v338l-303 -29q-92 -8 -133 -53t-41 -131zM394 -21q-312 1 -312 309q0 148 75 220t238 88l322 31v88q0 195 -168 194q-166 0 -404 -26l-6 116q219 45 397 45t256 -78q79 -78 78 -251v-525q6 -76 119 -90l-6 -120
q-162 0 -244 81q-181 -82 -345 -82zM446 1499h105l254 -287h-154l-149 179l-154 -179h-153z" />
    <glyph glyph-name="atilde" unicode="&#xe3;" horiz-adv-x="1026" 
d="M240 297q0 -188 155 -188q138 0 275 47l47 16v338l-303 -29q-92 -8 -133 -53t-41 -131zM394 -21q-312 1 -312 309q0 148 75 220t238 88l322 31v88q0 195 -168 194q-166 0 -404 -26l-6 116q219 45 397 45t256 -78q79 -78 78 -251v-525q6 -76 119 -90l-6 -120
q-162 0 -244 81q-181 -82 -345 -82zM348 1350q-47 0 -127 -62l-26 -20l-37 98q100 106 186 107q39 1 150 -47q112 -48 142 -48t107 60l27 18l35 -98q-96 -104 -176 -105q-44 1 -148 50q-111 47 -133 47z" />
    <glyph glyph-name="adieresis" unicode="&#xe4;" horiz-adv-x="1026" 
d="M240 297q0 -188 155 -188q138 0 275 47l47 16v338l-303 -29q-92 -8 -133 -53t-41 -131zM394 -21q-312 1 -312 309q0 148 75 220t238 88l322 31v88q0 195 -168 194q-166 0 -404 -26l-6 116q219 45 397 45t256 -78q79 -78 78 -251v-525q6 -76 119 -90l-6 -120
q-162 0 -244 81q-181 -82 -345 -82zM625 1456h149v-184h-149v184zM215 1456h147v-184h-147v184z" />
    <glyph glyph-name="aring" unicode="&#xe5;" horiz-adv-x="1026" 
d="M240 297q0 -188 155 -188q138 0 275 47l47 16v338l-303 -29q-92 -8 -133 -53t-41 -131zM394 -21q-312 1 -312 309q0 148 75 220t238 88l322 31v88q0 195 -168 194q-166 0 -404 -26l-6 116q219 45 397 45t256 -78q79 -78 78 -251v-525q6 -76 119 -90l-6 -120
q-162 0 -244 81q-181 -82 -345 -82zM635 1322q0 48 -33 82t-80 34t-80 -34q-32 -34 -32 -82t32 -82t80 -34q47 0 80 34t33 82zM522 1534q88 0 148 -61t59 -151q0 -90 -59 -152q-60 -62 -148 -62t-147 62t-59 152t58 150q60 62 148 62z" />
    <glyph glyph-name="ae" unicode="&#xe6;" horiz-adv-x="1646" 
d="M240 297q0 -184 145 -184q84 0 185.5 26.5t142.5 48.5v314l-299 -25q-90 -8 -132 -51t-42 -129zM1401 571q0 182 -59.5 259t-197.5 77t-206 -81t-68 -255h531zM82 299q0 106 36 166.5t115.5 91.5t219.5 45l264 25v84q0 186 -178 186q-123 0 -326 -16l-63 -4l-7 137
q244 31 404 30q209 0 276 -149q98 150 313.5 149.5t316.5 -117t101 -362.5l-8 -119h-676q0 -166 61.5 -246.5t194.5 -80.5t328 14l59 4l5 -125q-224 -32 -412 -32t-287 110l-65 -29q-176 -82 -394 -81q-278 0 -278 319z" />
    <glyph glyph-name="ccedilla" unicode="&#xe7;" horiz-adv-x="892" 
d="M504 1047q119 0 305 -33l-6 -125q-161 18 -263 18t-164.5 -35.5t-88 -120.5t-25.5 -239t24.5 -236.5t89 -120.5t187.5 -38l242 18l6 -127q-197 -29 -295 -28h-6v-80q125 0 176 -34t51 -126q0 -184 -190 -184q-86 0 -152 10l-24 4l6 98q80 -6 135 -6q90 0 90 78
q0 70 -90 70h-86v176q-176 20 -249 144t-73 375t82 396.5t318 145.5z" />
    <glyph glyph-name="egrave" unicode="&#xe8;" horiz-adv-x="1034" 
d="M788 571q0 185 -59 265t-197 80t-206 -84q-68 -82 -70 -261h532zM526 1044q214 0 315 -118t101 -361l-8 -116h-676q0 -127 28 -199q53 -137 245 -136q191 1 313 13l59 6l4 -121q-227 -33 -377 -32q-233 -1 -330 121q-98 121 -98 395t104 411q106 137 320 137zM248 1384
l53 132l442 -201l-43 -105z" />
    <glyph glyph-name="eacute" unicode="&#xe9;" horiz-adv-x="1034" 
d="M788 571q0 185 -59 265t-197 80t-206 -84q-68 -82 -70 -261h532zM526 1044q214 0 315 -118t101 -361l-8 -116h-676q0 -127 28 -199q53 -137 245 -136q191 1 313 13l59 6l4 -121q-227 -33 -377 -32q-233 -1 -330 121q-98 121 -98 395t104 411q106 137 320 137zM297 1315
l442 201l54 -132l-453 -174z" />
    <glyph glyph-name="ecircumflex" unicode="&#xea;" horiz-adv-x="1034" 
d="M788 571q0 185 -59 265t-197 80t-206 -84q-68 -82 -70 -261h532zM526 1044q214 0 315 -118t101 -361l-8 -116h-676q0 -127 28 -199q53 -137 245 -136q191 1 313 13l59 6l4 -121q-227 -33 -377 -32q-233 -1 -330 121q-98 121 -98 395t104 411q106 137 320 137zM481 1499
h105l254 -287h-154l-149 179l-154 -179h-154z" />
    <glyph glyph-name="edieresis" unicode="&#xeb;" horiz-adv-x="1034" 
d="M788 571q0 185 -59 265t-197 80t-206 -84q-68 -82 -70 -261h532zM526 1044q214 0 315 -118t101 -361l-8 -116h-676q0 -127 28 -199q53 -137 245 -136q191 1 313 13l59 6l4 -121q-227 -33 -377 -32q-233 -1 -330 121q-98 121 -98 395t104 411q106 137 320 137zM655 1456
h150v-184h-150v184zM246 1456h147v-184h-147v184z" />
    <glyph glyph-name="igrave" unicode="&#xec;" horiz-adv-x="446" 
d="M147 1024h152v-1024h-152v1024zM-123 1384l53 132l443 -201l-43 -105z" />
    <glyph glyph-name="iacute" unicode="&#xed;" horiz-adv-x="446" 
d="M147 1024h152v-1024h-152v1024zM78 1315l442 201l53 -132l-452 -174z" />
    <glyph glyph-name="icircumflex" unicode="&#xee;" horiz-adv-x="446" 
d="M147 1024h152v-1024h-152v1024zM166 1499h104l254 -287h-153l-150 179l-153 -179h-154z" />
    <glyph glyph-name="idieresis" unicode="&#xef;" horiz-adv-x="446" 
d="M147 1024h152v-1024h-152v1024zM346 1456h150v-184h-150v184zM-63 1456h147v-184h-147v184z" />
    <glyph glyph-name="eth" unicode="&#xf0;" horiz-adv-x="1122" 
d="M248 429q0 -146 76.5 -227t230.5 -81q107 0 204 77t97 472q-388 156 -498 30.5t-110 -271.5zM86 430q0 213 112.5 332t317.5 119q133 0 287 -56l51 -18q-16 268 -281 424l-249 -166l-68 96l195 131q-119 49 -254 84l30 115q203 -39 355 -111l206 140l70 -97l-158 -106
q315 -199 316 -596q0 -266 -48 -428t-151.5 -236.5t-273.5 -74.5q-219 0 -338 117.5t-119 330.5z" />
    <glyph glyph-name="ntilde" unicode="&#xf1;" horiz-adv-x="1099" 
d="M612 1044q148 0 220 -49t101 -157q30 -108 30 -297v-541h-152v537q0 145 -17 223q-16 78 -62 112t-124 35q-156 0 -268 -57l-39 -19v-831h-154v1024h152v-72q165 92 313 92zM434 1350q-47 0 -127 -62l-26 -20l-37 98q100 106 186 107q39 1 150 -47q112 -48 142 -48
t107 60l27 18l35 -98q-96 -104 -176 -105q-44 1 -148 50q-111 47 -133 47z" />
    <glyph glyph-name="ograve" unicode="&#xf2;" horiz-adv-x="1081" 
d="M543 911q-111 0 -171 -37q-60 -36 -86 -122t-26 -241t24 -239t84 -122t174 -37q114 0 173 38q59 39 83 121t24 238t-25 242t-84 122t-170 37zM102 510q0 192 43 308q43 118 139 172t258 54q161 0 256 -55t138 -172t43 -308t-41 -306t-136 -169t-260 -54t-261 54t-138 169
q-41 115 -41 307zM289 1384l53 132l442 -201l-43 -105z" />
    <glyph glyph-name="oacute" unicode="&#xf3;" horiz-adv-x="1081" 
d="M543 911q-111 0 -171 -37q-60 -36 -86 -122t-26 -241t24 -239t84 -122t174 -37q114 0 173 38q59 39 83 121t24 238t-25 242t-84 122t-170 37zM102 510q0 192 43 308q43 118 139 172t258 54q161 0 256 -55t138 -172t43 -308t-41 -306t-136 -169t-260 -54t-261 54t-138 169
q-41 115 -41 307zM315 1315l443 201l53 -132l-453 -174z" />
    <glyph glyph-name="ocircumflex" unicode="&#xf4;" horiz-adv-x="1081" 
d="M543 911q-111 0 -171 -37q-60 -36 -86 -122t-26 -241t24 -239t84 -122t174 -37q114 0 173 38q59 39 83 121t24 238t-25 242t-84 122t-170 37zM102 510q0 192 43 308q43 118 139 172t258 54q161 0 256 -55t138 -172t43 -308t-41 -306t-136 -169t-260 -54t-261 54t-138 169
q-41 115 -41 307zM483 1499h105l254 -287h-154l-149 179l-154 -179h-154z" />
    <glyph glyph-name="otilde" unicode="&#xf5;" horiz-adv-x="1081" 
d="M543 911q-111 0 -171 -37q-60 -36 -86 -122t-26 -241t24 -239t84 -122t174 -37q114 0 173 38q59 39 83 121t24 238t-25 242t-84 122t-170 37zM102 510q0 192 43 308q43 118 139 172t258 54q161 0 256 -55t138 -172t43 -308t-41 -306t-136 -169t-260 -54t-261 54t-138 169
q-41 115 -41 307zM406 1350q-47 0 -127 -62l-27 -20l-37 98q100 106 186 107q39 1 150 -47t141 -48t109 60l26 18l35 -98q-96 -104 -176 -105q-43 1 -147 50q-111 47 -133 47z" />
    <glyph glyph-name="odieresis" unicode="&#xf6;" horiz-adv-x="1081" 
d="M543 911q-111 0 -171 -37q-60 -36 -86 -122t-26 -241t24 -239t84 -122t174 -37q114 0 173 38q59 39 83 121t24 238t-25 242t-84 122t-170 37zM102 510q0 192 43 308q43 118 139 172t258 54q161 0 256 -55t138 -172t43 -308t-41 -306t-136 -169t-260 -54t-261 54t-138 169
q-41 115 -41 307zM666 1456h149v-184h-149v184zM256 1456h147v-184h-147v184z" />
    <glyph glyph-name="divide" unicode="&#xf7;" 
d="M496 268h153v-207h-153v207zM246 725h653v-150h-653v150zM496 1239h153v-207h-153v207z" />
    <glyph glyph-name="oslash" unicode="&#xf8;" horiz-adv-x="1081" 
d="M821 535q0 242 -86 319l-299 -731q41 -10 131 -10t149.5 37.5t82 126t22.5 258.5zM260 572q0 -176 15.5 -269.5t70.5 -138.5l297 735l-102 12q-156 0 -218.5 -81.5t-62.5 -257.5zM102 524q0 274 101.5 397t337.5 123q76 0 151 -16l88 213l103 -39l-88 -213
q184 -100 184 -465q0 -199 -41 -316.5t-136 -172.5t-261 -55q-80 0 -156 16l-88 -225l-102 36l90 224q-98 55 -140.5 171.5t-42.5 321.5z" />
    <glyph glyph-name="ugrave" unicode="&#xf9;" horiz-adv-x="1087" 
d="M137 489v535h154v-532q0 -154 16 -232q15 -78 59 -110t134 -33q139 0 286 76v831h154v-1024h-154v72q-84 -49 -156 -71q-72 -21 -182 -21q-112 0 -183 48t-99 156t-29 305zM233 1384l54 132l442 -201l-43 -105z" />
    <glyph glyph-name="uacute" unicode="&#xfa;" horiz-adv-x="1087" 
d="M137 489v535h154v-532q0 -154 16 -232q15 -78 59 -110t134 -33q139 0 286 76v831h154v-1024h-154v72q-84 -49 -156 -71q-72 -21 -182 -21q-112 0 -183 48t-99 156t-29 305zM317 1315l443 201l53 -132l-453 -174z" />
    <glyph glyph-name="ucircumflex" unicode="&#xfb;" horiz-adv-x="1087" 
d="M137 489v535h154v-532q0 -154 16 -232q15 -78 59 -110t134 -33q139 0 286 76v831h154v-1024h-154v72q-84 -49 -156 -71q-72 -21 -182 -21q-112 0 -183 48t-99 156t-29 305zM467 1499h104l254 -287h-153l-150 179l-153 -179h-154z" />
    <glyph glyph-name="udieresis" unicode="&#xfc;" horiz-adv-x="1087" 
d="M137 489v535h154v-532q0 -154 16 -232q15 -78 59 -110t134 -33q139 0 286 76v831h154v-1024h-154v72q-84 -49 -156 -71q-72 -21 -182 -21q-112 0 -183 48t-99 156t-29 305zM680 1456h149v-184h-149v184zM270 1456h148v-184h-148v184z" />
    <glyph glyph-name="yacute" unicode="&#xfd;" horiz-adv-x="989" 
d="M494 0h-152l-291 1024h154l256 -891h67l258 891h154l-426 -1479h-154zM315 1315l443 201l53 -132l-453 -174z" />
    <glyph glyph-name="thorn" unicode="&#xfe;" horiz-adv-x="1079" 
d="M817 513q0 148 -21.5 233t-71.5 123t-156 38t-228 -45l-39 -14v-723q133 -12 229 -12t165 40t95.5 126t26.5 234zM147 1470h154v-497q156 71 297 71t223 -51t118 -164.5t36 -313.5t-44 -315.5t-144.5 -167.5t-278.5 -52l-207 14v-449h-154v1925z" />
    <glyph glyph-name="ydieresis" unicode="&#xff;" horiz-adv-x="989" 
d="M494 0h-152l-291 1024h154l256 -891h67l258 891h154l-426 -1479h-154zM623 1456h149v-184h-149v184zM213 1456h147v-184h-147v184z" />
    <glyph glyph-name="Amacron" unicode="&#x100;" horiz-adv-x="1220" 
d="M342 506h537l-215 776h-107zM913 365h-606l-102 -365h-156l389 1417h344l389 -1417h-155zM289 1782h637v-119h-637v119z" />
    <glyph glyph-name="amacron" unicode="&#x101;" horiz-adv-x="1026" 
d="M240 297q0 -188 155 -188q138 0 275 47l47 16v338l-303 -29q-92 -8 -133 -53t-41 -131zM394 -21q-312 1 -312 309q0 148 75 220t238 88l322 31v88q0 195 -168 194q-166 0 -404 -26l-6 116q219 45 397 45t256 -78q79 -78 78 -251v-525q6 -76 119 -90l-6 -120
q-162 0 -244 81q-181 -82 -345 -82zM229 1399h564v-121h-564v121z" />
    <glyph glyph-name="Abreve" unicode="&#x102;" horiz-adv-x="1220" 
d="M342 506h537l-215 776h-107zM913 365h-606l-102 -365h-156l389 1417h344l389 -1417h-155zM607 1726q75 0 126 43t53 111h144q-6 -120 -94 -194t-230 -74t-228 74q-87 74 -93 194h141q2 -68 54 -111t127 -43z" />
    <glyph glyph-name="abreve" unicode="&#x103;" horiz-adv-x="1030" 
d="M240 297q0 -88 37.5 -136t107.5 -48q154 0 332 61v328l-303 -25q-174 -14 -174 -180zM82 290q0 146 75.5 219t237.5 87l322 31v84q0 186 -178 186q-158 0 -392 -27l-6 134l66 10q197 30 351 30t233 -80.5t79 -252.5v-504q2 -78 117 -94l-4 -133q-166 0 -244 77l-51 -20
q-59 -20 -153.5 -38.5t-174.5 -18.5q-133 0 -205.5 82t-72.5 228zM518 1348q78 0 123 42t47 111h158q-6 -131 -94 -211t-234 -80t-234.5 80t-95.5 211h158q4 -72 49 -112.5t123 -40.5z" />
    <glyph glyph-name="Aogonek" unicode="&#x104;" horiz-adv-x="1220" 
d="M342 506h537l-215 776h-107zM862 -262q0 64 39 130t88 112l27 22l-103 363h-606l-102 -365h-156l389 1417h344l389 -1417h-16q-143 -143 -143 -209q0 -39 23.5 -63.5t60.5 -24.5l102 12l14 -118q-92 -18 -167.5 -18.5t-129 47.5t-53.5 112z" />
    <glyph glyph-name="aogonek" unicode="&#x105;" horiz-adv-x="1026" 
d="M240 297q0 -188 155 -188q137 0 275 47l47 16v338l-303 -29q-92 -8 -133 -53t-41 -131zM639 -262q0 64 39 130t88 112l41 34q-39 18 -68 47q-181 -81 -345 -81q-312 1 -312 309q0 147 74.5 219t238.5 88l322 31v88q0 195 -168 194q-166 0 -404 -26l-6 116q219 45 397 45
t256 -78.5t78 -250.5v-525q6 -76 119 -90l-6 -120q-27 0 -68 4q-127 -131 -127 -193q0 -39 24 -63.5t60 -24.5l103 12l14 -118q-92 -18 -168 -18.5t-129 47.5t-53 112z" />
    <glyph glyph-name="Cacute" unicode="&#x106;" horiz-adv-x="1114" 
d="M121 708q0 256 43 412t157 237t303 81t406 -45l-6 -133q-452 81 -598 -21q-82 -57 -112 -184t-30 -353t28 -343q28 -118 114 -178t244 -60t354 37l6 -135q-504 -103 -706 37q-117 81 -160 237t-43 411zM371 1702l442 205l53 -135l-448 -179z" />
    <glyph glyph-name="cacute" unicode="&#x107;" horiz-adv-x="892" 
d="M540 907q-102 0 -164 -36q-62 -37 -88 -121t-26 -238t25 -237t89 -121t187 -37l242 18l6 -127q-197 -28 -323 -28t-216 54t-129 170t-39 334t82 363t318 146q120 0 305 -33l-6 -125q-161 18 -263 18zM258 1315l442 201l54 -132l-453 -174z" />
    <glyph glyph-name="Ccircumflex" unicode="&#x108;" horiz-adv-x="1114" 
d="M121 708q0 256 43 412t157 237t303 81t406 -45l-6 -133q-452 81 -598 -21q-82 -57 -112 -184t-30 -353t28 -343q28 -118 114 -178t244 -60t354 37l6 -135q-504 -103 -706 37q-117 81 -160 237t-43 411zM569 1896h133l275 -276h-172l-168 164l-170 -164h-172z" />
    <glyph glyph-name="ccircumflex" unicode="&#x109;" horiz-adv-x="892" 
d="M540 907q-102 0 -164 -36q-62 -37 -88 -121t-26 -238t25 -237t89 -121t187 -37l242 18l6 -127q-197 -28 -323 -28t-216 54t-129 170t-39 334t82 363t318 146q120 0 305 -33l-6 -125q-161 18 -263 18zM422 1499h104l254 -287h-153l-150 179l-153 -179h-154z" />
    <glyph glyph-name="Cdotaccent" unicode="&#x10a;" horiz-adv-x="1114" 
d="M121 708q0 256 43 412t157 237t303 81t406 -45l-6 -133q-452 81 -598 -21q-82 -57 -112 -184t-30 -353t28 -343q28 -118 114 -178t244 -60t354 37l6 -135q-504 -103 -706 37q-117 81 -160 237t-43 411zM522 1819h152v-179h-152v179z" />
    <glyph glyph-name="cdotaccent" unicode="&#x10b;" horiz-adv-x="892" 
d="M540 907q-102 0 -164 -36q-62 -37 -88 -121t-26 -238t25 -237t89 -121t187 -37l242 18l6 -127q-197 -28 -323 -28t-216 54t-129 170t-39 334t82 363t318 146q120 0 305 -33l-6 -125q-161 18 -263 18zM438 1425h152v-178h-152v178z" />
    <glyph glyph-name="Ccaron" unicode="&#x10c;" horiz-adv-x="1114" 
d="M121 708q0 256 43 412t157 237t303 81t406 -45l-6 -133q-452 81 -598 -21q-82 -57 -112 -184t-30 -353t28 -343q28 -118 114 -178t244 -60t354 37l6 -135q-504 -103 -706 37q-117 81 -160 237t-43 411zM281 1896h172l170 -163l168 163h172l-275 -276h-133z" />
    <glyph glyph-name="ccaron" unicode="&#x10d;" horiz-adv-x="892" 
d="M540 907q-102 0 -164 -36q-62 -37 -88 -121t-26 -238t25 -237t89 -121t187 -37l242 18l6 -127q-197 -28 -323 -28t-216 54t-129 170t-39 334t82 363t318 146q120 0 305 -33l-6 -125q-161 18 -263 18zM340 1499l154 -178l149 178h154l-254 -287h-105l-252 287h154z" />
    <glyph glyph-name="Dcaron" unicode="&#x10e;" horiz-adv-x="1320" 
d="M1042 729q0 287 -88 418t-274 131h-348v-1139h348q362 0 362 590zM1204 743q0 -389 -128 -566t-396 -177h-506v1417h506q215 0 331 -94q117 -93 155 -239t38 -341zM262 1896h172l170 -163l168 163h172l-274 -276h-133z" />
    <glyph glyph-name="dcaron" unicode="&#x10f;" horiz-adv-x="1083" 
d="M260 515q0 -208 52 -303t181 -95t248 57l41 19v694q-133 25 -231 24q-163 0 -227 -94t-64 -302zM102 509q0 279 102 407t335 128q117 0 243 -26v452h152v-1470h-152v70q-158 -90 -317 -90q-195 -1 -279 125t-84 404zM1143 1399h151l-102 -424h-133z" />
    <glyph glyph-name="Dcroat" unicode="&#x110;" horiz-adv-x="1325" 
d="M686 150q360 0 361 585q0 281 -89.5 411t-271.5 130h-350v-490h323v-149h-323v-487h350zM180 637h-139v149h139v639h506q279 0 401.5 -173.5t122.5 -533.5q0 -718 -524 -718h-506v637z" />
    <glyph glyph-name="dcroat" unicode="&#x111;" horiz-adv-x="1083" 
d="M260 511q0 -206 53.5 -300t173.5 -94t254 57l41 19v694q-133 25 -243 24q-152 0 -215.5 -97t-63.5 -303zM102 506q0 276 99.5 407t328.5 131q125 0 252 -26v256h-397v135h397v61h152v-61h47v-135h-47v-1274h-152v70q-158 -90 -311 -90q-199 0 -284 125t-85 401z" />
    <glyph glyph-name="Emacron" unicode="&#x112;" horiz-adv-x="1132" 
d="M332 1278v-490h581v-137h-581v-512h704v-139h-862v1417h862v-139h-704zM283 1782h637v-119h-637v119z" />
    <glyph glyph-name="emacron" unicode="&#x113;" horiz-adv-x="1034" 
d="M788 571q0 185 -59 265t-197 80t-206 -84q-68 -82 -70 -261h532zM526 1044q214 0 315 -118t101 -361l-8 -116h-676q0 -127 28 -199q53 -137 245 -136q191 1 313 13l59 6l4 -121q-227 -33 -377 -32q-233 -1 -330 121q-98 121 -98 395t104 411q106 137 320 137zM252 1399
h563v-121h-563v121z" />
    <glyph glyph-name="Ebreve" unicode="&#x114;" horiz-adv-x="1132" 
d="M332 1278v-490h581v-137h-581v-512h704v-139h-862v1417h862v-139h-704zM624 1726q75 0 126 43t53 111h143q-6 -120 -94 -194t-230 -74t-228 74q-87 74 -93 194h141q2 -68 54 -111t128 -43z" />
    <glyph glyph-name="ebreve" unicode="&#x115;" horiz-adv-x="1034" 
d="M526 1315q80 0 127 47t49 125h127q-6 -125 -89 -206t-215 -81t-215 81t-89 206h125q4 -80 52 -126t128 -46zM788 571q0 185 -59 265t-197 80t-206 -84q-68 -82 -70 -261h532zM526 1044q214 0 315 -118t101 -361l-8 -116h-676q0 -127 28 -199q53 -137 245 -136
q191 1 313 13l59 6l4 -121q-227 -33 -377 -32q-233 -1 -330 121q-98 121 -98 395t104 411q106 137 320 137z" />
    <glyph glyph-name="Edotaccent" unicode="&#x116;" horiz-adv-x="1132" 
d="M332 1278v-490h581v-137h-581v-512h704v-139h-862v1417h862v-139h-704zM532 1819h152v-179h-152v179z" />
    <glyph glyph-name="edotaccent" unicode="&#x117;" horiz-adv-x="1034" 
d="M788 571q0 185 -59 265t-197 80t-206 -84q-68 -82 -70 -261h532zM526 1044q214 0 315 -118t101 -361l-8 -116h-676q0 -127 28 -199q53 -137 245 -136q191 1 313 13l59 6l4 -121q-227 -33 -377 -32q-233 -1 -330 121q-98 121 -98 395t104 411q106 137 320 137zM444 1425
h152v-178h-152v178z" />
    <glyph glyph-name="Eogonek" unicode="&#x118;" horiz-adv-x="1132" 
d="M332 1278v-490h581v-137h-581v-512h704v-139h-59q-143 -143 -143 -209q0 -39 23.5 -63.5t60.5 -24.5l102 12l14 -118q-92 -18 -167.5 -18.5t-129 47.5t-53.5 112t39 130t88 112l25 20h-662v1417h862v-139h-704z" />
    <glyph glyph-name="eogonek" unicode="&#x119;" horiz-adv-x="1034" 
d="M788 571q0 186 -59 265t-197 79t-206 -82.5t-70 -261.5h532zM102 496q0 548 424 548q214 0 315 -117.5t101 -361.5l-8 -116h-676q0 -127 39.5 -230.5t229.5 -103.5q189 0 317 12l59 6l4 -121l-67 -10h8q-145 -145 -146 -211q0 -39 24 -63.5t60 -24.5l103 12l14 -118
q-92 -18 -168 -18.5t-129 47.5t-53 116q0 111 135 246q-84 -8 -158 -8q-233 0 -330.5 121t-97.5 395z" />
    <glyph glyph-name="Ecaron" unicode="&#x11a;" horiz-adv-x="1132" 
d="M332 1278v-490h581v-137h-581v-512h704v-139h-862v1417h862v-139h-704zM254 1896h172l170 -163l168 163h172l-274 -276h-134z" />
    <glyph glyph-name="ecaron" unicode="&#x11b;" horiz-adv-x="1034" 
d="M788 571q0 185 -59 265t-197 80t-206 -84q-68 -82 -70 -261h532zM526 1044q214 0 315 -118t101 -361l-8 -116h-676q0 -127 28 -199q53 -137 245 -136q191 1 313 13l59 6l4 -121q-227 -33 -377 -32q-233 -1 -330 121q-98 121 -98 395t104 411q106 137 320 137zM367 1499
l153 -178l150 178h153l-254 -287h-104l-252 287h154z" />
    <glyph glyph-name="Gcircumflex" unicode="&#x11c;" horiz-adv-x="1261" 
d="M117 708q0 254 52 414t171 238q118 78 312 78t405 -41l69 -13l-6 -131q-254 43 -425 43t-258 -58t-122 -184t-35 -345t36 -345q34 -126 120 -186t232 -59q146 0 303 28v437h-236v141h391v-696q-258 -49 -462 -49t-323 77q-120 78 -172 237t-52 414zM594 1896h133
l274 -276h-172l-167 164l-170 -164h-173z" />
    <glyph glyph-name="gcircumflex" unicode="&#x11d;" horiz-adv-x="1052" 
d="M842 -147q0 65 -23 99t-76 46t-153 12l-221 10q-67 -49 -91 -86t-24 -98q0 -106 62 -147t226 -41t232 46t68 159zM733 695q0 122 -53 173q-53 52 -178 52t-179 -52q-55 -52 -55 -174q0 -121 54 -172t180 -51q125 0 178 51t53 173zM207 215q0 47 69 170q-162 72 -161 307
q0 352 387 352q94 0 209 -26l303 8v-131l-195 4q66 -66 67 -231q1 -164 -93 -242t-297 -78q-63 0 -105 8q-36 -91 -36 -135q-1 -43 41 -59t130 -17h80q135 0 218 -20q173 -42 173 -264q-1 -178 -111 -260q-110 -83 -352 -83t-336 69q-95 69 -96 229q0 118 64 182
q33 33 98 84q-57 35 -57 133zM483 1499h105l254 -287h-154l-149 179l-154 -179h-154z" />
    <glyph glyph-name="Gbreve" unicode="&#x11e;" horiz-adv-x="1261" 
d="M117 708q0 254 52 414t171 238q118 78 312 78t405 -41l69 -13l-6 -131q-254 43 -425 43t-258 -58t-122 -184t-35 -345t36 -345q34 -126 120 -186t232 -59q146 0 303 28v437h-236v141h391v-696q-258 -49 -462 -49t-323 77q-120 78 -172 237t-52 414zM673 1726q75 0 126 43
t53 111h143q-6 -120 -94 -194q-87 -74 -229 -74t-229 74t-93 194h142q2 -68 54 -111t127 -43z" />
    <glyph glyph-name="gbreve" unicode="&#x11f;" horiz-adv-x="1052" 
d="M842 -147q0 65 -23 99t-76 46t-153 12l-221 10q-67 -49 -91 -86t-24 -98q0 -106 62 -147t226 -41t232 46t68 159zM733 695q0 122 -53 173q-53 52 -178 52t-179 -52q-55 -52 -55 -174q0 -121 54 -172t180 -51q125 0 178 51t53 173zM207 215q0 47 69 170q-162 72 -161 307
q0 352 387 352q94 0 209 -26l303 8v-131l-195 4q66 -66 67 -231q1 -164 -93 -242t-297 -78q-63 0 -105 8q-36 -91 -36 -135q-1 -43 41 -59t130 -17h80q135 0 218 -20q173 -42 173 -264q-1 -178 -111 -260q-110 -83 -352 -83t-336 69q-95 69 -96 229q0 118 64 182
q33 33 98 84q-57 35 -57 133zM537 1315q80 0 127 47t49 125h127q-6 -125 -89 -206t-215 -81t-215 81t-90 206h125q4 -80 52 -126t129 -46z" />
    <glyph glyph-name="Gdotaccent" unicode="&#x120;" horiz-adv-x="1261" 
d="M117 708q0 254 52 414t171 238q118 78 312 78t405 -41l69 -13l-6 -131q-254 43 -425 43t-258 -58t-122 -184t-35 -345t36 -345q34 -126 120 -186t232 -59q146 0 303 28v437h-236v141h391v-696q-258 -49 -462 -49t-323 77q-120 78 -172 237t-52 414zM565 1819h152v-179
h-152v179z" />
    <glyph glyph-name="gdotaccent" unicode="&#x121;" horiz-adv-x="1052" 
d="M842 -147q0 65 -23 99t-76 46t-153 12l-221 10q-67 -49 -91 -86t-24 -98q0 -106 62 -147t226 -41t232 46t68 159zM733 695q0 122 -53 173q-53 52 -178 52t-179 -52q-55 -52 -55 -174q0 -121 54 -172t180 -51q125 0 178 51t53 173zM207 215q0 47 69 170q-162 72 -161 307
q0 352 387 352q94 0 209 -26l303 8v-131l-195 4q66 -66 67 -231q1 -164 -93 -242t-297 -78q-63 0 -105 8q-36 -91 -36 -135q-1 -43 41 -59t130 -17h80q135 0 218 -20q173 -42 173 -264q-1 -178 -111 -260q-110 -83 -352 -83t-336 69q-95 69 -96 229q0 118 64 182
q33 33 98 84q-57 35 -57 133zM459 1425h151v-178h-151v178z" />
    <glyph glyph-name="Gcommaaccent" unicode="&#x122;" horiz-adv-x="1261" 
d="M117 708q0 254 52 414t171 238q118 78 312 78t405 -41l69 -13l-6 -131q-254 43 -425 43t-258 -58t-122 -184t-35 -345t36 -345q34 -126 120 -186t232 -59q146 0 303 28v437h-236v141h391v-696q-258 -49 -462 -49t-323 77q-120 78 -172 237t-52 414zM616 -160h152
l-102 -424h-134z" />
    <glyph glyph-name="gcommaaccent" unicode="&#x123;" horiz-adv-x="1052" 
d="M842 -147q0 66 -22.5 99.5t-76 45.5t-153.5 12l-221 10q-68 -49 -91.5 -85.5t-23.5 -98.5q0 -106 62.5 -147t226.5 -41t231.5 46t67.5 159zM733 695q0 122 -53 173.5t-178 51.5t-179.5 -52.5t-54.5 -173.5t54.5 -172t179.5 -51t178 51t53 173zM354 220q0 -42 42 -58.5
t130 -16.5h80q135 0 263 -31.5t128 -252.5q0 -178 -110.5 -260t-352.5 -82t-337 68.5t-95 228.5q0 118 48.5 166.5t113.5 99.5q-57 35 -57 133q0 27 12 58.5t57 111.5q-162 72 -161 307q0 352 387 352q94 0 209 -26l303 8v-131l-195 4q68 -67 68 -231t-94.5 -242t-296.5 -78
q-63 0 -105 8q-37 -94 -37 -136zM545 1206h-152l103 424h133z" />
    <glyph glyph-name="Hcircumflex" unicode="&#x124;" horiz-adv-x="1382" 
d="M1208 1417v-1417h-155v641h-721v-641h-158v1417h158v-635h721v635h155zM627 1896h133l274 -276h-172l-168 164l-170 -164h-172z" />
    <glyph glyph-name="hcircumflex" unicode="&#x125;" horiz-adv-x="1099" 
d="M614 1044q144 0 216 -48t103 -156q30 -108 30 -299v-541h-154v537q0 153 -17 229q-18 76 -66 108t-154 33q-106 0 -232 -47l-39 -14v-846h-154v1470h154v-503q169 77 313 77zM494 1872h104l254 -287h-154l-149 178l-154 -178h-153z" />
    <glyph glyph-name="Hbar" unicode="&#x126;" horiz-adv-x="1404" 
d="M1061 782v258h-721v-258h721zM182 1040h-151v134h151v243h158v-243h721v243h156v-243h169v-134h-169v-1040h-156v641h-721v-641h-158v1040z" />
    <glyph glyph-name="hbar" unicode="&#x127;" horiz-adv-x="1099" 
d="M147 1188h-127v135h127v147h154v-147h315v-135h-315v-221q166 77 309 77t217 -47t105 -154.5t31 -301.5v-541h-154v537q0 150 -17.5 227.5t-64.5 110t-155 32.5t-232 -47l-39 -14v-846h-154v1188z" />
    <glyph glyph-name="Itilde" unicode="&#x128;" horiz-adv-x="503" 
d="M174 1417h158v-1417h-158v1417zM75 1755q-36 0 -116 -74l-27 -24l-34 115q43 50 95 84t97 34t171 -55t147 -55q41 0 118 71l25 23l37 -115q-96 -115 -180 -114q-45 0 -171 55t-162 55z" />
    <glyph glyph-name="itilde" unicode="&#x129;" horiz-adv-x="446" 
d="M147 1024h152v-1024h-152v1024zM94 1350q-47 0 -127 -62l-26 -20l-37 98q100 106 186 107q39 1 150 -47q112 -48 142 -48t107 60l27 18l35 -98q-96 -104 -176 -105q-44 1 -148 50q-111 47 -133 47z" />
    <glyph glyph-name="Imacron" unicode="&#x12a;" horiz-adv-x="503" 
d="M174 1417h158v-1417h-158v1417zM-61 1782h636v-119h-636v119z" />
    <glyph glyph-name="imacron" unicode="&#x12b;" horiz-adv-x="446" 
d="M147 1024h152v-1024h-152v1024zM-57 1399h563v-121h-563v121z" />
    <glyph glyph-name="Ibreve" unicode="&#x12c;" horiz-adv-x="503" 
d="M174 1417h158v-1417h-158v1417zM269 1726q75 0 126 43t54 111h143q-6 -120 -94 -194t-230 -74t-228 74q-87 74 -93 194h141q2 -68 54 -111t127 -43z" />
    <glyph glyph-name="ibreve" unicode="&#x12d;" horiz-adv-x="446" 
d="M147 1024h152v-1024h-152v1024zM225 1315q80 0 127 47t49 125h127q-6 -125 -89 -206t-215 -81t-215 81t-89 206h125q4 -80 52 -126t128 -46z" />
    <glyph glyph-name="Iogonek" unicode="&#x12e;" horiz-adv-x="503" 
d="M29 -262q0 64 38.5 130t88.5 112l24 20h-6v1417h158v-1417h-10q-143 -143 -144 -209q0 -39 23.5 -63.5t60.5 -24.5l103 12l14 -118q-92 -18 -168 -18.5t-129 47.5t-53 112z" />
    <glyph glyph-name="iogonek" unicode="&#x12f;" horiz-adv-x="446" 
d="M-2 -262q0 64 39 130t88 112l25 20h-3v1024h152v-1024h-8q-143 -143 -144 -209q0 -39 24 -63.5t60 -24.5l103 12l14 -118q-92 -18 -168 -18.5t-129 47.5t-53 112zM299 1255h-152v179h152v-179z" />
    <glyph glyph-name="Idotaccent" unicode="&#x130;" horiz-adv-x="503" 
d="M174 1417h158v-1417h-158v1417zM176 1819h152v-179h-152v179z" />
    <glyph glyph-name="dotlessi" unicode="&#x131;" horiz-adv-x="446" 
d="M147 1024h152v-1024h-152v1024z" />
    <glyph glyph-name="Jcircumflex" unicode="&#x134;" horiz-adv-x="591" 
d="M37 -6q106 0 151 14q44 14 62 60t18 149v1200h156l2 -1222q0 -156 -44 -230t-122 -93t-223 -19v141zM279 1890h133l274 -276h-172l-168 164l-170 -164h-172z" />
    <glyph glyph-name="jcircumflex" unicode="&#x135;" horiz-adv-x="448" 
d="M150 1024h151v-999q0 -129 -29 -208t-99 -141q-71 -61 -212 -133l-61 119q112 64 162 110t69 101q18 55 19 154v997zM168 1499h104l254 -287h-153l-150 179l-153 -179h-154z" />
    <glyph glyph-name="Kcommaaccent" unicode="&#x136;" horiz-adv-x="1165" 
d="M332 0h-158v1417h158v-659l233 8l363 651h180l-406 -712l428 -705h-186l-377 627l-235 -9v-618zM541 -160h151l-102 -424h-133z" />
    <glyph glyph-name="kcommaaccent" unicode="&#x137;" horiz-adv-x="980" 
d="M147 1470h154v-868l160 8l293 414h174l-334 -471l348 -553h-174l-305 475l-162 -6v-469h-154v1470zM289 -160h151l-102 -424h-133z" />
    <glyph glyph-name="Lacute" unicode="&#x139;" horiz-adv-x="980" 
d="M954 141v-141h-780v1417h158v-1276h622zM274 1702l443 205l53 -135l-448 -179z" />
    <glyph glyph-name="lacute" unicode="&#x13a;" horiz-adv-x="473" 
d="M160 1470h153v-1470h-153v1470zM106 1733l443 200l53 -131l-452 -174z" />
    <glyph glyph-name="Lcommaaccent" unicode="&#x13b;" horiz-adv-x="980" 
d="M954 141v-141h-780v1417h158v-1276h622zM494 -160h151l-102 -424h-133z" />
    <glyph glyph-name="lcommaaccent" unicode="&#x13c;" horiz-adv-x="473" 
d="M160 1470h153v-1470h-153v1470zM152 -160h151l-102 -424h-133z" />
    <glyph glyph-name="Lcaron" unicode="&#x13d;" horiz-adv-x="1011" 
d="M954 141v-141h-780v1417h158v-1276h622zM899 946h-149v479h149v-479z" />
    <glyph glyph-name="lcaron" unicode="&#x13e;" horiz-adv-x="473" 
d="M160 1470h153v-1470h-153v1470zM522 1399h152l-103 -424h-133z" />
    <glyph glyph-name="Lslash" unicode="&#x141;" horiz-adv-x="989" 
d="M184 1417h158v-590l291 203l76 -104l-367 -258v-527h623v-141h-781v557l-116 -82l-76 107l192 135v700z" />
    <glyph glyph-name="lslash" unicode="&#x142;" horiz-adv-x="634" 
d="M233 1470h154v-632l152 106l75 -106l-227 -160v-678h-154v571l-137 -96l-76 107l213 149v739z" />
    <glyph glyph-name="Nacute" unicode="&#x143;" horiz-adv-x="1384" 
d="M1210 1417v-1417h-288l-551 1278h-39v-1278h-158v1417h295l545 -1278h41v1278h155zM451 1702l442 205l53 -135l-448 -179z" />
    <glyph glyph-name="nacute" unicode="&#x144;" horiz-adv-x="1099" 
d="M612 1044q148 0 220 -49t101 -157q30 -108 30 -297v-541h-152v537q0 145 -17 223q-16 78 -62 112t-124 35q-156 0 -268 -57l-39 -19v-831h-154v1024h152v-72q165 92 313 92zM328 1315l442 201l53 -132l-452 -174z" />
    <glyph glyph-name="Ncommaaccent" unicode="&#x145;" horiz-adv-x="1384" 
d="M1210 1417v-1417h-288l-551 1278h-39v-1278h-158v1417h295l545 -1278h41v1278h155zM664 -160h151l-102 -424h-133z" />
    <glyph glyph-name="ncommaaccent" unicode="&#x146;" horiz-adv-x="1099" 
d="M612 1044q148 0 220 -49t101 -157q30 -108 30 -297v-541h-152v537q0 145 -17 223q-16 78 -62 112t-124 35q-156 0 -268 -57l-39 -19v-831h-154v1024h152v-72q165 92 313 92zM344 -160h152l-103 -424h-133z" />
    <glyph glyph-name="Ncaron" unicode="&#x147;" horiz-adv-x="1384" 
d="M1210 1417v-1417h-288l-551 1278h-39v-1278h-158v1417h295l545 -1278h41v1278h155zM352 1890h172l170 -164l168 164h172l-274 -276h-133z" />
    <glyph glyph-name="ncaron" unicode="&#x148;" horiz-adv-x="1099" 
d="M612 1044q148 0 220 -49t101 -157q30 -108 30 -297v-541h-152v537q0 145 -17 223q-16 78 -62 112t-124 35q-156 0 -268 -57l-39 -19v-831h-154v1024h152v-72q165 92 313 92zM397 1499l154 -178l149 178h154l-254 -287h-104l-252 287h153z" />
    <glyph glyph-name="Eng" unicode="&#x14a;" horiz-adv-x="1384" 
d="M823 -246q106 0 151.5 14.5t63 59.5t17.5 149v23h-133l-551 1278h-39v-1278h-158v1417h295l543 -1278h43v1278h155l2 -1462q0 -117 -22.5 -185.5t-75 -103.5t-126.5 -44t-165 -9v141z" />
    <glyph glyph-name="eng" unicode="&#x14b;" horiz-adv-x="1101" 
d="M811 -8v538q0 143 -25.5 259t-170.5 116q-144 0 -271 -57l-45 -19v-829h-152v1024h152v-68q175 88 315 88t213.5 -51t105.5 -160.5t32 -300.5v-536q0 -131 -27 -209t-95.5 -138.5t-207.5 -133.5l-66 129q106 61 155.5 105t68 97.5t18.5 145.5z" />
    <glyph glyph-name="Omacron" unicode="&#x14c;" horiz-adv-x="1351" 
d="M1073 698q0 217 -36 346q-36 130 -122 192q-85 62 -239 62t-240 -61t-122 -190t-36 -345t36 -341q34 -126 121 -184t243 -58t241 57t119 181q35 124 35 341zM117 702q0 256 53 417t176 240t330 79t330 -79t177 -240t54 -421t-52 -416t-174 -229q-122 -74 -333 -74
t-334 76t-175 233q-52 158 -52 414zM356 1782h637v-119h-637v119z" />
    <glyph glyph-name="omacron" unicode="&#x14d;" horiz-adv-x="1081" 
d="M543 911q-111 0 -171 -37q-60 -36 -86 -122t-26 -241t24 -239t84 -122t174 -37q114 0 173 38q59 39 83 121t24 238t-25 242t-84 122t-170 37zM102 510q0 192 43 308q43 118 139 172t258 54q161 0 256 -55t138 -172t43 -308t-41 -306t-136 -169t-260 -54t-261 54t-138 169
q-41 115 -41 307zM262 1423h563v-120h-563v120z" />
    <glyph glyph-name="Obreve" unicode="&#x14e;" horiz-adv-x="1351" 
d="M1073 698q0 217 -36 346q-36 130 -122 192q-85 62 -239 62t-240 -61t-122 -190t-36 -345t36 -341q34 -126 121 -184t243 -58t241 57t119 181q35 124 35 341zM117 702q0 256 53 417t176 240t330 79t330 -79t177 -240t54 -421t-52 -416t-174 -229q-122 -74 -333 -74
t-334 76t-175 233q-52 158 -52 414zM679 1726q75 0 126 43t53 111h143q-6 -120 -94 -194t-229 -74t-228 74t-94 194h142q2 -68 54 -111t127 -43z" />
    <glyph glyph-name="obreve" unicode="&#x14f;" horiz-adv-x="1081" 
d="M543 911q-111 0 -171 -37q-60 -36 -86 -122t-26 -241t24 -239t84 -122t174 -37q114 0 173 38q59 39 83 121t24 238t-25 242t-84 122t-170 37zM102 510q0 192 43 308q43 118 139 172t258 54q161 0 256 -55t138 -172t43 -308t-41 -306t-136 -169t-260 -54t-261 54t-138 169
q-41 115 -41 307zM547 1315q80 0 127 47t49 125h127q-6 -125 -89 -206t-215 -81t-215 81t-89 206h125q4 -80 52 -126t128 -46z" />
    <glyph glyph-name="Ohungarumlaut" unicode="&#x150;" horiz-adv-x="1351" 
d="M1073 698q0 217 -36 346q-36 130 -122 192q-85 62 -239 62t-240 -61t-122 -190t-36 -345t36 -341q34 -126 121 -184t243 -58t241 57t119 181q35 124 35 341zM117 702q0 256 53 417t176 240t330 79t330 -79t177 -240t54 -421t-52 -416t-174 -229q-122 -74 -333 -74
t-334 76t-175 233q-52 158 -52 414zM713 1608l291 268l112 -72l-299 -264zM309 1608l291 270l111 -72l-297 -264z" />
    <glyph glyph-name="ohungarumlaut" unicode="&#x151;" horiz-adv-x="1081" 
d="M543 911q-111 0 -171 -37q-60 -36 -86 -122t-26 -241t24 -239t84 -122t174 -37q114 0 173 38q59 39 83 121t24 238t-25 242t-84 122t-170 37zM102 510q0 192 43 308q43 118 139 172t258 54q161 0 256 -55t138 -172t43 -308t-41 -306t-136 -169t-260 -54t-261 54t-138 169
q-41 115 -41 307zM190 1278l297 283l111 -86l-301 -283zM586 1278l297 285l110 -88l-303 -283z" />
    <glyph glyph-name="OE" unicode="&#x152;" horiz-adv-x="1894" 
d="M676 1292q-156 0 -241 -57t-119.5 -182t-34.5 -343t33.5 -341t119.5 -179.5t224 -56.5t290 14v1127q-215 18 -272 18zM117 710q0 264 51 423t170 236t304 77t306 -21h850v-151h-694v-469h571v-152h-571v-501h694v-154h-846q-188 -18 -293 -18q-208 0 -326 75.5t-167 233
t-49 421.5z" />
    <glyph glyph-name="oe" unicode="&#x153;" horiz-adv-x="1755" 
d="M821 546q0 181 -64.5 270t-219.5 89q-106 0 -166 -35.5t-85.5 -118.5t-25.5 -234t23.5 -236.5t84 -124.5t174.5 -39t174 40t82.5 124t22.5 265zM1509 571q0 182 -60 259t-198 77q-274 0 -274 -336h532zM102 514q0 192 44 307t141 169t247 54t236 -50t133 -165
q92 215 348 215q209 0 310.5 -116.5t101.5 -362.5l-8 -119h-676q0 -168 61.5 -247.5t195.5 -79.5t327 14l59 4l4 -125q-223 -33 -397 -32q-244 0 -332 186q-45 -98 -129 -142t-238 -44t-250 55t-137 171t-41 308z" />
    <glyph glyph-name="Racute" unicode="&#x154;" horiz-adv-x="1261" 
d="M700 682q289 0 289 298t-291 298h-366v-596h368zM174 1417h524q227 0 340 -105t113 -325q0 -330 -260 -412l272 -575h-174l-256 543h-401v-543h-158v1417zM383 1702l442 205l54 -135l-449 -179z" />
    <glyph glyph-name="racute" unicode="&#x155;" horiz-adv-x="708" 
d="M147 1024h152v-139q176 121 375 162v-156q-80 -16 -173 -50t-149 -63l-51 -26v-752h-154v1024zM137 1315l443 201l53 -132l-453 -174z" />
    <glyph glyph-name="Rcommaaccent" unicode="&#x156;" horiz-adv-x="1261" 
d="M700 682q289 0 289 298t-291 298h-366v-596h368zM174 1417h524q227 0 340 -105t113 -325q0 -330 -260 -412l272 -575h-174l-256 543h-401v-543h-158v1417zM586 -160h151l-102 -424h-133z" />
    <glyph glyph-name="rcommaaccent" unicode="&#x157;" horiz-adv-x="708" 
d="M147 1024h152v-139q176 121 375 162v-156q-80 -16 -173 -50t-149 -63l-51 -26v-752h-154v1024zM147 -160h152l-102 -424h-134z" />
    <glyph glyph-name="Rcaron" unicode="&#x158;" horiz-adv-x="1261" 
d="M700 682q289 0 289 298t-291 298h-366v-596h368zM174 1417h524q227 0 340 -105t113 -325q0 -330 -260 -412l272 -575h-174l-256 543h-401v-543h-158v1417zM274 1896h172l170 -163l168 163h172l-274 -276h-133z" />
    <glyph glyph-name="rcaron" unicode="&#x159;" horiz-adv-x="708" 
d="M147 1024h152v-139q176 121 375 162v-156q-80 -16 -173 -50t-149 -63l-51 -26v-752h-154v1024zM207 1499l153 -178l150 178h154l-254 -287h-105l-252 287h154z" />
    <glyph glyph-name="Sacute" unicode="&#x15a;" horiz-adv-x="1110" 
d="M551 121q303 0 303 285q0 78 -28 122t-94 74q-66 28 -214 58q-147 30 -240 75t-137 121q-43 76 -43 203q0 381 457 381q158 0 428 -41l-14 -133q-295 35 -404 34q-307 0 -307 -231q0 -88 30 -134t102 -75q72 -30 224 -64q154 -34 237 -77t122 -114t39 -187
q0 -436 -453 -436q-144 -1 -375 34l-73 11l16 131q281 -37 424 -37zM334 1702l442 205l53 -135l-448 -179z" />
    <glyph glyph-name="sacute" unicode="&#x15b;" horiz-adv-x="952" 
d="M481 907q-235 0 -235 -151q0 -99 103 -128q46 -13 130 -28l51 -10q127 -22 197 -52q69 -30 103 -85t34 -154q0 -166 -97 -243t-298 -76q-123 -1 -301 28l-62 10l9 134q239 -35 357 -35t178 40q60 39 60 115t-29 109q-30 33 -76 47t-130 27l-51 8q-123 20 -193 49
q-71 29 -105 81t-34 144q0 166 100 236q164 114 582 43l57 -10l-4 -132q-221 33 -346 33zM233 1315l443 201l53 -132l-453 -174z" />
    <glyph glyph-name="Scircumflex" unicode="&#x15c;" horiz-adv-x="1110" 
d="M551 121q303 0 303 285q0 78 -28 122t-94 74q-66 28 -214 58q-147 30 -240 75t-137 121q-43 76 -43 203q0 381 457 381q158 0 428 -41l-14 -133q-295 35 -404 34q-307 0 -307 -231q0 -88 30 -134t102 -75q72 -30 224 -64q154 -34 237 -77t122 -114t39 -187
q0 -436 -453 -436q-144 -1 -375 34l-73 11l16 131q281 -37 424 -37zM496 1890h133l274 -276h-172l-168 164l-170 -164h-172z" />
    <glyph glyph-name="scircumflex" unicode="&#x15d;" horiz-adv-x="952" 
d="M481 907q-235 0 -235 -151q0 -99 103 -128q46 -13 130 -28l51 -10q127 -22 197 -52q69 -30 103 -85t34 -154q0 -166 -97 -243t-298 -76q-123 -1 -301 28l-62 10l9 134q239 -35 357 -35t178 40q60 39 60 115t-29 109q-30 33 -76 47t-130 27l-51 8q-123 20 -193 49
q-71 29 -105 81t-34 144q0 166 100 236q164 114 582 43l57 -10l-4 -132q-221 33 -346 33zM426 1499h104l254 -287h-153l-150 179l-153 -179h-154z" />
    <glyph glyph-name="Scedilla" unicode="&#x15e;" horiz-adv-x="1110" 
d="M612 -100q125 0 176.5 -34t51.5 -126q0 -184 -191 -184q-86 0 -151 10l-25 4l6 98q80 -6 135 -6q90 0 91 78q0 70 -91 70h-86v172q-133 2 -344 34l-73 11l16 131q281 -37 424 -37q303 0 303 285q0 78 -27.5 122.5t-94 73t-214.5 58.5t-241 75t-136 121t-43 203
q0 381 457 381q158 0 428 -41l-14 -133q-295 35 -404 34q-307 0 -307 -231q0 -88 29.5 -134t101 -75.5t225.5 -63.5t237 -77t122 -113.5t39 -187.5q-1 -409 -400 -434v-84z" />
    <glyph glyph-name="scedilla" unicode="&#x15f;" horiz-adv-x="952" 
d="M484 907q-238 1 -238 -139q0 -66 28.5 -96.5t74.5 -44t130 -27.5l51 -10q127 -23 197 -52.5t103.5 -85t33.5 -153.5q0 -160 -89 -236.5t-273 -82.5v-80q125 0 176 -34t51 -126q0 -184 -190 -184q-86 0 -152 10l-25 4l7 98q80 -6 135 -6q90 0 90 78q0 70 -90 70h-86v172
q-96 2 -250 26l-62 10l9 134q239 -35 357 -35q238 -1 239 155q0 76 -30 109t-76 47t-130 27l-51 8q-123 20 -192.5 49t-104.5 81t-35 144q0 166 101 235.5t265 69.5t316 -26l57 -10l-4 -132q-221 33 -343 33z" />
    <glyph glyph-name="Scaron" unicode="&#x160;" horiz-adv-x="1110" 
d="M551 121q303 0 303 285q0 78 -28 122t-94 74q-66 28 -214 58q-147 30 -240 75t-137 121q-43 76 -43 203q0 381 457 381q158 0 428 -41l-14 -133q-295 35 -404 34q-307 0 -307 -231q0 -88 30 -134t102 -75q72 -30 224 -64q154 -34 237 -77t122 -114t39 -187
q0 -436 -453 -436q-144 -1 -375 34l-73 11l16 131q281 -37 424 -37zM238 1896h172l170 -163l168 163h172l-275 -276h-133z" />
    <glyph glyph-name="scaron" unicode="&#x161;" horiz-adv-x="952" 
d="M481 907q-235 0 -235 -151q0 -99 103 -128q46 -13 130 -28l51 -10q127 -22 197 -52q69 -30 103 -85t34 -154q0 -166 -97 -243t-298 -76q-123 -1 -301 28l-62 10l9 134q239 -35 357 -35t178 40q60 39 60 115t-29 109q-30 33 -76 47t-130 27l-51 8q-123 20 -193 49
q-71 29 -105 81t-34 144q0 166 100 236q164 114 582 43l57 -10l-4 -132q-221 33 -346 33zM344 1499l154 -178l149 178h154l-254 -287h-105l-252 287h154z" />
    <glyph glyph-name="uni0162" unicode="&#x162;" horiz-adv-x="1077" 
d="M584 0v-100q125 0 176 -34t51 -126q0 -184 -190 -184q-86 0 -152 10l-25 4l7 98q80 -6 135 -6q90 0 90 78q0 70 -90 70h-86v190h-37v1276h-436v141h1024v-141h-433v-1276h-34z" />
    <glyph glyph-name="uni0163" unicode="&#x163;" horiz-adv-x="718" 
d="M201 891h-146v133h146v313h151v-313h326v-133h-326v-490q0 -115 8 -171q17 -117 140 -115l182 12l10 -127q-144 -23 -234 -23t-148 34t-84 115t-25 226v539zM315 -338q90 0 91 78q0 70 -91 70h-86v192h84v-102q125 0 176 -34t52 -126q0 -184 -191 -184q-85 0 -151 10
l-25 4l6 98q80 -6 135 -6z" />
    <glyph glyph-name="Tcaron" unicode="&#x164;" horiz-adv-x="1077" 
d="M463 1276h-436v141h1024v-141h-433v-1276h-155v1276zM199 1896h172l170 -163l168 163h172l-275 -276h-133z" />
    <glyph glyph-name="tcaron" unicode="&#x165;" horiz-adv-x="884" 
d="M201 352v539h-146v133h146v313h151v-313h326v-133h-326v-490q0 -115 8.5 -171t40 -85.5t99.5 -29.5l182 12l10 -127q-145 -23 -234 -23t-147.5 34t-84 115t-25.5 226zM758 1425h147v-479h-147v479z" />
    <glyph glyph-name="Tbar" unicode="&#x166;" horiz-adv-x="1083" 
d="M467 614h-334v136h334v526h-436v141h1024v-141h-432v-526h335v-136h-335v-614h-156v614z" />
    <glyph glyph-name="tbar" unicode="&#x167;" horiz-adv-x="724" 
d="M205 352v166h-113v121h113v246h-146v139h146v313h153v-313h324v-139h-324v-246h275v-121h-275v-110q0 -125 10.5 -182.5t40 -80t97.5 -22.5l182 10l8 -133q-141 -23 -229 -23t-148.5 34t-87 114t-26.5 227z" />
    <glyph glyph-name="Utilde" unicode="&#x168;" horiz-adv-x="1318" 
d="M164 430v987h158v-991q0 -307 331 -307q174 0 260 74t86 233v991h156v-987q0 -233 -124 -342q-123 -109 -373 -109t-372 108t-122 343zM490 1755q-36 0 -115 -74l-27 -24l-35 115q43 50 95 84t98 34q45 0 171 -55t146 -55q41 0 119 71l25 23l37 -115q-96 -115 -181 -114
q-45 0 -171 55t-162 55z" />
    <glyph glyph-name="utilde" unicode="&#x169;" horiz-adv-x="1087" 
d="M137 489v535h154v-532q0 -154 16 -232q15 -78 59 -110t134 -33q139 0 286 76v831h154v-1024h-154v72q-84 -49 -156 -71q-72 -21 -182 -21q-112 0 -183 48t-99 156t-29 305zM406 1350q-47 0 -127 -62l-27 -20l-37 98q100 106 186 107q39 1 150 -47t141 -48t109 60l26 18
l35 -98q-96 -104 -176 -105q-43 1 -147 50q-111 47 -133 47z" />
    <glyph glyph-name="Umacron" unicode="&#x16a;" horiz-adv-x="1318" 
d="M164 430v987h158v-991q0 -307 331 -307q174 0 260 74t86 233v991h156v-987q0 -233 -124 -342q-123 -109 -373 -109t-372 108t-122 343zM344 1782h637v-119h-637v119z" />
    <glyph glyph-name="umacron" unicode="&#x16b;" horiz-adv-x="1087" 
d="M137 489v535h154v-532q0 -154 16 -232q15 -78 59 -110t134 -33q139 0 286 76v831h154v-1024h-154v72q-84 -49 -156 -71q-72 -21 -182 -21q-112 0 -183 48t-99 156t-29 305zM258 1399h563v-121h-563v121z" />
    <glyph glyph-name="Ubreve" unicode="&#x16c;" horiz-adv-x="1318" 
d="M164 430v987h158v-991q0 -307 331 -307q174 0 260 74t86 233v991h156v-987q0 -233 -124 -342q-123 -109 -373 -109t-372 108t-122 343zM665 1726q75 0 126 43t53 111h143q-6 -120 -94 -194q-87 -74 -229 -74t-229 74t-93 194h141q3 -68 55 -111t127 -43z" />
    <glyph glyph-name="ubreve" unicode="&#x16d;" horiz-adv-x="1087" 
d="M137 489v535h154v-532q0 -154 16 -232q15 -78 59 -110t134 -33q139 0 286 76v831h154v-1024h-154v72q-84 -49 -156 -71q-72 -21 -182 -21q-112 0 -183 48t-99 156t-29 305zM532 1315q80 0 127 47t50 125h127q-6 -125 -90 -206t-215 -81q-132 0 -215 81t-89 206h125
q4 -80 52 -126t128 -46z" />
    <glyph glyph-name="Uring" unicode="&#x16e;" horiz-adv-x="1318" 
d="M164 430v987h158v-991q0 -307 331 -307q174 0 260 74t86 233v991h156v-987q0 -233 -124 -342q-123 -109 -373 -109t-372 108t-122 343zM791 1733q0 51 -34 79t-93 29q-127 0 -127 -108q-1 -51 33 -81t94 -30t93 30q34 30 34 81zM664 1516q-108 0 -177 58q-67 58 -67 158
t67 158q68 58 177 58q110 0 176 -58t66 -157q0 -100 -67 -159q-67 -58 -175 -58z" />
    <glyph glyph-name="uring" unicode="&#x16f;" horiz-adv-x="1087" 
d="M137 489v535h154v-532q0 -154 16 -232q15 -78 59 -110t134 -33q139 0 286 76v831h154v-1024h-154v72q-84 -49 -156 -71q-72 -21 -182 -21q-112 0 -183 48t-99 156t-29 305zM543 1438q-47 0 -80 -34t-33 -82t33 -82t80 -34t80 34t33 82t-33 82t-80 34zM336 1322
q0 90 59 150q59 62 147 62t148 -61t60 -151t-60 -152t-148 -62t-147 62t-59 152z" />
    <glyph glyph-name="Uhungarumlaut" unicode="&#x170;" horiz-adv-x="1318" 
d="M164 430v987h158v-991q0 -307 331 -307q174 0 260 74t86 233v991h156v-987q0 -233 -124 -342q-123 -109 -373 -109t-372 108t-122 343zM721 1608l291 268l112 -72l-299 -264zM317 1608l291 270l111 -72l-297 -264z" />
    <glyph glyph-name="uhungarumlaut" unicode="&#x171;" horiz-adv-x="1087" 
d="M137 489v535h154v-532q0 -154 16 -232q15 -78 59 -110t134 -33q139 0 286 76v831h154v-1024h-154v72q-84 -49 -156 -71q-72 -21 -182 -21q-112 0 -183 48t-99 156t-29 305zM221 1278l297 283l111 -86l-301 -283zM616 1278l297 285l111 -88l-303 -283z" />
    <glyph glyph-name="Uogonek" unicode="&#x172;" horiz-adv-x="1318" 
d="M1155 1417v-987q0 -362 -309 -432q-141 -141 -141 -207q0 -39 23.5 -63.5t59.5 -24.5l103 12l14 -118q-92 -18 -167.5 -18.5t-129 47.5t-53.5 112t39 130t88 112h-25q-250 0 -371.5 107.5t-121.5 342.5v987h158v-991q0 -307 331 -307q174 0 260 73.5t86 233.5v991h156z
" />
    <glyph glyph-name="uogonek" unicode="&#x173;" horiz-adv-x="1087" 
d="M635 -262q0 64 39 130t88 112l24 20v72q-84 -49 -155 -70.5t-183 -21.5t-182.5 48t-99.5 156.5t-29 304.5v535h154v-532q0 -154 16.5 -232t59.5 -110.5t133 -32.5q139 0 286 76v831h154v-1024h-12q-143 -143 -144 -209q0 -39 23.5 -63.5t60.5 -24.5l103 12l14 -118
q-92 -18 -168 -18.5t-129 47.5t-53 112z" />
    <glyph glyph-name="Wcircumflex" unicode="&#x174;" horiz-adv-x="1814" 
d="M61 1417h164l242 -1278h59l289 1266h184l289 -1266h60l241 1278h162l-287 -1417h-288l-269 1210l-268 -1210h-289zM842 1890h133l274 -276h-172l-168 164l-170 -164h-172z" />
    <glyph glyph-name="wcircumflex" unicode="&#x175;" horiz-adv-x="1560" 
d="M63 1024h154l207 -891h33l243 871h160l244 -871h35l204 891h154l-244 -1024h-256l-217 801l-217 -801h-256zM729 1499h105l253 -287h-153l-150 179l-153 -179h-154z" />
    <glyph glyph-name="Ycircumflex" unicode="&#x176;" horiz-adv-x="1101" 
d="M631 0h-158v596l-453 821h179l352 -663l352 663h178l-450 -821v-596zM487 1896h134l274 -276h-172l-168 164l-170 -164h-172z" />
    <glyph glyph-name="ycircumflex" unicode="&#x177;" horiz-adv-x="989" 
d="M494 0h-152l-291 1024h154l256 -891h67l258 891h154l-426 -1479h-154zM446 1499h105l254 -287h-154l-149 179l-154 -179h-153z" />
    <glyph glyph-name="Ydieresis" unicode="&#x178;" horiz-adv-x="1101" 
d="M631 0h-158v596l-453 821h179l352 -663l352 663h178l-450 -821v-596zM684 1839h147v-184h-147v184zM266 1839h150v-184h-150v184z" />
    <glyph glyph-name="Zacute" unicode="&#x179;" horiz-adv-x="1097" 
d="M827 1278h-739v139h922v-184l-742 -1053v-41h742v-141h-922v182l739 1053v45zM313 1702l443 205l53 -135l-449 -179z" />
    <glyph glyph-name="zacute" unicode="&#x17a;" horiz-adv-x="931" 
d="M86 887v137h760v-137l-574 -750h574v-137h-760v137l573 750h-573zM231 1315l443 201l53 -132l-453 -174z" />
    <glyph glyph-name="Zdotaccent" unicode="&#x17b;" horiz-adv-x="1097" 
d="M827 1278h-739v139h922v-184l-742 -1053v-41h742v-141h-922v182l739 1053v45zM471 1819h152v-179h-152v179z" />
    <glyph glyph-name="zdotaccent" unicode="&#x17c;" horiz-adv-x="931" 
d="M86 887v137h760v-137l-574 -750h574v-137h-760v137l573 750h-573zM389 1425h152v-178h-152v178z" />
    <glyph glyph-name="Zcaron" unicode="&#x17d;" horiz-adv-x="1097" 
d="M827 1278h-739v139h922v-184l-742 -1053v-41h742v-141h-922v182l739 1053v45zM223 1896h172l170 -163l168 163h172l-274 -276h-133z" />
    <glyph glyph-name="zcaron" unicode="&#x17e;" horiz-adv-x="931" 
d="M86 887v137h760v-137l-574 -750h574v-137h-760v137l573 750h-573zM322 1499l153 -178l150 178h153l-254 -287h-104l-252 287h154z" />
    <glyph glyph-name="florin" unicode="&#x192;" 
d="M284 -344q138 0 138 233v861h-129v131h129v110q0 215 60.5 317.5t215.5 102.5q66 0 172 -14l33 -4l-2 -129q-82 8 -174 8q-152 0 -152 -236v-155h297v-131h-297v-863q0 -267 -93 -317.5t-186 -50.5t-185 12l-31 4l2 131q136 -10 202 -10z" />
    <glyph glyph-name="Aringacute" unicode="&#x1fa;" horiz-adv-x="1220" 
d="M348 1892l443 205l53 -135l-449 -178zM342 506h537l-215 776h-107zM481 1524q0 -41 23 -70t63 -37h82q89 17 87 112q0 46 -35 75q-34 29 -93 28q-127 1 -127 -108zM365 1526q0 98 67 155q68 57 176 57t176 -56q66 -58 66 -153t-55 -155l376 -1374h-155l-103 365h-606
l-102 -365h-156l377 1370q-61 58 -61 156z" />
    <glyph glyph-name="aringacute" unicode="&#x1fb;" horiz-adv-x="1026" 
d="M270 1688l443 200l53 -131l-453 -174zM240 297q0 -188 155 -188q138 0 275 47l47 16v338l-303 -29q-92 -8 -133 -53t-41 -131zM394 -21q-312 1 -312 309q0 148 75 220t238 88l322 31v88q0 195 -168 194q-166 0 -404 -26l-6 116q219 45 397 45t256 -78q79 -78 78 -251
v-525q6 -76 119 -90l-6 -120q-162 0 -244 81q-181 -82 -345 -82zM635 1322q0 48 -33 82t-80 34t-80 -34q-32 -34 -32 -82t32 -82t80 -34q47 0 80 34t33 82zM522 1534q88 0 148 -61t59 -151q0 -90 -59 -152q-60 -62 -148 -62t-147 62t-59 152t58 150q60 62 148 62z" />
    <glyph glyph-name="AEacute" unicode="&#x1fc;" horiz-adv-x="1794" 
d="M836 510l2 766h-224l-249 -766h471zM1698 1425v-149h-707v-471h584v-150h-584v-505h707v-150h-862v358h-514l-119 -358h-162l459 1425h1198zM846 1702l442 205l53 -135l-448 -179z" />
    <glyph glyph-name="aeacute" unicode="&#x1fd;" horiz-adv-x="1646" 
d="M240 297q0 -184 145 -184q84 -1 185 26t143 49v314l-299 -25q-90 -8 -132 -51t-42 -129zM1401 571q1 182 -59 259t-198 77t-206 -81t-68 -255h531zM870 446q0 -327 250 -327q139 0 334 14l59 4l5 -125q-224 -32 -412 -32t-287 110l-65 -29q-176 -82 -394 -81
q-136 -1 -207 80t-71 239q0 107 36 167t116 91t219 45l264 25v84q0 186 -178 186q-123 0 -326 -16l-63 -4l-7 137q244 31 404 30q209 0 276 -149q97 149 313 149t317 -116t101 -363l-8 -119h-676zM594 1315l442 201l54 -132l-453 -174z" />
    <glyph glyph-name="Oslashacute" unicode="&#x1fe;" horiz-adv-x="1351" 
d="M1073 715q0 330 -98 461l-481 -1029q74 -29 207 -29t218 58q85 57 119 184q35 127 35 355zM872 1260q-76 38 -214 38t-223 -61t-121 -195t-35 -364q0 -338 106 -457zM117 708q0 250 53 411t176 240q124 79 304 79t284 -43l115 241l118 -49l-120 -260q190 -160 190 -625
q0 -262 -52 -418t-174 -231q-122 -74 -335 -73q-137 0 -246 34l-117 -252l-116 54l120 258q-106 80 -153 232t-47 402zM428 1702l442 205l54 -135l-449 -179z" />
    <glyph glyph-name="oslashacute" unicode="&#x1ff;" horiz-adv-x="1081" 
d="M568 113q188 0 231 163q23 88 22 259q0 242 -86 319l-299 -731q42 -10 132 -10zM643 899l-102 12q-156 0 -218 -82q-63 -82 -63 -258t15 -269t71 -138zM102 524q0 274 102 398t337 122q76 0 151 -16l88 213l103 -39l-88 -213q184 -100 184 -465q0 -198 -41 -316
t-136 -173t-261 -55q-80 0 -156 16l-88 -225l-102 36l90 224q-98 55 -141 172q-42 117 -42 321zM295 1315l442 201l54 -132l-453 -174z" />
    <glyph glyph-name="Scommaaccent" unicode="&#x218;" horiz-adv-x="1110" 
d="M551 121q303 0 303 285q0 78 -28 122t-94 74q-66 28 -214 58q-147 30 -240 75t-137 121q-43 76 -43 203q0 381 457 381q158 0 428 -41l-14 -133q-295 35 -404 34q-307 0 -307 -231q0 -88 30 -134t102 -75q72 -30 224 -64q154 -34 237 -77t122 -114t39 -187
q0 -436 -453 -436q-144 -1 -375 34l-73 11l16 131q281 -37 424 -37zM510 -160h152l-103 -424h-133z" />
    <glyph glyph-name="scommaaccent" unicode="&#x219;" horiz-adv-x="952" 
d="M481 907q-235 0 -235 -151q0 -99 103 -128q46 -13 130 -28l51 -10q127 -22 197 -52q69 -30 103 -85t34 -154q0 -166 -97 -243t-298 -76q-123 -1 -301 28l-62 10l9 134q239 -35 357 -35t178 40q60 39 60 115t-29 109q-30 33 -76 47t-130 27l-51 8q-123 20 -193 49
q-71 29 -105 81t-34 144q0 166 100 236q164 114 582 43l57 -10l-4 -132q-221 33 -346 33zM311 -160h152l-103 -424h-133z" />
    <glyph glyph-name="uni021A" unicode="&#x21a;" horiz-adv-x="1077" 
d="M463 1276h-436v141h1024v-141h-433v-1276h-155v1276zM506 -160h151l-102 -424h-133z" />
    <glyph glyph-name="uni021B" unicode="&#x21b;" horiz-adv-x="718" 
d="M201 891h-146v133h146v313h151v-313h326v-133h-326v-490q0 -115 8 -171q17 -117 140 -115l182 12l10 -127q-144 -23 -234 -23t-148 34t-84 115t-25 226v539zM291 -160h151l-102 -424h-133z" />
    <glyph glyph-name="circumflex" unicode="&#x2c6;" horiz-adv-x="483" 
d="M213 1499h104l254 -287h-153l-150 179l-153 -179h-154z" />
    <glyph glyph-name="caron" unicode="&#x2c7;" horiz-adv-x="483" 
d="M119 1499l153 -178l150 178h153l-253 -287h-105l-252 287h154z" />
    <glyph glyph-name="breve" unicode="&#x2d8;" horiz-adv-x="483" 
d="M270 1315q80 0 127 47t49 125h127q-6 -125 -89 -206t-215 -81t-215 81t-89 206h125q4 -80 52 -126t128 -46z" />
    <glyph glyph-name="dotaccent" unicode="&#x2d9;" horiz-adv-x="483" 
d="M166 1425h151v-178h-151v178z" />
    <glyph glyph-name="ring" unicode="&#x2da;" horiz-adv-x="483" 
d="M362 1322q0 48 -32.5 82t-79.5 34t-80 -34t-33 -82t33 -82t80 -34t79.5 34t32.5 82zM43 1322q0 89 59.5 150.5t147.5 61.5t147.5 -61.5t59.5 -150.5t-59.5 -151.5t-147.5 -62.5t-147.5 62.5t-59.5 151.5z" />
    <glyph glyph-name="ogonek" unicode="&#x2db;" horiz-adv-x="921" 
d="M385 -262q0 64 39 130t88 112l43 36l125 -14q-145 -145 -145 -211q0 -39 23.5 -63.5t59.5 -24.5l103 12l14 -118q-92 -18 -167.5 -18.5t-129 47.5t-53.5 112z" />
    <glyph glyph-name="tilde" unicode="&#x2dc;" horiz-adv-x="483" 
d="M129 1350q-47 0 -127 -62l-27 -20l-36 98q100 106 186 107q39 0 149.5 -47.5t141.5 -47.5t108 60l27 18l35 -98q-96 -104 -176 -105q-44 1 -148 50q-111 47 -133 47z" />
    <glyph glyph-name="hungarumlaut" unicode="&#x2dd;" horiz-adv-x="483" 
d="M-104 1278l297 283l110 -86l-301 -283zM291 1278l297 285l110 -88l-303 -283z" />
    <glyph glyph-name="pi" unicode="&#x3c0;" 
d="M735 315v576h-319l-58 -891h-155l63 891q-115 0 -196 -21l-25 -6v129q119 31 291 31h481q139 0 236 20l32 9v-129q-61 -27 -196 -29v-580q0 -80 14.5 -119.5t52 -55t111.5 -15.5v-133q-139 0 -209 26.5t-96.5 94t-26.5 202.5z" />
    <glyph glyph-name="uni060C" unicode="&#x60c;" horiz-adv-x="456" 
d="M260 219h127l-94 -471h-170z" />
    <glyph glyph-name="uni0615" unicode="&#x615;" horiz-adv-x="0" 
d="M342 1743q0 80 -80 80q-63 0 -105 -47t-42 -101v-10h227v78zM426 1743v-166h-426v88h31v381h84v-250q31 57 66.5 87t96 30t104.5 -41t44 -129z" />
    <glyph glyph-name="uni061B" unicode="&#x61b;" horiz-adv-x="507" 
d="M160 233h168v-233h-168v233zM283 1145h127l-95 -471h-170z" />
    <glyph glyph-name="uni061F" unicode="&#x61f;" horiz-adv-x="909" 
d="M440 2v229h168v-229h-168zM457 412v71q0 66 -40.5 119t-134.5 132t-131.5 126t-52 102.5t-14.5 147.5q0 172 100.5 250t313.5 78q135 0 342 -62l-11 -125q-229 47 -343 47t-180 -46t-66 -152t49 -161.5t143 -136.5t137 -140.5t43 -127.5t-26 -122h-129z" />
    <glyph glyph-name="uni0621" unicode="&#x621;" horiz-adv-x="1101" 
d="M162 508q0 111 52 210t148.5 159.5t225.5 60.5t274 -66l-28 -131q-94 41 -186.5 41t-163 -44t-108.5 -115.5t-38 -149.5q0 -161 123 -258l516 131l37 -153l-883 -193l-33 123l207 53q-143 139 -143 332z" />
    <glyph glyph-name="uni0622" unicode="&#x622;" horiz-adv-x="526" 
d="M184 1294h158v-1294h-158v1294zM399 1419q-41 0 -144 44t-130 44t-92 -59l-23 -18l-26 92q84 94 155 94q35 0 137.5 -44t126.5 -44t89 57l20 19l29 -93q-76 -92 -142 -92z" />
    <glyph glyph-name="uni0623" unicode="&#x623;" horiz-adv-x="526" 
d="M184 1294h158v-1294h-158v1294zM170 1573q0 -53 47 -88l234 61l22 -94l-418 -82l-18 66l98 26q-70 57 -69.5 139.5t53.5 136.5t138 54t149 -49l-21 -78q-37 31 -92 31t-89 -35t-34 -88z" />
    <glyph glyph-name="uni0624" unicode="&#x624;" horiz-adv-x="1032" 
d="M510 141h242v766q-111 14 -214.5 14.5t-173 -46t-97 -135.5t-27.5 -240.5t53 -255t217 -103.5zM524 1063q176 0 385 -39v-897q0 -326 -80.5 -480.5t-279.5 -154.5q-94 0 -309 31v139q190 -29 280 -29t134 26q98 58 98 341h-301q-223 0 -296 141.5t-73 349t37 327.5
t133 182.5t272 62.5zM547.5 1550q-55.5 0 -89.5 -34.5t-34 -87.5t47 -89l234 62l22 -94l-418 -82l-18 65l98 27q-70 57 -70 139t53.5 136.5t137.5 54.5q47 0 88 -16.5t61 -33.5l-20 -77q-36 30 -91.5 30z" />
    <glyph glyph-name="uni0625" unicode="&#x625;" horiz-adv-x="526" 
d="M184 1470h158v-1470h-158v1470zM321.5 -213q-55.5 0 -89 -35t-33.5 -88t47 -88l233 62l23 -95l-418 -82l-18 66l98 27q-70 57 -70 139t53.5 136t137.5 54q47 0 88 -16.5t61 -32.5l-20 -78q-37 31 -92.5 31z" />
    <glyph glyph-name="uni0626" unicode="&#x626;" horiz-adv-x="1734" 
d="M82 -73q0 126 53 454l150 -25q-45 -301 -45 -395t50 -170t135 -117t185 -41l541 -2q145 0 224 93.5t79 236.5q0 80 -28 131q-54 97 -287 148q-168 35 -261.5 80t-136.5 120.5t-43 202.5q0 381 457 381q158 0 428 -41l-14 -133q-295 35 -404 35q-307 0 -307 -232
q0 -88 30 -134t101.5 -74.5t222 -62.5t236.5 -84t125 -128t39 -197q0 -219 -117 -350t-336 -131h-538q-150 0 -273 55.5t-194.5 154.5t-71.5 225zM354.5 870q-55.5 0 -89.5 -34.5t-34 -87.5t48 -89l233 62l23 -94l-418 -82l-19 65l99 27q-70 57 -70 139t53 136.5t138 54.5
t149 -49l-21 -78q-36 30 -91.5 30z" />
    <glyph glyph-name="uni0627" unicode="&#x627;" horiz-adv-x="526" 
d="M184 1470h158v-1470h-158v1470z" />
    <glyph glyph-name="uni0628" unicode="&#x628;" horiz-adv-x="1566" 
d="M1403 1024v-1024h-762q-197 0 -311.5 33t-166.5 105t-52 212t63 449l123 -6l-21 -164q-2 -23 -13 -114t-11 -161t36 -120t118.5 -71.5t232.5 -21.5h606v883h158zM707 -164h155v-172h-155v172z" />
    <glyph glyph-name="uni0629" unicode="&#x629;" horiz-adv-x="1136" 
d="M592 141h264v748q-180 12 -278 12q-186 0 -262 -88t-76 -291q0 -141 33.5 -223t109.5 -120t209 -38zM583.5 1044q210.5 0 430.5 -22v-1022h-449q-182 0 -286.5 51t-150.5 163t-46 303t44 306t145.5 168t312 53zM621 1386h155v-172h-155v172zM365 1386h155v-172h-155v172z
" />
    <glyph glyph-name="uni062A" unicode="&#x62a;" horiz-adv-x="1566" 
d="M1403 1024v-1024h-762q-197 0 -311.5 33t-166.5 105t-52 212t63 449l123 -6l-21 -164q-2 -23 -13 -114t-11 -161t36 -120t118.5 -71.5t232.5 -21.5h606v883h158zM836 1196h155v-172h-155v172zM580 1196h155v-172h-155v172z" />
    <glyph glyph-name="uni062B" unicode="&#x62b;" horiz-adv-x="1566" 
d="M1403 1024v-1024h-762q-197 0 -311.5 33t-166.5 105t-52 212t63 449l123 -6l-21 -164q-2 -23 -13 -114t-11 -161t36 -120t118.5 -71.5t232.5 -21.5h606v883h158zM834 1196h155v-172h-155v172zM578 1196h155v-172h-155v172zM707 1446h153v-166h-153v166z" />
    <glyph glyph-name="uni062C" unicode="&#x62c;" horiz-adv-x="1132" 
d="M852 0q-142 82 -350 82q-114 0 -186 -65.5t-72 -211.5q0 -313 342 -313q147 0 379 45l18 -125q-262 -59 -430 -59q-231 0 -351 118.5t-120 342.5q0 410 420 409q111 0 205 -25.5t145 -56.5v555q0 207 -213 207q-92 0 -365 -33l-57 -6l-6 117q309 63 463 63
q336 0 336 -350v-694h-158zM580 -174h155v-172h-155v172z" />
    <glyph glyph-name="uni062D" unicode="&#x62d;" horiz-adv-x="1132" 
d="M852 0q-142 82 -350 82q-114 0 -186 -65.5t-72 -211.5q0 -313 342 -313q147 0 379 45l18 -125q-262 -59 -430 -59q-231 0 -351 118.5t-120 342.5q0 410 420 409q111 0 205 -25.5t145 -56.5v555q0 207 -213 207q-92 0 -365 -33l-57 -6l-6 117q309 63 463 63
q336 0 336 -350v-694h-158z" />
    <glyph glyph-name="uni062E" unicode="&#x62e;" horiz-adv-x="1132" 
d="M852 0q-142 82 -350 82q-114 0 -186 -65.5t-72 -211.5q0 -313 342 -313q147 0 379 45l18 -125q-262 -59 -430 -59q-231 0 -351 118.5t-120 342.5q0 410 420 409q111 0 205 -25.5t145 -56.5v555q0 207 -213 207q-92 0 -365 -33l-57 -6l-6 117q309 63 463 63
q336 0 336 -350v-694h-158zM489 1386h156v-172h-156v172z" />
    <glyph glyph-name="uni062F" unicode="&#x62f;" horiz-adv-x="1007" 
d="M905 383v-383h-823v141h666v238q0 303 -118 425t-276 122h-166l-10 116q20 8 83 16.5t120 8.5q223 0 373.5 -161t150.5 -523z" />
    <glyph glyph-name="uni0630" unicode="&#x630;" horiz-adv-x="1007" 
d="M905 383v-383h-823v141h666v238q0 303 -118 425t-276 122h-166l-10 116q20 8 83 16.5t120 8.5q223 0 373.5 -161t150.5 -523zM233 1442h156v-172h-156v172z" />
    <glyph glyph-name="uni0631" unicode="&#x631;" horiz-adv-x="716" 
d="M414 -61v1083h157v-1045q0 -487 -338 -487q-48 0 -108 6l-43 4v140q102 -8 129 -9q102 0 152.5 81t50.5 227z" />
    <glyph glyph-name="uni0632" unicode="&#x632;" horiz-adv-x="716" 
d="M414 -61v1083h157v-1045q0 -487 -338 -487q-48 0 -108 6l-43 4v140q102 -8 129 -9q102 0 152.5 81t50.5 227zM412 1386h155v-172h-155v172z" />
    <glyph glyph-name="uni0633" unicode="&#x633;" horiz-adv-x="2334" 
d="M2191 569v-569h-381q-125 0 -227 86q-74 -86 -194 -86h-252v-82q0 -137 -71 -233.5t-188.5 -144.5t-262 -48t-267.5 55.5t-194.5 154.5t-71.5 244.5t82 612.5l151 -8q-75 -435 -75 -590q0 -96 50 -171t135 -116t184 -41t184.5 39t135.5 110t50 159v981h158v-781h202
q94 0 136.5 81t42.5 204v496h157v-494q0 -125 -28 -217q80 -70 172 -70h215v445q0 118 -37 432l129 6q65 -293 65 -455z" />
    <glyph glyph-name="uni0634" unicode="&#x634;" horiz-adv-x="2334" 
d="M2191 569v-569h-381q-125 0 -227 86q-74 -86 -194 -86h-252v-82q0 -137 -71 -233.5t-188.5 -144.5t-262 -48t-267.5 55.5t-194.5 154.5t-71.5 244.5t82 612.5l151 -8q-75 -435 -75 -590q0 -96 50 -171t135 -116t184 -41t184.5 39t135.5 110t50 159v981h158v-781h202
q94 0 136.5 81t42.5 204v496h157v-494q0 -125 -28 -217q80 -70 172 -70h215v445q0 118 -37 432l129 6q65 -293 65 -455zM1645 1386h155v-172h-155v172zM1389 1386h155v-172h-155v172zM1518 1636h153v-166h-153v166z" />
    <glyph glyph-name="uni0635" unicode="&#x635;" horiz-adv-x="2306" 
d="M1137 141h888v351q0 176 -85 293.5t-246 117.5q-127 0 -235.5 -69.5t-176.5 -148.5t-145 -187v-357zM82 -53.5q0 145.5 82 612.5l151 -8q-76 -481 -75.5 -582.5t50.5 -177.5t135 -117t184 -41t183.5 39t135.5 110t51 159v1083h158v-328q93 114 167 186q168 162 416 162
t355.5 -158.5t107.5 -371.5v-514h-1046v-82q0 -137 -71 -233.5t-188.5 -144.5t-262 -48t-267.5 55.5t-194.5 154.5t-71.5 244.5z" />
    <glyph glyph-name="uni0636" unicode="&#x636;" horiz-adv-x="2306" 
d="M1137 141h888v351q0 176 -85 293.5t-246 117.5q-127 0 -235.5 -69.5t-176.5 -148.5t-145 -187v-357zM82 -53.5q0 145.5 82 612.5l151 -8q-76 -481 -75.5 -582.5t50.5 -177.5t135 -117t184 -41t183.5 39t135.5 110t51 159v1083h158v-328q93 114 167 186q168 162 416 162
t355.5 -158.5t107.5 -371.5v-514h-1046v-82q0 -137 -71 -233.5t-188.5 -144.5t-262 -48t-267.5 55.5t-194.5 154.5t-71.5 244.5zM1509 1386h156v-172h-156v172z" />
    <glyph glyph-name="uni0637" unicode="&#x637;" horiz-adv-x="1486" 
d="M317 141h889v351q0 176 -85 293.5t-247 117.5q-126 0 -235 -69.5t-176.5 -148.5t-145.5 -187v-357zM1364 514v-514h-1315v141h111v1329h157v-774q92 114 167 186q169 162 417 162t355.5 -158.5t107.5 -371.5z" />
    <glyph glyph-name="uni0638" unicode="&#x638;" horiz-adv-x="1486" 
d="M317 141h889v351q0 176 -85 293.5t-247 117.5q-126 0 -235 -69.5t-176.5 -148.5t-145.5 -187v-357zM1364 514v-514h-1315v141h111v1329h157v-774q92 114 167 186q169 162 417 162t355.5 -158.5t107.5 -371.5zM666 1386h155v-172h-155v172z" />
    <glyph glyph-name="uni0639" unicode="&#x639;" horiz-adv-x="1044" 
d="M82 -182q0 299 231 377q-100 151 -100 368q0 137 49 246t146.5 172t255 63t319.5 -81l-6 -140q-33 23 -131 51.5t-182 28.5q-139 0 -214 -90t-75 -277.5t121 -312.5h10q209 0 346 -82v-141q-57 31 -148.5 56.5t-183.5 25.5q-281 0 -280 -277q0 -313 346 -313
q148 0 379 45l18 -125q-251 -59 -430 -59q-231 0 -351 119.5t-120 345.5z" />
    <glyph glyph-name="uni063A" unicode="&#x63a;" horiz-adv-x="1044" 
d="M82 -182q0 299 231 377q-100 151 -100 368q0 137 49 246t146.5 172t255 63t319.5 -81l-6 -140q-33 23 -131 51.5t-182 28.5q-139 0 -214 -90t-75 -277.5t121 -312.5h10q209 0 346 -82v-141q-57 31 -148.5 56.5t-183.5 25.5q-281 0 -280 -277q0 -313 346 -313
q148 0 379 45l18 -125q-251 -59 -430 -59q-231 0 -351 119.5t-120 345.5zM547 1386h155v-172h-155v172z" />
    <glyph glyph-name="uni0640" unicode="&#x640;" horiz-adv-x="512" 
d="M0 141h512v-141h-512v141z" />
    <glyph glyph-name="uni0641" unicode="&#x641;" horiz-adv-x="1966" 
d="M1686 141v736q-139 10 -197 10q-129 0 -196.5 -39t-93 -123t-25.5 -233q-1 -261 75 -351h437zM223 373.5q0 -90.5 36 -140t119 -71t232 -21.5h463q-55 109 -55 333t44 339t147.5 162t276.5 47t300 -14l57 -7v-1001h-1231q-197 0 -311.5 33t-166.5 104.5t-52 218t65 443.5
l123 -6q-47 -329 -47 -419.5zM1423 1386h156v-172h-156v172z" />
    <glyph glyph-name="uni0642" unicode="&#x642;" horiz-adv-x="1755" 
d="M1210 141h244v733q-141 12 -192 13q-123 0 -192 -42t-97.5 -129t-28.5 -227.5t25.5 -214t83 -103.5t157.5 -30zM240 -39q0 -154 80.5 -242t244.5 -88h561q166 0 247 88t81 242v39h-297q-141 0 -220 41t-115 143.5t-36 296t41 311t139.5 175t261.5 57.5t326 -16l58 -7
v-1077q0 -197 -127 -315.5t-350 -118.5h-576q-223 0 -350 119t-127 317q0 150 74 580l149 -25q-65 -414 -65 -520zM1321 1386h156v-172h-156v172zM1065 1386h156v-172h-156v172z" />
    <glyph glyph-name="uni0643" unicode="&#x643;" horiz-adv-x="1558" 
d="M631 141h586v1329h157v-1470h-741q-197 0 -311.5 33t-167 104.5t-52.5 203.5t54 398l127 -6q-40 -285 -39.5 -367.5t36 -132t118.5 -71t233 -21.5zM629 930q0 -53 47 -88l233 61l23 -94l-418 -82l-18 66l98 26q-70 57 -70 139.5t53.5 136.5t137.5 54q47 0 88 -16.5
t61 -32.5l-20 -78q-37 31 -92 31t-89 -35t-34 -88z" />
    <glyph glyph-name="uni0644" unicode="&#x644;" horiz-adv-x="1320" 
d="M240 -43q0 -108 50 -178t136 -108t190 -38q152 0 257.5 79t105.5 225v1533h158v-1552q0 -137 -71 -233.5t-188.5 -144.5t-262 -48t-267.5 55.5t-194.5 153.5t-71.5 247t82 611l151 -8q-75 -486 -75 -594z" />
    <glyph glyph-name="uni0645" unicode="&#x645;" horiz-adv-x="1234" 
d="M387 510q0 -195 29 -369h538v373q0 209 -88 299t-268 90q-100 0 -178 -20q-33 -178 -33 -373zM84 -223q0 271 178 342q-33 172 -33 345q0 309 54 525q49 20 143 37.5t199 17.5q249 0 368 -122.5t119 -409.5v-512h-659q-227 0 -228 -281q0 -129 56 -385l-134 -4
q-63 295 -63 447z" />
    <glyph glyph-name="uni0646" unicode="&#x646;" horiz-adv-x="1259" 
d="M240 -43q0 -108 50 -178t136 -108t190 -38q152 0 257.5 79t105.5 225v1087h158v-1106q0 -137 -71 -233.5t-188.5 -144.5t-262 -48t-267.5 55.5t-194.5 153.5t-71.5 247t82 611l151 -8q-75 -486 -75 -594zM547 1196h155v-172h-155v172z" />
    <glyph glyph-name="uni0647" unicode="&#x647;" horiz-adv-x="1136" 
d="M592 141h264v748q-180 12 -278 12q-186 0 -262 -88t-76 -291q0 -141 33.5 -223t109.5 -120t209 -38zM583.5 1044q210.5 0 430.5 -22v-1022h-449q-182 0 -286.5 51t-150.5 163t-46 303t44 306t145.5 168t312 53z" />
    <glyph glyph-name="uni0648" unicode="&#x648;" horiz-adv-x="1032" 
d="M510 141h242v766q-111 14 -214.5 14.5t-173 -46t-97 -135.5t-27.5 -240.5t53 -255t217 -103.5zM524 1063q176 0 385 -39v-897q0 -326 -80.5 -480.5t-279.5 -154.5q-94 0 -309 31v139q190 -29 280 -29t134 26q98 58 98 341h-301q-223 0 -296 141.5t-73 349t37 327.5
t133 182.5t272 62.5z" />
    <glyph glyph-name="uni0649" unicode="&#x649;" horiz-adv-x="1734" 
d="M82 -73q0 126 53 454l150 -25q-45 -301 -45 -395t50 -170t135 -117t185 -41l541 -2q145 0 224 93.5t79 236.5q0 80 -28 131q-54 97 -287 148q-168 35 -261.5 80t-136.5 120.5t-43 202.5q0 381 457 381q158 0 428 -41l-14 -133q-295 35 -404 35q-307 0 -307 -232
q0 -88 30 -134t101.5 -74.5t222 -62.5t236.5 -84t125 -128t39 -197q0 -219 -117 -350t-336 -131h-538q-150 0 -273 55.5t-194.5 154.5t-71.5 225z" />
    <glyph glyph-name="uni064A" unicode="&#x64a;" horiz-adv-x="1734" 
d="M82 -73q0 126 53 454l150 -25q-45 -301 -45 -395t50 -170t135 -117t185 -41l541 -2q145 0 224 93.5t79 236.5q0 80 -28 131q-54 97 -287 148q-168 35 -261.5 80t-136.5 120.5t-43 202.5q0 381 457 381q158 0 428 -41l-14 -133q-295 35 -404 35q-307 0 -307 -232
q0 -88 30 -134t101.5 -74.5t222 -62.5t236.5 -84t125 -128t39 -197q0 -219 -117 -350t-336 -131h-538q-150 0 -273 55.5t-194.5 154.5t-71.5 225zM895 -655h156v-172h-156v172zM639 -655h156v-172h-156v172z" />
    <glyph glyph-name="uni064B" unicode="&#x64b;" horiz-adv-x="0" 
d="M-219 1530l438 86v-103l-438 -86v103zM-219 1718l438 86v-102l-438 -86v102z" />
    <glyph glyph-name="uni064C" unicode="&#x64c;" horiz-adv-x="0" 
d="M-39 1808q0 -51 31 -108l119 31q4 25 4 49q0 98 -84 98q-70 0 -70 -70zM-131 1810q0 156 154 156q96 0 144 -59.5t42 -155.5v-94l-438 -86q-10 25 -41 143l-13 43l66 21l39 -123l76 20q-29 65 -29 135z" />
    <glyph glyph-name="uni064D" unicode="&#x64d;" horiz-adv-x="0" 
d="M-219 -162l438 86v-102l-438 -86v102zM-219 -358l438 86v-103l-438 -86v103z" />
    <glyph glyph-name="uni064E" unicode="&#x64e;" horiz-adv-x="0" 
d="M-219 1530l438 86v-103l-438 -86v103z" />
    <glyph glyph-name="uni064F" unicode="&#x64f;" horiz-adv-x="0" 
d="M-39 1808q0 -51 31 -108l119 31q4 25 4 49q0 98 -84 98q-70 0 -70 -70zM-131 1810q0 156 154 156q96 0 144 -59.5t42 -155.5v-94l-438 -86v71l127 33q-29 65 -29 135z" />
    <glyph glyph-name="uni0650" unicode="&#x650;" horiz-adv-x="0" 
d="M-219 -162l438 86v-102l-438 -86v102z" />
    <glyph glyph-name="uni0651" unicode="&#x651;" horiz-adv-x="0" 
d="M-111 1456q-108 0 -108 127q0 63 4 100l74 17v-103q0 -70 53 -64q55 6 55 79v78l70 14v-88q0 -20 18.5 -34.5t40.5 -8.5l43 8v176l70 15q10 -59 10 -121v-131l-117 -23q-8 -2 -26 -2q-45 0 -66 35q-20 -74 -121 -74z" />
    <glyph glyph-name="uni0652" unicode="&#x652;" horiz-adv-x="0" 
d="M96 1610q0 45 -27.5 75.5t-68.5 30.5t-68.5 -30.5t-27.5 -75.5t28.5 -77t67.5 -32t67.5 32t28.5 77zM-180 1610q0 80 52 136t127 56t128 -56t53 -136t-53 -136.5t-128 -56.5t-127 56.5t-52 136.5z" />
    <glyph glyph-name="uni0653" unicode="&#x653;" horiz-adv-x="0" 
d="M137 1559q-41 0 -144 44t-130 44t-92 -60l-23 -18l-27 92q84 94 156 94q40 0 139.5 -44t115.5 -44q35 0 97 57l21 19l29 -92q-76 -92 -142 -92z" />
    <glyph glyph-name="uni0654" unicode="&#x654;" horiz-adv-x="0" 
d="M55 1858q-55 0 -89 -35t-34 -88t48 -88l233 61l23 -94l-418 -82l-19 65l99 27q-70 57 -70 139t53 136.5t138 54.5t149 -49l-21 -78q-37 31 -92 31z" />
    <glyph glyph-name="uni0655" unicode="&#x655;" horiz-adv-x="0" 
d="M57.5 -213q-55.5 0 -89.5 -35t-34 -88t48 -88l233 62l23 -95l-418 -82l-19 66l99 27q-70 57 -70 139t53.5 136t136.5 54q47 0 88.5 -16.5t61.5 -32.5l-20 -78q-37 31 -92.5 31z" />
    <glyph glyph-name="uni0656" unicode="&#x656;" horiz-adv-x="0" 
d="M-55 41l110 47v-387l-110 -47v387z" />
    <glyph glyph-name="uni0658" unicode="&#x658;" horiz-adv-x="0" 
d="M-193 1523.5q0 59.5 29 241.5l66 -2q-29 -186 -29 -226t36 -70.5t92 -30.5t91 27.5t35 76.5v397h66v-405q0 -74 -54.5 -115t-136.5 -41t-138.5 44t-56.5 103.5z" />
    <glyph glyph-name="uni0660" unicode="&#x660;" horiz-adv-x="557" 
d="M164 594h229v-285h-229v285z" />
    <glyph glyph-name="uni0661" unicode="&#x661;" horiz-adv-x="645" 
d="M244 1352h157v-1352h-157v1352z" />
    <glyph glyph-name="uni0662" unicode="&#x662;" horiz-adv-x="1058" 
d="M233 1352h158v-267q0 -141 49 -205.5t163 -64.5t161 67.5t47 200.5v269h158v-275q0 -195 -99.5 -299t-259.5 -104t-219 88v-762h-158v1352z" />
    <glyph glyph-name="uni0663" unicode="&#x663;" horiz-adv-x="1347" 
d="M1243 1020q-1 -346 -301 -346q-156 0 -213 114q-52 -114 -177 -114q-124 0 -167 88v-762h-158v1352h158v-326q0 -98 30.5 -154.5t110.5 -56.5t112 56.5t32 150.5v330h133v-328q0 -94 31.5 -150.5t111.5 -56.5t109.5 55.5t29.5 151.5v328h158v-332z" />
    <glyph glyph-name="uni0664" unicode="&#x664;" horiz-adv-x="993" 
d="M866 141v-141h-393q-147 0 -237.5 69t-90.5 169t89.5 215.5t322.5 248.5q-109 0 -189.5 48.5t-123.5 126t-43 163.5q0 141 115.5 226.5t322.5 85.5q100 0 170 -19l-14 -129q-105 14 -199 14t-168 -51t-74 -142t59.5 -156.5t157.5 -65.5h211l-14 -129q-463 -213 -463 -395
q0 -61 51.5 -99.5t135.5 -38.5h374z" />
    <glyph glyph-name="uni0665" unicode="&#x665;" horiz-adv-x="1255" 
d="M961 671q0 216 -72 385t-261 169t-261 -169t-72 -385t75.5 -376t257.5 -160t257.5 160t75.5 376zM137 666q0 272 106.5 485t385.5 213t384 -213t105 -484t-112.5 -471t-379 -200t-378 199t-111.5 471z" />
    <glyph glyph-name="uni0666" unicode="&#x666;" horiz-adv-x="909" 
d="M514 1210h-465v142h623v-1352h-158v1210z" />
    <glyph glyph-name="uni0667" unicode="&#x667;" horiz-adv-x="1206" 
d="M59 1335h179q332 -1077 358 -1194h4q14 63 167 551l204 643h170l-447 -1335h-205z" />
    <glyph glyph-name="uni0668" unicode="&#x668;" horiz-adv-x="1206" 
d="M489 1335h205l447 -1335h-170l-204 643t-167 551h-4q-27 -117 -358 -1194h-179z" />
    <glyph glyph-name="uni0669" unicode="&#x669;" horiz-adv-x="1169" 
d="M541 1210q-152 0 -235 -72.5t-83 -204.5t83 -209t207 -77t267 33v502q-87 28 -239 28zM586 1352q146 0 352 -39v-1313h-158v539q-124 -33 -270 -33t-295 87t-149 333q0 199 137 312.5t383 113.5z" />
    <glyph glyph-name="uni066A" unicode="&#x66a;" 
d="M967 268q0 94 -23 136t-78 42t-79 -40q-23 -40 -23 -136t24 -141t78 -45q53 0 77 45t24 139zM641 270q0 281 224 281t225 -279q0 -145 -58 -219t-167 -74q-108 0 -166 74t-58 217zM385 1094q0 90 -24 132t-76 42q-103 0 -103 -181t103 -182q100 0 100 189zM508 1092
q0 -144 -58 -218t-167 -74q-224 0 -225 286t225 286q225 0 225 -280zM317 -8l420 1403l99 -33l-420 -1399z" />
    <glyph glyph-name="uni066B" unicode="&#x66b;" horiz-adv-x="403" 
d="M164 219h170l-137 -471h-127z" />
    <glyph glyph-name="uni066C" unicode="&#x66c;" horiz-adv-x="309" 
d="M129 147h111l-88 -301h-82z" />
    <glyph glyph-name="uni066D" unicode="&#x66d;" horiz-adv-x="860" 
d="M764 1149v-102h-270l84 -256l-101 -31l-84 258l-219 -162l-63 82l221 162l-217 157l63 86l217 -159l84 258l101 -33l-82 -260h266z" />
    <glyph glyph-name="uni066E" unicode="&#x66e;" horiz-adv-x="1566" 
d="M1403 1024v-1024h-762q-197 0 -311.5 33t-166.5 105t-52 212t63 449l123 -6l-21 -164q-2 -23 -13 -114t-11 -161t36 -120t118.5 -71.5t232.5 -21.5h606v883h158z" />
    <glyph glyph-name="uni066F" unicode="&#x66f;" horiz-adv-x="1755" 
d="M1210 141h244v733q-141 12 -192 13q-123 0 -192 -42t-97.5 -129t-28.5 -227.5t25.5 -214t83 -103.5t157.5 -30zM240 -39q0 -154 80.5 -242t244.5 -88h561q166 0 247 88t81 242v39h-297q-141 0 -220 41t-115 143.5t-36 296t41 311t139.5 175t261.5 57.5t326 -16l58 -7
v-1077q0 -197 -127 -315.5t-350 -118.5h-576q-223 0 -350 119t-127 317q0 150 74 580l149 -25q-65 -414 -65 -520z" />
    <glyph glyph-name="uni0670" unicode="&#x670;" horiz-adv-x="0" 
d="M-53 1751l106 47v-387l-106 -47v387z" />
    <glyph glyph-name="uni0671" unicode="&#x671;" horiz-adv-x="526" 
d="M184 1294h158v-1294h-158v1294zM436 1489q0 145 -112 145q-66 0 -114 -39t-48 -106h274zM14 1489h92q0 53 30 103t83 83t121 33q172 0 172 -219v-84h-498v84z" />
    <glyph glyph-name="uni0679" unicode="&#x679;" horiz-adv-x="1566" 
d="M1403 1024v-1024h-762q-197 0 -311.5 33t-166.5 104.5t-52 212t63 449.5l123 -6l-21 -164q-2 -23 -13 -114t-11 -161.5t36 -120t118.5 -71t232.5 -21.5h606v883h158zM913 1190q0 80 -79 80q-64 0 -106 -47t-42 -101v-10h227v78zM997 1190v-166h-426v88h31v381h84v-250
q31 57 66.5 87t96 30t104.5 -41t44 -129z" />
    <glyph glyph-name="uni067E" unicode="&#x67e;" horiz-adv-x="1566" 
d="M1403 1024v-1024h-762q-197 0 -311.5 33t-166.5 105t-52 212t63 449l123 -6l-21 -164q-2 -23 -13 -114t-11 -161t36 -120t118.5 -71.5t232.5 -21.5h606v883h158zM707 -420h153v-166h-153v166zM834 -164h155v-172h-155v172zM578 -164h155v-172h-155v172z" />
    <glyph glyph-name="uni0686" unicode="&#x686;" horiz-adv-x="1175" 
d="M735 -430h154v-178h-154v178zM1053 -164v-194h-168v194h168zM573 -358v194h168v-194h-168zM852 696q0 207 -213 207q-92 0 -365 -33l-57 -6l-6 117q309 63 463 63q336 0 336 -350v-694h-158q-57 31 -147.5 56.5t-180.5 25.5q-137 0 -208.5 -65.5t-71.5 -214t84 -229.5
t258 -81l22 -139h-55q-231 0 -351 118.5t-120 342.5q0 410 420 409q193 0 350 -82v555z" />
    <glyph glyph-name="uni0688" unicode="&#x688;" horiz-adv-x="1007" 
d="M905 383v-383h-823v141h666v238q0 303 -118 425t-276 122h-166l-10 116q20 8 83 16.5t120 8.5q223 0 373.5 -161t150.5 -523zM440 1436q0 80 -80 80q-63 0 -105 -47.5t-42 -100.5v-10h227v78zM524 1436v-166h-426v88h31v381h84v-250q31 57 66.5 87t96 30t104.5 -41
t44 -129z" />
    <glyph glyph-name="uni0691" unicode="&#x691;" horiz-adv-x="716" 
d="M414 -61v1083h157v-1045q0 -487 -338 -487q-48 0 -108 6l-43 4v140q102 -8 129 -9q102 0 152.5 81t50.5 227zM618 1380q0 80 -79 80q-64 0 -106 -47t-42 -100v-10h227v77zM702 1380v-166h-426v89h31v380h84v-249q31 57 67 86.5t96 29.5t104 -41t44 -129z" />
    <glyph glyph-name="uni0698" unicode="&#x698;" horiz-adv-x="716" 
d="M414 -61v1083h157v-1045q0 -487 -338 -487q-48 0 -108 6l-43 4v140q102 -8 129 -9q102 0 152.5 81t50.5 227zM539 1386h155v-172h-155v172zM283 1386h155v-172h-155v172zM412 1636h153v-166h-153v166z" />
    <glyph glyph-name="uni06A1" unicode="&#x6a1;" horiz-adv-x="1966" 
d="M1686 141v736q-139 10 -197 10q-129 0 -196.5 -39t-93 -123t-25.5 -233q-1 -261 75 -351h437zM223 373.5q0 -90.5 36 -140t119 -71t232 -21.5h463q-55 109 -55 333t44 339t147.5 162t276.5 47t300 -14l57 -7v-1001h-1231q-197 0 -311.5 33t-166.5 104.5t-52 218t65 443.5
l123 -6q-47 -329 -47 -419.5z" />
    <glyph glyph-name="uni06A4" unicode="&#x6a4;" horiz-adv-x="1966" 
d="M1686 141v736q-139 10 -197 10q-129 0 -196.5 -39t-93 -123t-25.5 -233q-1 -261 75 -351h437zM223 373.5q0 -90.5 36 -140t119 -71t232 -21.5h463q-55 109 -55 333t44 339t147.5 162t276.5 47t300 -14l57 -7v-1001h-1231q-197 0 -311.5 33t-166.5 104.5t-52 218t65 443.5
l123 -6q-47 -329 -47 -419.5zM1550 1386h156v-172h-156v172zM1294 1386h156v-172h-156v172zM1423 1636h154v-166h-154v166z" />
    <glyph glyph-name="uni06A9" unicode="&#x6a9;" horiz-adv-x="1634" 
d="M223 369q0 -86 36 -135.5t119 -71t232 -21.5h744v297q0 123 -46 213t-153 92h-555l-104 142l106 209q75 149 262 376l113 -63q-166 -249 -227 -371l-78 -151h495q179 0 261.5 -125t82.5 -324v-436h-899q-197 0 -311.5 33t-166.5 104.5t-52 203.5t53 398l127 -6
q-39 -278 -39 -364z" />
    <glyph glyph-name="uni06AF" unicode="&#x6af;" horiz-adv-x="1634" 
d="M223 369q0 -86 36 -135.5t119 -71t232 -21.5h744v297q0 123 -46 213t-153 92h-555l-104 142l106 209q75 149 262 376l113 -63q-166 -249 -227 -371l-78 -151h495q179 0 261.5 -125t82.5 -324v-436h-899q-197 0 -311.5 33t-166.5 104.5t-52 203.5t53 398l127 -6
q-39 -278 -39 -364zM381 1049l63 125q35 66 112 176t151 200l92 -51q-76 -90 -165 -217t-120 -190l-65 -134z" />
    <glyph glyph-name="uni06BA" unicode="&#x6ba;" horiz-adv-x="1259" 
d="M240 -43q0 -108 50 -178t136 -108t190 -38q152 0 257.5 79t105.5 225v1087h158v-1106q0 -137 -71 -233.5t-188.5 -144.5t-262 -48t-267.5 55.5t-194.5 153.5t-71.5 247t82 611l151 -8q-75 -486 -75 -594z" />
    <glyph glyph-name="uni06BE" unicode="&#x6be;" horiz-adv-x="1515" 
d="M352 324v-183h424v183q0 88 -60.5 149.5t-150.5 61.5t-151.5 -61.5t-61.5 -149.5zM696 971q-134 0 -434 -51l-10 120q266 72 473 72q289 0 478.5 -159.5t189.5 -524.5v-428h-1311v141h113v164q0 100 50 185t135 135.5t184 50.5t184.5 -48t135.5 -133t50 -190v-164h301
v283q0 303 -152.5 425t-386.5 122z" />
    <glyph glyph-name="uni06C1" unicode="&#x6c1;" horiz-adv-x="1136" 
d="M592 141h264v748q-180 12 -278 12q-186 0 -262 -88t-76 -291q0 -141 33.5 -223t109.5 -120t209 -38zM583.5 1044q210.5 0 430.5 -22v-1022h-449q-182 0 -286.5 51t-150.5 163t-46 303t44 306t145.5 168t312 53z" />
    <glyph glyph-name="uni06C2" unicode="&#x6c2;" horiz-adv-x="1136" 
d="M592 141h264v748q-180 12 -278 12q-186 0 -262 -88t-76 -291q0 -141 33.5 -223t109.5 -120t209 -38zM583.5 1044q210.5 0 430.5 -22v-1022h-449q-182 0 -286.5 51t-150.5 163t-46 303t44 306t145.5 168t312 53zM477 1428q0 -53 47 -89l234 62l22 -94l-418 -82l-18 65
l98 27q-70 57 -69.5 139t53.5 136.5t139 54.5t148 -50l-21 -77q-36 30 -91.5 30t-89.5 -34.5t-34 -87.5z" />
    <glyph glyph-name="uni06C3" unicode="&#x6c3;" horiz-adv-x="1136" 
d="M592 141h264v748q-180 12 -278 12q-186 0 -262 -88t-76 -291q0 -141 33.5 -223t109.5 -120t209 -38zM583.5 1044q210.5 0 430.5 -22v-1022h-449q-182 0 -286.5 51t-150.5 163t-46 303t44 306t145.5 168t312 53zM621 1386h155v-172h-155v172zM365 1386h155v-172h-155v172z
" />
    <glyph glyph-name="uni06CC" unicode="&#x6cc;" horiz-adv-x="1734" 
d="M82 -73q0 126 53 454l150 -25q-45 -301 -45 -395t50 -170t135 -117t185 -41l541 -2q145 0 224 93.5t79 236.5q0 80 -28 131q-54 97 -287 148q-168 35 -261.5 80t-136.5 120.5t-43 202.5q0 381 457 381q158 0 428 -41l-14 -133q-295 35 -404 35q-307 0 -307 -232
q0 -88 30 -134t101.5 -74.5t222 -62.5t236.5 -84t125 -128t39 -197q0 -219 -117 -350t-336 -131h-538q-150 0 -273 55.5t-194.5 154.5t-71.5 225z" />
    <glyph glyph-name="uni06D2" unicode="&#x6d2;" horiz-adv-x="1533" 
d="M82 -104q0 141 45 245h803q174 0 260 74t86 234v223h156v-221q0 -233 -124 -342t-374 -109h-682q-12 -45 -12 -102q0 -135 95 -196.5t304 -61.5h635v-142h-658q-285 0 -409.5 93.5t-124.5 304.5z" />
    <glyph glyph-name="uni06D3" unicode="&#x6d3;" horiz-adv-x="1533" 
d="M82 -104q0 141 45 245h803q174 0 260 74t86 234v223h156v-221q0 -233 -124 -342t-374 -109h-682q-12 -45 -12 -102q0 -135 95 -196.5t304 -61.5h635v-142h-658q-285 0 -409.5 93.5t-124.5 304.5zM356.5 705q-55.5 0 -89.5 -35t-34 -88t48 -88l233 61l23 -94l-418 -82
l-19 65l99 27q-70 57 -70 139t53.5 136.5t136.5 54.5q47 0 88.5 -16.5t61.5 -32.5l-20 -78q-37 31 -92.5 31z" />
    <glyph glyph-name="uni06D4" unicode="&#x6d4;" horiz-adv-x="442" 
d="M137 233h168v-233h-168v233z" />
    <glyph glyph-name="uni06F0" unicode="&#x6f0;" horiz-adv-x="557" 
d="M164 594h229v-285h-229v285z" />
    <glyph glyph-name="uni06F1" unicode="&#x6f1;" horiz-adv-x="645" 
d="M244 1352h157v-1352h-157v1352z" />
    <glyph glyph-name="uni06F2" unicode="&#x6f2;" horiz-adv-x="1058" 
d="M233 1352h158v-267q0 -141 49 -205t163 -65q114 0 161 68t47 200v269h158v-275q1 -195 -99 -299t-260 -104t-219 88v-762h-158v1352z" />
    <glyph glyph-name="uni06F3" unicode="&#x6f3;" horiz-adv-x="1347" 
d="M1243 1020q0 -346 -301 -346q-155 0 -213 114q-53 -116 -177 -115t-167 89v-762h-158v1352h158v-326q0 -98 31 -154q30 -56 110 -57q80 0 112 56t32 151v330h133v-328q0 -94 32 -150q31 -56 111 -57q80 0 110 55t29 152v328h158v-332z" />
    <glyph glyph-name="uni06F4" unicode="&#x6f4;" horiz-adv-x="1222" 
d="M522 1056q0 165 184 165q90 0 183 -15l-6 -100q-82 8 -131 8q-102 0 -102 -101t77 -198q166 4 228.5 70.5t62.5 197.5v148h158v-154q0 -203 -115 -303t-354 -100q-127 0 -199 20.5t-113 67.5v-762h-157v1352h157v-267q0 -119 46 -181t155 -81q-74 90 -74 233z" />
    <glyph glyph-name="uni06F5" unicode="&#x6f5;" horiz-adv-x="1241" 
d="M620.5 322q28.5 0 46 -22t40.5 -68t44 -71.5t57 -25.5t93 51t57 217t-85 335t-214 290q-176 -90 -276 -264t-100 -361q0 -127 45 -197.5t108 -70.5q39 0 60.5 26.5t41.5 72.5t37 67t45.5 21zM125 404q0 210 112.5 410t301.5 304l-191 150l84 100q684 -377 684 -942
q0 -201 -79 -316.5t-214 -115.5q-80 0 -127 40t-80 111q-72 -152 -215 -151q-120 0 -198 100t-78 310z" />
    <glyph glyph-name="uni06F6" unicode="&#x6f6;" horiz-adv-x="952" 
d="M354 1025q0 -91 59.5 -156.5t157.5 -65.5h211l-14 -129q-463 -213 -463 -395l-160 -35q0 94 89.5 209.5t322.5 248.5q-109 0 -189.5 48.5t-123.5 126t-43 163.5q0 141 115.5 226.5t322.5 85.5q100 0 170 -19l-14 -129q-105 14 -199 14t-168 -51t-74 -142z" />
    <glyph glyph-name="uni06F7" unicode="&#x6f7;" horiz-adv-x="1206" 
d="M59 1335h179q332 -1077 358 -1194h4q14 63 167 551l204 643h170l-447 -1335h-205z" />
    <glyph glyph-name="uni06F8" unicode="&#x6f8;" horiz-adv-x="1206" 
d="M489 1335h205l447 -1335h-170l-204 643t-167 551h-4q-27 -117 -358 -1194h-179z" />
    <glyph glyph-name="uni06F9" unicode="&#x6f9;" horiz-adv-x="1169" 
d="M541 1210q-152 0 -235 -72t-83 -205q0 -132 83 -209t207 -77t267 33v502q-87 28 -239 28zM586 1352q146 0 352 -39v-1313h-158v539q-124 -33 -270 -33t-248 59q-196 113 -196 361q0 198 137 312t383 114z" />
    <glyph glyph-name="Wgrave" unicode="&#x1e80;" horiz-adv-x="1814" 
d="M61 1417h164l242 -1278h59l289 1266h184l289 -1266h60l241 1278h162l-287 -1417h-288l-269 1210l-268 -1210h-289zM655 1772l54 135l442 -205l-47 -109z" />
    <glyph glyph-name="wgrave" unicode="&#x1e81;" horiz-adv-x="1560" 
d="M63 1024h154l207 -891h33l243 871h160l244 -871h35l204 891h154l-244 -1024h-256l-217 801l-217 -801h-256zM489 1384l54 132l442 -201l-43 -105z" />
    <glyph glyph-name="Wacute" unicode="&#x1e82;" horiz-adv-x="1814" 
d="M61 1417h164l242 -1278h59l289 1266h184l289 -1266h60l241 1278h162l-287 -1417h-288l-269 1210l-268 -1210h-289zM680 1702l442 205l54 -135l-449 -179z" />
    <glyph glyph-name="wacute" unicode="&#x1e83;" horiz-adv-x="1560" 
d="M63 1024h154l207 -891h33l243 871h160l244 -871h35l204 891h154l-244 -1024h-256l-217 801l-217 -801h-256zM567 1315l443 201l53 -132l-453 -174z" />
    <glyph glyph-name="Wdieresis" unicode="&#x1e84;" horiz-adv-x="1814" 
d="M61 1417h164l242 -1278h59l289 1266h184l289 -1266h60l241 1278h162l-287 -1417h-288l-269 1210l-268 -1210h-289zM1040 1839h148v-184h-148v184zM623 1839h149v-184h-149v184z" />
    <glyph glyph-name="wdieresis" unicode="&#x1e85;" horiz-adv-x="1560" 
d="M63 1024h154l207 -891h33l243 871h160l244 -871h35l204 891h154l-244 -1024h-256l-217 801l-217 -801h-256zM913 1456h150v-184h-150v184zM504 1456h147v-184h-147v184z" />
    <glyph glyph-name="uni1EAB" unicode="&#x1eab;" horiz-adv-x="1026" 
d="M240 297q0 -188 155 -188q138 0 275 47l47 16v338l-303 -29q-92 -8 -133 -53t-41 -131zM394 -21q-312 1 -312 309q0 148 75 220t238 88l322 31v88q0 195 -168 194q-166 0 -404 -26l-6 116q219 45 397 45t256 -78q79 -78 78 -251v-525q6 -76 119 -90l-6 -120
q-162 0 -244 81q-181 -82 -345 -82zM430 1438h105l253 -287h-153l-150 178l-153 -178h-154zM328 1726q40 0 150 -47t140 -47t109 60l27 18l34 -98q-96 -104 -176 -105q-43 0 -147 49q-111 47 -133 48q-47 0 -127 -62l-27 -20l-37 98q100 106 187 106z" />
    <glyph glyph-name="uni1EB0" unicode="&#x1eb0;" horiz-adv-x="1220" 
d="M342 506h537l-215 776h-107zM913 365h-606l-102 -365h-156l389 1417h344l389 -1417h-155zM607 1657q75 0 126 43t53 110h144q-6 -120 -94 -194t-230 -74t-228 74q-87 74 -93 194h141q2 -68 54 -110t127 -43zM246 2081l53 135l442 -205l-47 -108z" />
    <glyph glyph-name="uni1EC5" unicode="&#x1ec5;" horiz-adv-x="1034" 
d="M788 571q0 185 -59 265t-197 80t-206 -84q-68 -82 -70 -261h532zM526 1044q214 0 315 -118t101 -361l-8 -116h-676q0 -127 28 -199q53 -137 245 -136q191 1 313 13l59 6l4 -121q-227 -33 -377 -32q-233 -1 -330 121q-98 121 -98 395t104 411q106 137 320 137zM473 1438
h105l253 -287h-153l-150 178l-153 -178h-154zM377 1726q39 0 149 -47t142 -47q30 0 108 60l27 18l35 -98q-96 -104 -176 -105q-44 0 -148 49q-111 47 -133 48q-47 0 -127 -62l-27 -20l-37 98q100 106 187 106z" />
    <glyph glyph-name="uni1ED7" unicode="&#x1ed7;" horiz-adv-x="1081" 
d="M543 911q-111 0 -171 -37q-60 -36 -86 -122t-26 -241t24 -239t84 -122t174 -37q114 0 173 38q59 39 83 121t24 238t-25 242t-84 122t-170 37zM102 510q0 192 43 308q43 118 139 172t258 54q161 0 256 -55t138 -172t43 -308t-41 -306t-136 -169t-260 -54t-261 54t-138 169
q-41 115 -41 307zM477 1438h105l254 -287h-154l-150 178l-153 -178h-154zM367 1726q39 0 149 -47t142 -47q30 0 108 60l27 18l34 -98q-96 -104 -176 -105q-43 0 -147 49q-111 47 -133 48q-47 0 -127 -62l-27 -20l-37 98q100 106 187 106z" />
    <glyph glyph-name="Ygrave" unicode="&#x1ef2;" horiz-adv-x="1101" 
d="M631 0h-158v596l-453 821h179l352 -663l352 663h178l-450 -821v-596zM287 1772l53 135l442 -205l-47 -109z" />
    <glyph glyph-name="ygrave" unicode="&#x1ef3;" horiz-adv-x="989" 
d="M494 0h-152l-291 1024h154l256 -891h67l258 891h154l-426 -1479h-154zM213 1384l53 132l443 -201l-43 -105z" />
    <glyph glyph-name="uni1EF8" unicode="&#x1ef8;" horiz-adv-x="1087" 
d="M374 1755q-36 0 -116 -74l-27 -24l-34 115q43 50 95 84t97 34t171 -55t147 -55q41 0 118 71l25 23l37 -115q-96 -115 -180 -114q-45 0 -171 55t-162 55zM631 0h-158v596l-453 821h179l352 -663l352 663h178l-450 -821v-596z" />
    <glyph glyph-name="uni1EF9" unicode="&#x1ef9;" horiz-adv-x="989" 
d="M350 1350q-47 0 -127 -62l-26 -20l-37 98q100 106 186 107q39 1 150 -47q112 -48 142 -48t107 60l27 18l35 -98q-96 -104 -176 -105q-44 1 -148 50q-111 47 -133 47zM494 0h-152l-291 1024h154l256 -891h67l258 891h154l-426 -1479h-154z" />
    <glyph glyph-name="endash" unicode="&#x2013;" horiz-adv-x="1292" 
d="M135 616h1024v-135h-1024v135z" />
    <glyph glyph-name="emdash" unicode="&#x2014;" horiz-adv-x="2316" 
d="M135 616h2048v-135h-2048v135z" />
    <glyph glyph-name="quoteleft" unicode="&#x2018;" horiz-adv-x="448" 
d="M236 1450h120l-90 -449h-162z" />
    <glyph glyph-name="quoteright" unicode="&#x2019;" horiz-adv-x="442" 
d="M229 1001h-120l90 449h161z" />
    <glyph glyph-name="quotesinglbase" unicode="&#x201a;" horiz-adv-x="446" 
d="M166 45h24l-18 -88h-33z" />
    <glyph glyph-name="quotedblleft" unicode="&#x201c;" horiz-adv-x="763" 
d="M549 1450h121l-90 -449h-162zM236 1450h120l-90 -449h-162z" />
    <glyph glyph-name="quotedblright" unicode="&#x201d;" horiz-adv-x="772" 
d="M557 1004h-121l90 448h162zM244 1004h-121l90 448h162z" />
    <glyph glyph-name="quotedblbase" unicode="&#x201e;" horiz-adv-x="735" 
d="M489 229h121l-90 -448h-162zM176 229h121l-90 -448h-162z" />
    <glyph glyph-name="dagger" unicode="&#x2020;" horiz-adv-x="978" 
d="M70 889v135h344v393h151v-393h344v-135h-344l-8 -1045h-135l-8 1045h-344z" />
    <glyph glyph-name="daggerdbl" unicode="&#x2021;" horiz-adv-x="1067" 
d="M457 238h-344v133h344v518h-344v135h344v393h153v-393h342v-135h-342v-518h344v-133h-344v-394h-153v394z" />
    <glyph glyph-name="bullet" unicode="&#x2022;" horiz-adv-x="968" 
d="M227 803h512v-586h-512v586z" />
    <glyph glyph-name="ellipsis" unicode="&#x2026;" horiz-adv-x="1484" 
d="M1180 233h168v-233h-168v233zM657 233h168v-233h-168v233zM137 233h168v-233h-168v233z" />
    <glyph glyph-name="perthousand" unicode="&#x2030;" horiz-adv-x="1710" 
d="M1513 267q0 95 -22.5 137t-77.5 42t-78.5 -42t-23.5 -134q0 -186 102 -186q53 0 76.5 44t23.5 139zM987 267q0 95 -22.5 137t-78 42t-79 -42t-23.5 -134q0 -186 101 -186q55 0 78.5 44t23.5 139zM1188 270q0 281 224 281t224 -283q0 -141 -58 -214.5t-166 -73.5
t-166 73.5t-58 216.5zM662 270q0 281 224 281t224 -283q0 -141 -59.5 -214.5t-166 -73.5t-164.5 73.5t-58 216.5zM406 1090q0 92 -24 135t-78 43t-77.5 -42t-23.5 -136q0 -184 102 -185q101 1 101 185zM78 1090q0 283 225 282.5t225 -282.5q0 -143 -58 -216t-166.5 -73
t-167 72.5t-58.5 216.5zM338 -8l420 1403l98 -33l-420 -1399z" />
    <glyph glyph-name="guilsinglleft" unicode="&#x2039;" horiz-adv-x="616" 
d="M92 446v123l387 293v-157l-254 -193l254 -215v-160z" />
    <glyph glyph-name="guilsinglright" unicode="&#x203a;" horiz-adv-x="616" 
d="M137 297l254 215l-254 193v157l387 -293v-123l-387 -309v160z" />
    <glyph glyph-name="fraction" unicode="&#x2044;" horiz-adv-x="0" 
d="M-459 57l803 1295l82 -54l-805 -1292z" />
    <glyph glyph-name="uni2070" unicode="&#x2070;" horiz-adv-x="573" 
d="M395 1298q0 127 -28.5 174.5t-80.5 47.5t-80 -47.5t-28 -174.5t29 -174t80 -47t79.5 47t28.5 174zM45 1300q0 194 63.5 266t178 72t179 -72.5t64.5 -266.5t-64 -267.5t-178 -73.5t-178.5 74t-64.5 268z" />
    <glyph glyph-name="uni2074" unicode="&#x2074;" horiz-adv-x="573" 
d="M338 1077h-289v111l141 430h144l-150 -422h154l10 182h119v-182h55v-119h-55v-98h-129v98z" />
    <glyph glyph-name="uni2075" unicode="&#x2075;" horiz-adv-x="573" 
d="M381 1174q0 98 -82 98q-55 0 -106 -31l-103 12l21 365h383v-115h-279l-10 -149q61 31 119 30q190 0 190 -200q0 -221 -217 -221q-98 0 -186 20l-33 6l10 107q115 -18 197 -19q96 -1 96 97z" />
    <glyph glyph-name="uni2076" unicode="&#x2076;" horiz-adv-x="573" 
d="M391.5 1181.5q-0.5 106.5 -82.5 106.5q-72 0 -95.5 -16.5t-23.5 -18.5q6 -178 104 -178t97.5 106.5zM59 1288q0 182 60.5 266t191.5 84q61 0 156 -16l29 -4l-9 -111q-94 14 -172 15q-125 0 -125 -152q90 29 123 29q209 0 209 -211q0 -106 -60.5 -168t-164.5 -62
q-238 0 -238 330z" />
    <glyph glyph-name="uni2077" unicode="&#x2077;" horiz-adv-x="573" 
d="M336 1491h-275v127h422v-158l-215 -499l-141 26l209 461v43z" />
    <glyph glyph-name="uni2078" unicode="&#x2078;" horiz-adv-x="573" 
d="M395 1161q0 76 -80 101h-57q-80 -25 -80 -105q0 -88 108.5 -88t108.5 92zM389 1450q0 78 -102.5 78t-102.5 -76q0 -61 74 -90h57q74 25 74 88zM45 1153q0 121 98 164q-88 33 -88 147q0 174 231.5 174t231.5 -174q0 -123 -88 -149q98 -27 98 -154q0 -203 -241.5 -203
t-241.5 195z" />
    <glyph glyph-name="uni2079" unicode="&#x2079;" horiz-adv-x="573" 
d="M389 1335q-2 186 -106 187q-98 0 -99 -107q0 -47 26 -78t66 -31t113 29zM260 1200q-100 0 -153.5 55.5t-53.5 160t60.5 163.5t165.5 59q242 0 241 -342q0 -174 -60.5 -256t-193.5 -82q-74 1 -160 19l-28 6l8 109q86 -14 168 -15q129 0 131 148q-90 -25 -125 -25z" />
    <glyph glyph-name="uni2080" unicode="&#x2080;" horiz-adv-x="573" 
d="M286 336q-52 0 -80 -47t-28 -174t29 -174t80 -47t80 47t28 174q0 127 -28 174q-29 47 -81 47zM45 116q-1 194 63 266t179 73q115 0 179 -73q64 -72 64 -266t-64 -268t-178 -74q-113 0 -178 74t-65 268z" />
    <glyph glyph-name="uni2081" unicode="&#x2081;" horiz-adv-x="573" 
d="M395 434v-639h-131v496l-139 -96l-59 96l206 143h123z" />
    <glyph glyph-name="uni2082" unicode="&#x2082;" horiz-adv-x="573" 
d="M346 256q0 76 -100 76l-174 -19l-4 117q121 25 219 25q195 0 194 -187q0 -66 -27.5 -116t-97.5 -113l-129 -125h262v-119h-428v113l181 178q104 102 104 170z" />
    <glyph glyph-name="uni2083" unicode="&#x2083;" horiz-adv-x="573" 
d="M286 -106q91 0 91 87t-96 87h-134v108h134q31 0 55 27t22 63q0 70 -92 70l-188 -14l-8 112q115 20 209 21q215 0 215 -172q0 -102 -80 -150q52 -18 74 -53t22 -107q0 -199 -217 -198l-232 20l9 115q125 -16 216 -16z" />
    <glyph glyph-name="uni2084" unicode="&#x2084;" horiz-adv-x="573" 
d="M338 -106h-289v110l141 430h144l-150 -422h154l10 183h119v-183h55v-118h-55v-99h-129v99z" />
    <glyph glyph-name="uni2085" unicode="&#x2085;" horiz-adv-x="573" 
d="M285 -106q96 0 96 97t-82 97q-55 0 -106 -31l-103 13l21 364h383v-115h-279l-10 -149q61 31 119 31q190 0 190 -201q0 -221 -217 -221q-98 0 -186 20l-33 6l10 107q115 -18 197 -18z" />
    <glyph glyph-name="uni2086" unicode="&#x2086;" horiz-adv-x="573" 
d="M391 -2q0 106 -82 106q-72 0 -95 -16t-24 -18q6 -178 105 -179q96 1 96 107zM59 104q1 182 61 266t191 85q61 0 156 -17l29 -4l-9 -110q-94 14 -172 14q-125 0 -125 -152q90 29 123 29q209 0 209 -211q0 -106 -60 -168t-165 -61q-238 -1 -238 329z" />
    <glyph glyph-name="uni2087" unicode="&#x2087;" horiz-adv-x="573" 
d="M336 307h-275v127h422v-158l-215 -499l-141 26l209 461v43z" />
    <glyph glyph-name="uni2088" unicode="&#x2088;" horiz-adv-x="573" 
d="M395 -23q0 76 -80 101h-57q-80 -25 -80 -105q0 -88 108 -88t109 92zM389 266q0 78 -102 78t-103 -76q0 -61 74 -90h57q74 25 74 88zM45 -31q0 121 98 164q-88 33 -88 148q-1 174 231 174t232 -174q0 -123 -88 -150q98 -27 98 -154q0 -203 -242 -203t-241 195z" />
    </font>
</defs>
</svg>
