<?xml version="1.0" standalone="no"?>
<!DOCTYPE svg PUBLIC "-//W3C//DTD SVG 1.1//EN" "http://www.w3.org/Graphics/SVG/1.1/DTD/svg11.dtd" >
<svg>
<metadata>
Created by FontForge 20090622 at Mon Jul 30 18:19:40 2018
 By deploy user
Copyright (c) 2011 by IBRAHIM HAMDI's. All rights reserved.
</metadata>
<defs>
<font id="CoconNextArabic-Light" horiz-adv-x="0" >
  <font-face 
    font-family="CoconNextArabic-Light"
    font-weight="300"
    font-stretch="normal"
    units-per-em="2048"
    panose-1="2 10 5 3 2 1 2 2 2 4"
    ascent="1638"
    descent="-410"
    x-height="932"
    cap-height="1237"
    bbox="-354 -684 3056 1847"
    underline-thickness="102"
    underline-position="-102"
    unicode-range="U+0020-U+FEFC"
  />
<missing-glyph horiz-adv-x="1126" 
 />
    <glyph glyph-name="lam_alef_madda.isol" unicode="&#xfedf;&#xfe82;" horiz-adv-x="1146" arabic-form="isolated" 
d="M492 1311h-318v61q0 18 13.5 35.5t31.5 17.5h338v-30q0 -29 -17 -56.5t-48 -27.5zM924 1235q68 0 94 -30.5t26 -106.5v-703q0 -377 -286 -395h-574q-123 0 -123 111v61h215v1063h82q35 0 63 -24.5t28 -59.5v-979h264q145 0 155 154v909h56z" />
    <glyph glyph-name="lam_alef_madda.fina" unicode="&#xfee0;&#xfe82;" horiz-adv-x="1226" arabic-form="final" 
d="M492 1311h-318v61q0 18 13.5 35.5t31.5 17.5h338v-30q0 -29 -17 -56.5t-48 -27.5zM924 1235q68 0 94 -30.5t26 -106.5v-783q10 -143 156 -143h47v-172h-92q-125 6 -203 84q-76 -78 -194 -84h-574q-123 0 -123 111v61h215v1063h82q35 0 63 -24.5t28 -59.5v-979h264
q145 0 155 154v909h56z" />
    <glyph glyph-name="lam_alef_hamza_above.isol" unicode="&#xfedf;&#xfe84;" horiz-adv-x="1146" arabic-form="isolated" 
d="M248 1467q0 53 37 94t98 41q94 0 115 -82q0 -12 -10.5 -34t-10.5 -32q-35 86 -100 86q-55 0 -55 -80q0 -57 24 -76h174v-32q0 -14 -12.5 -26.5t-30.5 -12.5h-248q-18 0 -29.5 12t-11.5 27v32h74q-14 30 -14 83zM924 1235q68 0 94 -30.5t26 -106.5v-703q0 -377 -286 -395
h-574q-123 0 -123 111v61h215v1063h82q35 0 63 -24.5t28 -59.5v-979h264q145 0 155 154v909h56z" />
    <glyph glyph-name="lam_alef_hamza_above.fina" unicode="&#xfee0;&#xfe84;" horiz-adv-x="1226" arabic-form="final" 
d="M248 1467q0 53 37 94t98 41q94 0 115 -82q0 -12 -10.5 -34t-10.5 -32q-35 86 -100 86q-55 0 -55 -80q0 -57 24 -76h174v-32q0 -14 -12.5 -26.5t-30.5 -12.5h-248q-18 0 -29.5 12t-11.5 27v32h74q-14 30 -14 83zM924 1235q68 0 94 -30.5t26 -106.5v-783q10 -143 156 -143
h47v-172h-92q-125 6 -203 84q-76 -78 -194 -84h-574q-123 0 -123 111v61h215v1063h82q35 0 63 -24.5t28 -59.5v-979h264q145 0 155 154v909h56z" />
    <glyph glyph-name="lam_alef_hamza_below.isol" unicode="&#xfedf;&#xfe88;" horiz-adv-x="1146" arabic-form="isolated" 
d="M924 1235q68 0 94 -30.5t26 -106.5v-703q0 -377 -286 -395h-574q-123 0 -123 111v61h215v1063h82q35 0 63 -24.5t28 -59.5v-979h264q145 0 155 154v909h56zM121 -235.5q0 53.5 37 94.5t98 41q94 0 115 -82q0 -12 -10.5 -34t-10.5 -32q-35 86 -100 86q-55 0 -55 -80
q0 -57 24 -75h174v-33q0 -14 -12 -26.5t-31 -12.5h-248q-18 0 -29.5 12t-11.5 27v33h74q-14 28 -14 81.5z" />
    <glyph glyph-name="lam_alef_hamza_below.fina" unicode="&#xfee0;&#xfe88;" horiz-adv-x="1226" arabic-form="final" 
d="M121 -235.5q0 53.5 37 94.5t98 41q94 0 115 -82q0 -12 -10.5 -34t-10.5 -32q-35 86 -100 86q-55 0 -55 -80q0 -57 24 -75h174v-33q0 -14 -12 -26.5t-31 -12.5h-248q-18 0 -29.5 12t-11.5 27v33h74q-14 28 -14 81.5zM924 1235q68 0 94 -30.5t26 -106.5v-783
q10 -143 156 -143h47v-172h-92q-125 6 -203 84q-76 -78 -194 -84h-574q-123 0 -123 111v61h215v1063h82q35 0 63 -24.5t28 -59.5v-979h264q145 0 155 154v909h56z" />
    <glyph glyph-name="lam_alef.isol" unicode="&#xfedf;&#xfe8e;" horiz-adv-x="1146" arabic-form="isolated" 
d="M924 1235q68 0 94 -30.5t26 -106.5v-703q0 -377 -286 -395h-574q-123 0 -123 111v61h215v1063h82q35 0 63 -24.5t28 -59.5v-979h264q145 0 155 154v909h56z" />
    <glyph glyph-name="lam_alef.fina" unicode="&#xfee0;&#xfe8e;" horiz-adv-x="1226" arabic-form="final" 
d="M924 1235q68 0 94 -30.5t26 -106.5v-783q10 -143 156 -143h47v-172h-92q-125 6 -203 84q-76 -78 -194 -84h-574q-123 0 -123 111v61h215v1063h82q35 0 63 -24.5t28 -59.5v-979h264q145 0 155 154v909h56z" />
    <glyph glyph-name="hamza.isol" unicode="&#x621;" horiz-adv-x="876" arabic-form="isolated" 
d="M709 0h-584q-37 0 -60.5 24.5t-23.5 59.5v63h180l-24 43q-33 59 -33 152q0 164 88 266.5t235 102.5q231 0 269 -183q0 -80 -29 -143q-74 182 -250 182q-68 0 -108.5 -53t-40.5 -147q0 -178 69 -217l398 -3v-63q0 -31 -21.5 -57.5t-64.5 -26.5z" />
    <glyph glyph-name="alef_madda.isol" unicode="&#x622;" horiz-adv-x="546" arabic-form="isolated" 
d="M356 0h-61q-111 0 -111 123v1112h82q35 0 62.5 -24.5t27.5 -59.5v-1151zM399 1311h-317v61q0 18 13.5 35.5t31.5 17.5h338v-30q0 -29 -17.5 -56.5t-48.5 -27.5z" />
    <glyph glyph-name="alef_hamza_above.isol" unicode="&#x623;" horiz-adv-x="462" arabic-form="isolated" 
d="M326 0h-62q-111 0 -110 123v1112h82q35 0 62.5 -24.5t27.5 -59.5v-1151zM125 1467q0 53 37 94t98 41q94 0 115 -82q0 -12 -10.5 -34t-10.5 -32q-35 86 -100 86q-55 0 -55 -80q0 -57 24 -76h174v-32q0 -14 -12.5 -26.5t-30.5 -12.5h-248q-18 0 -29 12t-11 27v32h73
q-14 30 -14 83z" />
    <glyph glyph-name="waw_hamza.isol" unicode="&#x624;" horiz-adv-x="956" arabic-form="isolated" 
d="M352 1139.5q0 54.5 37 95.5t98 41q94 0 115 -82q0 -39 -20 -66q-35 86 -101 86q-55 0 -55 -79q0 -57 25 -76h174v-33q0 -14 -12.5 -26.5t-30.5 -12.5h-248q-18 0 -29.5 12.5t-11.5 26.5v33h74q-15 26 -15 80.5zM225 473.5q0 -96.5 23.5 -149t59.5 -82.5q86 -70 360 -70
v152q0 120 -9.5 162l-19.5 83q-9 41 -27 61q-18 22 -42 44q-43 39 -137.5 39t-151 -71.5t-56.5 -168zM451 870q117 0 200.5 -50t124.5 -137q76 -161 76 -369t-42 -345t-172 -232t-305 -95t-175 94v67q49 -12 112 -12q145 0 241.5 56.5t135.5 152.5q-586 14 -586 422
q0 209 106 328.5t284 119.5z" />
    <glyph glyph-name="alef_hamza_below.isol" unicode="&#x625;" horiz-adv-x="462" arabic-form="isolated" 
d="M125 -229.5q0 53.5 37 94.5t98 41q94 0 115 -82q0 -12 -10.5 -33.5t-10.5 -32.5q-35 86 -100 86q-55 0 -55 -80q0 -57 24 -75h174v-33q0 -14 -12.5 -26.5t-30.5 -12.5h-248q-18 0 -29 12.5t-11 26.5v33h73q-14 28 -14 81.5zM295 0h-62q-111 0 -110 123v1112h82
q35 0 62.5 -24.5t27.5 -59.5v-1151z" />
    <glyph glyph-name="yeh_hamza_above.isol" unicode="&#x626;" horiz-adv-x="1830" arabic-form="isolated" 
d="M203 792.5q0 53.5 36.5 94.5t98.5 41q94 0 115 -82q0 -39 -21 -66q-35 86 -100 86q-55 0 -55.5 -68.5t24.5 -86.5h174v-33q0 -14 -12.5 -26.5t-30.5 -12.5h-248q-18 0 -29.5 12.5t-11.5 26.5v33h74q-14 28 -14 81.5zM1522 870h176v-778q0 -41 -29 -66.5t-61 -25.5h-86
v688q-158 0 -252 -54t-126 -141t-43 -191.5t-20.5 -209t-38 -191.5t-116.5 -141.5t-240 -54.5q-283 0 -413 139.5t-130 380.5q0 152 62.5 242t189.5 90l74 -8v-6q-68 -31 -116 -123t-48 -179q-1 -87 11 -143q12 -54 50 -112q72 -110 332 -115q86 0 134.5 43t61.5 113.5
t22.5 159.5t13.5 183.5t36.5 183.5t89 159.5t175.5 113.5t291 43z" />
    <glyph glyph-name="alef.isol" unicode="&#x627;" horiz-adv-x="417" arabic-form="isolated" 
d="M295 0h-62q-111 0 -110 123v1112h82q35 0 62.5 -24.5t27.5 -59.5v-1151z" />
    <glyph glyph-name="beh.isol" unicode="&#x628;" horiz-adv-x="1619" arabic-form="isolated" 
d="M868 -322q-41 0 -70.5 29t-29.5 70t29.5 69.5t70.5 28.5t70 -28.5t29 -69.5t-29 -70t-70 -29zM1518 395q0 -377 -287 -395h-701q-180 0 -283.5 137t-103.5 312.5t68 257t166 81.5h69q-92 -61 -130 -190q-16 -53 -15.5 -115t18 -128t74 -124.5t139.5 -58.5h654
q147 0 155 154v372h56q68 0 94.5 -30.5t26.5 -106.5v-166z" />
    <glyph glyph-name="tehmarbuta.isol" unicode="&#x629;" horiz-adv-x="950" arabic-form="isolated" 
d="M354 1014q-41 0 -70.5 28.5t-29.5 69.5t29.5 69.5t70.5 28.5t70 -28.5t29 -69.5t-29 -69.5t-70 -28.5zM608 1014q-41 0 -70.5 28.5t-29.5 69.5t29.5 69.5t70.5 28.5t71 -28.5t30 -69.5t-30 -69.5t-71 -28.5zM489 152q228 0 228 278q0 132 -63.5 208.5t-173 76.5t-167 -84
t-57.5 -204t57 -197.5t176 -77.5zM485.5 870q186.5 0 295 -135t108.5 -320.5t-108.5 -300t-297 -114.5t-295 123t-106.5 308.5t108.5 312t295 126.5z" />
    <glyph glyph-name="teh.isol" unicode="&#x62a;" horiz-adv-x="1619" arabic-form="isolated" 
d="M1518 395q0 -377 -287 -395h-684q-8 -2 -17 -2q-180 0 -283.5 138t-103.5 313.5t68 257t166 81.5h69q-92 -61 -130 -190q-16 -53 -15.5 -115t18 -128t74 -124.5t139.5 -58.5h654q147 0 155 154v372h56q68 0 94.5 -30.5t26.5 -106.5v-166zM993 807q-41 0 -70.5 28.5
t-29.5 69.5t29.5 70t70.5 29t71 -29t30 -70t-30 -69.5t-71 -28.5zM760 807q-41 0 -71 28.5t-30 69.5t30 70t71 29t69.5 -29t28.5 -70t-28.5 -69.5t-69.5 -28.5z" />
    <glyph glyph-name="theh.isol" unicode="&#x62b;" horiz-adv-x="1619" arabic-form="isolated" 
d="M1518 395q0 -377 -287 -395h-701q-180 0 -283.5 137t-103.5 312.5t68 257t166 81.5h69q-92 -61 -130 -190q-16 -53 -15.5 -115t18 -128t74 -124.5t139.5 -58.5h654q147 0 155 154v372h56q68 0 94.5 -30.5t26.5 -106.5v-166zM877 1016q-41 0 -71 28.5t-30 69.5t30 69.5
t71 28.5t70.5 -28.5t29.5 -69.5t-29.5 -69.5t-70.5 -28.5zM758 805q-41 0 -71 28.5t-30 69.5t30 69.5t71 28.5t69.5 -28.5t28.5 -69.5t-28.5 -69.5t-69.5 -28.5zM993 807q-41 0 -70.5 28.5t-29.5 69.5t29.5 70t70.5 29t71 -29t30 -70t-30 -69.5t-71 -28.5z" />
    <glyph glyph-name="jeem.isol" unicode="&#x62c;" horiz-adv-x="1187" arabic-form="isolated" 
d="M675 -350q-42 0 -68.5 28.5t-26.5 70.5t26.5 69.5t68.5 27.5t71.5 -27.5t29.5 -68.5t-29.5 -70.5t-71.5 -29.5zM538.5 870q145.5 0 239.5 -50t150 -130q156 -224 155 -624q0 -98 -10 -197q-10 15 -41 42q-105 89 -270 89h-55q-158 0 -271.5 -65.5t-113.5 -161.5
t28.5 -160t85 -89.5t102.5 -32.5t121 -7q176 0 263 88v-72q0 -61 -74 -119.5t-219 -58.5q-240 0 -372 129q-108 106 -112 299q0 123 49.5 211t135.5 133q164 86 399 86q96 0 170 -8q-8 165 -86 328q-41 86 -114.5 140t-153.5 54q-145 0 -217 -42.5t-90 -73.5l-11 -13v72
q0 98 83 165.5t228.5 67.5z" />
    <glyph glyph-name="hah.isol" unicode="&#x62d;" horiz-adv-x="1187" arabic-form="isolated" 
d="M538.5 870q145.5 0 239.5 -50t150 -130q156 -224 155 -624q0 -98 -10 -197q-10 15 -41 42q-105 89 -270 89h-55q-158 0 -271.5 -65.5t-113.5 -161.5t28.5 -160t85 -89.5t102.5 -32.5t121 -7q176 0 263 88v-72q0 -61 -74 -119.5t-219 -58.5q-240 0 -372 129
q-108 106 -112 299q0 123 49.5 211t135.5 133q164 86 399 86q96 0 170 -8q-8 165 -86 328q-41 86 -114.5 140t-153.5 54q-145 0 -217 -42.5t-90 -73.5l-11 -13v72q0 98 83 165.5t228.5 67.5z" />
    <glyph glyph-name="khah.isol" unicode="&#x62e;" horiz-adv-x="1187" arabic-form="isolated" 
d="M566 1018q-42 0 -68.5 28.5t-26.5 70.5t26.5 69.5t68.5 27.5t72 -27.5t30 -68.5t-30 -70.5t-72 -29.5zM538.5 870q145.5 0 239.5 -50t150 -130q156 -224 155 -624q0 -98 -10 -197q-10 15 -41 42q-105 89 -270 89h-55q-158 0 -271.5 -65.5t-113.5 -161.5t28.5 -160
t85 -89.5t102.5 -32.5t121 -7q176 0 263 88v-72q0 -61 -74 -119.5t-219 -58.5q-240 0 -372 129q-108 106 -112 299q0 123 49.5 211t135.5 133q164 86 399 86q96 0 170 -8q-8 165 -86 328q-41 86 -114.5 140t-153.5 54q-145 0 -217 -42.5t-90 -73.5l-11 -13v72q0 98 83 165.5
t228.5 67.5z" />
    <glyph glyph-name="dal.isol" unicode="&#x62f;" horiz-adv-x="942" arabic-form="isolated" 
d="M860 172v-172h-694q-35 0 -59.5 27.5t-24.5 62.5v82h604q-8 127 -75.5 274.5t-172.5 190.5q-86 35 -157 35t-97 -17l-12 -4l29 54q57 109 209 108q106 0 204 -70q117 -70 181.5 -244.5t64.5 -326.5z" />
    <glyph glyph-name="thal.isol" unicode="&#x630;" horiz-adv-x="942" arabic-form="isolated" 
d="M467 1016q-41 0 -70.5 28.5t-29.5 69.5t29.5 69.5t70.5 28.5t70.5 -28.5t29.5 -69.5t-29.5 -69.5t-70.5 -28.5zM860 172v-172h-694q-35 0 -59.5 27.5t-24.5 62.5v82h604q-8 127 -75.5 274.5t-172.5 190.5q-86 35 -156.5 35t-97.5 -17l-12 -4l29 54q57 109 209 108
q106 0 204 -70q117 -70 181.5 -244.5t64.5 -326.5z" />
    <glyph glyph-name="reh.isol" unicode="&#x631;" horiz-adv-x="626" arabic-form="isolated" 
d="M348 700h55q68 0 94.5 -30.5t26.5 -106.5v-661q0 -104 -81 -182t-199 -78q-63 0 -102.5 25.5t-39.5 68.5v47q33 -4 63 -4q29 0 61 7q32 6 54 16q70 32 70 202l-2 176v520z" />
    <glyph glyph-name="zain.isol" unicode="&#x632;" horiz-adv-x="616" arabic-form="isolated" 
d="M328 700h55q68 0 94.5 -30.5t26.5 -106.5v-661q0 -104 -81 -182t-200 -78q-63 0 -102 25.5t-39 68.5v47q33 -4 62.5 -4t61.5 7q32 6 54 16q70 32 70 202l-2 176v520zM414 809q-41 0 -71 28.5t-30 69.5t30 70t71 29t70.5 -29t29.5 -70t-29.5 -69.5t-70.5 -28.5z" />
    <glyph glyph-name="seen.isol" unicode="&#x633;" horiz-adv-x="2383" arabic-form="isolated" 
d="M2159 803q68 0 94 -31t26 -106v-271q0 -176 -78.5 -285.5t-230.5 -109.5q-201 0 -297 78q-82 -78 -194 -78h-232q-43 -172 -172 -286.5t-352 -114.5q-147 0 -262 49t-183 133q-136 169 -135 399q0 143 60.5 227.5t181.5 84.5l72 -7v-8q-66 -27 -110 -112.5t-44 -169.5
q0 -168 96.5 -294t298.5 -126q156 0 265.5 96t109.5 235v697h55q68 0 94.5 -31t26.5 -106v-494h185q147 0 155 154v477h56q68 0 94 -31t26 -106q0 -358 2 -363q-4 -47 -12 -84q90 -53 181 -53t127 41t40 119v477h56z" />
    <glyph glyph-name="sheen.isol" unicode="&#x634;" horiz-adv-x="2383" arabic-form="isolated" 
d="M1661 1225q-41 0 -70.5 28.5t-29.5 69.5t29.5 69.5t70.5 28.5t70.5 -28.5t29.5 -69.5t-29.5 -69.5t-70.5 -28.5zM1782 1014q-41 0 -71 28.5t-30 69.5t30 69.5t71 28.5t70.5 -28.5t29.5 -69.5t-29.5 -69.5t-70.5 -28.5zM1548 1014q-41 0 -70.5 28.5t-29.5 69.5t29.5 69.5
t70.5 28.5t70 -28.5t29 -69.5t-29 -69.5t-70 -28.5zM2159 803q68 0 94 -31t26 -106v-271q0 -176 -78.5 -285.5t-230.5 -109.5q-201 0 -297 78q-82 -78 -194 -78h-232q-43 -172 -172 -286.5t-352 -114.5q-147 0 -262 49t-183 133q-136 169 -135 399q0 143 60.5 227.5
t181.5 84.5l72 -7v-8q-66 -27 -110 -112.5t-44 -169.5q0 -168 96.5 -294t298.5 -126q156 0 265.5 96t109.5 235v697h55q68 0 94.5 -31t26.5 -106v-494h185q147 0 155 154v477h56q68 0 94 -31t26 -106q0 -358 2 -363q-4 -47 -12 -84q90 -53 181 -53t127 41t40 119v477h56z
" />
    <glyph glyph-name="sad.isol" unicode="&#x635;" horiz-adv-x="2355" arabic-form="isolated" 
d="M1696 680q-152 0 -269.5 -150.5t-164.5 -357.5h804q-28 508 -370 508zM1691.5 870q145.5 0 256 -54t174.5 -146q128 -185 127.5 -427.5t-82.5 -242.5h-920q-43 -172 -172 -286.5t-352 -114.5q-147 0 -262 49t-183 133q-136 169 -135 399q0 143 60.5 227.5t181.5 84.5
l72 -7v-8q-66 -27 -110 -112.5t-44 -169.5q0 -168 96.5 -294t298.5 -126q156 0 265.5 96t109.5 235v566h55q68 0 94.5 -31t26.5 -106v-35q66 158 181.5 264t261 106z" />
    <glyph glyph-name="dad.isol" unicode="&#x636;" horiz-adv-x="2351" arabic-form="isolated" 
d="M1684 1008q-41 0 -71 28.5t-30 69.5t29.5 69.5t71 28.5t71 -28.5t29.5 -69.5t-29.5 -69.5t-70.5 -28.5zM1696 680q-152 0 -269.5 -150.5t-164.5 -357.5h804q-28 508 -370 508zM1691.5 870q145.5 0 256 -54t174.5 -146q128 -185 127.5 -427.5t-82.5 -242.5h-920
q-43 -172 -172 -286.5t-352 -114.5q-147 0 -262 49t-183 133q-136 169 -135 399q0 143 60.5 227.5t181.5 84.5l72 -7v-8q-66 -27 -110 -112.5t-44 -169.5q0 -168 96.5 -294t298.5 -126q156 0 265.5 96t109.5 235v566h55q68 0 94.5 -31t26.5 -106v-35q66 158 181.5 264
t261 106z" />
    <glyph glyph-name="tah.isol" unicode="&#x637;" horiz-adv-x="1585" arabic-form="isolated" 
d="M930 680q-152 0 -269.5 -150.5t-164.5 -357.5h804q-28 508 -370 508zM143 111v61h164v1063h55q68 0 94.5 -30.5t26.5 -106.5v-598q66 158 181.5 264t261 106t256 -54t174.5 -146q128 -185 127.5 -427.5t-82.5 -242.5h-1135q-123 0 -123 111z" />
    <glyph glyph-name="zah.isol" unicode="&#x638;" horiz-adv-x="1585" arabic-form="isolated" 
d="M916 1008q-41 0 -71 28.5t-30 69.5t29.5 69.5t71 28.5t71 -28.5t29.5 -69.5t-29.5 -69.5t-70.5 -28.5zM930 680q-152 0 -269.5 -150.5t-164.5 -357.5h804q-28 508 -370 508zM143 111v61h164v1063h55q68 0 94.5 -30.5t26.5 -106.5v-598q66 158 181.5 264t261 106t256 -54
t174.5 -146q128 -185 127.5 -427.5t-82.5 -242.5h-1135q-123 0 -123 111z" />
    <glyph glyph-name="ain.isol" unicode="&#x639;" horiz-adv-x="1173" arabic-form="isolated" 
d="M1071 172v-51q0 -68 -30.5 -94.5t-104.5 -26.5h-301q-135 0 -180 -20q-49 -27 -91 -85.5t-42 -142.5q0 -266 337 -266q176 0 263 88v-72q0 -61 -74 -119.5t-236 -58.5t-300 83q-74 44 -119.5 126t-47.5 193q0 260 207 389q-98 150 -98 319.5t117.5 293.5t285.5 124
t257.5 -90t89.5 -176q0 -53 -21 -84l-41 -60q-16 88 -92 165t-177 77t-171 -71.5t-70 -189.5t90 -251h549z" />
    <glyph glyph-name="ghain.isol" unicode="&#x63a;" horiz-adv-x="1173" arabic-form="isolated" 
d="M685 1010q-42 0 -70.5 28.5t-28.5 69.5t28.5 70.5t70.5 29.5t70.5 -28.5t28.5 -70.5t-28.5 -70.5t-70.5 -28.5zM1071 172v-51q0 -68 -30.5 -94.5t-104.5 -26.5h-301q-135 0 -180 -20q-49 -27 -91 -85.5t-42 -142.5q0 -266 337 -266q176 0 263 88v-72q0 -61 -74 -119.5
t-236 -58.5t-300 83q-74 44 -119.5 126t-47.5 193q0 260 207 389q-98 150 -98 319.5t117.5 293.5t285.5 124t257.5 -90t89.5 -176q0 -53 -21 -84l-41 -60q-16 88 -92 165t-177 77t-171 -71.5t-70 -189.5t90 -251h549z" />
    <glyph glyph-name="feh.isol" unicode="&#x641;" horiz-adv-x="1789" arabic-form="isolated" 
d="M1314 1010q-42 0 -71 28.5t-29 69.5t29 70.5t71 29.5t70.5 -28.5t28.5 -70.5t-28.5 -70.5t-70.5 -28.5zM1528 324q0 120 -9.5 162l-19.5 83q-9 41 -27 61q-18 22 -42 44q-43 40 -137.5 39.5t-151 -72.5t-56.5 -168q0 -97 24 -149q23 -52 59 -82q85 -70 360 -70v152z
M301 482q0 -62 17.5 -127.5t74 -124t139.5 -58.5h472q-82 94 -82 250q0 209 105.5 328.5t278.5 119.5t277.5 -115.5t104.5 -301.5v-453h-1186q-164 0 -261.5 143.5t-97.5 312.5t68 250.5t166 81.5h69q-92 -60 -130 -190q-16 -54 -15 -116z" />
    <glyph glyph-name="qaf.isol" unicode="&#x642;" horiz-adv-x="1341" arabic-form="isolated" 
d="M762 1010q-41 0 -70.5 28.5t-29.5 69.5t29.5 69.5t70.5 28.5t69.5 -28.5t28.5 -69.5t-28.5 -69.5t-69.5 -28.5zM1016 1010q-41 0 -71 28.5t-30 69.5t30 69.5t71 28.5t70.5 -28.5t29.5 -69.5t-29.5 -69.5t-70.5 -28.5zM653 473.5q0 -96.5 23.5 -149t59.5 -82.5
q86 -70 360 -70v152q0 120 -9.5 162l-19.5 83q-9 41 -27 61q-18 22 -42 44q-43 40 -137.5 39.5t-151 -72t-56.5 -168zM879 870q119 0 201.5 -51t123.5 -138q76 -161 76 -358.5t-33 -322.5q-43 -162 -183 -273.5t-351 -111.5q-281 0 -425.5 170t-144.5 408q0 143 59.5 229
t182.5 86l72 -6l-2 -8q-68 -27 -110 -114t-42 -168t21.5 -151.5t65.5 -133t124 -99.5t205.5 -37t222 57.5t133.5 151.5q-586 14 -586 422q0 209 106 328.5t284 119.5z" />
    <glyph glyph-name="kaf.isol" unicode="&#x643;" horiz-adv-x="1574" arabic-form="isolated" 
d="M711 792.5q0 53.5 36.5 94.5t98.5 41q94 0 115 -82q0 -12 -10.5 -33.5t-10.5 -32.5q-35 86 -100 86q-55 0 -55.5 -68.5t24.5 -86.5h174v-33q0 -14 -12.5 -26.5t-30.5 -12.5h-248q-18 0 -29.5 12.5t-11.5 26.5v33h74q-14 28 -14 81.5zM1462 395q0 -377 -286 -395h-629
q-8 -2 -17 -2q-180 0 -283.5 138t-103.5 313.5t68 257t166 81.5h69q-92 -61 -130 -190q-16 -53 -15.5 -115t18 -128t74 -124.5t139.5 -58.5h598q147 0 156 154v909h55q68 0 94.5 -30.5t26.5 -106.5v-703z" />
    <glyph glyph-name="lam.isol" unicode="&#x644;" horiz-adv-x="1353" arabic-form="isolated" 
d="M1249 1098v-656q0 -844 -536 -843q-145 0 -258 49t-179 133q-132 167 -133 399q0 143 60.5 227.5t181.5 84.5l72 -7v-8q-66 -27 -110 -112.5t-44 -169.5q0 -168 96.5 -294t298.5 -126q78 0 141.5 30.5t101.5 74.5q37 44 65 110q28 64 40 116q26 110 27 210v919h55
q68 0 94.5 -30.5t26.5 -106.5z" />
    <glyph glyph-name="meem.isol" unicode="&#x645;" horiz-adv-x="1343" arabic-form="isolated" 
d="M891.5 162q101.5 0 153 70.5t51.5 196.5t-58.5 197.5t-159 71.5t-155.5 -68.5t-55 -192.5t61 -199.5t162.5 -75.5zM1262 439.5q0 -197.5 -101.5 -318.5t-261 -121t-262.5 90q-37 -129 -119 -213t-213 -88q-49 0 -78.5 5t-56.5 30.5t-27 73.5v61l125 2q150 4 193 84.5
t43 214.5l-6 166q0 182 99.5 308t289.5 134q166 0 270.5 -115.5t104.5 -313z" />
    <glyph glyph-name="noon.isol" unicode="&#x646;" horiz-adv-x="1353" arabic-form="isolated" 
d="M738 700q-42 0 -70.5 29t-28.5 70t28.5 70.5t70.5 29.5t71 -28.5t29 -70.5t-29 -71t-71 -29zM1249 563v-121q0 -844 -536 -843q-145 0 -258 49t-179 133q-132 167 -133 399q0 143 60.5 227.5t181.5 84.5l72 -7v-8q-66 -27 -110 -112.5t-44 -169.5q0 -168 96.5 -294
t298.5 -126q78 0 141.5 30.5t101.5 74.5q37 44 65 110q28 64 40 116q26 110 27 210v384h55q68 0 94.5 -30.5t26.5 -106.5z" />
    <glyph glyph-name="heh.isol" unicode="&#x647;" horiz-adv-x="950" arabic-form="isolated" 
d="M489 152q228 0 228 278q0 132 -63.5 208.5t-173 76.5t-167 -84t-57.5 -204t57 -197.5t176 -77.5zM485.5 870q186.5 0 295 -135t108.5 -320.5t-108.5 -300t-297 -114.5t-295 123t-106.5 308.5t108.5 312t295 126.5z" />
    <glyph glyph-name="waw.isol" unicode="&#x648;" horiz-adv-x="933" arabic-form="isolated" 
d="M225 473.5q0 -96.5 23.5 -149t59.5 -82.5q86 -70 360 -70v152q0 120 -9.5 162l-19.5 83q-9 41 -27 61q-18 22 -42 44q-43 39 -137.5 39t-151 -71.5t-56.5 -168zM451 870q117 0 200.5 -50t124.5 -137q76 -161 76 -369t-42 -345t-172 -232t-305 -95t-175 94v67
q49 -12 112 -12q145 0 241.5 56.5t135.5 152.5q-586 14 -586 422q0 209 106 328.5t284 119.5z" />
    <glyph glyph-name="alefmaksura.isol" unicode="&#x649;" horiz-adv-x="1830" arabic-form="isolated" 
d="M1522 870h176v-778q0 -41 -29 -66.5t-61 -25.5h-86v688q-158 0 -252 -54t-126 -141t-43 -191.5t-20.5 -209t-38 -191.5t-116.5 -141.5t-240 -54.5q-283 0 -413 139.5t-130 380.5q0 152 62.5 242t189.5 90l74 -8v-6q-68 -31 -116 -123t-48 -179q-1 -87 11 -143
q12 -54 50 -112q72 -110 332 -115q86 0 134.5 43t61.5 113.5t22.5 159.5t13.5 183.5t36.5 183.5t89 159.5t175.5 113.5t291 43z" />
    <glyph glyph-name="yeh.isol" unicode="&#x64a;" horiz-adv-x="1830" arabic-form="isolated" 
d="M1522 870h176v-780q0 -41 -29 -66.5t-61 -25.5h-86v690q-158 0 -252 -54t-126 -141t-43 -191.5t-20.5 -209t-38 -191.5t-116.5 -141.5t-240 -54.5q-283 0 -413 139.5t-130 380.5q0 152 62.5 242t189.5 90l74 -8v-6q-68 -31 -116 -123t-48 -179q-1 -87 11 -143
q12 -54 50 -112q72 -110 332 -115q86 0 134.5 43t61.5 113.5t22.5 159.5t13.5 183.5t36.5 183.5t89 159.5t175.5 113.5t291 43zM793 -590q-41 0 -71 29t-30 69.5t30 69.5t71 29t70.5 -29t29.5 -69.5t-29.5 -69.5t-70.5 -29zM559 -590q-41 0 -70.5 29t-29.5 69.5t29.5 69.5
t70.5 29t69.5 -29t28.5 -69.5t-28.5 -69.5t-69.5 -29z" />
    <glyph glyph-name="fathatan" unicode="&#xfe70;" arabic-form="isolated" 
d="M49 -166q-162 -8 -299 -14q-27 0 -26 47q188 5 292 12q21 0 33 -45zM61 -244q-137 -8 -299 -14q-27 0 -26 47l182 7t111 5q20 0 32 -45z" />
    <glyph glyph-name="dammatan" unicode="&#xfe72;" arabic-form="isolated" 
d="M37 -162q68 0 67 86q0 39 -19 61.5t-50 22.5t-48.5 -22.5t-17.5 -58.5t19.5 -62.5t48.5 -26.5zM40 51q50 0 84 -34.5t34 -91t-46 -98.5t-140 -63.5t-155 -21.5t-67 6t-8 33l16 2q45 27 45 90q0 74 -73 74q-37 0 -56 -27q-8 16 -8 28.5t19.5 27t63.5 14.5t76 -35t32 -77
t-31 -91q98 8 154 23q-59 47 -59.5 105t34.5 97t85 39z" />
    <glyph glyph-name="kasratan" unicode="&#xfe74;" arabic-form="isolated" 
d="M49 -45q-162 -8 -299 -14q-27 0 -26 47q188 5 292 12q21 0 33 -45zM61 -123q-137 -8 -299 -14q-27 0 -26 47l182 7t111 5q20 0 32 -45z" />
    <glyph glyph-name="fatha" unicode="&#xfe76;" arabic-form="isolated" 
d="M61 -244q-137 -8 -299 -14q-27 0 -26 47l182 7t111 5q20 0 32 -45z" />
    <glyph glyph-name="damma" unicode="&#xfe78;" arabic-form="isolated" 
d="M39 49q49 0 84 -31.5t35 -83.5q0 -193 -381 -192q-20 0 -25.5 8t-7.5 29l39 2q129 4 194 29q-53 41 -53 102t33 99t82 38zM35 10q-62 0 -62 -91q0 -44 34 -69.5t66.5 -5t32.5 69.5t-20 72.5t-51 23.5z" />
    <glyph glyph-name="kasra" unicode="&#xfe7a;" arabic-form="isolated" 
d="M61 -45q-137 -8 -299 -14q-27 0 -26 47l182 7t111 5q20 0 32 -45z" />
    <glyph glyph-name="shadda" unicode="&#xfe7c;" arabic-form="isolated" 
d="M-258 -2h8l14 -145q2 -31 20.5 -49.5t39 -18.5t35 13.5t12.5 55.5t-10 107q-2 20 10 27.5t39 7.5l16 -150q6 -61 56 -61q25 0 39 20.5t9 62.5t-10 99q0 27 46 27l16 -156q0 -88 -90 -96q-57 0 -90 35q-25 -33 -73 -33t-86 39t-38 182q0 33 37 33z" />
    <glyph glyph-name="sukun" unicode="&#xfe7e;" arabic-form="isolated" 
d="M-141 -70q0 -94 80 -94q37 0 56 34t19 83q1 76 -67 88q-43 0 -65.5 -32t-22.5 -79zM-54.5 92q65.5 0 101 -45t35.5 -107.5t-46 -108.5t-108.5 -46t-97.5 47t-35 112t42.5 106.5t108 41.5z" />
    <glyph glyph-name="alef_wasla.isol" unicode="&#x671;" horiz-adv-x="540" arabic-form="isolated" 
d="M313 0q-111 0 -110 123v1112h82q35 0 62.5 -24.5t27.5 -59.5v-1151h-62zM305 1520q-45 0 -82 -46.5t-51 -109.5h246q-7 156 -113 156zM66 1343v21h49v162h16q37 0 37 -43v-19q49 113 136 113t128 -56.5t41 -133.5t-22 -76h-349q-36 -1 -36 32z" />
    <glyph glyph-name="tteh.isol" unicode="&#x679;" horiz-adv-x="1619" arabic-form="isolated" 
d="M1518 395q0 -377 -287 -395h-701q-180 0 -283.5 137t-103.5 312.5t68 257t166 81.5h69q-92 -61 -130 -190q-16 -53 -15.5 -115t18 -128t74 -124.5t139.5 -58.5h654q147 0 155 154v372h56q68 0 94.5 -30.5t26.5 -106.5v-166zM905 1020q-45 0 -82 -46t-51 -110h246
q-7 156 -113 156zM666 844v20h49v326h16q37 0 37 -43v-182q49 113 136 112.5t128 -56.5t41 -133t-22 -77h-349q-36 0 -36 33z" />
    <glyph glyph-name="peh.isol" unicode="&#x67e;" horiz-adv-x="1619" arabic-form="isolated" 
d="M1518 395q0 -377 -287 -395h-701q-180 0 -283.5 137t-103.5 312.5t68 257t166 81.5h69q-92 -61 -130 -190q-16 -53 -15.5 -115t18 -128t74 -124.5t139.5 -58.5h654q147 0 155 154v372h56q68 0 94.5 -30.5t26.5 -106.5v-166zM758 -125q41 0 69.5 -28.5t28.5 -69.5
t-28.5 -70t-69.5 -29t-71 29t-30 70t30 69.5t71 28.5zM870 -336q41 0 71 -28.5t30 -69.5t-30 -69.5t-71 -28.5t-70.5 28.5t-29.5 69.5t29.5 69.5t70.5 28.5zM991 -125q41 0 71 -28.5t30 -69.5t-30 -70t-71 -29t-70.5 29t-29.5 70t29.5 69.5t70.5 28.5z" />
    <glyph glyph-name="tcheh.isol" unicode="&#x686;" horiz-adv-x="1169" arabic-form="isolated" 
d="M551 -125q41 0 69.5 -28.5t28.5 -69.5t-28.5 -70t-69.5 -29t-70.5 29t-29.5 70t29.5 69.5t70.5 28.5zM784 -125q41 0 71 -28.5t30 -69.5t-30 -70t-71 -29t-70.5 29t-29.5 70t29.5 69.5t70.5 28.5zM664 -336q41 0 70.5 -28.5t29.5 -69.5t-29.5 -69.5t-70.5 -28.5t-71 28.5
t-30 69.5t30 69.5t71 28.5zM520.5 870q145.5 0 239.5 -50t150 -130q156 -224 155 -624q0 -98 -10 -197q-9 13 -40 41q-104 90 -272 90h-53q-383 0 -383 -268q0 -84 39 -174q70 -164 186 -205l-65 -29q-16 -8 -47 -8t-74 22.5t-90 66.5t-80 129t-33 197t45 212t125 153
q14 10 42 25.5t126.5 40t201.5 24.5t198 -14q-8 165 -86 328q-41 86 -115 140t-154 54q-144 0 -217 -42.5t-100 -86.5v72q0 98 83 165.5t228.5 67.5z" />
    <glyph glyph-name="ddal.isol" unicode="&#x688;" horiz-adv-x="942" arabic-form="isolated" 
d="M860 172v-172h-694q-35 0 -59.5 27.5t-24.5 62.5v82h604q-8 127 -75.5 274.5t-172.5 190.5q-86 35 -157 35t-97 -17l-12 -4l29 54q57 109 209 108q106 0 204 -70q117 -70 181.5 -244.5t64.5 -326.5zM487 1231q-45 0 -81.5 -46t-51.5 -110h246q-7 156 -113 156zM248 1055
v20h49v326h16q37 0 37 -43v-182q49 113 136 112.5t128 -56.5t41 -133t-22 -77h-348q-37 0 -37 33z" />
    <glyph glyph-name="uni0691" unicode="&#x691;" horiz-adv-x="698" arabic-form="isolated" 
d="M328 700h55q68 0 94.5 -30.5t26.5 -106.5v-661q0 -104 -81 -182t-200 -78q-63 0 -102 25.5t-39 68.5v47q33 -4 62.5 -4t61.5 7q32 6 54 16q70 32 70 202l-2 176v520zM428 1020q-45 0 -82 -46t-51 -110h246q-7 156 -113 156zM188 844v20h50v326h16q37 0 37 -43v-182
q49 113 136 112.5t128 -56.5t41 -133t-23 -77h-348q-37 0 -37 33z" />
    <glyph glyph-name="uni0698" unicode="&#x698;" horiz-adv-x="727" arabic-form="isolated" 
d="M328 700h55q68 0 94.5 -30.5t26.5 -106.5v-661q0 -104 -81 -182t-200 -78q-63 0 -102 25.5t-39 68.5v47q33 -4 62.5 -4t61.5 7q32 6 54 16q70 32 70 202l-2 176v520zM404 1020q-41 0 -71 28.5t-30 69.5t29.5 70t71 29t71 -29t29.5 -70t-29.5 -69.5t-70.5 -28.5zM524 809
q-41 0 -70.5 28.5t-29.5 69.5t29.5 70t70.5 29t71 -29t30 -70t-30 -69.5t-71 -28.5zM291 809q-41 0 -71 28.5t-30 69.5t30 70t71 29t69.5 -29t28.5 -70t-28.5 -69.5t-69.5 -28.5z" />
    <glyph glyph-name="veh.isol" unicode="&#x6a4;" horiz-adv-x="1789" arabic-form="isolated" 
d="M1321 1225q-41 0 -70.5 28.5t-29.5 69.5t29.5 69.5t70.5 28.5t70.5 -28.5t29.5 -69.5t-29.5 -69.5t-70.5 -28.5zM1442 1014q-41 0 -71 28.5t-30 69.5t30 69.5t71 28.5t70.5 -28.5t29.5 -69.5t-29.5 -69.5t-70.5 -28.5zM1208 1014q-41 0 -70.5 28.5t-29.5 69.5t29.5 69.5
t70.5 28.5t70 -28.5t29 -69.5t-29 -69.5t-70 -28.5zM1528 324q0 120 -9.5 162l-19.5 83q-9 41 -27 61q-18 22 -42 44q-43 40 -137.5 39.5t-151 -72.5t-56.5 -168q0 -97 24 -149q23 -52 59 -82q85 -70 360 -70v152zM301 482q0 -62 17.5 -127.5t74 -124t139.5 -58.5h472
q-82 94 -82 250q0 209 105.5 328.5t278.5 119.5t277.5 -115.5t104.5 -301.5v-453h-1186q-164 0 -261.5 143.5t-97.5 312.5t68 250.5t166 81.5h69q-92 -60 -130 -190q-16 -54 -15 -116z" />
    <glyph glyph-name="kheh.isol" unicode="&#x6a9;" horiz-adv-x="1710" arabic-form="isolated" 
d="M301 482q0 -62 17.5 -127.5t74 -124t139.5 -58.5h789q-27 481 -391 481q-55 0 -111 -16l-35 47q-27 33 -26 64q0 59 57 100l766 569l49 -65q18 -25 18.5 -62t-30.5 -61l-549 -410q127 -25 218 -92.5t136 -162.5q84 -177 84 -392l-2 -172h-1003q-164 0 -261.5 143.5
t-97.5 312.5t68 250.5t166 81.5h69q-92 -60 -130 -190q-16 -54 -15 -116z" />
    <glyph glyph-name="Gaf.isol" unicode="&#x6af;" horiz-adv-x="1710" arabic-form="isolated" 
d="M301 482q0 -62 17.5 -127.5t74 -124t139.5 -58.5h789q-27 481 -391 481q-55 0 -111 -16l-35 47q-27 33 -26 64q0 59 57 100l766 569l49 -65q18 -25 18.5 -62t-30.5 -61l-549 -410q127 -25 218 -92.5t136 -162.5q84 -177 84 -392l-2 -172h-1003q-164 0 -261.5 143.5
t-97.5 312.5t68 250.5t166 81.5h69q-92 -60 -130 -190q-16 -54 -15 -116zM1528 1518q0 -51 -39 -80l-801 -598q-49 49 -49 92t16 55l830 612q43 -66 43 -81z" />
    <glyph glyph-name="ghunna.isol" unicode="&#x6ba;" horiz-adv-x="1353" arabic-form="isolated" 
d="M1249 563v-121q0 -844 -536 -843q-145 0 -258 49t-179 133q-132 167 -133 399q0 143 60.5 227.5t181.5 84.5l72 -7v-8q-66 -27 -110 -112.5t-44 -169.5q0 -168 96.5 -294t298.5 -126q78 0 141.5 30.5t101.5 74.5q37 44 65 110q28 64 40 116q26 110 27 210v384h55
q68 0 94.5 -30.5t26.5 -106.5z" />
    <glyph glyph-name="uni06BE" unicode="&#x6be;" horiz-adv-x="1224" arabic-form="isolated" 
d="M621 205q0 216 -38 267.5t-108.5 51.5t-107.5 -47t-37 -115q0 -128 120 -164q88 -26 171 -26v33zM514 0q-336 0 -344 27l-2 -150h-55q-113 0 -113 164q0 68 36 99.5t81 31.5h127q-66 100 -66 213t84 196t212 83t206 -85t78 -225v-182h178q14 72 14 173t-42 215
t-149.5 197t-265 83t-272.5 -95v43q0 111 63.5 166.5t252.5 55.5q276 0 430.5 -197t154.5 -524q0 -156 -35 -289h-194q-131 6 -184 59q-53 -59 -195 -59z" />
    <glyph glyph-name="hehhamza" unicode="&#x6c0;" horiz-adv-x="950" arabic-form="isolated" 
d="M352 1139.5q0 54.5 37 95.5t98 41q94 0 115 -82q0 -43 -20 -66q-35 86 -101 86q-55 0 -55 -79q0 -57 25 -76h174v-33q0 -14 -12.5 -26.5t-30.5 -12.5h-248q-18 0 -29.5 12.5t-11.5 26.5v33h74q-15 26 -15 80.5zM489 152q228 0 228 278q0 132 -63.5 208.5t-173 76.5
t-167 -84t-57.5 -204t57 -197.5t176 -77.5zM485.5 870q186.5 0 295 -135t108.5 -320.5t-108.5 -300t-297 -114.5t-295 123t-106.5 308.5t108.5 312t295 126.5z" />
    <glyph glyph-name="uni06C1" unicode="&#x6c1;" horiz-adv-x="950" arabic-form="isolated" 
d="M489 152q228 0 228 278q0 132 -63.5 208.5t-173 76.5t-167 -84t-57.5 -204t57 -197.5t176 -77.5zM485.5 870q186.5 0 295 -135t108.5 -320.5t-108.5 -300t-297 -114.5t-295 123t-106.5 308.5t108.5 312t295 126.5z" />
    <glyph glyph-name="uni06CC" unicode="&#x6cc;" horiz-adv-x="1830" arabic-form="isolated" 
d="M1522 870h176v-778q0 -41 -29 -66.5t-61 -25.5h-86v688q-158 0 -252 -54t-126 -141t-43 -191.5t-20.5 -209t-38 -191.5t-116.5 -141.5t-240 -54.5q-283 0 -413 139.5t-130 380.5q0 152 62.5 242t189.5 90l74 -8v-6q-68 -31 -116 -123t-48 -179q-1 -87 11 -143
q12 -54 50 -112q72 -110 332 -115q86 0 134.5 43t61.5 113.5t22.5 159.5t13.5 183.5t36.5 183.5t89 159.5t175.5 113.5t291 43z" />
    <glyph glyph-name="yehbarree" unicode="&#x6d2;" horiz-adv-x="1054" arabic-form="isolated" 
d="M649.5 870q145.5 0 228.5 -67.5t83 -165.5v-72q-35 52 -82 76q-102 53 -209 53t-180.5 -54t-114.5 -140q-78 -163 -86 -328h786v-172h-649q-100 0 -178 -33t-105 -65l-28 -33q-37 365 53 631q37 110 92 190t149.5 130t240 50z" />
    <glyph glyph-name="uni06D3" unicode="&#x6d3;" horiz-adv-x="1105" arabic-form="isolated" 
d="M582 1140.5q0 53.5 36.5 94.5t98.5 41q94 0 114 -82q0 -39 -20 -66q-35 86 -100 86q-55 0 -55.5 -68t24.5 -87h174v-33q0 -14 -12.5 -26.5t-30.5 -12.5h-248q-18 0 -29.5 12.5t-11.5 26.5v33h74q-14 28 -14 81.5zM690.5 870q145.5 0 228 -67.5t82.5 -165.5v-72
q-35 53 -82 77q-101 52 -208 52t-180.5 -54t-114.5 -140q-78 -163 -86 -328h786v-172h-649q-100 0 -178 -33t-105 -65l-28 -33q-37 365 53 631q37 110 92 190t149.5 130t240 50z" />
    <glyph glyph-name="alef_wasla.fina" unicode="&#x671;" horiz-adv-x="538" arabic-form="final" 
d="M305 1520q-45 0 -82 -46.5t-51 -109.5h246q-7 156 -113 156zM66 1343v21h49v162h16q37 0 37 -43v-19q49 113 136 113t128 -56.5t41 -133.5t-22 -76h-349q-36 -1 -36 32zM377 1098v-764q0 -162 155 -162h27v-172h-72q-137 6 -211.5 93t-74.5 233v909h55q68 0 94.5 -30.5
t26.5 -106.5z" />
    <glyph glyph-name="peh.fina" unicode="&#x67e;" horiz-adv-x="1695" arabic-form="final" 
d="M758 -125q41 0 69.5 -28.5t28.5 -69.5t-28.5 -70t-69.5 -29t-71 29t-30 70t30 69.5t71 28.5zM870 -336q41 0 71 -28.5t30 -69.5t-30 -69.5t-71 -28.5t-70.5 28.5t-29.5 69.5t29.5 69.5t70.5 28.5zM991 -125q41 0 71 -28.5t30 -69.5t-30 -70t-71 -29t-70.5 29t-29.5 70
t29.5 69.5t70.5 28.5zM1669 172h47v-172h-92q-127 6 -199 78h-8q-70 -72 -186 -78h-701q-180 0 -283.5 137t-103.5 312.5t68 257t166 81.5h69q-92 -61 -130 -190q-16 -53 -15.5 -115t18 -128t74 -124.5t139.5 -58.5h654q147 0 155 154v372h56q68 0 94.5 -30.5t26.5 -106.5
l-2 -166q0 -135 34.5 -179t118.5 -44z" />
    <glyph glyph-name="peh.init" unicode="&#x67e;" horiz-adv-x="532" arabic-form="initial" 
d="M119 -125q41 0 69.5 -28.5t28.5 -69.5t-28.5 -70t-69.5 -29t-71 29t-30 70t30 69.5t71 28.5zM231 -336q41 0 71 -28.5t30 -69.5t-30 -69.5t-71 -28.5t-70.5 28.5t-29.5 69.5t29.5 69.5t70.5 28.5zM352 -125q41 0 71 -28.5t30 -69.5t-30 -70t-71 -29t-70.5 29t-29.5 70
t29.5 69.5t70.5 28.5zM430 395q0 -377 -287 -395h-174v172h129q147 0 156 154v372h55q68 0 94.5 -30.5t26.5 -106.5v-166z" />
    <glyph glyph-name="peh.medi" unicode="&#x67e;" horiz-adv-x="540" arabic-form="medial" 
d="M129 -125q41 0 69.5 -28.5t28.5 -69.5t-28.5 -70t-69.5 -29t-70.5 29t-29.5 70t29.5 69.5t70.5 28.5zM242 -336q41 0 70.5 -28.5t29.5 -69.5t-29.5 -69.5t-70.5 -28.5t-71 28.5t-30 69.5t30 69.5t71 28.5zM363 -125q41 0 70.5 -28.5t29.5 -69.5t-30 -70t-70.5 -29
t-70.5 29t-30 70t30 69.5t71 28.5zM358 561v-246q6 -143 156 -143h47v-172h-92q-127 6 -199 78q-76 -72 -198 -78h-92v172h47q147 0 155 154v372h56q68 0 94 -30.5t26 -106.5z" />
    <glyph glyph-name="uniFB67" unicode="&#x679;" horiz-adv-x="1695" arabic-form="final" 
d="M905 1020q-45 0 -82 -46t-51 -110h246q-7 156 -113 156zM666 844v20h49v326h16q37 0 37 -43v-182q49 113 136 112.5t128 -56.5t41 -133t-22 -77h-349q-36 0 -36 33zM1669 172h47v-172h-92q-127 6 -199 78h-8q-70 -72 -186 -78h-701q-180 0 -283.5 137t-103.5 312.5
t68 257t166 81.5h69q-92 -61 -130 -190q-16 -53 -15.5 -115t18 -128t74 -124.5t139.5 -58.5h654q147 0 155 154v372h56q68 0 94.5 -30.5t26.5 -106.5l-2 -166q0 -135 34.5 -179t118.5 -44z" />
    <glyph glyph-name="uniFB68" unicode="&#x679;" horiz-adv-x="532" arabic-form="initial" 
d="M373 1020q-45 0 -82 -46t-51 -110h245q-6 156 -112 156zM133 844v20h49v326h17q37 0 37 -43v-182q49 113 136 113t128 -56.5t41 -133.5t-23 -77h-348q-37 0 -37 33zM430 395q0 -377 -287 -395h-174v172h129q147 0 156 154v372h55q68 0 94.5 -30.5t26.5 -106.5v-166z" />
    <glyph glyph-name="uniFB69" unicode="&#x679;" horiz-adv-x="540" arabic-form="medial" 
d="M307 1020q-45 0 -82 -46t-51 -110h246q-7 156 -113 156zM68 844v20h49v326h16q37 0 37 -43v-182q49 113 136 113t128 -56.5t41 -133.5t-22 -77h-349q-36 0 -36 33zM358 561v-246q6 -143 156 -143h47v-172h-92q-127 6 -199 78q-76 -72 -198 -78h-92v172h47q147 0 155 154
v372h56q68 0 94 -30.5t26 -106.5z" />
    <glyph glyph-name="veh.fina" unicode="&#x6a4;" horiz-adv-x="1804" arabic-form="final" 
d="M1321 1225q-41 0 -70.5 28.5t-29.5 69.5t29.5 69.5t70.5 28.5t70.5 -28.5t29.5 -69.5t-29.5 -69.5t-70.5 -28.5zM1442 1014q-41 0 -71 28.5t-30 69.5t30 69.5t71 28.5t70.5 -28.5t29.5 -69.5t-29.5 -69.5t-70.5 -28.5zM1208 1014q-41 0 -70.5 28.5t-29.5 69.5t29.5 69.5
t70.5 28.5t70 -28.5t29 -69.5t-29 -69.5t-70 -28.5zM1528 324q0 120 -9.5 162l-19.5 83q-9 41 -27 61q-18 22 -42 44q-43 40 -137.5 39.5t-151 -72.5t-56.5 -168q0 -97 24 -149q23 -52 59 -82q85 -70 360 -70v152zM1794 172h31v-172h-8q-117 0 -195 57q-14 -20 -61.5 -38.5
t-104.5 -18.5h-954q-164 0 -261.5 143.5t-97.5 312.5t68 250.5t166 81.5h69q-92 -61 -130 -190q-16 -53 -15.5 -115t18 -128t74 -124.5t139.5 -58.5h472q-82 94 -82 250q0 209 105.5 328.5t278.5 119.5t277.5 -115.5t104.5 -301.5v-263q36 -18 106 -18z" />
    <glyph glyph-name="veh.init" unicode="&#x6a4;" horiz-adv-x="1046" arabic-form="initial" 
d="M578 1225q-41 0 -71 28.5t-30 69.5t30 69.5t71 28.5t70.5 -28.5t29.5 -69.5t-29.5 -69.5t-70.5 -28.5zM698 1014q-41 0 -70.5 28.5t-29.5 69.5t29.5 69.5t70.5 28.5t71 -28.5t30 -69.5t-30 -69.5t-71 -28.5zM465 1014q-41 0 -70.5 28.5t-29.5 69.5t29.5 69.5t70.5 28.5
t69.5 -28.5t28.5 -69.5t-28.5 -69.5t-69.5 -28.5zM784 324q0 118 -9 161t-19.5 84t-27.5 61q-18 22 -42 44q-43 40 -137 39.5t-150.5 -72.5t-56.5 -168t23.5 -148.5t59.5 -82.5q86 -70 359 -70v152zM-20 0v172h280q-82 94 -82 250q0 209 105.5 328.5t278.5 119.5
t277.5 -115.5t104.5 -301.5v-453h-964z" />
    <glyph glyph-name="veh.medi" unicode="&#x6a4;" horiz-adv-x="1120" arabic-form="medial" 
d="M557 1225q-41 0 -70.5 28.5t-29.5 69.5t29.5 69.5t70.5 28.5t70.5 -28.5t29.5 -69.5t-29.5 -69.5t-70.5 -28.5zM678 1014q-41 0 -70.5 28.5t-29.5 69.5t29.5 69.5t70.5 28.5t70.5 -28.5t29.5 -69.5t-29.5 -69.5t-70.5 -28.5zM444 1014q-41 0 -70.5 28.5t-29.5 69.5
t29.5 69.5t70.5 28.5t70 -28.5t29 -69.5t-29 -69.5t-70 -28.5zM764 172v152q0 120 -9.5 162l-19.5 83q-9 41 -27 61q-18 22 -42 44q-43 40 -137.5 39.5t-150.5 -72.5t-56 -168q0 -97 24 -149q22 -52 58 -82q84 -70 360 -70zM-20 0v172h260q-82 94 -82 250q0 209 105.5 328.5
t278.5 119.5t277.5 -115.5t104.5 -301.5v-281h217v-172h-1161z" />
    <glyph glyph-name="tcheh.fina" unicode="&#x686;" horiz-adv-x="1232" arabic-form="final" 
d="M551 -125q41 0 69.5 -28.5t28.5 -69.5t-28.5 -70t-69.5 -29t-70.5 29t-29.5 70t29.5 69.5t70.5 28.5zM664 -336q41 0 70.5 -28.5t29.5 -69.5t-29.5 -69.5t-70.5 -28.5t-71 28.5t-30 69.5t30 69.5t71 28.5zM784 -125q41 0 71 -28.5t30 -69.5t-30 -70t-71 -29t-70.5 29
t-29.5 70t29.5 69.5t70.5 28.5zM1206 172h47v-172h-22q-135 0 -199 57q-53 -51 -198 -57h-144q-383 0 -383 -268q0 -84 39 -174q70 -164 186 -205l-65 -29q-16 -8 -47 -8t-74 22.5t-90 66.5t-80 129t-33 197t45 212t125 153q14 10 42 25.5t126.5 40t200.5 24.5t201 -14
q-8 165 -86 328q-41 86 -115 140t-154 54q-144 0 -216.5 -42t-90.5 -74l-10 -13v72q0 97 83 165q84 68 230 68q270 0 392 -188q107 -164 141 -412q24 -98 149 -98z" />
    <glyph glyph-name="tcheh.init" unicode="&#x686;" horiz-adv-x="1054" arabic-form="initial" 
d="M326 -125q41 0 69.5 -28.5t28.5 -69.5t-28.5 -70t-69.5 -29t-71 29t-30 70t30 69.5t71 28.5zM438 -336q41 0 71 -28.5t30 -69.5t-30 -69.5t-71 -28.5t-70.5 28.5t-29.5 69.5t29.5 69.5t70.5 28.5zM559 -125q41 0 70.5 -28.5t29.5 -69.5t-29.5 -70t-70.5 -29t-70.5 29
t-29.5 70t29.5 69.5t70.5 28.5zM405.5 870q145.5 0 239.5 -50q93 -50 149 -130q156 -224 156 -624q0 -98 -10 -197q-10 15 -41 42q-105 89 -270 89h-649v172h786q-8 165 -86 328q-41 86 -114.5 140t-153.5 54q-145 0 -218.5 -43t-99.5 -86v72q0 98 83 165.5t228.5 67.5z" />
    <glyph glyph-name="tcheh.medi" unicode="&#x686;" horiz-adv-x="1073" arabic-form="medial" 
d="M387 -125q41 0 69.5 -28.5t28.5 -69.5t-28.5 -70t-69.5 -29t-70.5 29t-29.5 70t29.5 69.5t70.5 28.5zM500 -336q41 0 70.5 -28.5t29.5 -69.5t-29.5 -69.5t-70.5 -28.5t-71 28.5t-30 69.5t30 69.5t71 28.5zM621 -125q41 0 70.5 -28.5t29.5 -69.5t-29.5 -70t-70.5 -29
t-71 29t-30 70t30 69.5t71 28.5zM414 870q288 0 410 -226q106 -195 122 -472h148v-172h-1114v172h786q-8 165 -86 328q-41 86 -114.5 140t-153.5 54q-145 0 -218.5 -43t-99.5 -86v72q0 98 83 165.5t237 67.5z" />
    <glyph glyph-name="ddal.fina" unicode="&#x688;" horiz-adv-x="1048" arabic-form="final" 
d="M1022 172h47v-172h-31q-139 0 -196 57q-59 -57 -260 -57h-396q-35 0 -59.5 27.5t-24.5 62.5v82h605q-14 213 -127 356.5t-283 143.5q-68 0 -92 -17l-12 -4l28 54q57 109 209 108q106 0 205 -70q96 -57 158.5 -194t80.5 -283q23 -94 148 -94zM508 1231q-45 0 -82 -46
t-51 -110h246q-7 156 -113 156zM268 1055v20h49v326h17q37 0 37 -43v-182q49 113 136 112.5t128 -56.5t41 -133t-23 -77h-348q-37 0 -37 33z" />
    <glyph glyph-name="uniFB8B" unicode="&#x698;" horiz-adv-x="673" arabic-form="final" 
d="M541 0q-31 0 -56 6q-4 -12 -4 -16v-90q0 -104 -75.5 -182t-192.5 -78q-63 0 -102 25.5t-39 68.5v47q33 -4 59.5 -4t55 4t49 17.5l35 22.5t23.5 36.5l14 43t7 57.5l3 62.5t0 77t-1 82.5v520h56q68 0 94.5 -30.5t26.5 -106.5v-373q37 -18 92 -18h108v-172h-153zM395 1020
q-41 0 -70.5 28.5t-29.5 69.5t29.5 70t70.5 29t71 -29t30 -70t-30 -69.5t-71 -28.5zM516 809q-41 0 -70.5 28.5t-29.5 69.5t29.5 70t70.5 29t70.5 -29t29.5 -70t-29.5 -69.5t-70.5 -28.5zM283 809q-41 0 -71 28.5t-30 69.5t30 70t71 29t69.5 -29t28.5 -70t-28.5 -69.5
t-69.5 -28.5z" />
    <glyph glyph-name="uniFB8D" unicode="&#x691;" horiz-adv-x="673" arabic-form="final" 
d="M541 0q-31 0 -56 6q-4 -12 -4 -16v-90q0 -104 -75.5 -182t-192.5 -78q-63 0 -102 25.5t-39 68.5v47q34 -4 60 -4t54.5 4t49 17.5l35 22.5t23.5 36.5l14 43t7 57.5l3 62.5t0 77t-1 82.5v520h56q68 0 94.5 -30.5t26.5 -106.5v-373q37 -18 92 -18h108v-172h-153zM414 1020
q-45 0 -82 -46t-51 -110h245q-6 156 -112 156zM174 844v20h49v326h17q37 0 36 -43v-182q48 113 136 113t129 -56.5t41 -133.5t-23 -77h-348q-37 0 -37 33z" />
    <glyph glyph-name="kheh.fina" unicode="&#x6a9;" horiz-adv-x="1667" arabic-form="final" 
d="M301 482q0 -62 17.5 -127.5t74 -124t139.5 -58.5h789q-27 481 -391 481q-55 0 -111 -16l-35 47q-29 37 -26 70q0 51 57 94l766 569l49 -65q18 -25 18.5 -62t-30.5 -61l-549 -410q127 -25 218 -92.5t136 -163.5q84 -179 84 -391h181v-172h-1186q-164 0 -261.5 143.5
t-97.5 312.5t68 250.5t166 81.5h69q-92 -60 -130 -190q-16 -54 -15 -116z" />
    <glyph glyph-name="kheh.init" unicode="&#x6a9;" horiz-adv-x="1028" arabic-form="initial" 
d="M-20 0v172h659q-27 481 -391 481q-56 0 -111 -16l-35 47q-27 33 -26.5 77t57.5 87l766 569l49 -65q18 -25 18.5 -62t-30.5 -61l-549 -410q127 -25 218 -92.5t136 -162.5q84 -177 84 -392l-2 -172h-843z" />
    <glyph glyph-name="kheh.medi" unicode="&#x6a9;" horiz-adv-x="987" arabic-form="medial" 
d="M-20 0v172h659q-27 481 -391 481q-55 0 -111 -16l-35 47q-29 37 -26 70q0 51 57 94l766 569l49 -65q18 -25 18.5 -62t-30.5 -61l-549 -410q127 -25 218 -92.5t136 -163.5q84 -179 84 -391h183v-172h-1028z" />
    <glyph glyph-name="Gaf.fina" unicode="&#x6af;" horiz-adv-x="1667" arabic-form="final" 
d="M1528 1518q0 -51 -39 -80l-801 -598q-49 49 -49 92t16 55l830 612q43 -66 43 -81zM301 482q0 -62 17.5 -127.5t74 -124t139.5 -58.5h789q-27 481 -391 481q-55 0 -111 -16l-35 47q-29 37 -26 70q0 51 57 94l766 569l49 -65q18 -25 18.5 -62t-30.5 -61l-549 -410
q127 -25 218 -92.5t136 -163.5q84 -179 84 -391h181v-172h-1186q-164 0 -261.5 143.5t-97.5 312.5t68 250.5t166 81.5h69q-92 -60 -130 -190q-16 -54 -15 -116z" />
    <glyph glyph-name="Gaf.init" unicode="&#x6af;" horiz-adv-x="1028" arabic-form="initial" 
d="M846 1518q0 -51 -39 -80l-801 -598q-49 49 -49 92t16 55l830 612q43 -63 43 -81zM-20 0v172h659q-27 481 -391 481q-56 0 -111 -16l-35 47q-27 33 -26.5 77t57.5 87l766 569l49 -65q18 -25 18.5 -62t-30.5 -61l-549 -410q127 -25 218 -92.5t136 -162.5q84 -177 84 -392
l-2 -172h-843z" />
    <glyph glyph-name="Gaf.medi" unicode="&#x6af;" horiz-adv-x="987" arabic-form="medial" 
d="M846 1518q0 -51 -39 -80l-801 -598q-49 49 -49 92t16 55l830 612q43 -63 43 -81zM-20 0v172h659q-27 481 -391 481q-55 0 -111 -16l-35 47q-29 37 -26 70q0 51 57 94l766 569l49 -65q18 -25 18.5 -62t-30.5 -61l-549 -410q127 -25 218 -92.5t136 -163.5q84 -179 84 -391
h183v-172h-1028z" />
    <glyph glyph-name="ghunna.fina" unicode="&#x6ba;" horiz-adv-x="1392" arabic-form="final" 
d="M1249 563v-121q0 -135 -8 -225q43 -45 125 -45h47v-172h-92q-51 0 -115 23q-115 -424 -493 -424q-145 0 -258 49t-179 133q-132 167 -133 399q0 143 60.5 227.5t181.5 84.5l72 -7v-8q-66 -27 -110 -112.5t-44 -169.5q0 -168 96.5 -294t298.5 -126q78 0 141.5 30.5
t101.5 74.5q37 44 65 110q28 64 40 116q26 110 27 210v384h55q68 0 94.5 -30.5t26.5 -106.5z" />
    <glyph glyph-name="hehhamza.fina" unicode="&#x6c0;" horiz-adv-x="1075" arabic-form="final" 
d="M352 1139.5q0 54.5 37 95.5t98 41q94 0 115 -82q0 -12 -10 -33.5t-10 -32.5q-35 86 -101 86q-55 0 -55 -79q0 -57 25 -76h174v-33q0 -14 -12.5 -26.5t-30.5 -12.5h-248q-18 0 -29.5 12.5t-11.5 26.5v33h74q-15 26 -15 80.5zM688 172v152q0 118 -9 161t-19 84t-28 61
q-18 22 -42 44q-43 40 -137 39.5t-150.5 -72.5t-56.5 -168t23.5 -148.5t59.5 -82t112 -50t247 -20.5zM1106 172v-172h-401q-623 0 -623 422q0 209 105.5 328.5t278.5 119.5t277.5 -115.5t104.5 -301.5v-281h258z" />
    <glyph glyph-name="hehfinaltone" unicode="&#x6c1;" horiz-adv-x="1140" arabic-form="final" 
d="M1157 172v-172h-70q-217 0 -311 123t-94 362v72q-125 -29 -256 -119t-213 -221l-129 100q127 188 303 296t389 108l80 -4v-236q0 -162 58.5 -235.5t187.5 -73.5h55z" />
    <glyph glyph-name="hehinitialaltone" unicode="&#x6c1;" horiz-adv-x="532" arabic-form="initial" 
d="M430 395q0 -377 -287 -395h-174v172h129q147 0 156 154v372h55q68 0 94.5 -30.5t26.5 -106.5v-166zM135 -339q0 91 62.5 169t146.5 78h29q-29 -29 -47.5 -77t-18.5 -86t33 -79t33 -82t-33 -71.5t-85 -30.5t-86 44t-34 135z" />
    <glyph glyph-name="hehmedialaltone" unicode="&#x6c1;" horiz-adv-x="1425" arabic-form="medial" 
d="M74 -339q0 91 62 169t147 78h28q-29 -29 -47 -77t-18 -86t33 -79t33 -82q0 -42 -34 -72q-32 -30 -84 -30t-86 44t-34 135zM1446 172v-172h-291v-494h-151q-287 0 -410 142t-123 442q0 8 6 57q-49 -71 -144 -109t-202 -38h-141v172h162q127 0 223 112t96 269v215h172v-702
q0 -184 89 -286t249 -112v504h465z" />
    <glyph glyph-name="uniFBAB" unicode="&#x6be;" horiz-adv-x="1171" arabic-form="final" 
d="M561 549q-140 1 -178 -109q-31 -90 -31 -202v-66h127q129 0 193.5 38t64.5 155q0 184 -176 184zM600 -461q227 0 227 225q0 143 -82.5 189.5t-244.5 46.5l-162 -2q0 -209 25 -289q53 -170 237 -170zM-20 0v172h192q14 532 365 533q164 0 256 -92.5t92 -264.5
q0 -115 -29 -176h336v-172h-240q51 -98 52 -201q0 -199 -111 -305t-299 -106q-104 0 -183 38q-79 36 -122 92q-110 142 -117 451l2 31h-194z" />
    <glyph glyph-name="yehbarree.fina" unicode="&#x6d2;" horiz-adv-x="1536" arabic-form="final" 
d="M1346 -629h-1199q-4 49 -4 92q0 309 177.5 508t527.5 199h708v-170h-731q-121 0 -220 -43t-159 -111q-124 -138 -133 -303h1033v-172z" />
    <glyph glyph-name="uniFBB1" unicode="&#x6d3;" horiz-adv-x="1536" arabic-form="final" 
d="M627 480q0 53 36.5 93.5t98.5 40.5q94 0 115 -82q0 -41 -21 -65q-35 86 -100 86q-55 0 -55.5 -68.5t24.5 -87.5h174v-32q0 -14 -12.5 -26.5t-30.5 -12.5h-248q-18 0 -29.5 12t-11.5 27v32h74q-14 30 -14 83zM1346 -629h-1199q-4 49 -4 92q0 309 177.5 508t527.5 199h708
v-170h-731q-121 0 -220 -43t-159 -111q-124 -138 -133 -303h1033v-172z" />
    <glyph glyph-name="alefmaksura.init" unicode="&#x649;" horiz-adv-x="532" arabic-form="initial" 
d="M430 395q0 -377 -287 -395h-174v172h129q147 0 156 154v372h55q68 0 94.5 -30.5t26.5 -106.5v-166z" />
    <glyph glyph-name="alefmaksura.medi" unicode="&#x649;" horiz-adv-x="540" arabic-form="medial" 
d="M358 561v-246q6 -143 156 -143h47v-172h-92q-127 6 -199 78q-76 -72 -198 -78h-92v172h47q147 0 155 154v372h56q68 0 94 -30.5t26 -106.5z" />
    <glyph glyph-name="uniFBFD" unicode="&#x6cc;" horiz-adv-x="1464" arabic-form="final" 
d="M1438 172h47v-172h-41q-116 0 -178 36.5t-82.5 60.5t-29.5 36q-19 26 -39.5 69t-20.5 48q-18 -223 -31 -277q-47 -201 -221 -249q-68 -18 -156 -19q-283 0 -413 139.5t-130 380.5q0 143 58.5 237.5t175.5 94.5l92 -8v-6q-68 -31 -116 -123t-48 -179q-1 -87 11 -143
q12 -54 50 -112q72 -110 332 -115q113 0 159.5 68t56.5 226t18 228q-8 2 -26.5 9.5t-50 14.5t-67 7t-59.5 27.5t-24 62.5v84l49 2q139 0 241.5 -44t155.5 -107.5t94 -126t87 -106.5t106 -44z" />
    <glyph glyph-name="uniFBFE" unicode="&#x6cc;" horiz-adv-x="532" arabic-form="initial" 
d="M350 -322q-41 0 -70.5 29t-29.5 70t29.5 69.5t70.5 28.5t71 -28.5t30 -69.5t-30 -70t-71 -29zM117 -322q-41 0 -71 29t-30 70t30 69.5t71 28.5t69.5 -28.5t28.5 -69.5t-28.5 -70t-69.5 -29zM430 395q0 -377 -287 -395h-174v172h129q147 0 156 154v372h55q68 0 94.5 -30.5
t26.5 -106.5v-166z" />
    <glyph glyph-name="uniFBFF" unicode="&#x6cc;" horiz-adv-x="540" arabic-form="medial" 
d="M360 -322q-41 0 -70.5 29t-29.5 70t29.5 69.5t70.5 28.5t71 -28.5t30 -69.5t-30 -70t-71 -29zM127 -322q-41 0 -70.5 29t-29.5 70t29.5 69.5t70.5 28.5t69.5 -28.5t28.5 -69.5t-28.5 -70t-69.5 -29zM358 561v-246q6 -143 156 -143h47v-172h-92q-127 6 -199 78
q-76 -72 -198 -78h-92v172h47q147 0 155 154v372h56q68 0 94 -30.5t26 -106.5z" />
    <glyph glyph-name="shadda_dammatan" unicode="&#xfc5e;" arabic-form="isolated" 
d="M-258 -2h8l14 -145q2 -31 20.5 -49.5t39 -18.5t35 13.5t12.5 55t-10 107.5q-2 20 10 27.5t39 7.5l16 -150q6 -61 56 -61q25 0 39 20.5t9 62.5t-10 99q0 27 46 27l16 -156q0 -88 -90 -96q-57 0 -90 35q-25 -33 -73 -33t-86 39t-38 182q0 33 37 33zM16 125q68 0 68 86
q0 39 -19.5 61.5t-50 22.5t-48 -22.5t-17.5 -58.5t19 -62.5t48 -26.5zM19 338q50 0 84 -35t34 -91t-46 -98t-139 -63.5t-155 -21.5t-67.5 6t-8.5 33l17 2q45 27 45 90q0 74 -74 73q-37 0 -55 -26q-8 16 -8 28t19.5 26.5t63 14.5t75.5 -34.5t32 -76.5t-31 -91q98 8 154 22
q-59 47 -59 105.5t34.5 97.5t84.5 39z" />
    <glyph glyph-name="shadda_kasratan" unicode="&#xfc5f;" arabic-form="isolated" 
d="M49 -166q-162 -8 -299 -14q-27 0 -26 47q188 5 292 12q21 0 33 -45zM61 -244q-137 -8 -299 -14q-27 0 -26 47l182 7t111 5q20 0 32 -45zM-258 158h8l14 -146q2 -31 20.5 -49t39 -18t35 13t12.5 52t-10 111q-2 20 10 27.5t39 7.5l16 -150q6 -61 56 -61q25 0 39 20.5
t9 62.5t-10 99q0 27 46 27l16 -156q0 -88 -90 -96q-57 0 -90 35q-25 -33 -73 -33t-86 39t-38 182q0 33 37 33z" />
    <glyph glyph-name="shadda_fatha" unicode="&#xfc60;" arabic-form="isolated" 
d="M55 66q-137 -8 -299 -15q-27 0 -26 47q233 9 293 13q20 0 32 -45zM-258 -2h8l14 -145q2 -31 20.5 -49.5t39 -18.5t35 13.5t12.5 55.5t-10 107q-2 20 10 27.5t39 7.5l16 -150q6 -61 56 -61q25 0 39 20.5t9 62.5t-10 99q0 27 46 27l16 -156q0 -88 -90 -96q-57 0 -90 35
q-25 -33 -73 -33t-86 39t-38 182q0 33 37 33z" />
    <glyph glyph-name="shadda_damma" unicode="&#xfc61;" arabic-form="isolated" 
d="M-258 -2h8l14 -145q2 -31 20.5 -49.5t39 -18.5t35 13.5t12.5 55.5t-10 107q-2 20 10 27.5t39 7.5l16 -150q6 -61 56 -61q25 0 39 20.5t9 62.5t-10 99q0 27 46 27l16 -156q0 -88 -90 -96q-57 0 -90 35q-25 -33 -73 -33t-86 39t-38 182q0 33 37 33zM-20.5 336
q49.5 0 84 -32t34.5 -83q0 -193 -381 -192q-20 0 -25 8t-7 29l39 2q129 4 194 28q-53 41 -53 102.5t32.5 99.5t82 38zM-25 297q-61 0 -61 -91q0 -44 34 -69.5t66.5 -5t32.5 69.5t-20.5 72.5t-51.5 23.5z" />
    <glyph glyph-name="shadda_kasra" unicode="&#xfc62;" arabic-form="isolated" 
d="M-260 -211q273 11 293.5 11.5t32.5 -44.5q-137 -8 -299 -14q-27 0 -27 47zM-258 80h8l14 -146q2 -31 20.5 -49t39 -18t35 13.5t12.5 55.5t-10 107q-2 20 10 27.5t39 7.5l16 -150q6 -61 56 -61q25 0 39 20.5t9 62.5t-10 99q0 27 46 27l16 -156q0 -88 -90 -96q-57 0 -90 35
q-25 -33 -73 -33t-86 39t-38 182q0 33 37 33z" />
    <glyph glyph-name="shadda_alefsuperscript" unicode="&#xfc63;" arabic-form="isolated" 
d="M-258 -2h8l14 -145q2 -31 20.5 -49.5t39 -18.5t35 13.5t12.5 55.5t-10 107q-2 20 10 27.5t39 7.5l16 -150q6 -61 56 -61q25 0 39 20.5t9 62.5t-10 99q0 27 46 27l16 -156q0 -88 -90 -96q-57 0 -90 35q-25 -33 -73 -33t-86 39t-38 182q0 33 37 33zM-92 25h-21
q-31 0 -30 47v168h22q10 0 19.5 -11.5t9.5 -23.5v-180z" />
    <glyph glyph-name="alah" unicode="&#xfdf2;" horiz-adv-x="2187" arabic-form="isolated" 
d="M750 172v152q0 113 -9.5 158.5t-19.5 86.5q-9 41 -27 61q-18 22 -42 44q-43 40 -137.5 39.5t-151 -72.5t-56.5 -168t23.5 -148.5t59.5 -82.5q86 -70 360 -70zM2064 395q0 -377 -286 -395h-197q-127 6 -199 78q-76 -72 -198 -78h-418q-623 0 -623 422q0 209 105.5 328.5
t278.5 119.5t277.5 -115.5t104.5 -301.5v-281h230q147 0 155 154v911h56q68 0 94 -30.5t26 -106.5v-785q6 -143 156 -143h107q147 0 155 154v911h56q68 0 94 -30.5t26 -106.5v-705z" />
    <glyph glyph-name="alef_madda.fina" unicode="&#x622;" horiz-adv-x="505" arabic-form="final" 
d="M383 1311h-317v61q0 18 13 35.5t32 17.5h338v-30q0 -29 -17.5 -56.5t-48.5 -27.5zM344 1098v-764q0 -162 156 -162h26v-172h-71q-137 6 -212 93t-75 233v909h55q68 0 94.5 -30.5t26.5 -106.5z" />
    <glyph glyph-name="alef_hamza_above.fina" unicode="&#x623;" horiz-adv-x="491" arabic-form="final" 
d="M330 1098v-764q0 -162 155 -162h27v-172h-72q-137 6 -211.5 93t-74.5 233v909h55q68 0 94.5 -30.5t26.5 -106.5zM125 1467q0 53 37 94t98 41q94 0 115 -82q0 -12 -10.5 -34t-10.5 -32q-35 86 -100 86q-55 0 -55 -80q0 -57 24 -76h174v-32q0 -14 -12.5 -26.5t-30.5 -12.5
h-248q-18 0 -29 12t-11 27v32h73q-14 30 -14 83z" />
    <glyph glyph-name="waw_hamza.fina" unicode="&#x624;" horiz-adv-x="1003" arabic-form="final" 
d="M352 1139.5q0 54.5 37 95.5t98 41q94 0 115 -82q0 -39 -20 -66q-35 86 -101 86q-55 0 -55 -79q0 -57 25 -76h174v-33q0 -14 -12.5 -26.5t-30.5 -12.5h-248q-18 0 -29.5 12.5t-11.5 26.5v33h74q-15 26 -15 80.5zM225 473.5q0 -96.5 23.5 -149t59.5 -82.5q86 -70 360 -70
v152q0 120 -9.5 162l-19.5 83q-9 41 -27 61q-18 22 -42 44q-43 39 -137.5 39t-151 -71.5t-56.5 -168zM1024 172v-172h-205q-29 -152 -164 -255t-315 -103t-180 94v82q43 -8 102 -8q141 0 254 50t131 140q-586 18 -586 422q0 209 105.5 328.5t279 119.5t277.5 -115.5
t104 -301.5q0 -276 2 -281h195z" />
    <glyph glyph-name="alef_hamza_below.fina" unicode="&#x625;" horiz-adv-x="460" arabic-form="final" 
d="M299 1098v-764q0 -162 156 -162h26v-172h-71q-137 6 -212 93t-75 233v909h55q68 0 94.5 -30.5t26.5 -106.5zM125 -229.5q0 53.5 37 94.5t98 41q94 0 115 -82q0 -12 -10.5 -33.5t-10.5 -32.5q-35 86 -100 86q-55 0 -55 -80q0 -57 24 -75h174v-33q0 -14 -12 -26.5
t-31 -12.5h-248q-18 0 -29 12.5t-11 26.5v33h73q-14 28 -14 81.5z" />
    <glyph glyph-name="yeh_hamza_above.fina" unicode="&#x626;" horiz-adv-x="1884" arabic-form="final" 
d="M203 792.5q0 53.5 36.5 94.5t98.5 41q94 0 115 -82q0 -39 -21 -66q-35 86 -100 86q-55 0 -55.5 -68.5t24.5 -86.5h174v-33q0 -14 -12.5 -26.5t-30.5 -12.5h-248q-18 0 -29.5 12.5t-11.5 26.5v33h74q-14 28 -14 81.5zM1522 870h176v-698h207v-172h-383v688
q-158 0 -252 -54t-126 -141t-43 -191.5t-20.5 -209t-38 -191.5t-116.5 -141.5t-240 -54.5q-283 0 -413 139.5t-130 380.5q0 143 58.5 237.5t175.5 94.5l92 -8v-6q-68 -31 -116 -123t-48 -179q-1 -87 11 -143q12 -54 50 -112q72 -110 332 -115q86 0 134.5 43t61.5 113.5
t22.5 159.5t13.5 183.5t36.5 183.5t89 159.5t175.5 113.5t291 43z" />
    <glyph glyph-name="yeh_hamza_above.init" unicode="&#x626;" horiz-adv-x="532" arabic-form="initial" 
d="M217 966.5q0 53.5 37 94.5t98 41q94 0 115 -82q0 -41 -21 -66q-35 86 -100 86q-55 0 -55 -79q0 -57 24 -76h174v-33q0 -14 -12.5 -26.5t-30.5 -12.5h-247q-18 0 -29.5 12.5t-11.5 26.5v33h73q-14 28 -14 81.5zM430 395q0 -377 -287 -395h-174v172h129q147 0 156 154v372
h55q68 0 94.5 -30.5t26.5 -106.5v-166z" />
    <glyph glyph-name="yeh_hamza_above.medi" unicode="&#x626;" horiz-adv-x="540" arabic-form="medial" 
d="M164 966.5q0 53.5 37 94.5t98 41q94 0 115 -82q0 -41 -21 -66q-35 86 -100 86q-55 0 -55 -79q0 -57 24 -76h174v-33q0 -14 -12.5 -26.5t-30.5 -12.5h-248q-18 0 -29.5 12.5t-11.5 26.5v33h74q-14 28 -14 81.5zM358 561v-246q6 -143 156 -143h47v-172h-92q-127 6 -199 78
q-76 -72 -198 -78h-92v172h47q147 0 155 154v372h56q68 0 94 -30.5t26 -106.5z" />
    <glyph glyph-name="alef.fina" unicode="&#x627;" horiz-adv-x="403" arabic-form="final" 
d="M242 1098v-764q0 -162 155 -162h27v-172h-72q-137 6 -211.5 93t-74.5 233v909h55q68 0 94.5 -30.5t26.5 -106.5z" />
    <glyph glyph-name="beh.fina" unicode="&#x628;" horiz-adv-x="1695" arabic-form="final" 
d="M868 -322q-41 0 -70.5 29t-29.5 70t29.5 69.5t70.5 28.5t70 -28.5t29 -69.5t-29 -70t-70 -29zM1669 172h47v-172h-92q-123 6 -207 78q-70 -72 -186 -78h-701q-180 0 -283.5 137t-103.5 312.5t68 257t166 81.5h69q-92 -61 -130 -190q-16 -53 -15.5 -115t18 -128t74 -124.5
t139.5 -58.5h654q147 0 155 154v372h56q68 0 94.5 -30.5t26.5 -106.5l-2 -166q0 -135 34.5 -179t118.5 -44z" />
    <glyph glyph-name="beh.init" unicode="&#x628;" horiz-adv-x="532" arabic-form="initial" 
d="M430 395q0 -377 -287 -395h-174v172h129q147 0 156 154v372h55q68 0 94.5 -30.5t26.5 -106.5v-166zM207 -322q-41 0 -71 29t-30 70t30 69.5t71 28.5t69.5 -28.5t28.5 -69.5t-28.5 -70t-69.5 -29z" />
    <glyph glyph-name="beh.medi" unicode="&#x628;" horiz-adv-x="540" arabic-form="medial" 
d="M250 -322q-41 0 -70.5 29t-29.5 70t29.5 69.5t70.5 28.5t69.5 -28.5t28.5 -69.5t-28.5 -70t-69.5 -29zM358 561v-246q6 -143 156 -143h47v-172h-92q-127 6 -199 78q-76 -72 -198 -78h-92v172h47q147 0 155 154v372h56q68 0 94 -30.5t26 -106.5z" />
    <glyph glyph-name="tehmarbuta.fina" unicode="&#x629;" horiz-adv-x="1075" arabic-form="final" 
d="M354 1010q-41 0 -70.5 28.5t-29.5 69.5t29.5 69.5t70.5 28.5t70 -28.5t29 -69.5t-29 -69.5t-70 -28.5zM608 1010q-41 0 -70.5 28.5t-29.5 69.5t29.5 69.5t70.5 28.5t71 -28.5t30 -69.5t-30 -69.5t-71 -28.5zM688 172v152q0 118 -9 161t-19 84t-28 61q-18 22 -42 44
q-43 40 -137 39.5t-150.5 -72.5t-56.5 -168t23.5 -148.5t59.5 -82t112 -50t247 -20.5zM1106 172v-172h-401q-623 0 -623 422q0 209 105.5 328.5t278.5 119.5t277.5 -115.5t104.5 -301.5v-281h258z" />
    <glyph glyph-name="teh.fina" unicode="&#x62a;" horiz-adv-x="1695" arabic-form="final" 
d="M993 807q-41 0 -70.5 28.5t-29.5 69.5t29.5 70t70.5 29t71 -29t30 -70t-30 -69.5t-71 -28.5zM760 807q-41 0 -71 28.5t-30 69.5t30 70t71 29t69.5 -29t28.5 -70t-28.5 -69.5t-69.5 -28.5zM1669 172h47v-172h-92q-127 6 -199 78h-8q-70 -72 -186 -78h-701
q-180 0 -283.5 137t-103.5 312.5t68 257t166 81.5h69q-92 -61 -130 -190q-16 -53 -15.5 -115t18 -128t74 -124.5t139.5 -58.5h654q147 0 155 154v372h56q68 0 94.5 -30.5t26.5 -106.5l-2 -166q0 -135 34.5 -179t118.5 -44z" />
    <glyph glyph-name="teh.init" unicode="&#x62a;" horiz-adv-x="532" arabic-form="initial" 
d="M447 807q-41 0 -71 28.5t-30 69.5t30 70t71 29t70.5 -29t29.5 -70t-29.5 -69.5t-70.5 -28.5zM213 807q-41 0 -70.5 28.5t-29.5 69.5t29.5 70t70.5 29t69.5 -29t28.5 -70t-28.5 -69.5t-69.5 -28.5zM430 395q0 -377 -287 -395h-174v172h129q147 0 156 154v372h55
q68 0 94.5 -30.5t26.5 -106.5v-166z" />
    <glyph glyph-name="teh.medi" unicode="&#x62a;" horiz-adv-x="540" arabic-form="medial" 
d="M371 811q-41 0 -71 28.5t-30 69.5t30 70t71 29t70.5 -29t29.5 -70t-29.5 -69.5t-70.5 -28.5zM137 811q-41 0 -70.5 28.5t-29.5 69.5t29.5 70t70.5 29t70 -29t29 -70t-29 -69.5t-70 -28.5zM358 561v-246q6 -143 156 -143h47v-172h-92q-127 6 -199 78q-76 -72 -198 -78h-92
v172h47q147 0 155 154v372h56q68 0 94 -30.5t26 -106.5z" />
    <glyph glyph-name="theh.fina" unicode="&#x62b;" horiz-adv-x="1695" arabic-form="final" 
d="M877 1016q-41 0 -71 28.5t-30 69.5t30 69.5t71 28.5t70.5 -28.5t29.5 -69.5t-29.5 -69.5t-70.5 -28.5zM758 805q-41 0 -71 28.5t-30 69.5t30 69.5t71 28.5t69.5 -28.5t28.5 -69.5t-28.5 -69.5t-69.5 -28.5zM993 807q-41 0 -70.5 28.5t-29.5 69.5t29.5 70t70.5 29t71 -29
t30 -70t-30 -69.5t-71 -28.5zM1669 172h47v-172h-92q-123 6 -207 78q-70 -72 -186 -78h-701q-180 0 -283.5 137t-103.5 312.5t68 257t166 81.5h69q-92 -61 -130 -190q-16 -53 -15.5 -115t18 -128t74 -124.5t139.5 -58.5h654q147 0 155 154v372h56q68 0 94.5 -30.5
t26.5 -106.5l-2 -166q0 -135 34.5 -179t118.5 -44z" />
    <glyph glyph-name="theh.init" unicode="&#x62b;" horiz-adv-x="532" arabic-form="initial" 
d="M328 1016q-41 0 -71 28.5t-30 69.5t30 69.5t71 28.5t70.5 -28.5t29.5 -69.5t-29.5 -69.5t-70.5 -28.5zM209 805q-41 0 -70.5 28.5t-29.5 69.5t29.5 69.5t70.5 28.5t69.5 -28.5t28.5 -69.5t-28.5 -69.5t-69.5 -28.5zM444 807q-41 0 -70.5 28.5t-29.5 69.5t29.5 70t70.5 29
t71 -29t30 -70t-30 -69.5t-71 -28.5zM430 395q0 -377 -287 -395h-174v172h129q147 0 156 154v372h55q68 0 94.5 -30.5t26.5 -106.5v-166z" />
    <glyph glyph-name="theh.medi" unicode="&#x62b;" horiz-adv-x="540" arabic-form="medial" 
d="M256 1016q-41 0 -70.5 28.5t-29.5 69.5t29.5 69.5t70.5 28.5t70.5 -28.5t29.5 -69.5t-29.5 -69.5t-70.5 -28.5zM137 805q-41 0 -70.5 28.5t-29.5 69.5t29.5 69.5t70.5 28.5t70 -28.5t29 -69.5t-29 -69.5t-70 -28.5zM373 807q-41 0 -71 28.5t-30 69.5t30 70t71 29
t70.5 -29t29.5 -70t-29.5 -69.5t-70.5 -28.5zM358 561v-246q6 -143 156 -143h47v-172h-92q-127 6 -199 78q-76 -72 -198 -78h-92v172h47q147 0 155 154v372h56q68 0 94 -30.5t26 -106.5z" />
    <glyph glyph-name="jeem.fina" unicode="&#x62c;" horiz-adv-x="1249" arabic-form="final" 
d="M1223 172h47v-172h-23q-135 0 -198 57q-53 -51 -199 -57h-143q-158 0 -271.5 -65.5t-113.5 -161.5t28.5 -160t85 -89.5t102.5 -32.5t121 -7q176 0 263 88v-72q0 -61 -74 -119.5t-219 -58.5q-240 0 -372 129q-108 106 -112 299q0 123 49.5 211t135.5 133q164 86 399 86
q96 0 170 -8q-8 165 -86 328q-41 86 -114.5 140t-153.5 54q-145 0 -217 -42.5t-90 -73.5l-11 -13v72q0 97 83 165q84 68 230 68q270 0 392 -188q110 -168 141 -412q25 -98 150 -98zM677 -350q-42 0 -68.5 28.5t-26.5 70.5t26.5 69.5t68.5 27.5t71.5 -27.5t29.5 -68.5
t-29.5 -70.5t-71.5 -29.5z" />
    <glyph glyph-name="jeem.init" unicode="&#x62c;" horiz-adv-x="1107" arabic-form="initial" 
d="M510 -322q-41 0 -70.5 29t-29.5 70t29.5 69.5t70.5 28.5t70.5 -28.5t29.5 -69.5t-29.5 -70t-70.5 -29zM395.5 870q145.5 0 239.5 -50q93 -50 149 -130q156 -224 156 -624q0 -98 -10 -197q-9 13 -40 41q-104 90 -272 90h-649v172h787q-8 165 -86 328q-41 86 -115 140
q-73 54 -153 54q-144 0 -217.5 -43t-90.5 -73l-10 -13v72q0 98 83 165.5t228.5 67.5z" />
    <glyph glyph-name="jeem.medi" unicode="&#x62c;" horiz-adv-x="1073" arabic-form="medial" 
d="M414 870q288 0 410 -226q106 -195 122 -472h148v-172h-1114v172h786q-8 165 -86 328q-41 86 -114.5 140t-153.5 54q-145 0 -218.5 -43t-99.5 -86v72q0 98 83 165.5t237 67.5zM464 -322q-42 0 -69.5 29t-27.5 70t27.5 69.5t69.5 28.5t70.5 -28.5t28.5 -69.5t-28.5 -70
t-70.5 -29z" />
    <glyph glyph-name="hah.fina" unicode="&#x62d;" horiz-adv-x="1208" arabic-form="final" 
d="M1182 172h47v-172h-23q-135 0 -198 57q-53 -51 -199 -57h-143q-158 0 -271.5 -65.5t-113.5 -161.5t28.5 -160t85 -89.5t102.5 -32.5t121 -7q176 0 263 88v-72q0 -61 -74 -119.5t-219 -58.5q-240 0 -372 129q-108 106 -112 299q0 123 49.5 211t135.5 133q164 86 399 86
q96 0 170 -8q-8 165 -86 328q-41 86 -114.5 140t-153.5 54q-145 0 -217 -42.5t-90 -73.5l-11 -13v72q0 98 83 165.5t229 67.5q271 0 393 -188q109 -169 141 -412q25 -98 150 -98z" />
    <glyph glyph-name="hah.init" unicode="&#x62d;" horiz-adv-x="1069" arabic-form="initial" 
d="M395.5 870q145.5 0 239.5 -50q93 -50 149 -130q156 -224 156 -624q0 -98 -10 -197q-9 13 -40 41q-104 90 -272 90h-649v172h787q-8 165 -86 328q-41 86 -115 140q-73 54 -153 54q-144 0 -217.5 -43t-90.5 -73l-10 -13v72q0 98 83 165.5t228.5 67.5z" />
    <glyph glyph-name="hah.medi" unicode="&#x62d;" horiz-adv-x="1073" arabic-form="medial" 
d="M414 870q288 0 410 -226q106 -195 122 -472h148v-172h-1114v172h786q-8 165 -86 328q-41 86 -114.5 140t-153.5 54q-145 0 -218.5 -43t-99.5 -86v72q0 98 83 165.5t237 67.5z" />
    <glyph glyph-name="khah.fina" unicode="&#x62e;" horiz-adv-x="1208" arabic-form="final" 
d="M525 1018q-42 0 -68.5 28.5t-26.5 70.5t26.5 69.5t68.5 27.5t72 -27.5t30 -68.5t-30 -70.5t-72 -29.5zM1182 172h47v-172h-23q-135 0 -198 57q-53 -51 -199 -57h-143q-158 0 -271.5 -65.5t-113.5 -161.5t28.5 -160t85 -89.5t102.5 -32.5t121 -7q176 0 263 88v-72
q0 -61 -74 -119.5t-219 -58.5q-240 0 -372 129q-108 106 -112 299q0 123 49.5 211t135.5 133q164 86 399 86q96 0 170 -8q-8 165 -86 328q-41 86 -114.5 140t-153.5 54q-145 0 -217 -42.5t-90 -73.5l-11 -13v72q0 98 83 165.5t229 67.5q271 0 393 -188q109 -169 141 -412
q25 -98 150 -98z" />
    <glyph glyph-name="khah.init" unicode="&#x62e;" horiz-adv-x="1024" arabic-form="initial" 
d="M395.5 870q145.5 0 239.5 -50q93 -50 149 -130q156 -224 156 -624q0 -98 -10 -197q-9 13 -40 41q-104 90 -272 90h-649v172h787q-8 165 -86 328q-41 86 -115 140q-73 54 -153 54q-144 0 -217.5 -43t-90.5 -73l-10 -13v72q0 98 83 165.5t228.5 67.5zM438 1016
q-41 0 -68.5 29.5t-27.5 71.5t27.5 69.5t68.5 27.5t71 -28.5t30 -69.5t-30 -70.5t-71 -29.5z" />
    <glyph glyph-name="khah.medi" unicode="&#x62e;" horiz-adv-x="1073" arabic-form="medial" 
d="M433 1018q-42 0 -68.5 28.5t-26.5 70.5t26.5 69.5t68.5 27.5t72 -27.5t30 -68.5t-30 -70.5t-72 -29.5zM414 870q288 0 410 -226q106 -195 122 -472h148v-172h-1114v172h786q-8 165 -86 328q-41 86 -114.5 140t-153.5 54q-145 0 -218.5 -43t-99.5 -86v72q0 98 83 165.5
t237 67.5z" />
    <glyph glyph-name="dal.fina" unicode="&#x62f;" horiz-adv-x="1048" arabic-form="final" 
d="M1022 172h47v-172h-31q-139 0 -196 57q-59 -57 -260 -57h-396q-35 0 -59.5 27.5t-24.5 62.5v82h605q-14 213 -127 356.5t-283 143.5q-68 0 -92 -17l-12 -4l28 54q57 109 209 108q106 0 205 -70q96 -57 158.5 -194t80.5 -283q23 -94 148 -94z" />
    <glyph glyph-name="thal.fina" unicode="&#x630;" horiz-adv-x="1048" arabic-form="final" 
d="M1022 172h47v-172h-31q-139 0 -196 57q-59 -57 -260 -57h-396q-35 0 -59.5 27.5t-24.5 62.5v82h605q-14 213 -127 356.5t-283 143.5q-68 0 -92 -17l-12 -4l28 54q57 109 209 108q106 0 205 -70q96 -57 158.5 -194t80.5 -283q23 -94 148 -94zM487 1016q-41 0 -70.5 28.5
t-29.5 69.5t29.5 69.5t70.5 28.5t71 -28.5t30 -69.5t-30 -69.5t-71 -28.5z" />
    <glyph glyph-name="reh.fina" unicode="&#x631;" horiz-adv-x="714" arabic-form="final" 
d="M582 0q-31 0 -56 6q-4 -12 -4 -16v-90q0 -104 -75.5 -182t-192.5 -78q-63 0 -102 25.5t-39 68.5v47q33 -4 59 -4t55 4t49.5 17.5l35 22.5t23.5 36.5l14 43t7 57.5l3 62.5t0 77t-1 82.5v520h56q68 0 94.5 -30.5t26.5 -106.5v-373q37 -18 92 -18h108v-172h-153z" />
    <glyph glyph-name="zain.fina" unicode="&#x632;" horiz-adv-x="673" arabic-form="final" 
d="M541 0q-31 0 -56 6q-4 -12 -4 -16v-90q0 -104 -75.5 -182t-192.5 -78q-63 0 -102 25.5t-39 68.5v47q33 -4 59.5 -4t55 4t49 17.5l35 22.5t23.5 36.5l14 43t7 57.5l3 62.5t0 77t-1 82.5v520h56q68 0 94.5 -30.5t26.5 -106.5v-373q37 -18 92 -18h108v-172h-153zM387 809
q-41 0 -70.5 28.5t-29.5 69.5t29.5 70t70.5 29t70.5 -29t29.5 -70t-29.5 -69.5t-70.5 -28.5z" />
    <glyph glyph-name="seen.fina" unicode="&#x633;" horiz-adv-x="2461" arabic-form="final" 
d="M2279 666v-351q6 -143 156 -143h47v-172h-92q-131 6 -211 86q-80 -86 -209 -86q-201 0 -297 78q-82 -78 -194 -78h-232q-43 -172 -172 -286.5t-352 -114.5q-147 0 -262 49t-183 133q-136 169 -135 399q0 143 60.5 227.5t181.5 84.5l72 -7v-8q-66 -27 -110 -112.5
t-44 -169.5q0 -168 96.5 -294t298.5 -126q156 0 265.5 96t109.5 235v697h55q68 0 94.5 -31t26.5 -106v-494h185q147 0 155 154v477h56q68 0 94 -31t26 -106q0 -358 2 -363q-4 -47 -12 -84q90 -53 181 -53t127 41t40 119v477h56q68 0 94 -30.5t26 -106.5z" />
    <glyph glyph-name="seen.init" unicode="&#x633;" horiz-adv-x="1527" arabic-form="initial" 
d="M-10 0v172h229v631h55q68 0 94.5 -31t26.5 -106v-494h185q147 0 155 154v477h56q68 0 94 -31t26 -106q0 -358 2 -363q-4 -47 -12 -84q90 -53 181 -53t127 41t40 119v477h56q68 0 94 -31t26 -106v-271q0 -190 -85 -292.5t-224 -102.5q-199 0 -297 78q-76 -76 -194 -78
h-635z" />
    <glyph glyph-name="seen.medi" unicode="&#x633;" horiz-adv-x="1617" arabic-form="medial" 
d="M-10 0v172h229v631h55q68 0 94.5 -31t26.5 -106v-494h185q147 0 155 154v477h56q68 0 94 -31t26 -106q0 -358 2 -363q-4 -47 -12 -84q90 -53 181 -53t127 41t40 119v477h56q68 0 94 -31t26 -106v-351q6 -143 156 -143h47v-172h-92q-131 6 -211 86q-80 -86 -209 -86
q-199 0 -297 78q-76 -76 -194 -78h-635z" />
    <glyph glyph-name="sheen.fina" unicode="&#x634;" horiz-adv-x="2461" arabic-form="final" 
d="M1548 1014q-41 0 -70.5 28.5t-29.5 69.5t29.5 69.5t70.5 28.5t70 -28.5t29 -69.5t-29 -69.5t-70 -28.5zM1661 1225q-41 0 -70.5 28.5t-29.5 69.5t29.5 69.5t70.5 28.5t70.5 -28.5t29.5 -69.5t-29.5 -69.5t-70.5 -28.5zM1782 1014q-41 0 -71 28.5t-30 69.5t30 69.5
t71 28.5t70.5 -28.5t29.5 -69.5t-29.5 -69.5t-70.5 -28.5zM2279 666v-351q6 -143 156 -143h47v-172h-92q-131 6 -211 86q-80 -86 -209 -86q-201 0 -297 78q-82 -78 -194 -78h-232q-43 -172 -172 -286.5t-352 -114.5q-147 0 -262 49t-183 133q-136 169 -135 399
q0 143 60.5 227.5t181.5 84.5l72 -7v-8q-66 -27 -110 -112.5t-44 -169.5q0 -168 96.5 -294t298.5 -126q156 0 265.5 96t109.5 235v697h55q68 0 94.5 -31t26.5 -106v-494h185q147 0 155 154v477h56q68 0 94 -31t26 -106q0 -358 2 -363q-4 -47 -12 -84q90 -53 181 -53t127 41
t40 119v477h56q68 0 94 -30.5t26 -106.5z" />
    <glyph glyph-name="sheen.init" unicode="&#x634;" horiz-adv-x="1527" arabic-form="initial" 
d="M807 1225q-41 0 -70.5 28.5t-29.5 69.5t29.5 69.5t70.5 28.5t70.5 -28.5t29.5 -69.5t-29.5 -69.5t-70.5 -28.5zM928 1014q-41 0 -71 28.5t-30 69.5t30 69.5t71 28.5t70.5 -28.5t29.5 -69.5t-29.5 -69.5t-70.5 -28.5zM694 1014q-41 0 -70.5 28.5t-29.5 69.5t29.5 69.5
t70.5 28.5t70 -28.5t29 -69.5t-29 -69.5t-70 -28.5zM-10 0v172h229v631h55q68 0 94.5 -31t26.5 -106v-494h185q147 0 155 154v477h56q68 0 94 -31t26 -106q0 -358 2 -363q-4 -47 -12 -84q90 -53 181 -53t127 41t40 119v477h56q68 0 94 -31t26 -106v-271q0 -190 -85 -292.5
t-224 -102.5q-199 0 -297 78q-76 -76 -194 -78h-635z" />
    <glyph glyph-name="sheen.medi" unicode="&#x634;" horiz-adv-x="1617" arabic-form="medial" 
d="M694 1014q-41 0 -70.5 28.5t-29.5 69.5t29.5 69.5t70.5 28.5t70 -28.5t29 -69.5t-29 -69.5t-70 -28.5zM807 1225q-41 0 -70.5 28.5t-29.5 69.5t29.5 69.5t70.5 28.5t70.5 -28.5t29.5 -69.5t-29.5 -69.5t-70.5 -28.5zM928 1014q-41 0 -71 28.5t-30 69.5t30 69.5t71 28.5
t70.5 -28.5t29.5 -69.5t-29.5 -69.5t-70.5 -28.5zM-10 0v172h229v631h55q68 0 94.5 -31t26.5 -106v-494h185q147 0 155 154v477h56q68 0 94 -31t26 -106q0 -358 2 -363q-4 -47 -12 -84q90 -53 181 -53t127 41t40 119v477h56q68 0 94 -31t26 -106v-351q6 -143 156 -143h47
v-172h-92q-131 6 -211 86q-80 -86 -209 -86q-199 0 -297 78q-76 -76 -194 -78h-635z" />
    <glyph glyph-name="sad.fina" unicode="&#x635;" horiz-adv-x="2422" arabic-form="final" 
d="M1696 680q-152 0 -269.5 -150.5t-164.5 -357.5h804q-28 508 -370 508zM1692 870q272 0 411.5 -180t145.5 -469q43 -49 127 -49h67v-172h-112q-55 0 -117 29q-6 -4 -39 -29h-928q-43 -172 -172 -286.5t-352 -114.5q-147 0 -262 49t-183 133q-136 169 -135 399
q0 143 60.5 227.5t181.5 84.5l72 -7v-8q-66 -27 -110 -112.5t-44 -169.5q0 -168 96.5 -294t298.5 -126q156 0 265.5 96t109.5 235v566h55q68 0 94.5 -31t26.5 -106v-35q66 158 182 264t261 106z" />
    <glyph glyph-name="sad.init" unicode="&#x635;" horiz-adv-x="1468" arabic-form="initial" 
d="M-20 0v172h210v500h56q68 0 94.5 -31t26.5 -106v-35q66 158 181.5 264t260.5 106t256 -54t175 -146q126 -183 126 -426.5t-82 -243.5h-1304zM813 680q-152 0 -269.5 -150.5t-164.5 -357.5h805q-29 508 -371 508z" />
    <glyph glyph-name="sad.medi" unicode="&#x635;" horiz-adv-x="1517" arabic-form="medial" 
d="M815 680q-152 0 -269.5 -150.5t-164.5 -357.5h805q-29 508 -371 508zM-20 0v172h213v500h55q68 0 94.5 -31t26.5 -106v-35q66 158 181.5 264t264 106t259 -57t172.5 -157q120 -192 120 -484h172v-172h-1558z" />
    <glyph glyph-name="dad.fina" unicode="&#x636;" horiz-adv-x="2422" arabic-form="final" 
d="M1684 1008q-41 0 -71 28.5t-30 69.5t29.5 69.5t71 28.5t71 -28.5t29.5 -69.5t-29.5 -69.5t-70.5 -28.5zM1696 680q-152 0 -269.5 -150.5t-164.5 -357.5h804q-28 508 -370 508zM1692 870q272 0 411.5 -180t145.5 -469q43 -49 127 -49h67v-172h-112q-55 0 -117 29
q-6 -4 -39 -29h-928q-43 -172 -172 -286.5t-352 -114.5q-147 0 -262 49t-183 133q-136 169 -135 399q0 143 60.5 227.5t181.5 84.5l72 -7v-8q-66 -27 -110 -112.5t-44 -169.5q0 -168 96.5 -294t298.5 -126q156 0 265.5 96t109.5 235v566h55q68 0 94.5 -31t26.5 -106v-35
q66 158 182 264t261 106z" />
    <glyph glyph-name="dad.init" unicode="&#x636;" horiz-adv-x="1468" arabic-form="initial" 
d="M801 1008q-41 0 -71 28.5t-30 69.5t30 69.5t71 28.5t70.5 -28.5t29.5 -69.5t-29.5 -69.5t-70.5 -28.5zM-20 0v172h210v500h56q68 0 94.5 -31t26.5 -106v-35q66 158 181.5 264t260.5 106t256 -54t175 -146q126 -183 126 -426.5t-82 -243.5h-1304zM813 680
q-152 0 -269.5 -150.5t-164.5 -357.5h805q-29 508 -371 508z" />
    <glyph glyph-name="dad.medi" unicode="&#x636;" horiz-adv-x="1517" arabic-form="medial" 
d="M801 1008q-41 0 -71 28.5t-30 69.5t30 69.5t71 28.5t70.5 -28.5t29.5 -69.5t-29.5 -69.5t-70.5 -28.5zM815 680q-152 0 -269.5 -150.5t-164.5 -357.5h805q-29 508 -371 508zM-20 0v172h213v500h55q68 0 94.5 -31t26.5 -106v-35q66 158 181.5 264t264 106t259 -57
t172.5 -157q120 -192 120 -484h172v-172h-1558z" />
    <glyph glyph-name="tah.fina" unicode="&#x637;" horiz-adv-x="1632" arabic-form="final" 
d="M930 680q-152 0 -269.5 -150.5t-164.5 -357.5h804q-28 508 -370 508zM143 111v61h164v1063h55q68 0 94.5 -30.5t26.5 -106.5v-598q66 158 181.5 264t264.5 106t259 -57t172 -157q120 -194 121 -484h172v-172h-1387q-123 0 -123 111z" />
    <glyph glyph-name="tah.init" unicode="&#x637;" horiz-adv-x="1468" arabic-form="initial" 
d="M-20 0v172h210v1063h56q68 0 94.5 -30.5t26.5 -106.5v-598q66 158 181.5 264t260.5 106t256 -54t175 -146q126 -183 126 -426.5t-82 -243.5h-1304zM813 680q-152 0 -269.5 -150.5t-164.5 -357.5h805q-29 508 -371 508z" />
    <glyph glyph-name="tah.medi" unicode="&#x637;" horiz-adv-x="1517" arabic-form="medial" 
d="M815 680q-152 0 -269.5 -150.5t-164.5 -357.5h805q-29 508 -371 508zM-20 0v172h213v1063h55q68 0 94.5 -30.5t26.5 -106.5v-598q66 158 181.5 264t264 106t259 -57t172.5 -157q120 -192 120 -484h172v-172h-1558z" />
    <glyph glyph-name="zah.fina" unicode="&#x638;" horiz-adv-x="1632" arabic-form="final" 
d="M916 1008q-41 0 -71 28.5t-30 69.5t29.5 69.5t71 28.5t71 -28.5t29.5 -69.5t-29.5 -69.5t-70.5 -28.5zM930 680q-152 0 -269.5 -150.5t-164.5 -357.5h804q-28 508 -370 508zM143 111v61h164v1063h55q68 0 94.5 -30.5t26.5 -106.5v-598q66 158 181.5 264t264.5 106
t259 -57t172 -157q120 -194 121 -484h172v-172h-1387q-123 0 -123 111z" />
    <glyph glyph-name="zah.init" unicode="&#x638;" horiz-adv-x="1468" arabic-form="initial" 
d="M801 1008q-41 0 -71 28.5t-30 69.5t30 69.5t71 28.5t70.5 -28.5t29.5 -69.5t-29.5 -69.5t-70.5 -28.5zM-20 0v172h210v1063h56q68 0 94.5 -30.5t26.5 -106.5v-598q66 158 181.5 264t260.5 106t256 -54t175 -146q126 -183 126 -426.5t-82 -243.5h-1304zM813 680
q-152 0 -269.5 -150.5t-164.5 -357.5h805q-29 508 -371 508z" />
    <glyph glyph-name="zah.medi" unicode="&#x638;" horiz-adv-x="1517" arabic-form="medial" 
d="M801 1008q-41 0 -71 28.5t-30 69.5t30 69.5t71 28.5t70.5 -28.5t29.5 -69.5t-29.5 -69.5t-70.5 -28.5zM815 680q-152 0 -269.5 -150.5t-164.5 -357.5h805q-29 508 -371 508zM-20 0v172h213v1063h55q68 0 94.5 -30.5t26.5 -106.5v-598q66 158 181.5 264t264 106t259 -57
t172.5 -157q120 -192 120 -484h172v-172h-1558z" />
    <glyph glyph-name="ain.fina" unicode="&#x639;" horiz-adv-x="1282" arabic-form="final" 
d="M770 705q-120 1 -224 -53q-36 -18 -75 -42t-47 -28q66 -33 174.5 -137.5t161.5 -135.5q111 92 276 322q-146 74 -266 74zM752 862q95 0 184.5 -35.5t177.5 -99t100 -70.5q-41 -98 -130 -234t-185 -216q57 -35 184 -35h215v-172h-156q-111 0 -134 6q-128 33 -250 105
q-61 -51 -166 -66.5t-137 -40.5q-49 -27 -91 -85t-42 -150t28.5 -156t85 -89.5t102.5 -32.5t121 -7q176 0 263 88v-72q0 -61 -74 -119.5t-219 -58.5q-240 0 -372 129q-108 106 -110 300t121 321t330 151q-70 94 -174.5 169t-177.5 93l10 174q49 23 144.5 80.5t176 90
t175.5 32.5z" />
    <glyph glyph-name="ain.init" unicode="&#x639;" horiz-adv-x="1105" arabic-form="initial" 
d="M-20 0v172h270q-63 121 -64 252q0 180 118 304t286 124t257 -90t89 -176q0 -53 -21 -84l-41 -60q-16 88 -92 165q-74 77 -176 77t-171.5 -71.5t-69.5 -189.5t90 -251h549v-51q0 -68 -31 -94.5t-105 -26.5h-888z" />
    <glyph glyph-name="ain.medi" unicode="&#x639;" horiz-adv-x="1140" arabic-form="medial" 
d="M623 705q-121 1 -225 -53q-36 -18 -75 -42t-47 -28q66 -33 174.5 -137.5t161.5 -135.5q111 92 277 322q-145 74 -266 74zM605 862q95 0 184.5 -35.5t177.5 -99t100 -70.5q-41 -98 -130 -234t-185 -216q57 -35 184 -35h215v-172h-156q-112 0 -134.5 6t-55.5 14
q-74 19 -195 91q-47 -39 -148.5 -75t-242.5 -36h-229v172h286q47 0 101.5 14.5t75.5 34.5q-68 94 -174.5 170t-180.5 94l11 174q49 23 144 80.5t176 90t176 32.5z" />
    <glyph glyph-name="ghain.fina" unicode="&#x63a;" horiz-adv-x="1288" arabic-form="final" 
d="M703 1010q-42 0 -70.5 28.5t-28.5 69.5t29 70.5t70.5 29.5t70.5 -28.5t29 -70.5t-29 -70.5t-71 -28.5zM770 705q-120 1 -224 -53q-36 -18 -75 -42t-47 -28q66 -33 174.5 -137.5t161.5 -135.5q111 92 276 322q-146 74 -266 74zM752 862q95 0 184.5 -35.5t177.5 -99
t100 -70.5q-41 -98 -130 -234t-185 -216q57 -35 184 -35h215v-172h-156q-111 0 -134 6q-128 33 -250 105q-61 -51 -166 -66.5t-137 -40.5q-49 -27 -91 -85t-42 -150t28.5 -156t85 -89.5t102.5 -32.5t121 -7q176 0 263 88v-72q0 -61 -74 -119.5t-219 -58.5q-240 0 -372 129
q-108 106 -110 300t121 321t330 151q-70 94 -174.5 169t-177.5 93l10 174q49 23 144.5 80.5t176 90t175.5 32.5z" />
    <glyph glyph-name="ghain.init" unicode="&#x63a;" horiz-adv-x="1105" arabic-form="initial" 
d="M556 1010q-42 0 -70.5 28.5t-28.5 69.5t28.5 70.5t70.5 29.5t70.5 -28.5t28.5 -70.5t-28.5 -70.5t-70.5 -28.5zM-20 0v172h270q-63 121 -64 252q0 180 118 304t286 124t257 -90t89 -176q0 -53 -21 -84l-41 -60q-16 88 -91.5 165t-177 77t-171 -71.5t-69.5 -189.5t90 -251
h549v-51q0 -68 -31 -94.5t-105 -26.5h-888z" />
    <glyph glyph-name="ghain.medi" unicode="&#x63a;" horiz-adv-x="1140" arabic-form="medial" 
d="M556 1010q-42 0 -70.5 28.5t-28.5 69.5t28.5 70.5t70.5 29.5t70.5 -28.5t28.5 -70.5t-28.5 -70.5t-70.5 -28.5zM623 705q-121 1 -225 -53q-36 -18 -75 -42t-47 -28q66 -33 174.5 -137.5t161.5 -135.5q111 92 277 322q-145 74 -266 74zM605 862q95 0 184.5 -35.5
t177.5 -99t100 -70.5q-41 -98 -130 -234t-185 -216q57 -35 184 -35h215v-172h-156q-112 0 -134.5 6t-55.5 14q-74 19 -195 91q-47 -39 -148.5 -75t-242.5 -36h-229v172h286q47 0 101.5 14.5t75.5 34.5q-68 94 -174.5 170t-180.5 94l11 174q49 23 144 80.5t176 90t176 32.5z
" />
    <glyph glyph-name="feh.fina" unicode="&#x641;" horiz-adv-x="1804" arabic-form="final" 
d="M1314 1010q-42 0 -71 28.5t-29 69.5t29 70.5t71 29.5t70.5 -28.5t28.5 -70.5t-28.5 -70.5t-70.5 -28.5zM1528 324q0 120 -9.5 162l-19.5 83q-9 41 -27 61q-18 22 -42 44q-43 40 -137.5 39.5t-151 -72.5t-56.5 -168q0 -97 24 -149q23 -52 59 -82q85 -70 360 -70v152z
M1794 172h31v-172h-8q-117 0 -195 57q-14 -20 -61.5 -38.5t-104.5 -18.5h-954q-164 0 -261.5 143.5t-97.5 312.5t68 250.5t166 81.5h69q-92 -61 -130 -190q-16 -53 -15.5 -115t18 -128t74 -124.5t139.5 -58.5h472q-82 94 -82 250q0 209 105.5 328.5t278.5 119.5
t277.5 -115.5t104.5 -301.5v-263q36 -18 106 -18z" />
    <glyph glyph-name="feh.init" unicode="&#x641;" horiz-adv-x="1026" arabic-form="initial" 
d="M570 1010q-42 0 -70.5 28.5t-28.5 69.5t28.5 70.5t70.5 29.5t71 -28.5t29 -70.5t-29 -70.5t-71 -28.5zM784 324q0 118 -9 161t-19.5 84t-27.5 61q-18 22 -42 44q-43 40 -137 39.5t-150.5 -72.5t-56.5 -168t23.5 -148.5t59.5 -82.5q86 -70 359 -70v152zM-20 0v172h280
q-82 94 -82 250q0 209 105.5 328.5t278.5 119.5t277.5 -115.5t104.5 -301.5v-453h-964z" />
    <glyph glyph-name="feh.medi" unicode="&#x641;" horiz-adv-x="1120" arabic-form="medial" 
d="M550 1010q-42 0 -70.5 28.5t-28.5 69.5t28.5 70.5t70.5 29.5t70.5 -28.5t28.5 -70.5t-28.5 -70.5t-70.5 -28.5zM764 172v152q0 120 -9.5 162l-19.5 83q-9 41 -27 61q-18 22 -42 44q-43 40 -137.5 39.5t-150.5 -72.5t-56 -168q0 -97 24 -149q22 -52 58 -82q84 -70 360 -70
zM-20 0v172h260q-82 94 -82 250q0 209 105.5 328.5t278.5 119.5t277.5 -115.5t104.5 -301.5v-281h217v-172h-1161z" />
    <glyph glyph-name="qaf.fina" unicode="&#x642;" horiz-adv-x="1433" arabic-form="final" 
d="M764 1010q-41 0 -70.5 28.5t-29.5 69.5t29.5 69.5t70.5 28.5t69.5 -28.5t28.5 -69.5t-28.5 -69.5t-69.5 -28.5zM1018 1010q-41 0 -70.5 28.5t-29.5 69.5t29.5 69.5t70.5 28.5t70.5 -28.5t29.5 -69.5t-29.5 -69.5t-70.5 -28.5zM655 473.5q0 -96.5 23.5 -149t59.5 -82.5
q86 -71 360 -70v152q0 120 -9.5 162l-19.5 83q-9 41 -27 61q-18 22 -42 44q-43 40 -137.5 39.5t-151 -72t-56.5 -168zM1454 172v-172h-205q-35 -158 -179 -271.5t-357 -113.5q-145 0 -258 50t-179 134q-134 171 -133 398q0 141 61.5 226t180.5 85l72 -6v-8
q-68 -27 -110 -114t-42 -182t36 -185.5t128 -156t234 -65.5t238.5 58.5t135.5 150.5q-586 18 -585 422q0 209 105 328.5t278.5 119.5t277.5 -115.5t104 -301.5q0 -276 3 -281h194z" />
    <glyph glyph-name="qaf.init" unicode="&#x642;" horiz-adv-x="1026" arabic-form="initial" 
d="M784 324q0 118 -9 161t-19.5 84t-27.5 61q-18 22 -42 44q-43 40 -137 39.5t-150.5 -72.5t-56.5 -168t23.5 -148.5t59.5 -82.5q86 -70 359 -70v152zM-20 0v172h280q-82 94 -82 250q0 209 105.5 328.5t278.5 119.5t277.5 -115.5t104.5 -301.5v-453h-964zM705 1010
q-41 0 -71 28.5t-30 69.5t30 69.5t71 28.5t70.5 -28.5t29.5 -69.5t-29.5 -69.5t-70.5 -28.5zM451 1010q-41 0 -71 28.5t-30 69.5t30 69.5t71 28.5t69.5 -28.5t28.5 -69.5t-28.5 -69.5t-69.5 -28.5z" />
    <glyph glyph-name="qaf.medi" unicode="&#x642;" horiz-adv-x="1120" arabic-form="medial" 
d="M764 172v152q0 120 -9.5 162l-19.5 83q-9 41 -27 61q-18 22 -42 44q-43 40 -137.5 39.5t-150.5 -72.5t-56 -168q0 -97 24 -149q22 -52 58 -82q84 -70 360 -70zM-20 0v172h260q-82 94 -82 250q0 209 105.5 328.5t278.5 119.5t277.5 -115.5t104.5 -301.5v-281h217v-172
h-1161zM678 1010q-41 0 -70.5 28.5t-29.5 69.5t29.5 69.5t70.5 28.5t70.5 -28.5t29.5 -69.5t-29.5 -69.5t-70.5 -28.5zM424 1010q-41 0 -70.5 28.5t-29.5 69.5t29.5 69.5t70.5 28.5t69.5 -28.5t28.5 -69.5t-28.5 -69.5t-69.5 -28.5z" />
    <glyph glyph-name="kaf.fina" unicode="&#x643;" horiz-adv-x="1640" arabic-form="final" 
d="M1614 172h47v-172h-92q-123 6 -207 78q-70 -72 -186 -78h-629q-8 -2 -17 -2q-180 0 -283.5 138t-103.5 313.5t68 257t166 81.5h69q-92 -61 -130 -190q-16 -53 -15.5 -115t18 -128t74 -124.5t139.5 -58.5h598q147 0 156 154v909h55q68 0 94.5 -30.5t26.5 -106.5l-2 -289
q0 -543 31 -588q43 -49 123 -49zM711 792.5q0 53.5 36.5 94.5t98.5 41q94 0 115 -82q0 -12 -10.5 -33.5t-10.5 -32.5q-35 86 -100 86q-55 0 -55.5 -68.5t24.5 -86.5h174v-33q0 -14 -12.5 -26.5t-30.5 -12.5h-248q-18 0 -29.5 12.5t-11.5 26.5v33h74q-14 28 -14 81.5z" />
    <glyph glyph-name="kaf.init" unicode="&#x643;" horiz-adv-x="1028" arabic-form="initial" 
d="M-20 0v172h659q-27 481 -391 481q-56 0 -111 -16l-35 47q-27 33 -26.5 77t57.5 87l766 569l49 -65q18 -25 18.5 -62t-30.5 -61l-549 -410q127 -25 218 -92.5t136 -162.5q84 -177 84 -392l-2 -172h-843z" />
    <glyph glyph-name="kaf.medi" unicode="&#x643;" horiz-adv-x="987" arabic-form="medial" 
d="M-20 0v172h659q-27 481 -391 481q-55 0 -111 -16l-35 47q-29 37 -26 70q0 51 57 94l766 569l49 -65q18 -25 18.5 -62t-30.5 -61l-549 -410q127 -25 218 -92.5t136 -163.5q84 -179 84 -391h183v-172h-1028z" />
    <glyph glyph-name="lam.fina" unicode="&#x644;" horiz-adv-x="1392" arabic-form="final" 
d="M1249 1096v-654q0 -135 -8 -225q43 -45 125 -45h47v-172h-92q-51 0 -115 23q-115 -424 -493 -424q-145 0 -258 49t-179 133q-132 167 -133 399q0 143 60.5 227.5t181.5 84.5l72 -7v-8q-66 -27 -110 -112.5t-44 -169.5q0 -168 96.5 -294t298.5 -126q78 0 141.5 30.5
t101.5 74.5q37 44 65 110q28 64 40 116q26 110 27 210v917h55q68 0 94.5 -30.5t26.5 -106.5z" />
    <glyph glyph-name="lam.init" unicode="&#x644;" horiz-adv-x="460" arabic-form="initial" 
d="M379 395q0 -377 -287 -395h-112v172h67q147 0 156 154v907h55q68 0 94.5 -31t26.5 -106v-701z" />
    <glyph glyph-name="lam.medi" unicode="&#x644;" horiz-adv-x="540" arabic-form="medial" 
d="M358 1098v-783q6 -143 156 -143h47v-172h-92q-127 6 -199 78q-76 -72 -198 -78h-92v172h47q147 0 155 154v909h56q68 0 94 -30.5t26 -106.5z" />
    <glyph glyph-name="meem.fina" unicode="&#x645;" horiz-adv-x="1372" arabic-form="final" 
d="M891.5 162q101.5 0 153 70.5t51.5 196.5t-58.5 197.5t-159 71.5t-155.5 -68.5t-55 -192.5t61 -199.5t162.5 -75.5zM888.5 0q-148.5 0 -251.5 90q-35 -127 -118 -212t-214 -91q-162 0 -162 111v61l125 2q150 4 193 84.5t43 214.5l-6 166q0 182 99 308t290 134
q166 0 270.5 -115.5t104.5 -301.5q0 -139 -50 -248q43 -31 154 -31h27v-172h-13q-8 -2 -16 -2l-29 2q-135 0 -200 94q-98 -94 -246.5 -94z" />
    <glyph glyph-name="meem.init" unicode="&#x645;" horiz-adv-x="1062" arabic-form="initial" 
d="M611.5 162q101.5 0 152.5 70.5t51 196.5t-58.5 197.5t-158.5 71.5t-155.5 -68.5t-55.5 -192.5t61.5 -199.5t163 -75.5zM600 864q172 0 276.5 -114.5t104.5 -313t-101.5 -319.5t-275.5 -121t-287 129q-94 -127 -309 -127q-8 0 -16 2h-53v172h67q129 0 170 52t41 192
q0 209 105.5 328.5t277.5 119.5z" />
    <glyph glyph-name="meem.medi" unicode="&#x645;" horiz-adv-x="1116" arabic-form="medial" 
d="M568.5 162q101.5 0 152.5 70.5t51 196.5t-58.5 197.5t-158.5 71.5t-155.5 -68.5t-55.5 -192.5t61.5 -199.5t163 -75.5zM1151 172h27v-172q-129 0 -207 26.5t-129 94.5q-100 -125 -276.5 -125t-289.5 129q-94 -127 -309 -127q-8 0 -16 2h-12v172h26q129 0 170 52t41 192
q0 209 105.5 328.5t278.5 119.5t276.5 -120.5t103.5 -327.5q0 -139 41 -191.5t170 -52.5z" />
    <glyph glyph-name="noon.fina" unicode="&#x646;" horiz-adv-x="1392" arabic-form="final" 
d="M738 700q-42 0 -70.5 29t-28.5 70t28.5 70.5t70.5 29.5t71 -28.5t29 -70.5t-29 -71t-71 -29zM1249 563v-121q0 -135 -8 -225q43 -45 125 -45h47v-172h-92q-51 0 -115 23q-115 -424 -493 -424q-145 0 -258 49t-179 133q-132 167 -133 399q0 143 60.5 227.5t181.5 84.5
l72 -7v-8q-66 -27 -110 -112.5t-44 -169.5q0 -168 96.5 -294t298.5 -126q78 0 141.5 30.5t101.5 74.5q37 44 65 110q28 64 40 116q26 110 27 210v384h55q68 0 94.5 -30.5t26.5 -106.5z" />
    <glyph glyph-name="noon.init" unicode="&#x646;" horiz-adv-x="532" arabic-form="initial" 
d="M336 809q-41 0 -70.5 28.5t-29.5 69.5t29.5 70t70.5 29t70.5 -29t29.5 -70t-29.5 -69.5t-70.5 -28.5zM430 395q0 -377 -287 -395h-174v172h129q147 0 156 154v372h55q68 0 94.5 -30.5t26.5 -106.5v-166z" />
    <glyph glyph-name="noon.medi" unicode="&#x646;" horiz-adv-x="540" arabic-form="medial" 
d="M358 561v-246q6 -143 156 -143h47v-172h-92q-127 6 -199 78q-76 -72 -198 -78h-92v172h47q147 0 155 154v372h56q68 0 94 -30.5t26 -106.5zM266 809q-41 0 -70.5 28.5t-29.5 69.5t29.5 70t70.5 29t71 -29t30 -70t-30 -69.5t-71 -28.5z" />
    <glyph glyph-name="heh.fina" unicode="&#x647;" horiz-adv-x="1116" arabic-form="final" 
d="M729 324q0 118 -9 161t-19.5 84t-28.5 61q-18 22 -42 44q-43 40 -136.5 39.5t-150 -72.5t-56.5 -168t23.5 -148.5t59.5 -82t112 -50t247 -20.5v152zM1147 172v-172h-402q-623 0 -622 422q0 209 105.5 328.5t278.5 119.5t277.5 -115.5t104.5 -301.5v-281h258z" />
    <glyph glyph-name="heh.init" unicode="&#x647;" horiz-adv-x="1153" arabic-form="initial" 
d="M549 172v33q0 215 -37 267t-108.5 52t-108.5 -47t-37 -115q0 -126 120 -164q87 -26 171 -26zM1051 276.5q0 -143.5 -35 -276.5h-195q-133 6 -186 59q-53 -59 -207 -59h-448v172h192q-66 100 -66 213t84 196t212.5 83t206 -85t77.5 -225v-182h178q40 206 -27 388
q-42 114 -149.5 197t-265.5 83t-272 -95v43q0 111 63 166.5t252 55.5q438 0 557 -463q29 -127 29 -270.5z" />
    <glyph glyph-name="heh.medi" unicode="&#x647;" horiz-adv-x="1155" arabic-form="medial" 
d="M549 172v33q0 215 -37 267t-108.5 52t-108.5 -47t-37 -115q0 -126 120 -164q87 -26 171 -26zM428 0h-448v172h192q-66 100 -66 213t84 196t212.5 83t206 -85t77.5 -225v-182h178q40 206 -27 388q-42 114 -149.5 197t-265.5 83t-272 -95v43q0 111 63 166.5t252 55.5
q276 0 431 -197t155 -524q0 -59 -7 -117h132v-172h-355q-90 3 -127 17t-59 36q-57 -53 -207 -53z" />
    <glyph glyph-name="waw.fina" unicode="&#x648;" horiz-adv-x="1003" arabic-form="final" 
d="M225 473.5q0 -96.5 23.5 -149t59.5 -82.5q86 -70 360 -70v152q0 120 -9.5 162l-19.5 83q-9 41 -27 61q-18 22 -42 44q-43 39 -137.5 39t-151 -71.5t-56.5 -168zM1024 172v-172h-205q-29 -152 -164 -255t-315 -103t-180 94v82q43 -8 102 -8q141 0 254 50t131 140
q-586 18 -586 422q0 209 105.5 328.5t279 119.5t277.5 -115.5t104 -301.5q0 -276 2 -281h195z" />
    <glyph glyph-name="alefmaksura.fina" unicode="&#x649;" horiz-adv-x="1884" arabic-form="final" 
d="M1522 870h176v-698h207v-172h-383v688q-158 0 -252 -54t-126 -141t-43 -191.5t-20.5 -209t-38 -191.5t-116.5 -141.5t-240 -54.5q-283 0 -413 139.5t-130 380.5q0 143 58.5 237.5t175.5 94.5l92 -8v-6q-68 -31 -116 -123t-48 -179q-1 -87 11 -143q12 -54 50 -112
q72 -110 332 -115q86 0 134.5 43t61.5 113.5t22.5 159.5t13.5 183.5t36.5 183.5t89 159.5t175.5 113.5t291 43z" />
    <glyph glyph-name="yeh.fina" unicode="&#x64a;" horiz-adv-x="1884" arabic-form="final" 
d="M1522 870h176v-698h207v-172h-383v688q-158 0 -252 -54t-126 -141t-43 -191.5t-20.5 -209t-38 -191.5t-116.5 -141.5t-240 -54.5q-283 0 -413 139.5t-130 380.5q0 143 58.5 237.5t175.5 94.5l92 -8v-6q-68 -31 -116 -123t-48 -179q-1 -87 11 -143q12 -54 50 -112
q72 -110 332 -115q86 0 134.5 43t61.5 113.5t22.5 159.5t13.5 183.5t36.5 183.5t89 159.5t175.5 113.5t291 43zM559 -590q-41 0 -70.5 29t-29.5 69.5t29.5 69.5t70.5 29t69.5 -29t28.5 -69.5t-28.5 -69.5t-69.5 -29zM793 -590q-41 0 -71 29t-30 69.5t30 69.5t71 29t70.5 -29
t29.5 -69.5t-29.5 -69.5t-70.5 -29z" />
    <glyph glyph-name="yeh.init" unicode="&#x64a;" horiz-adv-x="532" arabic-form="initial" 
d="M350 -322q-41 0 -70.5 29t-29.5 70t29.5 69.5t70.5 28.5t71 -28.5t30 -69.5t-30 -70t-71 -29zM117 -322q-41 0 -71 29t-30 70t30 69.5t71 28.5t69.5 -28.5t28.5 -69.5t-28.5 -70t-69.5 -29zM430 395q0 -377 -287 -395h-174v172h129q147 0 156 154v372h55q68 0 94.5 -30.5
t26.5 -106.5v-166z" />
    <glyph glyph-name="yeh.medi" unicode="&#x64a;" horiz-adv-x="540" arabic-form="medial" 
d="M360 -322q-41 0 -70.5 29t-29.5 70t29.5 69.5t70.5 28.5t71 -28.5t30 -69.5t-30 -70t-71 -29zM127 -322q-41 0 -70.5 29t-29.5 70t29.5 69.5t70.5 28.5t69.5 -28.5t28.5 -69.5t-28.5 -70t-69.5 -29zM358 561v-246q6 -143 156 -143h47v-172h-92q-127 6 -199 78
q-76 -72 -198 -78h-92v172h47q147 0 155 154v372h56q68 0 94 -30.5t26 -106.5z" />
    <glyph glyph-name=".notdef" horiz-adv-x="1126" 
 />
    <glyph glyph-name=".null" 
 />
    <glyph glyph-name="nonmarkingreturn" horiz-adv-x="681" 
 />
    <glyph glyph-name="space" unicode=" " horiz-adv-x="499" 
 />
    <glyph glyph-name="exclam" unicode="!" horiz-adv-x="612" 
d="M430 129q0 -57 -37 -93t-92 -36t-94 37t-39 92t39 93t94 38t92 -37t37 -94zM328 406q-102 0 -105 122l-24 727h80q111 0 110 -122l-24 -727h-37z" />
    <glyph glyph-name="quotedbl" unicode="&#x22;" horiz-adv-x="792" 
d="M258 807q-98 0 -106 143l-21 303h70q104 0 104 -137l-26 -309h-21zM598 807q-92 0 -104 143l-23 303h70q106 0 106 -137l-26 -309h-23z" />
    <glyph glyph-name="numbersign" unicode="#" horiz-adv-x="1064" 
d="M428 784l-55 -319h254l57 319h-256zM889 784h-82l-55 -319h151v-25q0 -90 -94 -90h-80l-65 -350h-41q-68 0 -68 66q0 18 6 49l43 235h-254l-61 -350h-45q-66 0 -66 68q0 23 6 49l43 233h-164v27q0 88 93 88h94l57 319h-164v25q0 88 93 88h90l63 356h29q80 0 80 -73
q0 -8 -4 -37l-45 -246h253l64 356h27q82 0 81 -79q0 -12 -4 -37l-43 -240h158v-23q0 -90 -96 -90z" />
    <glyph glyph-name="dollar" unicode="$" horiz-adv-x="1064" 
d="M578 -219h-37q-39 0 -54 14q-14 14 -14 51v152q-143 2 -243 75q-99 73 -99 169v75h10q123 -172 355 -172q150 -1 216 47t66 150q0 68 -22 102q-45 70 -334 140q-147 34 -227 100t-80 198t95 230q95 100 263 123v238h29q76 0 76 -66v-168q98 0 168 -27q70 -28 102 -68
q59 -72 59 -134v-58h-14q-57 74 -133 108t-199 34t-204 -44t-81 -140t65 -136q65 -39 284 -94q145 -37 230 -112t84 -213t-95 -234t-266 -117v-223z" />
    <glyph glyph-name="percent" unicode="%" horiz-adv-x="1847" 
d="M1413 635q-75 0 -109 -70t-34 -174q0 -270 157 -270q74 -1 109 69t35 175q0 270 -158 270zM406 1116q-76 0 -111 -70t-35 -174q0 -268 158 -268q74 0 108 69t35 173q1 270 -155 270zM1419 -18q-137 0 -217 110t-80 283t82 285t220 112t216 -108t78 -282q0 -172 -81 -286
t-218 -114zM639 0q-59 0 -59 49q0 31 20 78l504 1110h49q19 0 37 -22t18 -48t-10 -53l-508 -1114h-51zM709 864q1 -172 -81 -286t-219 -115q-137 1 -215 111t-79 282q0 172 81 286t218 114t216 -110t79 -282z" />
    <glyph glyph-name="ampersand" unicode="&#x26;" horiz-adv-x="1251" 
d="M276 356q0 -229 246 -229q119 0 234 115q-132 131 -314 340q-166 -102 -166 -226zM555 1112q-164 0 -164 -160q0 -57 35 -103q12 -17 37 -48t35 -45q106 57 157 105t51 112q0 63 -40 101q-41 38 -111 38zM115 326q0 215 245 362q-131 143 -131 265t87 212q88 90 234 90
q146 1 229 -73t83 -180t-66 -184q-66 -77 -221 -165q125 -158 275 -307q133 150 143 334h43q29 0 53 -28t23 -74q0 -139 -162 -332q100 -100 146 -135t106 -43q-20 -56 -40 -70t-60 -14q-96 -2 -184 86l-70 69q-51 -51 -85 -78t-107 -53t-162 -26q-188 0 -284 94
q-95 94 -95 250z" />
    <glyph glyph-name="quotesingle" unicode="'" horiz-adv-x="622" 
d="M356 834q-92 0 -104 141l-23 299h70q104 0 104 -135l-26 -305h-21z" />
    <glyph glyph-name="parenleft" unicode="(" horiz-adv-x="659" 
d="M555 -307q-59 0 -134 55q-180 132 -262 405q-48 157 -48 348t61 381q60 190 166 308q106 119 223 119h64q-164 -169 -248 -353t-84 -430q0 -508 321 -833h-59z" />
    <glyph glyph-name="parenright" unicode=")" horiz-adv-x="659" 
d="M106 -307h-59q322 326 322 833q0 246 -84 430t-248 353h63q118 0 222 -119t166 -309t62 -381q0 -192 -47 -348q-82 -269 -262 -404q-76 -55 -135 -55z" />
    <glyph glyph-name="asterisk" unicode="*" horiz-adv-x="956" 
d="M868 996q0 -52 -38 -78t-125 -25q-87 0 -152 -16q33 -37 67 -93q65 -108 158 -133q-24 -45 -46 -67t-60 -23q-38 0 -71 29q-32 28 -46 62l-37 92t-39 92q-127 -156 -127 -291q-141 10 -141 110q0 51 33 93t91 84t71 55q-115 47 -220 47q-45 0 -98 -16q6 70 37 118t81 47
q50 0 83 -14t79 -48t76 -52q8 70 9 78q0 170 -62 245q109 35 170 -11q37 -28 37 -74t-25 -120t-34 -120q73 2 153 52t121 111q55 -82 55 -134z" />
    <glyph glyph-name="plus" unicode="+" horiz-adv-x="1054" 
d="M852 455h-268v-416h-47q-31 0 -57 31t-25 86v299h-383v67q0 26 22 48t56 22h305v375h63q25 0 45 -22t21 -60v-293h374v-49q0 -33 -27 -61q-28 -27 -79 -27z" />
    <glyph glyph-name="comma" unicode="," horiz-adv-x="557" 
d="M258 -92q0 47 -50 101t-50 100t33 79q35 33 93 33t97 -51t39 -167t-68 -199t-182 -89v13q88 92 88 180z" />
    <glyph glyph-name="hyphen" unicode="-" horiz-adv-x="665" 
d="M557 592q0 -43 -26 -74t-66 -31h-354v56q-1 39 29 69t73 29h344v-49z" />
    <glyph glyph-name="hyphen" unicode="&#xad;" horiz-adv-x="665" 
d="M557 592q0 -43 -26 -74t-66 -31h-354v56q-1 39 29 69t73 29h344v-49z" />
    <glyph glyph-name="period" unicode="." horiz-adv-x="557" 
d="M408 127q0 -55 -37 -91t-92 -36t-94 36q-38 36 -38 91t38 92q37 37 93 37t93 -37t37 -92z" />
    <glyph glyph-name="slash" unicode="/" horiz-adv-x="905" 
d="M182 -18q-16 0 -36 18q-19 18 -19 49t18 74l533 1184h55q25 -1 44 -19q38 -37 9 -84l-546 -1222h-58z" />
    <glyph glyph-name="zero" unicode="0" horiz-adv-x="1056" 
d="M530 137q118 1 196 109q77 108 77 368t-70 374q-70 112 -203 112q-272 0 -272 -459q0 -260 77 -382t195 -122zM539 1255q186 -1 307 -153t121 -474t-117 -485q-117 -164 -332 -163q-186 0 -308 164t-122 468q0 303 113 473t338 170z" />
    <glyph glyph-name="one" unicode="1" horiz-adv-x="686" 
d="M481 0h-59q-109 0 -109 123v940l-186 -86q-20 -10 -46 -10q-25 0 -47 12t-26 33l-16 61l188 96q131 68 205 68q37 0 67 -25t29 -61v-1151z" />
    <glyph glyph-name="two" unicode="2" horiz-adv-x="1064" 
d="M190 0q-82 0 -82 91q0 51 37 105t166 169l260 229q86 76 121 138t35 134q0 113 -69 174t-197 62q-225 0 -332 -184h-12v75q0 103 100 183q101 80 275 80t288 -105t115 -249q0 -144 -54 -230t-188 -199l-250 -213q-72 -61 -104 -106h627v-60q0 -34 -27 -64t-82 -30h-627z
" />
    <glyph glyph-name="three" unicode="3" horiz-adv-x="1064" 
d="M920 367q0 -181 -111 -283t-336 -102q-149 0 -257 70t-107 173v76h10q127 -166 366 -166q266 0 267 211q0 217 -330 217q-84 0 -84 80v47q227 0 313 45t86 162q0 205 -284 205q-125 0 -210 -47t-124 -119h-13v72q0 86 104 167t286 81q184 0 297 -95q113 -94 112 -241
q0 -231 -258 -283q117 -23 195 -99t78 -171z" />
    <glyph glyph-name="four" unicode="4" horiz-adv-x="1044" 
d="M633 446v631q-78 -90 -210 -291t-200 -340h410zM999 393q0 -86 -92 -86h-106v-307h-60q-47 0 -77 29t-31 86v192h-438q-55 0 -91 27q-34 28 -34 68t10 65q82 178 258 426t280 344h70q49 0 81 -33t32 -104v-654h198v-53z" />
    <glyph glyph-name="five" unicode="5" horiz-adv-x="1067" 
d="M539 750q203 0 315 -96t111 -274q0 -180 -120 -290t-331 -108q-156 0 -252 68t-96 159v57h10q113 -131 348 -131q272 0 273 242q0 125 -73 177q-74 52 -230 52t-314 -51v510q0 172 158 172h571v-55q0 -98 -108 -99h-469v-360q117 27 207 27z" />
    <glyph glyph-name="six" unicode="6" horiz-adv-x="1058" 
d="M552 127q124 -1 190 69t65 195q0 250 -254 250q-123 0 -198 -69t-74 -146q-1 -133 73 -216t198 -83zM584 788q178 0 284 -108t105 -288q0 -179 -118 -295q-118 -115 -310 -115t-315 148q-122 148 -122 444t141 489q140 193 380 192q135 0 210 -58t74 -134v-53h-10
q-53 50 -112 74t-164 24q-164 0 -258 -127t-95 -383q31 78 119 134t191 56z" />
    <glyph glyph-name="seven" unicode="7" horiz-adv-x="1062" 
d="M938 1145q0 -78 -115 -301l-245 -479q-70 -133 -70 -291v-74h-68q-98 0 -98 113q0 145 84 299l252 469q72 135 88 202h-660v54q0 100 105 100h620q107 0 107 -92z" />
    <glyph glyph-name="eight" unicode="8" horiz-adv-x="1058" 
d="M809 345q0 95 -67 155q-68 60 -196 61q-128 0 -197 -60q-69 -61 -69 -155t74 -152q72 -58 199 -58t191 56q64 58 65 153zM793 901q0 91 -66 149q-67 58 -187 58t-182 -54t-61 -148q0 -94 67 -149q67 -54 189 -55q240 0 240 199zM977 356q0 -158 -111 -266
q-112 -108 -320 -108t-320 100t-111 252q0 96 60 178t179 115q-223 72 -223 264q0 160 112 262t299 102t302 -93t114 -244q0 -117 -58 -183t-173 -94q113 -27 181 -114t69 -171z" />
    <glyph glyph-name="nine" unicode="9" horiz-adv-x="1056" 
d="M782 797q0 309 -269 309q-132 0 -200 -74t-67 -188q0 -272 276 -273q121 0 191 68q69 68 69 158zM950 668q0 -352 -109 -520q-110 -167 -347 -166q-158 0 -258 66t-101 185v56h10q106 -158 351 -158q152 0 220 114t68 347q-40 -74 -116 -118t-170 -44q-196 0 -306 114
t-110 288t126 298q126 125 308 125q434 1 434 -587z" />
    <glyph glyph-name="colon" unicode=":" horiz-adv-x="557" 
d="M408 842q0 -55 -37 -91t-92 -36t-94 36q-38 36 -38 91t38 92q37 37 93 37t93 -37t37 -92zM408 127q0 -55 -37 -91t-92 -36t-94 36q-38 36 -38 91t38 92q37 37 93 37t93 -37t37 -92z" />
    <glyph glyph-name="semicolon" unicode=";" horiz-adv-x="555" 
d="M408 842q0 -55 -37 -91t-92 -36t-94 36q-38 36 -38 91t38 92q37 37 93 37t93 -37t37 -92zM256 -92q0 47 -50 101t-50 100t33 79q35 33 93 33t97 -51t39 -167t-68 -199t-182 -89v13q88 92 88 180z" />
    <glyph glyph-name="semicolon" unicode="&#x37e;" horiz-adv-x="555" 
d="M408 842q0 -55 -37 -91t-92 -36t-94 36q-38 36 -38 91t38 92q37 37 93 37t93 -37t37 -92zM256 -92q0 47 -50 101t-50 100t33 79q35 33 93 33t97 -51t39 -167t-68 -199t-182 -89v13q88 92 88 180z" />
    <glyph glyph-name="less" unicode="&#x3c;" horiz-adv-x="1069" 
d="M885 170q0 -59 -90 -59q-63 0 -297 132t-387 253v41q0 47 260 191t522 245v-53q0 -42 -25 -72q-26 -30 -92 -58t-224 -107t-276 -148q313 -195 609 -332v-33z" />
    <glyph glyph-name="equal" unicode="=" horiz-adv-x="1073" 
d="M844 274h-668v66q0 72 80 72h666v-70q0 -28 -22 -48t-56 -20zM844 662h-668v65q0 72 80 72h666v-70q0 -29 -22 -48t-56 -19z" />
    <glyph glyph-name="greater" unicode="&#x3e;" horiz-adv-x="1069" 
d="M946 537v-41q-154 -121 -387 -253t-297 -132q-90 0 -90 59v33q295 137 608 332q-122 71 -278 149t-222 106t-92 58q-25 30 -24 72v53q160 -61 382 -172t311 -170t89 -94z" />
    <glyph glyph-name="question" unicode="?" horiz-adv-x="878" 
d="M399 256q55 0 92 -36t37 -92t-36 -92t-92 -36t-94 36t-38 91t38 92t93 37zM623 964q-1 68 -61 111t-154 43t-156 -28q-63 -28 -85 -53q-22 -24 -58 -72h-11v55q0 98 83 174t251 76t263 -85t95 -221t-133 -253l-155 -140q-51 -45 -51 -143v-53h-62q-27 1 -53 29t-25 69
q0 111 86 186l133 119q55 49 74 84q19 34 19 102z" />
    <glyph glyph-name="at" unicode="@" horiz-adv-x="1396" 
d="M740 834q-71 0 -123 -74t-52 -176q0 -148 89 -148t126 84t66 275q-35 39 -106 39zM973 289q-59 0 -95 33t-53 108q-57 -141 -223 -141q-76 0 -139 79t-64 197q1 172 105 291t262 119q86 0 154 -46t67 -116q1 -29 -21 -147t-22 -158q0 -98 62 -98q68 0 124 86t56 256
t-115 291q-115 120 -325 120t-365 -162q-154 -162 -154 -406q0 -245 129 -375q130 -130 318 -130t303 47v-43q0 -113 -320 -112q-233 0 -395 158t-162 438t186 488t484 208q238 0 390 -152t153 -369t-97 -341t-243 -123z" />
    <glyph glyph-name="A" unicode="A" horiz-adv-x="1093" 
d="M788 461q-100 352 -249 626q-150 -266 -250 -626h499zM1004 0q-98 0 -115 88q-10 51 -35 143t-25 97h-577q-51 -195 -76 -328h-63q-74 0 -74 80q0 145 151 570q152 425 285 587h55q51 0 88 -33q110 -98 287 -601q115 -327 158 -603h-59z" />
    <glyph glyph-name="B" unicode="B" horiz-adv-x="1138" 
d="M580 571h-263v-297q0 -135 164 -135h129q117 -1 183 55q65 56 65 168t-63 160q-63 49 -215 49zM317 709h252q135 0 202 45t67 151q0 193 -258 193h-101q-78 -1 -162 -21v-368zM1026 365q0 -169 -116 -271t-292 -102h-145q-319 0 -319 276v926q145 51 299 51h163
q182 0 284 -91t101 -232q0 -211 -219 -275q132 -37 188 -117t56 -165z" />
    <glyph glyph-name="C" unicode="C" horiz-adv-x="1093" 
d="M1042 963h-14q-90 137 -296 137t-329 -126t-122 -325q0 -246 126 -379t321 -133t300 121h10v-51q0 -92 -92 -159t-246 -66q-248 0 -418 180t-169 450q0 270 166 456q166 187 444 187q143 1 231 -71t88 -158v-63z" />
    <glyph glyph-name="D" unicode="D" horiz-adv-x="1247" 
d="M967 622q0 228 -111 351t-311 123h-72q-82 0 -154 -17v-778q0 -162 177 -162h65q190 0 298 128q108 127 108 355zM1135 624q0 -278 -156 -455t-399 -177h-111q-154 0 -235 70t-80 192v956q143 35 276 35h154q231 0 391 -171q160 -172 160 -450z" />
    <glyph glyph-name="E" unicode="E" horiz-adv-x="1040" 
d="M965 129q0 -73 -45 -105t-185 -32h-153q-449 0 -449 514v223q0 219 49 363t150 145h645v-68q0 -86 -121 -86h-512q-45 -170 -45 -376h537v-52q0 -39 -27 -65t-80 -25h-430v-90q0 -186 77 -260t263 -74h94q109 0 232 35v-47z" />
    <glyph glyph-name="F" unicode="F" horiz-adv-x="909" 
d="M899 1165q0 -31 -26 -57t-74 -27h-465v-356h481v-53q0 -45 -29 -71t-77 -26h-375v-575h-64q-106 0 -106 100v983q0 84 39 119t141 35h555v-72z" />
    <glyph glyph-name="G" unicode="G" horiz-adv-x="1241" 
d="M784 1255q147 0 240 -67q92 -68 92 -158v-59h-8q-98 131 -344 131q-190 0 -322 -122t-131 -360q0 -238 130 -361q130 -124 333 -124q117 0 159 36t42 132v115q0 68 -8 141h73q39 1 64 -25t24 -61v-211q0 -281 -385 -280q-247 0 -423 177t-176 457t168 459
q169 180 472 180z" />
    <glyph glyph-name="H" unicode="H" horiz-adv-x="1284" 
d="M1120 0h-55q-43 0 -77 32t-34 89v448h-622v-569h-62q-42 0 -74 31t-32 90v1116h90q30 0 54 -23t24 -61v-430h622v514h80q35 0 61 -24t25 -60v-1153z" />
    <glyph glyph-name="I" unicode="I" horiz-adv-x="518" 
d="M344 0h-59q-51 0 -81 31t-30 90v1116h82q32 0 60 -25t28 -59v-1153z" />
    <glyph glyph-name="J" unicode="J" horiz-adv-x="733" 
d="M580 365q0 -183 -94 -283t-265 -100q-88 0 -149 44t-62 111v68h10q62 -67 217 -67q82 0 131 52q48 53 48 166v881h57q106 0 107 -109v-763z" />
    <glyph glyph-name="K" unicode="K" horiz-adv-x="1060" 
d="M330 0h-62q-44 0 -74 32t-30 85v1120h49q117 0 117 -115v-469l200 271q116 149 207 247q59 66 187 66h82v-10q-83 -70 -153 -155l-102 -120t-131 -164q-100 -128 -106 -135q55 -78 214 -276t233 -252q39 -29 100 -53q-17 -31 -27 -44q-29 -36 -82 -36q-98 0 -157 65
q-100 111 -246 291q-145 180 -219 285v-633z" />
    <glyph glyph-name="L" unicode="L" horiz-adv-x="923" 
d="M920 125q0 -63 -50 -98t-192 -35h-103q-412 0 -411 442v805h59q106 0 107 -125v-635q0 -199 55 -265t225 -67h68q150 0 242 27v-49z" />
    <glyph glyph-name="M" unicode="M" horiz-adv-x="1712" 
d="M1477 0q-109 0 -109 133q0 164 -20 460t-48 451q-37 -66 -108 -274l-193 -555q-49 -137 -90 -215h-37q-28 0 -54 19q-63 47 -150 307l-154 467q-47 141 -106 249q-70 -457 -78 -1042h-49q-47 0 -81 35t-34 98q0 461 115 1104h61q109 0 170 -76t104 -200l164 -486
q57 -178 74 -248q23 88 82 252l160 445q35 96 82 186t75 127h43q82 0 123 -58t54 -178q55 -487 65 -1001h-61z" />
    <glyph glyph-name="N" unicode="N" horiz-adv-x="1282" 
d="M1118 0h-51q-92 0 -171 69t-171 257l-262 528q-68 137 -137 207v-1061h-70q-39 0 -66 31t-26 82v1126h80q195 0 317 -248l260 -530q98 -207 142 -258v1034h69q37 0 62 -25t24 -63v-1149z" />
    <glyph glyph-name="O" unicode="O" horiz-adv-x="1345" 
d="M1067 620q0 482 -403 482q-180 0 -282 -118t-101 -354q0 -236 102 -366q103 -129 291 -129t291 126q102 125 102 359zM674 1255q258 0 408 -173q150 -174 151 -456q0 -282 -151 -463t-418 -181q-233 0 -392 169q-158 169 -158 457t151 467q151 180 409 180z" />
    <glyph glyph-name="P" unicode="P" horiz-adv-x="1021" 
d="M836 848q0 244 -256 244h-97q-70 0 -151 -19v-416q90 -49 232 -49t206 64q66 64 66 176zM1001 868q-1 -176 -121 -290t-295 -115q-175 0 -253 51v-514h-62q-106 0 -106 109v1081q141 55 315 55h96q188 0 308 -100q118 -101 118 -277z" />
    <glyph glyph-name="Q" unicode="Q" horiz-adv-x="1357" 
d="M1069 628q0 236 -98 356t-312 120q-285 0 -362 -302q-20 -79 -21 -167q0 -244 108 -374t292 -130t289 130q104 131 104 367zM1188 -174q-141 0 -334 51t-330 123q-190 53 -302 222t-111 382q0 293 146 472t431 179q248 0 398 -170t149 -434q0 -264 -129 -432t-309 -188
q178 -63 473 -74v-57q0 -30 -24 -52t-58 -22z" />
    <glyph glyph-name="R" unicode="R" horiz-adv-x="1110" 
d="M823 883q0 217 -248 217h-94q-74 0 -149 -21v-395q118 -18 226 -18t186 53t79 164zM977 -6q-98 0 -137 94l-92 221q-54 125 -98 164t-109 45q-150 12 -209 27v-545h-62q-106 0 -106 106v1084q141 55 313 55h111q188 0 296 -89q108 -88 108 -238t-82 -232
q-81 -82 -208 -98q56 -18 100 -62t57 -70t36 -79l113 -266q29 -66 57 -99v-8q-63 -10 -88 -10z" />
    <glyph glyph-name="S" unicode="S" horiz-adv-x="1077" 
d="M508 -18q-139 0 -256 72t-117 173v80h10q57 -76 157 -123t236 -47q264 0 263 203q0 96 -67 144t-256 89t-274 111t-85 199q0 162 128 267t341 105q162 1 258 -69t96 -160v-76h-10q-117 147 -354 148q-137 0 -211 -50t-74 -140t57 -130q58 -41 230 -80q172 -38 282 -120
t111 -233q0 -151 -120 -257t-345 -106z" />
    <glyph glyph-name="T" unicode="T" horiz-adv-x="954" 
d="M944 1176q0 -29 -29 -60t-67 -31h-291v-1085h-61q-55 0 -82 24t-27 82v979h-377v62q0 39 27 65t80 27h827v-63z" />
    <glyph glyph-name="U" unicode="U" horiz-adv-x="1275" 
d="M143 559v678h60q59 0 84 -29t24 -102v-533q0 -229 80 -332t254 -103t248 98t74 323v678h63q102 0 103 -123v-541q0 -285 -128 -439t-371 -152q-243 0 -367 149t-124 428z" />
    <glyph glyph-name="V" unicode="V" horiz-adv-x="1105" 
d="M569 -8q-59 0 -106 82q-147 244 -256 556t-160 607h74q37 0 75 -28t46 -72q43 -211 132 -483t189 -451q105 203 203 499t137 535h80q31 0 51 -20t20 -41t-3 -58q-51 -252 -191 -603t-248 -523h-43z" />
    <glyph glyph-name="W" unicode="W" horiz-adv-x="1751" 
d="M1231 -8q-73 0 -183 282t-178 619q-53 -252 -143 -518t-158 -383h-37q-59 0 -94 57q-266 524 -360 1188h86q40 0 68 -32t36 -77q78 -479 254 -895q188 485 277 963h47q63 0 90 -27t43 -112q96 -463 256 -824q94 231 171 505t101 499h84q29 0 48 -22t19 -50t-13 -104
q-106 -557 -373 -1069h-41z" />
    <glyph glyph-name="X" unicode="X" horiz-adv-x="1181" 
d="M1015 -14q-69 0 -129 50t-157 191l-197 291q-311 -340 -317 -518h-68q-27 0 -47 25t-20 49q0 78 40 163t171 232l160 178l-181 262l-110 158t-99 170h99q84 0 221 -207l188 -285q285 307 342 492h58q27 0 46 -23t19 -61q0 -121 -383 -532l209 -308q111 -162 260 -299
q-36 -28 -105 -28z" />
    <glyph glyph-name="Y" unicode="Y" horiz-adv-x="1011" 
d="M922 1237q65 0 65 -68q0 -57 -143 -291t-248 -360v-518h-61q-104 0 -105 100v416q-116 154 -228 354t-171 367h86q88 0 125 -90q90 -221 284 -504q239 344 328 594h68z" />
    <glyph glyph-name="Z" unicode="Z" horiz-adv-x="1095" 
d="M989 90q0 -38 -30 -64t-76 -26h-656q-47 0 -77 26t-29 76q0 50 42 123q42 74 152 215l353 445q90 115 112 200h-667v35q0 59 29 88q30 29 112 29h641q27 0 53 -27t27 -65q0 -106 -158 -307l-346 -443q-129 -166 -166 -243h684v-62z" />
    <glyph glyph-name="bracketleft" unicode="[" horiz-adv-x="606" 
d="M182 -309v1618h283q47 0 75 -26t27 -73v-30h-231v-1360h129q47 0 75 -26t27 -70v-33h-385z" />
    <glyph glyph-name="backslash" unicode="\" horiz-adv-x="913" 
d="M782 0q-113 0 -157 98l-521 1139h60q43 0 80 -25t53 -59l524 -1153h-39z" />
    <glyph glyph-name="bracketright" unicode="]" horiz-adv-x="604" 
d="M420 1309v-1618h-385v33q-1 44 27 70t75 26h129v1360h-231v30q0 47 27 73q28 26 75 26h283z" />
    <glyph glyph-name="asciicircum" unicode="^" horiz-adv-x="923" 
d="M219 758q-78 0 -78 57q0 33 98 205q97 172 191 289h33q53 0 151 -165t185 -390q-141 2 -168 80q-39 106 -168 325q-160 -264 -221 -401h-23z" />
    <glyph glyph-name="underscore" unicode="_" horiz-adv-x="1028" 
d="M1028 -518h-1028v153h1028v-153z" />
    <glyph glyph-name="grave" unicode="`" horiz-adv-x="1026" 
d="M281 1286q0 92 100 92q145 0 305 -254v-8h-80q-121 0 -223 51t-102 119z" />
    <glyph glyph-name="a" unicode="a" horiz-adv-x="970" 
d="M676 319v115h-127q-272 0 -273 -160q0 -61 56 -103t154 -42q97 0 144 44q46 44 46 146zM834 307q0 -149 -88 -237t-256 -88q-166 0 -271 77q-104 77 -104 213q1 136 113 216t321 79h125v43q0 102 -52 148t-167 45q-203 0 -295 -127h-10v76q0 72 88 134t248 62t254 -90
q93 -90 94 -260v-291z" />
    <glyph glyph-name="b" unicode="b" horiz-adv-x="1107" 
d="M573 131q121 0 191 90t70 255t-74 245t-193 80t-189 -93t-71 -253q0 -160 72 -242t194 -82zM995 481q0 -217 -121 -358q-122 -141 -316 -141t-304 128t-111 334v854h76q35 0 62 -28t26 -80v-426q39 86 119 135t178 49q168 0 280 -125t111 -342z" />
    <glyph glyph-name="c" unicode="c" horiz-adv-x="940" 
d="M827 678h-8q-25 51 -97 87t-140 36q-136 0 -222 -90t-86 -246t94 -245t218 -89q166 0 233 82h8v-68q1 -57 -67 -110t-216 -53t-290 131q-141 131 -141 339t128 352t332 144q109 0 182 -53t72 -150v-67z" />
    <glyph glyph-name="d" unicode="d" horiz-adv-x="1103" 
d="M799 449q0 352 -275 352q-120 0 -186 -87q-66 -88 -66 -238t79 -248t204 -97q125 0 185 75t59 243zM961 494q1 -268 -101 -390t-321 -122q-174 0 -300 138t-126 333q0 239 106 367q105 128 297 128t283 -178v528h43q119 0 119 -129v-675z" />
    <glyph glyph-name="e" unicode="e" horiz-adv-x="1011" 
d="M745 616q0 80 -55 136t-163 55q-109 0 -179 -76t-74 -174l-2 -39l211 4q164 2 213 22t49 72zM547 948q141 0 247 -93t105 -225q0 -132 -82 -184t-313 -53h-230q10 -119 90 -191t207 -73q182 0 283 96h8v-69q0 -78 -81 -126t-232 -48q-190 0 -313 132t-123 344t124 350
q124 140 310 140z" />
    <glyph glyph-name="f" unicode="f" horiz-adv-x="641" 
d="M641 1057h-8q-55 47 -143 47t-128 -44t-40 -147v-114h276v-58q0 -35 -28 -59t-76 -25h-175v-657h-57q-98 0 -98 113v819q0 129 84 225t223 96q78 1 124 -35t46 -77v-84z" />
    <glyph glyph-name="g" unicode="g" horiz-adv-x="1044" 
d="M754 514q0 287 -224 287q-116 0 -188 -81t-72 -192q0 -260 246 -260q110 0 174 68t64 178zM506 123q-176 0 -286 100q-110 99 -110 279t115 313t330 133q162 0 257 -101t95 -294v-256l8 -164q-1 -207 -123 -315t-317 -107q-117 0 -204 52t-87 135v63h13
q106 -100 297 -100q118 -1 194 67t76 197l-10 121v47q-72 -170 -248 -170z" />
    <glyph glyph-name="h" unicode="h" horiz-adv-x="1077" 
d="M891 0q-117 0 -117 102v441q0 253 -210 255q-100 0 -173 -70q-72 -71 -72 -193v-535h-45q-111 0 -110 102v1196h47q113 0 113 -118v-396q88 164 251 164q358 0 359 -399v-549h-43z" />
    <glyph glyph-name="i" unicode="i" horiz-adv-x="579" 
d="M549 86q0 -45 -25 -70t-67 -24q-279 0 -279 276v664h47q45 0 78 -34t33 -91v-516q0 -154 145 -154h68v-51zM367 1167q0 -45 -31 -75t-75 -31q-44 0 -76 31q-31 32 -31 76t31 77q32 33 76 33t75 -33t31 -78z" />
    <glyph glyph-name="j" unicode="j" horiz-adv-x="569" 
d="M385 -18q0 -135 -73 -215t-206 -80q-59 -1 -93 23t-33 57v53l98 8q147 12 147 162v942h49q61 0 86 -29t25 -96v-825zM309 1061q-45 0 -77 31q-32 32 -32 76t32 77t77 33t76 -33t30 -78t-31 -75t-75 -31z" />
    <glyph glyph-name="k" unicode="k" horiz-adv-x="894" 
d="M755 -6q-63 0 -111 48q-96 96 -153 169l-114 143l-80 101v-455h-49q-104 0 -105 125v1173h50q104 0 104 -104v-672q154 193 342 373q35 35 121 35h110v-8q-160 -125 -424 -422q146 -200 248 -306t172 -122q-10 -42 -29 -60t-82 -18z" />
    <glyph glyph-name="l" unicode="l" horiz-adv-x="583" 
d="M573 86q0 -92 -127 -92q-283 0 -282 276v1028h49q49 0 80 -32t31 -90v-887q0 -82 38 -116t109 -34h102v-53z" />
    <glyph glyph-name="m" unicode="m" horiz-adv-x="1597" 
d="M1456 0h-55q-47 0 -76 31t-29 86v411q0 270 -200 271q-115 -1 -166 -63t-51 -204v-532h-54q-106 0 -106 117v411q0 127 -55 199t-154 72q-209 0 -209 -271v-528h-51q-109 0 -109 117v432q-1 168 101 284q102 115 290 115t277 -168q47 76 125 122t168 46q354 0 354 -416
v-532z" />
    <glyph glyph-name="n" unicode="n" horiz-adv-x="1056" 
d="M913 0h-57q-98 0 -98 102v428q0 144 -56 206t-182 63q-219 0 -219 -269v-530h-59q-45 0 -72 28t-27 81v426q0 193 108 303t287 110t277 -103t98 -308v-537z" />
    <glyph glyph-name="o" unicode="o" horiz-adv-x="1077" 
d="M801 446q0 350 -281 351q-112 0 -180 -85t-68 -239t76 -247t201 -93t189 86t63 227zM963 470q0 -220 -114 -354t-302 -134t-311 130t-123 349t116 352q117 133 309 133t308 -128q117 -128 117 -348z" />
    <glyph glyph-name="p" unicode="p" horiz-adv-x="1103" 
d="M580 131q249 0 249 328q0 167 -73 254q-74 86 -198 86t-190 -85t-67 -245q0 -160 78 -249t201 -89zM590 948q160 0 280 -131t121 -347q0 -216 -119 -352t-299 -136q-81 0 -157 46t-111 117v-442h-57q-104 0 -105 121v616q0 242 114 375t333 133z" />
    <glyph glyph-name="q" unicode="q" horiz-adv-x="1101" 
d="M537 131q264 0 264 335t-252 335q-127 0 -202 -93t-75 -245t76 -242t189 -90zM963 -297h-64q-47 0 -74 30t-26 77v346q-31 -74 -109 -124t-172 -50q-166 0 -286 129t-120 341t129 354q128 142 317 142t297 -120t108 -334v-791z" />
    <glyph glyph-name="r" unicode="r" horiz-adv-x="657" 
d="M633 735h-8q-55 47 -147 47t-129 -56q-38 -56 -38 -204v-522h-67q-43 0 -67 30t-23 76v429q0 188 83 291t222 104q90 0 132 -34t42 -85v-76z" />
    <glyph glyph-name="s" unicode="s" horiz-adv-x="882" 
d="M774 283q0 -143 -100 -223t-264 -78q-119 0 -200 52t-81 134v68h8q94 -104 285 -104t190 134q0 59 -46 91t-190 63t-205 83q-60 51 -60 161t101 197t267 87q111 0 192 -47t81 -129v-70h-9q-33 39 -103 68t-148 29q-221 0 -222 -131q0 -51 43 -76t187 -55
q274 -61 274 -254z" />
    <glyph glyph-name="t" unicode="t" horiz-adv-x="681" 
d="M319 1120v-190h322v-53q0 -94 -123 -95h-196v-463q0 -186 153 -186q106 0 148 25h8v-56q0 -120 -162 -120q-161 0 -233 80t-72 243v606q0 78 43 144t94 65h18z" />
    <glyph glyph-name="u" unicode="u" horiz-adv-x="1056" 
d="M913 399q0 -203 -101 -311q-102 -108 -282 -106q-180 0 -283 114t-104 318v518h50q111 0 110 -125v-383q-1 -139 63 -215t172 -76t162 68t56 215v516h43q115 0 114 -125v-408z" />
    <glyph glyph-name="v" unicode="v" horiz-adv-x="929" 
d="M475 -18q-47 0 -80 47q-270 397 -346 903h80q78 0 94 -90q76 -397 258 -680q94 143 175 379t106 391h55q68 0 68 -76q-1 -45 -31 -171t-132 -355q-101 -229 -204 -348h-43z" />
    <glyph glyph-name="w" unicode="w" horiz-adv-x="1452" 
d="M442 -18q-53 0 -82 49q-240 414 -303 901h84q41 0 68 -27t31 -63q53 -348 196 -641q131 244 240 706h49q86 0 106 -94q78 -362 209 -612q72 137 139 361t76 370h50q39 0 63 -22t23 -58q-13 -209 -105 -449t-205 -419q-53 0 -77 9t-41 38q-76 127 -145 299t-85 309
q-27 -147 -107 -351t-151 -306h-33z" />
    <glyph glyph-name="x" unicode="x" horiz-adv-x="905" 
d="M57 932h95q84 0 135 -84q25 -43 157 -252q205 205 228 336h41q33 0 55 -25t20 -73q0 -48 -52 -123q-52 -74 -216 -242l176 -246q94 -133 164 -172v-10q0 -11 -27 -30t-68 -19q-42 0 -75 19t-78 73t-198 281q-66 -70 -99 -111t-71 -114t-43 -140h-72q-65 0 -65 90
q0 50 47 130q47 81 94 134l129 140l-277 424v14z" />
    <glyph glyph-name="y" unicode="y" horiz-adv-x="942" 
d="M229 -307q-51 1 -86 25t-34 55v59h75q61 0 107 40q45 40 121 181q-117 180 -217 420t-142 459h90q76 0 99 -94q76 -344 252 -635q78 133 159 356q82 223 105 373h63q74 0 74 -72q-1 -32 -21 -98q-63 -242 -278 -674q-112 -225 -190 -310t-177 -85z" />
    <glyph glyph-name="z" unicode="z" horiz-adv-x="899" 
d="M817 86q0 -38 -31 -62t-79 -24h-517q-42 0 -72 25t-30 67t29 94q29 51 104 136l318 356q63 76 75 108h-532v56q0 38 28 64t68 26h531q96 0 96 -86t-131 -234l-301 -333q-57 -63 -94 -134h538v-59z" />
    <glyph glyph-name="braceleft" unicode="{" horiz-adv-x="686" 
d="M514 1309q118 0 117 -84v-35q-53 2 -96 2q-94 0 -121 -70t-27 -231l8 -162q0 -100 -39 -150t-123 -67v-4q162 -35 162 -234l-8 -163q0 -164 29 -232t119 -67h16q29 0 57 -28t27 -60v-33h-129q-117 -1 -188 73t-70 207l12 303q0 141 -125 164q-68 12 -67 58v59l67 10
q125 18 125 158l-12 309q0 125 74 201t192 76z" />
    <glyph glyph-name="bar" unicode="|" horiz-adv-x="514" 
d="M307 -309h-39q-28 1 -52 23t-23 59v1536h36q31 1 55 -19t23 -53v-1546z" />
    <glyph glyph-name="braceright" unicode="}" horiz-adv-x="686" 
d="M154 1192q-43 0 -97 -2v35q0 84 118 84q117 0 191 -76t74 -201l-12 -309q0 -139 125 -158l68 -10v-59q0 -45 -68 -58q-125 -23 -125 -164l12 -303q0 -133 -70 -207t-188 -73h-129v33q0 32 28 60t56 28h17q90 0 118 68t29 231l-8 163q0 199 162 234v4q-84 16 -123 66
t-39 151l8 162q0 161 -27 231t-120 70z" />
    <glyph glyph-name="asciitilde" unicode="~" horiz-adv-x="1112" 
d="M946 618q0 -84 -62 -142t-142 -58q-78 0 -189 61t-161 61t-87 -39q-37 -40 -47 -104h-20q-23 -1 -47 19t-23 65q0 103 69 157t138 54t177 -63t167 -64q123 0 135 137h35q21 0 39 -20t18 -64z" />
    <glyph glyph-name="uni00A0" unicode="&#xa0;" horiz-adv-x="245" 
 />
    <glyph glyph-name="exclamdown" unicode="&#xa1;" horiz-adv-x="610" 
d="M281 528q96 0 102 -122l25 -717h-78q-109 0 -109 121l23 718h37zM430 843q0 -54 -38 -91t-92 -37t-92 37t-38 91t38 91t93 37t92 -37t37 -91z" />
    <glyph glyph-name="cent" unicode="&#xa2;" horiz-adv-x="1040" 
d="M684 -8q0 -2 -15 -2t-36 -6v-203q-63 0 -90 13t-27 52v140h14q-154 24 -272 150t-119 314t103 324q104 137 274 168v219h45q72 0 72 -65v-150q97 -8 159 -60t62 -141v-67h-8q-24 51 -96 87t-142 36q-137 0 -222 -90t-85 -246t94 -245q93 -89 231 -89t205 82h9v-68
q0 -45 -39 -91t-123 -62h6z" />
    <glyph glyph-name="sterling" unicode="&#xa3;" horiz-adv-x="1060" 
d="M426 868q0 -70 31 -198h309v-45q0 -41 -28 -63t-66 -21h-195q12 -59 12 -118t-20 -139t-51 -126v-8h532v-54q0 -44 -30 -70t-86 -26h-664v43q0 62 79 146q31 33 55 91t24 116t-19 145h-198v45q0 84 88 84h90q-29 139 -29 198q0 166 109 277t288 110q102 0 174 -55
t72 -135v-86h-8q-25 51 -95 85t-143 34q-231 -1 -231 -230z" />
    <glyph glyph-name="currency" unicode="&#xa4;" horiz-adv-x="1126" 
d="M748 684q0 207 -189 207q-76 0 -127 -58t-51 -155q0 -219 186 -219q77 1 129 61t52 164zM562 336q-76 0 -136 24l-131 -176l-123 88l133 164q-72 84 -72 232t82 233l-143 176l121 86l135 -182q64 33 148 33t147 -33l137 184l117 -88l-141 -178q61 -78 61 -211t-74 -223
l154 -191l-121 -90l-145 197q-73 -45 -149 -45z" />
    <glyph glyph-name="yen" unicode="&#xa5;" horiz-adv-x="1030" 
d="M909 641v-53q0 -32 -20 -54t-62 -22h-231v-168h313v-49q1 -29 -21 -53t-61 -23h-231v-219h-78q-34 0 -58 26t-24 70v123h-309v60q0 66 86 65h223v168h-309v57q0 29 20 51t66 21h215q-272 348 -371 596h72q96 0 123 -59q88 -190 276 -435q223 283 301 494h74q55 0 55 -49
q0 -54 -116 -230t-238 -317h305z" />
    <glyph glyph-name="brokenbar" unicode="&#xa6;" horiz-adv-x="514" 
d="M307 -309h-39q-28 1 -52 23t-23 59v641h36q31 0 55 -20t23 -52v-651zM307 586h-39q-28 0 -52 22t-23 60v641h36q31 1 55 -19t23 -53v-651z" />
    <glyph glyph-name="section" unicode="&#xa7;" horiz-adv-x="1077" 
d="M729 496q0 100 -143 151q-33 12 -189 82q-94 -70 -94 -150t66 -119q37 -24 69 -37t104 -40l115 -45q72 58 72 158zM846 96q0 -319 -375 -319q-113 0 -191 57t-77 129v68h8q113 -98 270 -99q197 0 197 142q0 66 -56 102t-255 105q-205 70 -205 258q0 152 182 223
q-141 74 -141 212t93 219t269 81q104 0 173 -56t69 -126v-45h-8q-86 76 -248 75q-86 0 -135 -35t-49 -92t42 -91t182 -85t214 -119t74 -172q0 -153 -160 -223q127 -88 127 -209z" />
    <glyph glyph-name="dieresis" unicode="&#xa8;" horiz-adv-x="944" 
d="M147 1237q0 45 33 77t78 32t77 -32t32 -77t-32 -78t-77 -33t-78 33t-33 78zM526 1237q0 45 32 77t77 32t78 -32t33 -77t-34 -78q-32 -33 -77 -33t-77 33t-32 78z" />
    <glyph glyph-name="copyright" unicode="&#xa9;" horiz-adv-x="1492" 
d="M979 457v-49q0 -66 -67 -105t-142 -39q-139 0 -235 102q-97 102 -97 263q0 160 94 263t250 103q88 0 144 -49t55 -119v-55h-12q-15 41 -65 73t-118 32q-104 0 -155 -66q-51 -65 -51 -179t57 -180t165 -67q108 0 165 72h12zM1241 623q0 209 -148 357q-149 148 -357 148
t-356 -148t-148 -357t148 -357t356 -149q208 0 357 148q148 149 148 358zM736 1247q258 0 442 -183t184 -442q0 -258 -183 -442t-443 -184t-442 183q-183 183 -183 443t183 442q183 183 442 183z" />
    <glyph glyph-name="ordfeminine" unicode="&#xaa;" horiz-adv-x="774" 
d="M473 897h-78q-85 1 -117 -21t-32 -69q0 -84 114 -84t113 104v70zM129 1071v41q0 56 59 104t179 48q121 0 181 -67t60 -218v-150q0 -100 -62 -163t-161 -64h-47q-104 0 -170 57t-66 144q0 197 293 196h82v33q0 55 -33 81t-112 26q-133 0 -197 -68h-6z" />
    <glyph glyph-name="guillemotleft" unicode="&#xab;" horiz-adv-x="831" 
d="M401 133q-129 0 -182 82l-176 264l176 264q51 78 182 78h27l-215 -342l215 -346h-27zM743 133q-133 0 -182 82l-160 264l160 264q47 78 182 78h27l-197 -342l197 -346h-27z" />
    <glyph glyph-name="logicalnot" unicode="&#xac;" horiz-adv-x="1079" 
d="M1001 729v-532h-149v383h-776v149h925z" />
    <glyph glyph-name="registered" unicode="&#xae;" horiz-adv-x="1492" 
d="M727 881h-41q-2 0 -9 -1l-21 -3q-13 -2 -27 -5v-198q25 -4 61 -4q139 0 139 100q0 111 -102 111zM944 276q-43 0 -74 28t-46 69t-32 83q-18 42 -58 72t-105 35v-287h-51q-88 0 -89 95v594q84 27 177 26h77q101 0 163 -56t63 -155q0 -137 -144 -172q47 -27 103 -129
q10 -20 25 -64q15 -45 21 -57t14 -22q7 -10 11 -17l15 -18q-27 -25 -70 -25zM1241 623q0 209 -148 357q-149 148 -357 148t-356 -148t-148 -357t148 -357t356 -149q208 0 357 148q148 149 148 358zM736 1247q258 0 442 -183t184 -442q0 -258 -183 -442t-443 -184t-442 183
q-183 183 -183 443t183 442q183 183 442 183z" />
    <glyph glyph-name="macron" unicode="&#xaf;" horiz-adv-x="624" 
d="M414 1143h-301v57q0 39 29 67q30 28 83 27h287v-65q0 -39 -26 -63t-72 -23z" />
    <glyph glyph-name="macron" unicode="&#x2c9;" horiz-adv-x="624" 
d="M414 1143h-301v57q0 39 29 67q30 28 83 27h287v-65q0 -39 -26 -63t-72 -23z" />
    <glyph glyph-name="degree" unicode="&#xb0;" horiz-adv-x="784" 
d="M395 1155q-71 0 -109 -53q-38 -52 -38 -116t40 -116t108 -51q68 0 107 49q40 49 40 117t-39 119t-109 51zM394 719q-118 0 -188 75q-70 76 -71 192q0 116 69 193q68 77 190 77t190 -76q68 -74 68 -192t-70 -194t-188 -75z" />
    <glyph glyph-name="plusminus" unicode="&#xb1;" horiz-adv-x="1054" 
d="M872 -2h-749v59q0 37 25 58q26 20 69 20h735v-63q0 -29 -24 -52q-25 -22 -56 -22zM879 700h-269v-366h-47q-33 0 -57 22t-23 74v270h-383v66q0 26 22 48t56 22h305v348h62q25 0 45 -24t20 -62v-262h377v-50q1 -34 -27 -60t-81 -26z" />
    <glyph glyph-name="twosuperior" unicode="&#xb2;" horiz-adv-x="692" 
d="M586 545q0 -74 -105 -74h-358q-33 1 -55 21t-21 51q0 90 146 211l180 149q51 43 51 101t-35 87q-35 30 -98 29q-156 0 -228 -100h-6v57q0 76 65 128q64 52 186 52q122 1 196 -67t74 -157t-34 -139t-128 -124l-121 -96q-51 -39 -72 -72h363v-57z" />
    <glyph glyph-name="threesuperior" unicode="&#xb3;" horiz-adv-x="774" 
d="M655 680q0 -118 -80 -184t-231 -66q-100 0 -165 41t-64 121v61h4q80 -86 229 -86t150 107q0 57 -37 82q-37 24 -123 26t-86 62v51q8 2 86 6q156 6 156 103q0 114 -154 114t-215 -86h-6v70q0 55 66 104q67 49 189 49t200 -61t77 -162q0 -152 -143 -184q55 -10 101 -62
t46 -106z" />
    <glyph glyph-name="acute" unicode="&#xb4;" horiz-adv-x="952" 
d="M283 1143v10q51 113 141 181t136 69q85 0 85 -74q0 -61 -81 -107q-82 -46 -154 -62t-99 -17h-28z" />
    <glyph glyph-name="mu" unicode="&#xb5;" horiz-adv-x="1064" 
d="M606 0q-209 0 -276 164v-432h-60q-109 0 -108 121v1138h90q30 1 54 -29t24 -63v-450q0 -150 70 -231t176 -81q104 0 166 77t63 216v561h76q39 -1 65 -27t25 -65v-448q1 -217 -103 -334t-262 -117z" />
    <glyph glyph-name="mu" unicode="&#x3bc;" horiz-adv-x="1064" 
d="M606 0q-209 0 -276 164v-432h-60q-109 0 -108 121v1138h90q30 1 54 -29t24 -63v-450q0 -150 70 -231t176 -81q104 0 166 77t63 216v561h76q39 -1 65 -27t25 -65v-448q1 -217 -103 -334t-262 -117z" />
    <glyph glyph-name="paragraph" unicode="&#xb6;" horiz-adv-x="993" 
d="M786 -18q-49 0 -69 19t-21 73v997q0 47 -21 64q-22 16 -67 16h-73v-1169h-41q-88 0 -88 92v463h-33q-119 0 -206 106t-87 242q0 182 123 285t352 104q129 0 200 -47t70 -133v-1112h-39z" />
    <glyph glyph-name="periodcentered" unicode="&#xb7;" horiz-adv-x="483" 
d="M123 522q0 49 35 83t84 34t83 -34q33 -34 33 -83t-34 -84t-82 -35q-49 0 -84 35t-35 84z" />
    <glyph glyph-name="periodcentered" unicode="&#x2219;" horiz-adv-x="483" 
d="M123 522q0 49 35 83t84 34t83 -34q33 -34 33 -83t-34 -84t-82 -35q-49 0 -84 35t-35 84z" />
    <glyph glyph-name="cedilla" unicode="&#xb8;" horiz-adv-x="1138" 
d="M590 -285q58 -1 80 11t22 42t-21 41q-22 11 -74 11t-93 -6l49 186h88l-8 -90q193 0 192 -135q0 -162 -223 -162q-184 0 -184 104v43l2 -2h2l6 2q47 -45 162 -45z" />
    <glyph glyph-name="onesuperior" unicode="&#xb9;" horiz-adv-x="630" 
d="M469 463h-63q-41 1 -68 27t-27 75v527l-78 -29q-35 -12 -59 -12q-66 0 -76 59l-8 39l143 63q99 43 143 43q44 -1 68 -27t25 -57v-708z" />
    <glyph glyph-name="ordmasculine" unicode="&#xba;" horiz-adv-x="765" 
d="M375 1130q-66 0 -100 -51t-33 -137q0 -209 147 -209q67 0 101 51t34 136q1 210 -149 210zM382 602q-132 0 -207 93t-75 234t76 237t208 96t208 -94t76 -234q0 -142 -77 -237t-209 -95z" />
    <glyph glyph-name="guillemotright" unicode="&#xbb;" horiz-adv-x="831" 
d="M432 133h-26l215 346l-215 342h26q131 0 182 -78l177 -264l-177 -264q-55 -82 -182 -82zM90 133h-27l197 346l-197 342h27q135 0 182 -78l160 -264l-160 -264q-49 -82 -182 -82z" />
    <glyph glyph-name="onequarter" unicode="&#xbc;" horiz-adv-x="1654" 
d="M1300 319v316q-131 -170 -210 -316h210zM1579 256q0 -68 -66 -68h-65v-188h-55q-92 0 -93 102v86h-270q-38 0 -62 22t-24 64t19 74q55 98 159 244t178 205h54q42 0 68 -29t26 -82v-367h131v-63zM518 0q-18 0 -38 18q-19 18 -19 52t18 71l512 1098h35q27 0 45 -19
q19 -19 19 -45t-9 -40l-526 -1135h-37zM469 463h-63q-41 1 -68 27t-27 75v527l-78 -29q-35 -12 -59 -12q-66 0 -76 59l-8 39l143 63q99 43 143 43q44 -1 68 -27t25 -57v-708z" />
    <glyph glyph-name="onehalf" unicode="&#xbd;" horiz-adv-x="1662" 
d="M518 0q-18 0 -38 18q-19 18 -19 52t18 71l512 1098h35q27 0 45 -19q19 -19 19 -45t-9 -40l-526 -1135h-37zM469 463h-63q-41 1 -68 27t-27 75v527l-78 -29q-35 -12 -59 -12q-66 0 -76 59l-8 39l143 63q99 43 143 43q44 -1 68 -27t25 -57v-708zM1524 76q0 -36 -29 -56
t-76 -20h-358q-33 0 -55 23t-23 53q0 90 145 209l183 147q53 46 53 102t-36 87t-99 30q-154 0 -228 -100h-6v55q-1 76 63 128t186 52t197 -68t75 -155q0 -88 -34 -139t-128 -125l-119 -94q-66 -55 -74 -72h363v-57z" />
    <glyph glyph-name="threequarters" unicode="&#xbe;" horiz-adv-x="1654" 
d="M655 680q0 -118 -80 -184t-231 -66q-100 0 -165 41t-64 121v61h4q80 -86 229 -86t150 107q0 57 -37 82q-37 24 -123 26t-86 62v51q8 2 86 6q156 6 156 103q0 114 -154 114t-215 -86h-6v70q0 55 66 104q67 49 189 49t200 -61t77 -162q0 -152 -143 -184q55 -10 101 -62
t46 -106zM1303 319v316q-131 -170 -211 -316h211zM592 0q-18 0 -37 18q-18 18 -18 52t18 71l510 1098h37q25 0 44 -19t19 -43t-8 -42l-526 -1135h-39zM1581 256q0 -68 -65 -68h-66v-188h-55q-92 0 -92 102v86h-271q-38 0 -62 22t-24 64t19 74q55 98 159 244t179 205h53
q42 0 68 -29t26 -82v-367h131v-63z" />
    <glyph glyph-name="questiondown" unicode="&#xbf;" horiz-adv-x="878" 
d="M266 -20q0 -68 60 -111t144 -43q82 0 132 13t85 41q36 28 52 45t43 55h11v-56q0 -98 -84 -174t-252 -76t-262 85q-95 85 -95 222t131 252l158 140q51 43 51 143v53h62q24 1 50 -29t26 -69q0 -111 -86 -186l-134 -119q-56 -49 -74 -83q-18 -35 -18 -103zM488 971
q54 0 92 -37t38 -91t-38 -91t-92 -37t-92 37t-38 91t38 91t92 37z" />
    <glyph glyph-name="AE" unicode="&#xc6;" horiz-adv-x="1583" 
d="M645 1096q-174 -260 -309 -625h407q-7 103 -39 313t-59 312zM1284 -16h-117q-190 0 -285 85t-116 269h-492q-31 -80 -110 -338h-70q-63 0 -63 57q1 140 201 581q200 440 352 599h938v-57q0 -43 -36 -70t-102 -27h-567q49 -250 66 -374h508v-60q0 -45 -27 -67t-92 -21
h-375l21 -164q18 -147 74 -203t190 -57h102q133 0 238 37v-49q0 -73 -52 -107t-186 -34z" />
    <glyph glyph-name="Eth" unicode="&#xd0;" horiz-adv-x="1234" 
d="M954 622q0 228 -110 351q-111 123 -312 123h-71q-82 0 -154 -17v-389h268v-57q1 -29 -23 -47t-65 -19h-180v-266q0 -162 176 -162h66q190 0 298 128q107 127 107 355zM571 1245q231 0 391 -171q160 -172 160 -450t-156 -455t-399 -177h-110q-154 0 -235 70t-81 192v313
h-151v64q0 59 84 59h67v520q143 35 277 35h153z" />
    <glyph glyph-name="multiply" unicode="&#xd7;" horiz-adv-x="1056" 
d="M886 129q-32 0 -69 37l-274 274l-324 -323l-51 53q-25 20 -25 52t39 71l254 256l-321 321l49 52q61 53 121 -7l258 -258l309 310l49 -52q25 -25 25 -59t-29 -63l-246 -244l344 -344l-53 -51q-24 -25 -56 -25z" />
    <glyph glyph-name="Thorn" unicode="&#xde;" horiz-adv-x="1081" 
d="M164 1237h80q34 0 62 -25t28 -59v-127q86 14 145 14h96q187 0 307 -101t120 -277t-122 -290q-122 -116 -295 -116t-253 53v-309h-62q-106 0 -106 109v1128zM836 641q0 244 -256 244h-97q-75 -1 -149 -17l-2 -417q86 -47 230 -47t208 62q66 64 66 175z" />
    <glyph glyph-name="germandbls" unicode="&#xdf;" horiz-adv-x="1079" 
d="M670 -18q-96 0 -147 38q-50 39 -50 89v65h8q23 -16 80 -30t119 -13q62 0 102 33q39 32 39 112t-78 130l-125 77q-90 55 -90 168q0 51 25 99t61 75l107 82q51 41 51 108t-50 109t-147 41q-264 0 -264 -325v-840h-55q-55 0 -84 35t-29 92v727q0 211 123 333t318 122
q152 0 253 -82t101 -201t-102 -195l-93 -67q-71 -55 -71 -102t53 -80l119 -74q143 -88 143 -230t-86 -218q-86 -78 -231 -78z" />
    <glyph glyph-name="ae" unicode="&#xe6;" horiz-adv-x="1550" 
d="M674 326v104h-127q-262 0 -262 -156q0 -63 50 -103t140 -40t145 51q54 52 54 144zM1278 616q0 90 -55 140t-158 49q-103 0 -167 -79t-64 -191l178 2q216 4 249 31q17 15 17 48zM1438 628q0 -128 -78 -175t-305 -47h-221q0 -123 80 -198t206 -75q188 0 275 94h8v-53
q0 -90 -78 -141q-79 -51 -205 -51t-222 51t-136 127q-98 -176 -305 -176q-147 0 -246 74q-98 75 -98 196q0 309 434 309h125v45q0 100 -54 144t-167 43q-199 0 -289 -123h-12v65q0 85 89 147t228 62q213 0 311 -168q49 80 132 125t177 45q137 0 244 -96t107 -224z" />
    <glyph glyph-name="eth" unicode="&#xf0;" horiz-adv-x="1083" 
d="M803 449q0 350 -277 350q-122 0 -186 -84t-64 -228q0 -356 277 -356q123 -1 187 87t63 231zM967 483q0 -219 -116 -361q-117 -142 -313 -142t-309 138t-113 346t109 343t307 135q80 0 153 -28t103 -80q-49 225 -223 321l-182 -143q-35 30 -35 58t31 52l100 82
q-18 8 -61 18t-68 21q-25 12 -24 37v59l51 -2q61 -4 215 -53l141 115l27 -27q8 -10 8 -31t-15 -40t-43 -38t-36 -28q293 -205 293 -750v-2z" />
    <glyph glyph-name="divide" unicode="&#xf7;" horiz-adv-x="997" 
d="M643 254q0 -57 -37 -93t-92 -36t-94 37t-39 92t39 93t94 38t92 -37t37 -94zM643 950q0 -57 -37 -93t-92 -36t-94 37t-39 92t39 93t94 38t92 -37t37 -94zM850 539h-750v59q0 37 26 57t69 21h735v-64q0 -29 -24 -51t-56 -22z" />
    <glyph glyph-name="logo.001" unicode="&#xfb;" horiz-adv-x="3055" 
d="M954 1112q0 70 -67 70h-33q-25 -2 -35 -2v-125q19 -2 57 -2t58 16t20 43zM1116 780q0 72 69 263t132 262h51q70 0 105 -62q43 -80 94 -241t65 -289h-61q-84 0 -92 65q-2 39 -13 76h-198q-29 -92 -29 -141h-55q-36 0 -53 18q-23 -25 -67 -25t-76 36q-32 34 -45 76
q-35 112 -83 112l-41 6v-223h-49q-92 0 -92 90v481q16 10 70 18t90 9h63q89 0 145 -50t56 -115t-27 -108t-65 -63q23 -19 43 -66l63 -136v7zM1434 973q-20 70 -66 180q-39 -78 -70 -180h136zM1978 803v151h-194v-241h-58q-40 -1 -62 23t-22 67v502h72q31 0 49 -22t19 -54
v-152h196v228h70q28 0 52 -22t24 -54v-516h-62q-36 -1 -60 23t-24 67zM2181 801v504h64q29 0 53 -22t22 -56v-514h-55q-33 -1 -59 23t-25 65zM2900 1305q51 0 85 -35t42 -94q29 -258 29 -463h-60q-88 0 -88 88q0 152 -14 272q0 -2 -2 -8v-4q-8 -19 -24 -71t-27 -79l-27 -92
q-12 -43 -57 -106h-37q-70 0 -107 96l-82 250q-4 2 -6 10q-16 -168 -16 -356h-53q-88 0 -89 88q0 201 48 504h39q127 0 169 -103q90 -264 95 -270l8 26q100 307 149 347h25zM0 801v504h68q28 0 52 -22t23 -56v-514h-59q-32 -1 -58 23t-26 65zM418 961h-76v-97q0 -20 33 -20
h49q74 0 74 51q0 37 -18 51t-62 15zM414 1079q74 0 73 54q0 49 -69 49h-43q-23 -2 -33 -2v-101h72zM434 709h-59q-174 0 -174 147v424q115 29 164 29h67q90 0 144 -45t55 -127q0 -82 -62 -115q72 -49 72 -131q1 -82 -59 -132t-148 -50zM406 80v188h-250v-260h-45
q-25 0 -43 20t-19 52v520h53q20 0 36 -15t18 -38v-180h250v233h51q23 0 39 -15t16 -38v-539h-41q-25 0 -45 20t-20 52zM874 248q-37 123 -92 237q-55 -100 -92 -237h184zM989 8q-29 0 -45 16t-21 31q-5 16 -12 51q-6 35 -10 52h-235q-12 -41 -35 -150h-41q-49 0 -49 60
t71 258q72 199 133 274h33q60 0 142 -181t118 -411h-49zM1595 86q0 164 -24 356q-2 -8 -9 -30q-87 -281 -153 -404h-23q-51 0 -108 160l-92 276q-20 -135 -27 -436h-39q-29 0 -48 22t-19 56q0 219 53 514h43q45 0 79 -34t47 -66t28 -80l26 -88q19 -42 29 -82t22 -62
q0 2 6 26t15 34h-2q82 248 153 352h29q78 0 94 -117q27 -297 29 -475h-45q-64 0 -64 78zM1968 506h-33q-27 0 -53 -6v-338q0 -57 64 -58h32q78 0 121 52t43 141q0 209 -174 209zM1982 8h-49q-158 0 -157 133v445q59 16 139 16h70q111 0 187 -81t77 -214q0 -133 -74 -216
t-193 -83zM2314 80v520h49q21 0 39 -15t19 -38v-539h-43q-64 0 -64 72zM2546 466q0 24 -23 48t-23 52t20 47q19 19 53 19t56 -27q21 -28 21 -83t-31 -92t-82 -37q-7 0 -32 4q41 45 41 69zM2884 385q-88 0 -88 -47q0 -14 19 -24t82 -22q63 -13 101 -48q38 -36 37 -98
q0 -62 -52 -103t-128 -41t-117 29t-41 75l4 68q66 -74 146 -74t80 52q-1 20 -21 30t-86 24t-98 45q-32 30 -33 88q0 58 51 103q52 45 124 45t117 -25q44 -26 44 -73v-47q-94 43 -141 43z" />
    <glyph glyph-name="thorn" unicode="&#xfe;" horiz-adv-x="1140" 
d="M143 -184v1493h52q53 0 85 -33t31 -94v-301q41 51 122 81t175 29q168 0 294 -136q126 -137 126 -363t-124 -368t-311 -142t-282 147v-438h-59q-109 0 -109 125zM606 137q122 0 188 84t66 258t-77 265q-77 92 -200 92t-191 -71t-81 -194v-137q17 -147 95 -222t200 -75z
" />
    <glyph glyph-name="OE" unicode="&#x152;" horiz-adv-x="1972" 
d="M1014 652q0 263 -150 382q-86 68 -238 68t-251 -119t-99 -355t98 -365q98 -128 285 -128q102 0 176 44q73 44 109 120q70 143 70 353zM1806 125q0 -69 -45 -101t-182 -32h-121q-330 0 -399 256q-96 -266 -420 -266q-221 0 -373 169t-152 457t138 468q137 179 401 179
q123 0 233 -61t154 -164q8 98 47 150t103 51h618v-62q0 -35 -24 -61t-74 -27h-506q-27 -135 -26 -372h489v-50q0 -37 -27 -63t-77 -25h-385v-104q0 -182 74 -256t255 -74h72q115 0 227 35v-47z" />
    <glyph glyph-name="oe" unicode="&#x153;" horiz-adv-x="1701" 
d="M801 446q0 354 -281 355q-114 0 -182 -87t-68 -241t77 -249t202 -95t189 88t63 229zM1438 610q0 98 -60 146t-162 49q-102 0 -176 -78t-77 -170v-35l208 4q167 2 217 20t50 64zM1589 626q0 -133 -82 -183t-313 -50h-231q12 -121 91 -193t206 -73q193 0 282 98h10v-51
q0 -90 -81 -141t-218 -51t-231 56t-143 142q-102 -199 -334 -198q-186 0 -309 130t-123 349t116 352q117 133 316 133q236 0 348 -203q47 89 139 147t217 58t233 -94q107 -95 107 -228z" />
    <glyph glyph-name="florin" unicode="&#x192;" horiz-adv-x="1081" 
d="M840 1120q-164 0 -185 -159l-30 -222h256v-49q0 -28 -30 -52t-93 -24h-146l-51 -436q-25 -213 -95 -297t-198 -84q-70 0 -108 27t-37 63v76h10q55 -25 121 -25t102 45q36 44 52 171l51 460h-217v48q0 30 26 54t64 23h143l27 209q39 313 321 314q55 0 90 -30t35 -71v-76
h-8q-45 35 -100 35z" />
    <glyph glyph-name="circumflex" unicode="&#x2c6;" horiz-adv-x="1173" 
d="M311 1171q0 68 58 103l217 127l213 -125q63 -37 63 -105v-73l-278 143l-273 -143v73z" />
    <glyph glyph-name="tilde" unicode="&#x2dc;" horiz-adv-x="778" 
d="M496 1133q-51 0 -123 62t-94 62q-74 0 -74 -127h-51q-18 0 -36 20t-20 56q0 88 54 134t109 46q54 0 98 -32t80 -63q36 -32 57 -31q76 0 75 129h52q21 0 39 -22t18 -56q0 -82 -52 -130t-132 -48z" />
    <glyph glyph-name="comma.arabic" unicode="&#x60c;" horiz-adv-x="421" 
d="M123 177q0 91 62 169t147 78h28q-29 -29 -47 -77t-18 -86t33 -79q32 -41 32 -82q0 -42 -32 -72t-85 -30q-52 0 -86 44t-34 135z" />
    <glyph glyph-name="uni0615" unicode="&#x615;" 
d="M0 252q-57 0 -100 -55t-62 -134h299q-12 189 -137 189zM-281 41v22h50v367h20q45 0 45 -49v-197q56 138 162 138t158 -69t51 -161q0 -92 -31 -92h-410q-45 0 -45 41z" />
    <glyph glyph-name="semicolon.arabic" unicode="&#x61b;" horiz-adv-x="430" 
d="M123 627q0 91 62 169t147 78h28q-29 -28 -47 -76t-18 -86t33 -79q32 -41 32 -82t-32 -72t-85 -31q-52 0 -86 44t-34 135zM250 233q49 -1 84 -35t35 -83t-35 -84t-84 -35t-83 35t-34 84t34 83t83 35z" />
    <glyph glyph-name="questionmark.arabic" unicode="&#x61f;" horiz-adv-x="878" 
d="M350 128q0 56 37 92t92 36t93 -37t38 -92t-38 -91t-93 -36t-92 36t-37 92zM256 964q0 -68 18 -102q18 -35 74 -84l133 -119q86 -76 86 -186q1 -41 -25 -70t-53 -28h-61v53q0 98 -51 143l-156 140q-133 117 -133 253t95 221t263 85t252 -76q82 -76 82 -174v-55h-10
q-36 49 -58 73t-85 52t-157 28t-154 -43t-60 -111z" />
    <glyph glyph-name="kashida" unicode="&#x640;" horiz-adv-x="235" 
d="M0 0v172h266v-172h-266z" />
    <glyph glyph-name="madda" unicode="&#x653;" 
d="M162 121v-39q0 -29 -18.5 -55.5t-49.5 -26.5h-241v63q0 20 14 39t37 19h258z" />
    <glyph glyph-name="hamza_above" unicode="&#x654;" 
d="M27 289q94 0 114 -82q0 -39 -20 -66q-35 86 -101 86q-55 0 -55 -80q0 -57 25 -75h174v-33q0 -14 -12.5 -26.5t-30.5 -12.5h-248q-18 0 -29.5 12.5t-11.5 26.5v33h74q-14 28 -14.5 81.5t36.5 94.5t99 41z" />
    <glyph glyph-name="hamza_below" unicode="&#x655;" 
d="M-106 -133q0 54 36.5 94.5t98.5 40.5q94 0 114 -82q0 -39 -20 -65q-35 86 -100 86q-55 0 -55.5 -68.5t24.5 -87.5h174v-33q0 -14 -12.5 -26.5t-30.5 -12.5h-248q-18 0 -29.5 12.5t-11.5 26.5v33h74q-14 28 -14 82z" />
    <glyph glyph-name="alef_subscript" unicode="&#x656;" 
d="M-57 -25h116v-342q-36 -18 -116 -28v370z" />
    <glyph glyph-name="uni0658" unicode="&#x658;" horiz-adv-x="819" 
d="M510 1847h82q0 -80 -46 -133t-133 -53t-130 53t-43 133h75q4 -43 29 -71t70 -29q44 1 70 27t26 73z" />
    <glyph glyph-name="zero.indic" unicode="&#x660;" horiz-adv-x="518" 
d="M258 477q-57 0 -96 40t-39 95q0 56 39 96t96 40t97 -40t40 -96t-40 -95q-40 -40 -97 -40z" />
    <glyph glyph-name="one.indic" unicode="&#x661;" horiz-adv-x="333" 
d="M252 0h-59q-45 0 -78 30t-33 93v1112q117 -6 170 -59v-1176z" />
    <glyph glyph-name="two.indic" unicode="&#x662;" horiz-adv-x="989" 
d="M770 1063h-375q-137 -12 -137 -162v-901h-55q-69 0 -95 31t-26 106v772q0 141 71 229t201 97h553v-51q-1 -68 -31 -94t-106 -27z" />
    <glyph glyph-name="three.indic" unicode="&#x663;" horiz-adv-x="1247" 
d="M1044 1235q68 0 95 -31t26 -106v-148q0 -190 -85 -292t-224 -103q-139 0 -235 78q-82 -78 -195 -78h-168v-555h-55q-69 0 -95 31t-26 106v1098h55q69 0 95 -31t26 -106v-371h143q129 0 136 154v354h55q68 0 94 -31t27 -106q0 -236 2 -240q-4 -47 -13 -84q86 -49 150 -49
q129 0 137 156v354h55z" />
    <glyph glyph-name="four.indic" unicode="&#x664;" horiz-adv-x="956" 
d="M258 941q0 -54 14 -128t37 -117h512v-51q-1 -69 -31 -95t-104 -26h-383q-45 -84 -45 -157q0 -188 160 -195h456v-53q0 -67 -30 -93t-107 -26h-250q-211 0 -299 97t-88 249t62 266q-80 122 -80 276t93 250t312 97h387v-53q0 -68 -30 -95t-107 -26h-319q-74 -4 -117 -35
t-43 -85z" />
    <glyph glyph-name="five.indic" unicode="&#x665;" horiz-adv-x="1224" 
d="M299 625q0 -453 330 -453q149 0 223 110t74 293q0 80 -32 155t-77 123q-95 101 -166 138l-33 19q-4 0 -36 -16t-79 -52q-48 -35 -93 -79t-78 -107t-33 -131zM82 580q0 94 55 193t122 170t170 151t198 137q516 -337 516 -611t-138 -447q-139 -173 -397 -173t-392 168
t-134 412z" />
    <glyph glyph-name="six.indic" unicode="&#x666;" horiz-adv-x="989" 
d="M219 1063q-77 0 -107 27t-30 94v51l553 -2q131 -10 202 -96t70 -228v-772q-1 -77 -27 -107t-94 -30h-55v901q0 150 -137 162h-375z" />
    <glyph glyph-name="seven.indic" unicode="&#x667;" horiz-adv-x="1011" 
d="M196 1237q18 0 43 -16q24 -16 31 -43l236 -883l235 883q8 27 32 43t42 16t35 -4l80 -23l-301 -1112q-12 -48 -49 -74t-76 -26t-74 26t-47 74l-301 1112l80 23q16 4 34 4z" />
    <glyph glyph-name="eight.indic" unicode="&#x668;" horiz-adv-x="1011" 
d="M505 1235q40 0 76 -26t48 -72l301 -1112l-80 -23q-16 -4 -25 -4q-68 0 -84 59l-235 883l-236 -883q-16 -59 -84 -59q-8 0 -24 4l-80 23l301 1112q12 47 47 73t75 25z" />
    <glyph glyph-name="nine.indic" unicode="&#x669;" horiz-adv-x="927" 
d="M246 858q0 -161 83 -230q65 -54 216 -67q57 -4 143 -4v153q0 117 -17 197t-36 105q-20 24 -54 55t-128 31q-95 0 -151 -72t-56 -168zM844 0h-60q-46 0 -78 30t-32 93v262q-592 18 -592 422q0 209 105 329t289 120t264 -111q81 -110 96 -277q15 -168 8 -317v-551z" />
    <glyph glyph-name="percentsign.arabic" unicode="&#x66a;" horiz-adv-x="1001" 
d="M899 122q0 -56 -37 -92t-92 -36t-93 36t-38 91t38 92t93 37t92 -36t37 -92zM352 1107q0 -56 -37 -92t-92 -36t-93 36t-38 91t38 92t93 37t92 -36t37 -92zM209 0q-59 0 -59 49q0 31 20 78l504 1110h49q19 0 37 -22t18 -48t-10 -53l-508 -1114h-51z" />
    <glyph glyph-name="decimal.arabic" unicode="&#x66b;" horiz-adv-x="614" 
d="M356 56q0 -90 -62 -170t-147 -79h-28q29 29 47 77t18 86t-32 79t-33 82q0 41 33 72q32 31 84 31t86 -44t34 -134z" />
    <glyph glyph-name="thousands.arabic" unicode="&#x66c;" horiz-adv-x="614" 
d="M352 916q0 -90 -62 -170t-147 -78h-28q29 28 47 76t18 86t-33 79t-33 82t33 72t85 31t86 -44t34 -134z" />
    <glyph glyph-name="fivept_star.arabic" unicode="&#x66d;" horiz-adv-x="1236" 
d="M532 891h166l-24 -340l315 125l58 -156l-332 -82l213 -266l-129 -98l-185 293l-186 -295l-129 100l215 264l-332 84l54 154l296 -125v342z" />
    <glyph glyph-name="alef_superscript" unicode="&#x670;" 
d="M55 0h-39q-29 0 -52 22.5t-23 59.5v389h36q31 0 54.5 -19.5t23.5 -52.5v-399z" />
    <glyph glyph-name="uni06C3" unicode="&#x6c3;" horiz-adv-x="950" 
d="M354 1010q-40 0 -70 28t-30 70q0 41 30 70q30 28 70 28t70 -28q29 -28 29 -70t-29 -70t-70 -28zM709 1108q0 -42 -30 -70t-71 -28q-40 0 -70 28t-30 70q0 41 30 70q30 28 70 28t71 -28q30 -28 30 -70zM489 152q228 0 228 278q1 132 -63 208t-174 77q-110 0 -166 -84
q-58 -84 -58 -204q0 -119 57 -197t176 -78zM82 432q0 186 108 312t296 126q186 0 294 -135t109 -321q0 -186 -109 -300t-297 -114t-295 123q-106 123 -106 309z" />
    <glyph glyph-name="arabicae" unicode="&#x6d5;" horiz-adv-x="970" 
d="M489 152q228 0 228 278q1 132 -63 208t-174 77q-110 0 -166 -84q-58 -84 -58 -204q0 -119 57 -197t176 -78zM82 432q0 186 108 312t296 126q186 0 294 -135t109 -321q0 -186 -109 -300t-297 -114t-295 123q-106 123 -106 309z" />
    <glyph glyph-name="zero_ext.indic" unicode="&#x6f0;" horiz-adv-x="518" 
d="M276 475q-57 0 -96 40t-39 95q0 56 39 96t96 40t98 -40q40 -40 40 -96t-40 -95q-40 -40 -98 -40z" />
    <glyph glyph-name="one_ext.indic" unicode="&#x6f1;" horiz-adv-x="333" 
d="M252 0h-59q-45 0 -78 30t-33 93v1112q117 -6 170 -59v-1176z" />
    <glyph glyph-name="two_ext.indic" unicode="&#x6f2;" horiz-adv-x="989" 
d="M770 1063h-375q-137 -12 -137 -162v-901h-55q-69 0 -95 31t-26 106v772q0 141 71 229t201 97h553v-51q-1 -68 -31 -94t-106 -27z" />
    <glyph glyph-name="three_ext.indic" unicode="&#x6f3;" horiz-adv-x="1247" 
d="M1044 1235q68 0 95 -31t26 -106v-271q0 -190 -85 -292q-85 -103 -224 -103t-235 78q-82 -78 -195 -78h-168v-432h-55q-69 0 -95 31t-26 106v1098h55q69 0 95 -31t26 -106v-494h143q129 0 136 154v477h55q68 0 94 -31t27 -106q0 -358 2 -363q-4 -47 -13 -84
q86 -49 150 -49q129 0 137 156v477h55z" />
    <glyph glyph-name="four_ext.indic" unicode="&#x6f4;" horiz-adv-x="956" 
d="M258 941q0 -54 14 -128t37 -117h512v-51q-1 -69 -31 -95t-104 -26h-383q-45 -84 -45 -157q0 -188 160 -195h456v-53q0 -67 -30 -93t-107 -26h-250q-211 0 -299 97t-88 249t62 266q-80 122 -80 276t93 250t312 97h387v-53q0 -68 -30 -95t-107 -26h-319q-74 -4 -117 -35
t-43 -85z" />
    <glyph glyph-name="five_ext.indic" unicode="&#x6f5;" horiz-adv-x="1224" 
d="M299 625q0 -453 330 -453q149 0 223 110t74 293q0 80 -32 155t-77 123q-95 101 -166 138l-33 19q-4 0 -36 -16t-79 -52q-48 -35 -93 -79t-78 -107t-33 -131zM82 580q0 94 55 193t122 170t170 151t198 137q516 -337 516 -611t-138 -447q-139 -173 -397 -173t-392 168
t-134 412z" />
    <glyph glyph-name="six_ext.indic" unicode="&#x6f6;" horiz-adv-x="989" 
d="M219 1063q-77 0 -107 27t-30 94v51h553q131 -10 202 -97t70 -229v-772q-1 -77 -27 -107t-94 -30h-55v901q0 150 -137 162h-375z" />
    <glyph glyph-name="seven_ext.indic" unicode="&#x6f7;" horiz-adv-x="1011" 
d="M196 1237q18 0 43 -16q24 -16 31 -43l236 -883l235 883q8 27 32 43t42 16t35 -4l80 -23l-301 -1112q-12 -48 -49 -74t-76 -26t-74 26t-47 74l-301 1112l80 23q16 4 34 4z" />
    <glyph glyph-name="eight_ext.indic" unicode="&#x6f8;" horiz-adv-x="1011" 
d="M505 1235q40 0 76 -26t48 -72l301 -1112l-80 -23q-16 -4 -25 -4q-68 0 -84 59l-235 883l-236 -883q-16 -59 -84 -59q-8 0 -24 4l-80 23l301 1112q12 47 47 73t75 25z" />
    <glyph glyph-name="nine_ext.indic" unicode="&#x6f9;" horiz-adv-x="927" 
d="M246 858q0 -161 83 -230q65 -54 216 -67q57 -4 143 -4v153q0 117 -17 197t-36 105q-20 24 -54 55t-128 31q-95 0 -151 -72t-56 -168zM844 0h-60q-46 0 -78 30t-32 93v262q-592 18 -592 422q0 209 105 329t289 120t264 -111q81 -110 96 -277q15 -168 8 -317v-551z" />
    <glyph glyph-name="endash" unicode="&#x2013;" horiz-adv-x="1073" 
d="M829 487h-665v43q0 98 104 99h645v-66q1 -29 -23 -53t-61 -23z" />
    <glyph glyph-name="emdash" unicode="&#x2014;" horiz-adv-x="1882" 
d="M1649 487h-1536v43q0 98 104 99h1516v-66q1 -29 -23 -53t-61 -23z" />
    <glyph glyph-name="quoteleft" unicode="&#x2018;" horiz-adv-x="509" 
d="M281 1155q0 -47 49 -101t49 -102t-33 -80t-92 -32t-97 51t-38 167q-1 116 67 200t183 88v-11q-88 -94 -88 -180z" />
    <glyph glyph-name="quoteright" unicode="&#x2019;" horiz-adv-x="532" 
d="M252 995q0 45 -50 99t-50 102q0 47 32 80t92 33q60 1 99 -51t39 -168t-68 -198q-68 -83 -184 -89v12q90 90 90 180z" />
    <glyph glyph-name="quotesinglbase" unicode="&#x201a;" horiz-adv-x="491" 
d="M242 266q66 0 108 -54t41 -162q0 -110 -75 -204t-177 -94h-49v10q35 33 60 88q24 54 24 98t-39 91t-39 98t40 90t106 39z" />
    <glyph glyph-name="quotedblleft" unicode="&#x201c;" horiz-adv-x="800" 
d="M240 1155q0 -47 50 -101t50 -102t-34 -80t-92 -32t-97 52t-39 166t68 200q68 84 182 88v-11q-88 -94 -88 -180zM600 1155q0 -45 49 -100t49 -103t-32 -80t-92 -32q-58 0 -97 52t-39 166t68 200q68 84 182 88v-11q-88 -94 -88 -180z" />
    <glyph glyph-name="quotedblright" unicode="&#x201d;" horiz-adv-x="802" 
d="M561 1030q0 48 -50 102t-50 101t34 80t92 33t97 -52t39 -168q1 -114 -67 -198t-183 -88v10q88 94 88 180zM201 1030q0 47 -49 100q-50 54 -50 102t33 81t91 33t98 -52t38 -168q0 -114 -67 -198t-182 -88v10q88 94 88 180z" />
    <glyph glyph-name="quotedblbase" unicode="&#x201e;" horiz-adv-x="792" 
d="M252 -92q0 45 -50 99t-50 101t32 80t92 33t99 -51t39 -167t-68 -199t-184 -89v13q90 90 90 180zM688 -92q0 45 -50 99t-50 101t33 80t92 33t98 -51t39 -167t-68 -199t-184 -89v13q90 90 90 180z" />
    <glyph glyph-name="dagger" unicode="&#x2020;" horiz-adv-x="911" 
d="M735 831h-209v-1101h-49q-37 0 -63 26t-25 70v1005h-303v50q0 37 26 65t66 29h211v375h45q39 0 66 -27t26 -70v-278h303v-57q-1 -37 -27 -62t-67 -25z" />
    <glyph glyph-name="daggerdbl" unicode="&#x2021;" horiz-adv-x="911" 
d="M717 197h-191v-508h-49q-43 1 -65 27t-23 69v412h-303v51q0 38 26 66t66 28h211v485h-303v52q0 37 26 65t66 29h211v334h64q35 0 54 -22t19 -56v-256h303v-47q-1 -45 -29 -72t-83 -27h-191v-485h303v-47q0 -45 -28 -72q-29 -26 -84 -26z" />
    <glyph glyph-name="bullet" unicode="&#x2022;" horiz-adv-x="624" 
d="M485 657q0 -71 -50 -121t-122 -50t-123 50q-51 51 -51 122t51 122t123 51t122 -51t50 -123z" />
    <glyph glyph-name="ellipsis" unicode="&#x2026;" horiz-adv-x="1497" 
d="M395 127q0 -55 -37 -91t-92 -36t-93 36t-38 91t38 92t93 37t92 -37t37 -92zM885 128q0 -56 -37 -92t-92 -36t-93 36t-38 91t38 92t93 37t92 -36t37 -92zM1376 128q0 -56 -37 -92t-92 -36t-93 36t-38 91t38 92t93 37t92 -36t37 -92z" />
    <glyph glyph-name="perthousand" unicode="&#x2030;" horiz-adv-x="2578" 
d="M1417 635q-75 0 -109 -70t-34 -174q0 -270 158 -270q74 -1 108 69t35 175q0 270 -158 270zM2142 635q-76 0 -110 -70t-33 -174q0 -270 155 -270q74 -1 109 69t35 175q0 270 -156 270zM410 1116q-76 0 -111 -70t-35 -174q0 -268 158 -268q74 0 108 69t35 173
q1 270 -155 270zM1423 -18q-137 0 -217 110t-80 283t82 285t220 112t216 -108t78 -282q0 -172 -81 -286t-218 -114zM2146 -18q-137 0 -216 110t-79 283t81 285q80 112 218 112t216 -108t79 -282q0 -172 -81 -286t-218 -114zM643 0q-59 0 -59 49q0 31 20 78l504 1110h49
q19 0 37 -22t18 -48t-10 -53l-508 -1114h-51zM713 864q0 -172 -81 -286t-218 -115q-137 1 -216 111t-79 282t81 286t218 114t216 -110t79 -282z" />
    <glyph glyph-name="guilsinglleft" unicode="&#x2039;" horiz-adv-x="632" 
d="M453 168q-133 0 -191 82l-178 260l178 262q53 78 191 78h75l-217 -340l217 -342h-75z" />
    <glyph glyph-name="guilsinglright" unicode="&#x203a;" horiz-adv-x="645" 
d="M137 133h-24l215 346l-215 342h24q133 0 185 -78l176 -264l-176 -264q-56 -82 -185 -82z" />
    <glyph glyph-name="Euro" unicode="&#x20ac;" horiz-adv-x="1056" 
d="M979 190q0 -84 -82 -146t-209 -62q-182 0 -317 131t-152 336h-162v61q0 25 22 38t44 13h88q-2 31 -2 51l2 60h-154v55q1 23 21 40t45 17h94q27 207 162 339t323 132q117 1 197 -67t80 -154v-53h-8q-35 47 -107 84t-135 37q-309 0 -344 -318h422v-47q-1 -27 -21 -46
t-47 -19h-364q-4 -37 -4 -60l4 -51h432v-49q1 -23 -19 -43t-49 -20h-358q16 -162 109 -238t237 -76q61 0 133 31t111 76h8v-52z" />
    <glyph glyph-name="trademark" unicode="&#x2122;" horiz-adv-x="1482" 
d="M479 1128h-100v-540h-66q-88 0 -88 84v456h-182v58q0 28 23 52t65 24h434v-52q1 -26 -25 -54t-61 -28zM1329 596q-63 0 -78 37q-14 37 -20 198t-14 269q-102 -371 -125 -423q-23 -53 -39 -83h-35q-49 0 -78 60q-42 88 -147 448q-20 -309 -21 -508l-55 2q-39 2 -64 27
t-24 67q0 293 49 576h35q67 0 113 -31t63 -74q49 -115 121 -366l34 109l38 120q63 205 124 244h11q127 0 143 -144q33 -281 33 -528h-64z" />
    <glyph glyph-name="minus" unicode="&#x2212;" horiz-adv-x="1073" 
d="M829 487h-665v43q0 98 104 99h645v-66q1 -29 -23 -53t-61 -23z" />
    <glyph glyph-name="notequal" unicode="&#x2260;" horiz-adv-x="1071" 
d="M362 23q-59 0 -59 49q0 31 21 78l57 124h-207v66q0 72 80 72h188l115 250h-383v65q0 72 80 72h367l120 264h50q20 0 37 -22q31 -40 8 -101l-66 -141h150v-70q0 -29 -23 -48t-55 -19h-135l-115 -250h328v-70q0 -29 -23 -48t-55 -20h-314l-114 -251h-52z" />
    <glyph glyph-name="parenthesis_left_ornate" unicode="&#xfd3e;" horiz-adv-x="659" 
d="M555 -307q-59 0 -134 55q-180 132 -262 405q-48 157 -48 348t61 381q60 190 166 308q106 119 223 119h64q-164 -169 -248 -353t-84 -430q0 -508 321 -833h-59z" />
    <glyph glyph-name="parenthesis_right_ornate" unicode="&#xfd3f;" horiz-adv-x="659" 
d="M180 -307h-59q322 326 321 833q0 246 -84 430t-247 353h63q117 0 221 -119q105 -119 167 -309t62 -381q0 -192 -47 -348q-83 -270 -263 -404q-75 -55 -134 -55z" />
    <glyph glyph-name="CR" horiz-adv-x="1024" 
 />
    <glyph glyph-name="uni00AD" horiz-adv-x="665" 
d="M557 592q0 -43 -26 -74t-66 -31h-354v56q-1 39 29 69t73 29h344v-49z" />
    <glyph glyph-name="zero.basic" horiz-adv-x="1056" 
d="M530 137q118 1 196 109q77 108 77 368t-70 374q-70 112 -203 112q-272 0 -272 -459q0 -260 77 -382t195 -122zM539 1255q186 -1 307 -153t121 -474t-117 -485q-117 -164 -332 -163q-186 0 -308 164t-122 468q0 303 113 473t338 170z" />
    <glyph glyph-name="one.basic" horiz-adv-x="684" 
d="M479 0h-59q-109 0 -109 123v940l-186 -86q-20 -10 -46 -10q-25 0 -47 12t-26 33l-16 61l188 96q131 68 205 68q39 0 68 -25t28 -61v-1151z" />
    <glyph glyph-name="two.basic" horiz-adv-x="1064" 
d="M211 0q-82 0 -82 91q0 51 37 105t166 169l260 229q86 76 121 138t35 134q0 113 -69 174t-198 62q-225 0 -331 -184h-13v75q1 103 101 183t274 80t289 -105t115 -249t-55 -230q-54 -86 -187 -199l-250 -213q-72 -61 -105 -106h627v-60q0 -34 -26 -64t-82 -30h-627z" />
    <glyph glyph-name="three.basic" horiz-adv-x="1044" 
d="M920 367q0 -181 -111 -283t-336 -102q-149 0 -257 70t-107 173v76h10q127 -166 366 -166q266 0 267 211q0 217 -330 217q-84 0 -84 80v47q227 0 313 45t86 162q0 205 -284 205q-125 0 -210 -47t-124 -119h-13v72q0 86 104 167t286 81q184 0 297 -95q113 -94 112 -241
q0 -231 -258 -283q117 -23 195 -99t78 -171z" />
    <glyph glyph-name="four.basic" horiz-adv-x="1050" 
d="M639 446v631q-78 -90 -210 -291t-200 -340h410zM1006 393q0 -86 -93 -86h-106v-307h-59q-47 0 -78 29t-31 86v192h-438q-55 0 -90 27q-35 28 -35 68t10 65q82 178 258 426t281 344h69q49 0 81 -33t32 -104v-654h199v-53z" />
    <glyph glyph-name="five.basic" horiz-adv-x="1067" 
d="M539 750q203 0 315 -96t111 -274q0 -180 -120 -290t-331 -108q-156 0 -252 68t-96 159v57h10q113 -131 348 -131q272 0 273 242q0 125 -73 177q-74 52 -230 52t-314 -51v510q0 172 158 172h571v-55q0 -98 -108 -99h-469v-360q117 27 207 27z" />
    <glyph glyph-name="six.basic" horiz-adv-x="1058" 
d="M552 127q124 -1 190 69t65 195q0 250 -254 250q-123 0 -198 -69t-74 -146q-1 -133 73 -216t198 -83zM584 788q178 0 284 -108t105 -288q0 -179 -118 -295q-118 -115 -310 -115t-315 148q-122 148 -122 444t141 489q140 193 380 192q135 0 210 -58t74 -134v-53h-10
q-53 50 -112 74t-164 24q-164 0 -258 -127t-95 -383q31 78 119 134t191 56z" />
    <glyph glyph-name="seven.basic" horiz-adv-x="1062" 
d="M938 1145q0 -78 -115 -301l-245 -479q-70 -133 -70 -291v-74h-68q-98 0 -98 113q0 145 84 299l252 469q72 135 88 202h-660v54q0 100 105 100h620q107 0 107 -92z" />
    <glyph glyph-name="eight.basic" horiz-adv-x="1058" 
d="M809 345q0 95 -67 155q-68 60 -196 61q-128 0 -197 -60q-69 -61 -69 -155t74 -152q72 -58 199 -58t191 56q64 58 65 153zM793 901q0 91 -66 149q-67 58 -187 58t-182 -54t-61 -148q0 -94 67 -149q67 -54 189 -55q240 0 240 199zM977 356q0 -158 -111 -266
q-112 -108 -320 -108t-320 100t-111 252q0 96 60 178t179 115q-223 72 -223 264q0 160 112 262t299 102t302 -93t114 -244q0 -117 -58 -183t-173 -94q113 -27 181 -114t69 -171z" />
    <glyph glyph-name="nine.basic" horiz-adv-x="1056" 
d="M782 797q0 309 -269 309q-132 0 -200 -74t-67 -188q0 -272 276 -273q121 0 191 68q69 68 69 158zM950 668q0 -352 -109 -520q-110 -167 -347 -166q-158 0 -258 66t-101 185v56h10q106 -158 351 -158q152 0 220 114t68 347q-40 -74 -116 -118t-170 -44q-196 0 -306 114
t-110 288t126 298q126 125 308 125q434 1 434 -587z" />
    <glyph glyph-name="Euro.basic" horiz-adv-x="1056" 
d="M979 190q0 -84 -82 -146t-209 -62q-182 0 -317 131t-152 336h-162v61q0 25 22 38t44 13h88q-2 31 -2 51l2 60h-154v55q1 23 21 40t45 17h94q27 207 162 339t323 132q117 1 197 -67t80 -154v-53h-8q-35 47 -107 84t-135 37q-309 0 -344 -318h422v-47q-1 -27 -21 -46
t-47 -19h-364q-4 -37 -4 -60l4 -51h432v-49q1 -23 -19 -43t-49 -20h-358q16 -162 109 -238t237 -76q61 0 133 31t111 76h8v-52z" />
    <glyph glyph-name="dollar.basic" horiz-adv-x="1064" 
d="M578 -219h-37q-39 0 -54 14q-14 14 -14 51v152q-143 2 -243 75q-99 73 -99 169v75h10q123 -172 355 -172q150 -1 216 47t66 150q0 68 -22 102q-45 70 -334 140q-147 34 -227 100t-80 198t95 230q95 100 263 123v238h29q76 0 76 -66v-168q98 0 168 -27q70 -28 102 -68
q59 -72 59 -134v-58h-14q-57 74 -133 108t-199 34t-204 -44t-81 -140t65 -136q65 -39 284 -94q145 -37 230 -112t84 -213t-95 -234t-266 -117v-223z" />
    <glyph glyph-name="cent.basic" horiz-adv-x="1040" 
d="M684 -8q0 -2 -15 -2t-36 -6v-203q-63 0 -90 13t-27 52v140h14q-154 24 -272 150t-119 314t103 324q104 137 274 168v219h45q72 0 72 -65v-150q97 -8 159 -60t62 -141v-67h-8q-24 51 -96 87t-142 36q-137 0 -222 -90t-85 -246t94 -245q93 -89 231 -89t205 82h9v-68
q0 -45 -39 -91t-123 -62h6z" />
    <glyph glyph-name="sterling.basic" horiz-adv-x="1060" 
d="M426 868q0 -70 31 -198h309v-45q0 -41 -28 -63t-66 -21h-195q12 -59 12 -118t-20 -139t-51 -126v-8h532v-54q0 -44 -30 -70t-86 -26h-664v43q0 62 79 146q31 33 55 91t24 116t-19 145h-198v45q0 84 88 84h90q-29 139 -29 198q0 166 109 277t288 110q102 0 174 -55
t72 -135v-86h-8q-25 51 -95 85t-143 34q-231 -1 -231 -230z" />
    <glyph glyph-name="florin.basic" horiz-adv-x="1081" 
d="M840 1120q-164 0 -185 -159l-30 -222h256v-49q0 -28 -30 -52t-93 -24h-146l-51 -436q-25 -213 -95 -297t-198 -84q-70 0 -108 27t-37 63v76h10q55 -25 121 -25t102 45q36 44 52 171l51 460h-217v48q0 30 26 54t64 23h143l27 209q39 313 321 314q55 0 90 -30t35 -71v-76
h-8q-45 35 -100 35z" />
    <glyph glyph-name="yen.basic" horiz-adv-x="1030" 
d="M909 641v-53q0 -32 -20 -54t-62 -22h-231v-168h313v-49q1 -29 -21 -53t-61 -23h-231v-219h-78q-34 0 -58 26t-24 70v123h-309v60q0 66 86 65h223v168h-309v57q0 29 20 51t66 21h215q-272 348 -371 596h72q96 0 123 -59q88 -190 276 -435q223 283 301 494h74q55 0 55 -49
q0 -54 -116 -230t-238 -317h305z" />
    <glyph glyph-name="numbersign.basic" horiz-adv-x="1064" 
d="M428 784l-55 -319h254l57 319h-256zM889 784h-82l-55 -319h151v-25q0 -90 -94 -90h-80l-65 -350h-41q-68 0 -68 66q0 18 6 49l43 235h-254l-61 -350h-45q-66 0 -66 68q0 23 6 49l43 233h-164v27q0 88 93 88h94l57 319h-164v25q0 88 93 88h90l63 356h29q80 0 80 -73
q0 -8 -4 -37l-45 -246h253l64 356h27q82 0 81 -79q0 -12 -4 -37l-43 -240h158v-23q0 -90 -96 -90z" />
    <glyph glyph-name="percent.basic" horiz-adv-x="1847" 
d="M1413 635q-75 0 -109 -70t-34 -174q0 -270 157 -270q74 -1 109 69t35 175q0 270 -158 270zM406 1116q-76 0 -111 -70t-35 -174q0 -268 158 -268q74 0 108 69t35 173q1 270 -155 270zM1419 -18q-137 0 -217 110t-80 283t82 285t220 112t216 -108t78 -282q0 -172 -81 -286
t-218 -114zM639 0q-59 0 -59 49q0 31 20 78l504 1110h49q19 0 37 -22t18 -48t-10 -53l-508 -1114h-51zM709 864q1 -172 -81 -286t-219 -115q-137 1 -215 111t-79 282q0 172 81 286t218 114t216 -110t79 -282z" />
    <glyph glyph-name="perthousand.basic" horiz-adv-x="2578" 
d="M1417 635q-75 0 -109 -70t-34 -174q0 -270 158 -270q74 -1 108 69t35 175q0 270 -158 270zM2142 635q-76 0 -110 -70t-33 -174q0 -270 155 -270q74 -1 109 69t35 175q0 270 -156 270zM410 1116q-76 0 -111 -70t-35 -174q0 -268 158 -268q74 0 108 69t35 173
q1 270 -155 270zM1423 -18q-137 0 -217 110t-80 283t82 285t220 112t216 -108t78 -282q0 -172 -81 -286t-218 -114zM2146 -18q-137 0 -216 110t-79 283t81 285q80 112 218 112t216 -108t79 -282q0 -172 -81 -286t-218 -114zM643 0q-59 0 -59 49q0 31 20 78l504 1110h49
q19 0 37 -22t18 -48t-10 -53l-508 -1114h-51zM713 864q0 -172 -81 -286t-218 -115q-137 1 -216 111t-79 282t81 286t218 114t216 -110t79 -282z" />
    <glyph glyph-name="zero.onum" horiz-adv-x="1056" 
d="M530 137q118 1 196 109q77 108 77 368t-70 374q-70 112 -203 112q-272 0 -272 -459q0 -260 77 -382t195 -122zM539 1255q186 -1 307 -153t121 -474t-117 -485q-117 -164 -332 -163q-186 0 -308 164t-122 468q0 303 113 473t338 170z" />
    <glyph glyph-name="one.onum" horiz-adv-x="684" 
d="M479 0h-59q-109 0 -109 123v940l-186 -86q-20 -10 -46 -10q-25 0 -47 12t-26 33l-16 61l188 96q131 68 205 68q39 0 68 -25t28 -61v-1151z" />
    <glyph glyph-name="two.onum" horiz-adv-x="1064" 
d="M211 0q-82 0 -82 91q0 51 37 105t166 169l260 229q86 76 121 138t35 134q0 113 -69 174t-198 62q-225 0 -331 -184h-13v75q1 103 101 183t274 80t289 -105t115 -249t-55 -230q-54 -86 -187 -199l-250 -213q-72 -61 -105 -106h627v-60q0 -34 -26 -64t-82 -30h-627z" />
    <glyph glyph-name="three.onum" horiz-adv-x="1044" 
d="M920 367q0 -181 -111 -283t-336 -102q-149 0 -257 70t-107 173v76h10q127 -166 366 -166q266 0 267 211q0 217 -330 217q-84 0 -84 80v47q227 0 313 45t86 162q0 205 -284 205q-125 0 -210 -47t-124 -119h-13v72q0 86 104 167t286 81q184 0 297 -95q113 -94 112 -241
q0 -231 -258 -283q117 -23 195 -99t78 -171z" />
    <glyph glyph-name="four.onum" horiz-adv-x="1050" 
d="M639 446v631q-78 -90 -210 -291t-200 -340h410zM1006 393q0 -86 -93 -86h-106v-307h-59q-47 0 -78 29t-31 86v192h-438q-55 0 -90 27q-35 28 -35 68t10 65q82 178 258 426t281 344h69q49 0 81 -33t32 -104v-654h199v-53z" />
    <glyph glyph-name="five.onum" horiz-adv-x="1067" 
d="M539 750q203 0 315 -96t111 -274q0 -180 -120 -290t-331 -108q-156 0 -252 68t-96 159v57h10q113 -131 348 -131q272 0 273 242q0 125 -73 177q-74 52 -230 52t-314 -51v510q0 172 158 172h571v-55q0 -98 -108 -99h-469v-360q117 27 207 27z" />
    <glyph glyph-name="six.onum" horiz-adv-x="1058" 
d="M552 127q124 -1 190 69t65 195q0 250 -254 250q-123 0 -198 -69t-74 -146q-1 -133 73 -216t198 -83zM584 788q178 0 284 -108t105 -288q0 -179 -118 -295q-118 -115 -310 -115t-315 148q-122 148 -122 444t141 489q140 193 380 192q135 0 210 -58t74 -134v-53h-10
q-53 50 -112 74t-164 24q-164 0 -258 -127t-95 -383q31 78 119 134t191 56z" />
    <glyph glyph-name="seven.onum" horiz-adv-x="1062" 
d="M938 1145q0 -78 -115 -301l-245 -479q-70 -133 -70 -291v-74h-68q-98 0 -98 113q0 145 84 299l252 469q72 135 88 202h-660v54q0 100 105 100h620q107 0 107 -92z" />
    <glyph glyph-name="eight.onum" horiz-adv-x="1058" 
d="M809 345q0 95 -67 155q-68 60 -196 61q-128 0 -197 -60q-69 -61 -69 -155t74 -152q72 -58 199 -58t191 56q64 58 65 153zM793 901q0 91 -66 149q-67 58 -187 58t-182 -54t-61 -148q0 -94 67 -149q67 -54 189 -55q240 0 240 199zM977 356q0 -158 -111 -266
q-112 -108 -320 -108t-320 100t-111 252q0 96 60 178t179 115q-223 72 -223 264q0 160 112 262t299 102t302 -93t114 -244q0 -117 -58 -183t-173 -94q113 -27 181 -114t69 -171z" />
    <glyph glyph-name="nine.onum" horiz-adv-x="1056" 
d="M782 797q0 309 -269 309q-132 0 -200 -74t-67 -188q0 -272 276 -273q121 0 191 68q69 68 69 158zM950 668q0 -352 -109 -520q-110 -167 -347 -166q-158 0 -258 66t-101 185v56h10q106 -158 351 -158q152 0 220 114t68 347q-40 -74 -116 -118t-170 -44q-196 0 -306 114
t-110 288t126 298q126 125 308 125q434 1 434 -587z" />
    <glyph glyph-name="wasla" 
d="M51 252q-55 0 -99 -55t-63 -134h299q-12 189 -137 189zM-229 41v22h49v185h20q45 0 45 -49v-15q57 138 163 138t156 -69q52 -69 52 -161t-31 -92h-409q-45 0 -45 41z" />
    <glyph glyph-name="hamza_medial" 
d="M319 0h-583q-37 0 -61 25t-23 59v63h180l-25 43q-33 59 -32 152q0 164 88 266t235 103q231 0 269 -183q0 -80 -29 -143q-74 182 -250 182q-68 0 -108 -53t-41 -147q0 -178 69 -217l398 -3v-63q0 -32 -22 -58t-65 -26z" />
    <glyph glyph-name="xx.TahAbove" 
d="M0 252q-57 0 -100 -55t-62 -134h299q-12 189 -137 189zM-281 41v22h50v367h20q45 0 45 -49v-197q56 138 162 138t158 -69t51 -161q0 -92 -31 -92h-410q-45 0 -45 41z" />
    <glyph glyph-name="shadda_fathatan" 
d="M49 137q-162 -8 -299 -14q-27 0 -26 47q188 5 292 12q21 0 33 -45zM61 59q-137 -8 -299 -14q-27 0 -26 47l182 7t111 5q20 0 32 -45zM-258 -2h8l14 -145q2 -31 20.5 -49.5t39 -18.5t35 13.5t12.5 55.5t-10 107q-2 20 10 27.5t39 7.5l16 -150q6 -61 56 -61q25 0 39 20.5
t9 62.5t-10 99q0 27 46 27l16 -156q0 -88 -90 -96q-57 0 -90 35q-25 -33 -73 -33t-86 39t-38 182q0 33 37 33z" />
    <glyph glyph-name="hamza_above_damma" 
d="M-106 153.5q0 53.5 36.5 94.5t98.5 41q94 0 114 -82q0 -39 -20 -66q-35 86 -100 86q-55 0 -55.5 -68.5t24.5 -86.5h174v-33q0 -14 -12.5 -26.5t-30.5 -12.5h-248q-18 0 -29.5 12.5t-11.5 26.5v33h74q-14 28 -14 81.5zM88 623q49 0 84 -32t35 -83q0 -193 -381 -193
q-20 0 -25.5 8.5t-7.5 28.5l39 2q129 4 195 29q-53 41 -53.5 102t32.5 99.5t82 38.5zM84 584q-61 0 -61 -91q0 -44 33.5 -70t66.5 -5.5t33 70t-20.5 73t-51.5 23.5z" />
    <glyph glyph-name="hamza_above_sukun" 
d="M-106 153.5q0 53.5 36.5 94.5t98.5 41q94 0 114 -82q0 -39 -20 -66q-35 86 -100 86q-55 0 -55.5 -68.5t24.5 -86.5h174v-33q0 -14 -12.5 -26.5t-30.5 -12.5h-248q-18 0 -29.5 12.5t-11.5 26.5v33h74q-14 28 -14 81.5zM-80 461q0 -94 80 -94q37 0 56.5 33.5t19.5 82.5
q0 76 -68 88q-43 0 -65.5 -31.5t-22.5 -78.5zM6.5 623q65.5 0 101 -45.5t35.5 -108t-46 -108.5t-108 -46t-97 47.5t-35 112t42 106.5t107.5 42z" />
    <glyph glyph-name="hamza_above_fathatan" 
d="M-106 153.5q0 53.5 36.5 94.5t98.5 41q94 0 114 -82q0 -39 -20 -66q-35 86 -100 86q-55 0 -55.5 -68.5t24.5 -86.5h174v-33q0 -14 -12.5 -26.5t-30.5 -12.5h-248q-18 0 -29.5 12.5t-11.5 26.5v33h74q-14 28 -14 81.5zM-170 440q162 4 293 13q21 0 33 -45l-299 -15
q-27 0 -27 47zM-158 362q233 9 293 13q21 0 33 -45q-137 -8 -299 -15q-27 0 -27 47z" />
    <glyph glyph-name="hamza_above_dammatan" 
d="M125 412q68 0 68 86q0 39 -19.5 61.5t-50.5 22.5t-48.5 -22.5t-17.5 -58.5t19.5 -62.5t48.5 -26.5zM128 625q50 0 84 -35t34 -91t-46 -98.5t-142.5 -64t-155 -21.5t-64.5 6.5t-8 32.5l16 2q45 27 45 90q0 74 -73 74q-37 0 -56 -26q-8 16 -8 28t19.5 26.5t63.5 14.5
t76 -34.5t32 -77t-31 -91.5q98 8 154 23q-59 47 -59.5 105.5t34.5 97.5t85 39zM-106 153.5q0 53.5 36.5 94.5t98.5 41q94 0 114 -82q0 -39 -20 -66q-35 86 -100 86q-55 0 -55.5 -68.5t24.5 -86.5h174v-33q0 -14 -12.5 -26.5t-30.5 -12.5h-248q-18 0 -29.5 12.5t-11.5 26.5
v33h74q-14 28 -14 81.5z" />
    <glyph glyph-name="hamza_above_fatha" 
d="M-162 362q233 9 293 13q21 0 33 -45q-137 -8 -299 -15q-27 0 -27 47zM-106 153.5q0 53.5 36.5 94.5t98.5 41q94 0 114 -82q0 -39 -20 -66q-35 86 -100 86q-55 0 -55.5 -68.5t24.5 -86.5h174v-33q0 -14 -12.5 -26.5t-30.5 -12.5h-248q-18 0 -29.5 12.5t-11.5 26.5v33h74
q-14 28 -14 81.5z" />
    <glyph glyph-name="hamza_below_kasratan" 
d="M-84 -135q0 54 37 94.5t98 40.5q94 0 115 -82q0 -41 -21 -65q-35 86 -100 86q-55 0 -55 -80q0 -57 24 -76h174v-33q0 -14 -12.5 -26.5t-30.5 -12.5h-247q-18 0 -29.5 12.5t-11.5 26.5v33h73q-14 28 -14 82zM186 -362l-299 -15q-27 0 -26 47q162 4 293 13q20 0 32 -45z
M-127 -408q233 9 293 13q21 0 33 -45q-137 -8 -299 -15q-27 0 -27 47z" />
    <glyph glyph-name="hamza_below_kasra" 
d="M-84 -135q0 54 37 94.5t98 40.5q94 0 115 -82q0 -41 -21 -65q-35 86 -100 86q-55 0 -55 -80q0 -57 24 -76h174v-33q0 -14 -12.5 -26.5t-30.5 -12.5h-247q-18 0 -29.5 12.5t-11.5 26.5v33h73q-14 28 -14 82zM188 -365q-137 -8 -299 -14q-27 0 -26 47l182 7t111 6
q20 -1 32 -46z" />
    <glyph glyph-name="wasle" horiz-adv-x="210" 
d="M0 0v172h240v-172h-240z" />
    <glyph glyph-name="Kashida.Narrow" horiz-adv-x="387" 
d="M0 0v172h428v-172h-428z" />
    <glyph glyph-name="kashida.long" horiz-adv-x="428" 
d="M-2 0v172h432v-172h-432z" />
    <glyph glyph-name="tooth.init" horiz-adv-x="512" 
d="M430 395q0 -377 -287 -395h-174v172h129q147 0 156 154v372h55q69 0 95 -30t26 -107v-166z" />
    <glyph glyph-name="tooth.init.long" horiz-adv-x="512" 
d="M430 395q0 -377 -287 -395h-174v172h129q147 0 156 154v372h55q69 0 95 -30t26 -107v-166z" />
    <glyph glyph-name="logo" horiz-adv-x="2549" 
 />
    </font>
</defs>
</svg>
